%TF.GenerationSoftware,KiCad,Pcbnew,7.0.6*%
%TF.CreationDate,2023-11-19T12:43:32-07:00*%
%TF.ProjectId,SparkFun_BlueSMiRF-ESP32-PTH_panelized,53706172-6b46-4756-9e5f-426c7565534d,rev?*%
%TF.SameCoordinates,Original*%
%TF.FileFunction,Soldermask,Top*%
%TF.FilePolarity,Negative*%
%FSLAX46Y46*%
G04 Gerber Fmt 4.6, Leading zero omitted, Abs format (unit mm)*
G04 Created by KiCad (PCBNEW 7.0.6) date 2023-11-19 12:43:32*
%MOMM*%
%LPD*%
G01*
G04 APERTURE LIST*
G04 Aperture macros list*
%AMRoundRect*
0 Rectangle with rounded corners*
0 $1 Rounding radius*
0 $2 $3 $4 $5 $6 $7 $8 $9 X,Y pos of 4 corners*
0 Add a 4 corners polygon primitive as box body*
4,1,4,$2,$3,$4,$5,$6,$7,$8,$9,$2,$3,0*
0 Add four circle primitives for the rounded corners*
1,1,$1+$1,$2,$3*
1,1,$1+$1,$4,$5*
1,1,$1+$1,$6,$7*
1,1,$1+$1,$8,$9*
0 Add four rect primitives between the rounded corners*
20,1,$1+$1,$2,$3,$4,$5,0*
20,1,$1+$1,$4,$5,$6,$7,0*
20,1,$1+$1,$6,$7,$8,$9,0*
20,1,$1+$1,$8,$9,$2,$3,0*%
G04 Aperture macros list end*
%ADD10C,3.000000*%
%ADD11RoundRect,0.085000X-0.635000X0.317500X-0.635000X-0.317500X0.635000X-0.317500X0.635000X0.317500X0*%
%ADD12RoundRect,0.200000X0.200000X0.275000X-0.200000X0.275000X-0.200000X-0.275000X0.200000X-0.275000X0*%
%ADD13RoundRect,0.200000X-0.275000X0.200000X-0.275000X-0.200000X0.275000X-0.200000X0.275000X0.200000X0*%
%ADD14RoundRect,0.225000X0.225000X0.250000X-0.225000X0.250000X-0.225000X-0.250000X0.225000X-0.250000X0*%
%ADD15RoundRect,0.200000X-0.200000X-0.275000X0.200000X-0.275000X0.200000X0.275000X-0.200000X0.275000X0*%
%ADD16RoundRect,0.218750X-0.218750X-0.256250X0.218750X-0.256250X0.218750X0.256250X-0.218750X0.256250X0*%
%ADD17RoundRect,0.101600X0.500000X-0.450000X0.500000X0.450000X-0.500000X0.450000X-0.500000X-0.450000X0*%
%ADD18C,2.082800*%
%ADD19C,1.000000*%
%ADD20RoundRect,0.101600X0.200000X0.400000X-0.200000X0.400000X-0.200000X-0.400000X0.200000X-0.400000X0*%
%ADD21RoundRect,0.101600X0.400000X-0.200000X0.400000X0.200000X-0.400000X0.200000X-0.400000X-0.200000X0*%
%ADD22RoundRect,0.101600X0.725000X-0.725000X0.725000X0.725000X-0.725000X0.725000X-0.725000X-0.725000X0*%
%ADD23RoundRect,0.101600X0.350000X-0.350000X0.350000X0.350000X-0.350000X0.350000X-0.350000X-0.350000X0*%
%ADD24RoundRect,0.200000X0.275000X-0.200000X0.275000X0.200000X-0.275000X0.200000X-0.275000X-0.200000X0*%
%ADD25RoundRect,0.101600X-0.450000X0.400000X-0.450000X-0.400000X0.450000X-0.400000X0.450000X0.400000X0*%
%ADD26RoundRect,0.101600X0.275000X0.600000X-0.275000X0.600000X-0.275000X-0.600000X0.275000X-0.600000X0*%
%ADD27C,1.803200*%
G04 APERTURE END LIST*
D10*
%TO.C,*%
X138025000Y91940000D03*
%TD*%
%TO.C,*%
X-10025000Y91940000D03*
%TD*%
%TO.C,*%
X-10025000Y2000000D03*
%TD*%
D11*
%TO.C,JP2*%
X117840000Y86726400D03*
X117840000Y85913600D03*
%TD*%
%TO.C,JP2*%
X117840000Y70986400D03*
X117840000Y70173600D03*
%TD*%
%TO.C,JP2*%
X117840000Y55246400D03*
X117840000Y54433600D03*
%TD*%
%TO.C,JP2*%
X117840000Y39506400D03*
X117840000Y38693600D03*
%TD*%
%TO.C,JP2*%
X117840000Y23766400D03*
X117840000Y22953600D03*
%TD*%
%TO.C,JP2*%
X117840000Y8026400D03*
X117840000Y7213600D03*
%TD*%
%TO.C,JP2*%
X72890000Y86726400D03*
X72890000Y85913600D03*
%TD*%
%TO.C,JP2*%
X72890000Y70986400D03*
X72890000Y70173600D03*
%TD*%
%TO.C,JP2*%
X72890000Y55246400D03*
X72890000Y54433600D03*
%TD*%
%TO.C,JP2*%
X72890000Y39506400D03*
X72890000Y38693600D03*
%TD*%
%TO.C,JP2*%
X72890000Y23766400D03*
X72890000Y22953600D03*
%TD*%
%TO.C,JP2*%
X72890000Y8026400D03*
X72890000Y7213600D03*
%TD*%
%TO.C,JP2*%
X27940000Y86726400D03*
X27940000Y85913600D03*
%TD*%
%TO.C,JP2*%
X27940000Y70986400D03*
X27940000Y70173600D03*
%TD*%
%TO.C,JP2*%
X27940000Y55246400D03*
X27940000Y54433600D03*
%TD*%
%TO.C,JP2*%
X27940000Y39506400D03*
X27940000Y38693600D03*
%TD*%
%TO.C,JP2*%
X27940000Y23766400D03*
X27940000Y22953600D03*
%TD*%
D12*
%TO.C,R6*%
X122475000Y79970000D03*
X120825000Y79970000D03*
%TD*%
%TO.C,R6*%
X122475000Y64230000D03*
X120825000Y64230000D03*
%TD*%
%TO.C,R6*%
X122475000Y48490000D03*
X120825000Y48490000D03*
%TD*%
%TO.C,R6*%
X122475000Y32750000D03*
X120825000Y32750000D03*
%TD*%
%TO.C,R6*%
X122475000Y17010000D03*
X120825000Y17010000D03*
%TD*%
%TO.C,R6*%
X122475000Y1270000D03*
X120825000Y1270000D03*
%TD*%
%TO.C,R6*%
X77525000Y79970000D03*
X75875000Y79970000D03*
%TD*%
%TO.C,R6*%
X77525000Y64230000D03*
X75875000Y64230000D03*
%TD*%
%TO.C,R6*%
X77525000Y48490000D03*
X75875000Y48490000D03*
%TD*%
%TO.C,R6*%
X77525000Y32750000D03*
X75875000Y32750000D03*
%TD*%
%TO.C,R6*%
X77525000Y17010000D03*
X75875000Y17010000D03*
%TD*%
%TO.C,R6*%
X77525000Y1270000D03*
X75875000Y1270000D03*
%TD*%
%TO.C,R6*%
X32575000Y79970000D03*
X30925000Y79970000D03*
%TD*%
%TO.C,R6*%
X32575000Y64230000D03*
X30925000Y64230000D03*
%TD*%
%TO.C,R6*%
X32575000Y48490000D03*
X30925000Y48490000D03*
%TD*%
%TO.C,R6*%
X32575000Y32750000D03*
X30925000Y32750000D03*
%TD*%
%TO.C,R6*%
X32575000Y17010000D03*
X30925000Y17010000D03*
%TD*%
D13*
%TO.C,R8*%
X117840000Y89685000D03*
X117840000Y88035000D03*
%TD*%
%TO.C,R8*%
X117840000Y73945000D03*
X117840000Y72295000D03*
%TD*%
%TO.C,R8*%
X117840000Y58205000D03*
X117840000Y56555000D03*
%TD*%
%TO.C,R8*%
X117840000Y42465000D03*
X117840000Y40815000D03*
%TD*%
%TO.C,R8*%
X117840000Y26725000D03*
X117840000Y25075000D03*
%TD*%
%TO.C,R8*%
X117840000Y10985000D03*
X117840000Y9335000D03*
%TD*%
%TO.C,R8*%
X72890000Y89685000D03*
X72890000Y88035000D03*
%TD*%
%TO.C,R8*%
X72890000Y73945000D03*
X72890000Y72295000D03*
%TD*%
%TO.C,R8*%
X72890000Y58205000D03*
X72890000Y56555000D03*
%TD*%
%TO.C,R8*%
X72890000Y42465000D03*
X72890000Y40815000D03*
%TD*%
%TO.C,R8*%
X72890000Y26725000D03*
X72890000Y25075000D03*
%TD*%
%TO.C,R8*%
X72890000Y10985000D03*
X72890000Y9335000D03*
%TD*%
%TO.C,R8*%
X27940000Y89685000D03*
X27940000Y88035000D03*
%TD*%
%TO.C,R8*%
X27940000Y73945000D03*
X27940000Y72295000D03*
%TD*%
%TO.C,R8*%
X27940000Y58205000D03*
X27940000Y56555000D03*
%TD*%
%TO.C,R8*%
X27940000Y42465000D03*
X27940000Y40815000D03*
%TD*%
%TO.C,R8*%
X27940000Y26725000D03*
X27940000Y25075000D03*
%TD*%
D14*
%TO.C,C4*%
X114805000Y79970000D03*
X113255000Y79970000D03*
%TD*%
%TO.C,C4*%
X114805000Y64230000D03*
X113255000Y64230000D03*
%TD*%
%TO.C,C4*%
X114805000Y48490000D03*
X113255000Y48490000D03*
%TD*%
%TO.C,C4*%
X114805000Y32750000D03*
X113255000Y32750000D03*
%TD*%
%TO.C,C4*%
X114805000Y17010000D03*
X113255000Y17010000D03*
%TD*%
%TO.C,C4*%
X114805000Y1270000D03*
X113255000Y1270000D03*
%TD*%
%TO.C,C4*%
X69855000Y79970000D03*
X68305000Y79970000D03*
%TD*%
%TO.C,C4*%
X69855000Y64230000D03*
X68305000Y64230000D03*
%TD*%
%TO.C,C4*%
X69855000Y48490000D03*
X68305000Y48490000D03*
%TD*%
%TO.C,C4*%
X69855000Y32750000D03*
X68305000Y32750000D03*
%TD*%
%TO.C,C4*%
X69855000Y17010000D03*
X68305000Y17010000D03*
%TD*%
%TO.C,C4*%
X69855000Y1270000D03*
X68305000Y1270000D03*
%TD*%
%TO.C,C4*%
X24905000Y79970000D03*
X23355000Y79970000D03*
%TD*%
%TO.C,C4*%
X24905000Y64230000D03*
X23355000Y64230000D03*
%TD*%
%TO.C,C4*%
X24905000Y48490000D03*
X23355000Y48490000D03*
%TD*%
%TO.C,C4*%
X24905000Y32750000D03*
X23355000Y32750000D03*
%TD*%
%TO.C,C4*%
X24905000Y17010000D03*
X23355000Y17010000D03*
%TD*%
D15*
%TO.C,R4*%
X107935000Y90130000D03*
X109585000Y90130000D03*
%TD*%
%TO.C,R4*%
X107935000Y74390000D03*
X109585000Y74390000D03*
%TD*%
%TO.C,R4*%
X107935000Y58650000D03*
X109585000Y58650000D03*
%TD*%
%TO.C,R4*%
X107935000Y42910000D03*
X109585000Y42910000D03*
%TD*%
%TO.C,R4*%
X107935000Y27170000D03*
X109585000Y27170000D03*
%TD*%
%TO.C,R4*%
X107935000Y11430000D03*
X109585000Y11430000D03*
%TD*%
%TO.C,R4*%
X62985000Y90130000D03*
X64635000Y90130000D03*
%TD*%
%TO.C,R4*%
X62985000Y74390000D03*
X64635000Y74390000D03*
%TD*%
%TO.C,R4*%
X62985000Y58650000D03*
X64635000Y58650000D03*
%TD*%
%TO.C,R4*%
X62985000Y42910000D03*
X64635000Y42910000D03*
%TD*%
%TO.C,R4*%
X62985000Y27170000D03*
X64635000Y27170000D03*
%TD*%
%TO.C,R4*%
X62985000Y11430000D03*
X64635000Y11430000D03*
%TD*%
%TO.C,R4*%
X18035000Y90130000D03*
X19685000Y90130000D03*
%TD*%
%TO.C,R4*%
X18035000Y74390000D03*
X19685000Y74390000D03*
%TD*%
%TO.C,R4*%
X18035000Y58650000D03*
X19685000Y58650000D03*
%TD*%
%TO.C,R4*%
X18035000Y42910000D03*
X19685000Y42910000D03*
%TD*%
%TO.C,R4*%
X18035000Y27170000D03*
X19685000Y27170000D03*
%TD*%
D16*
%TO.C,D2*%
X117052500Y79970000D03*
X118627500Y79970000D03*
%TD*%
%TO.C,D2*%
X117052500Y64230000D03*
X118627500Y64230000D03*
%TD*%
%TO.C,D2*%
X117052500Y48490000D03*
X118627500Y48490000D03*
%TD*%
%TO.C,D2*%
X117052500Y32750000D03*
X118627500Y32750000D03*
%TD*%
%TO.C,D2*%
X117052500Y17010000D03*
X118627500Y17010000D03*
%TD*%
%TO.C,D2*%
X117052500Y1270000D03*
X118627500Y1270000D03*
%TD*%
%TO.C,D2*%
X72102500Y79970000D03*
X73677500Y79970000D03*
%TD*%
%TO.C,D2*%
X72102500Y64230000D03*
X73677500Y64230000D03*
%TD*%
%TO.C,D2*%
X72102500Y48490000D03*
X73677500Y48490000D03*
%TD*%
%TO.C,D2*%
X72102500Y32750000D03*
X73677500Y32750000D03*
%TD*%
%TO.C,D2*%
X72102500Y17010000D03*
X73677500Y17010000D03*
%TD*%
%TO.C,D2*%
X72102500Y1270000D03*
X73677500Y1270000D03*
%TD*%
%TO.C,D2*%
X27152500Y79970000D03*
X28727500Y79970000D03*
%TD*%
%TO.C,D2*%
X27152500Y64230000D03*
X28727500Y64230000D03*
%TD*%
%TO.C,D2*%
X27152500Y48490000D03*
X28727500Y48490000D03*
%TD*%
%TO.C,D2*%
X27152500Y32750000D03*
X28727500Y32750000D03*
%TD*%
%TO.C,D2*%
X27152500Y17010000D03*
X28727500Y17010000D03*
%TD*%
D17*
%TO.C,SW1*%
X108150000Y84270000D03*
X108150000Y88370000D03*
X109750000Y84270000D03*
X109750000Y88370000D03*
%TD*%
%TO.C,SW1*%
X108150000Y68530000D03*
X108150000Y72630000D03*
X109750000Y68530000D03*
X109750000Y72630000D03*
%TD*%
%TO.C,SW1*%
X108150000Y52790000D03*
X108150000Y56890000D03*
X109750000Y52790000D03*
X109750000Y56890000D03*
%TD*%
%TO.C,SW1*%
X108150000Y37050000D03*
X108150000Y41150000D03*
X109750000Y37050000D03*
X109750000Y41150000D03*
%TD*%
%TO.C,SW1*%
X108150000Y21310000D03*
X108150000Y25410000D03*
X109750000Y21310000D03*
X109750000Y25410000D03*
%TD*%
%TO.C,SW1*%
X108150000Y5570000D03*
X108150000Y9670000D03*
X109750000Y5570000D03*
X109750000Y9670000D03*
%TD*%
%TO.C,SW1*%
X63200000Y84270000D03*
X63200000Y88370000D03*
X64800000Y84270000D03*
X64800000Y88370000D03*
%TD*%
%TO.C,SW1*%
X63200000Y68530000D03*
X63200000Y72630000D03*
X64800000Y68530000D03*
X64800000Y72630000D03*
%TD*%
%TO.C,SW1*%
X63200000Y52790000D03*
X63200000Y56890000D03*
X64800000Y52790000D03*
X64800000Y56890000D03*
%TD*%
%TO.C,SW1*%
X63200000Y37050000D03*
X63200000Y41150000D03*
X64800000Y37050000D03*
X64800000Y41150000D03*
%TD*%
%TO.C,SW1*%
X63200000Y21310000D03*
X63200000Y25410000D03*
X64800000Y21310000D03*
X64800000Y25410000D03*
%TD*%
%TO.C,SW1*%
X63200000Y5570000D03*
X63200000Y9670000D03*
X64800000Y5570000D03*
X64800000Y9670000D03*
%TD*%
%TO.C,SW1*%
X18250000Y84270000D03*
X18250000Y88370000D03*
X19850000Y84270000D03*
X19850000Y88370000D03*
%TD*%
%TO.C,SW1*%
X18250000Y68530000D03*
X18250000Y72630000D03*
X19850000Y68530000D03*
X19850000Y72630000D03*
%TD*%
%TO.C,SW1*%
X18250000Y52790000D03*
X18250000Y56890000D03*
X19850000Y52790000D03*
X19850000Y56890000D03*
%TD*%
%TO.C,SW1*%
X18250000Y37050000D03*
X18250000Y41150000D03*
X19850000Y37050000D03*
X19850000Y41150000D03*
%TD*%
%TO.C,SW1*%
X18250000Y21310000D03*
X18250000Y25410000D03*
X19850000Y21310000D03*
X19850000Y25410000D03*
%TD*%
D18*
%TO.C,J1*%
X126730000Y92670000D03*
X126730000Y90130000D03*
X126730000Y87590000D03*
X126730000Y85050000D03*
X126730000Y82510000D03*
X126730000Y79970000D03*
%TD*%
%TO.C,J1*%
X126730000Y76930000D03*
X126730000Y74390000D03*
X126730000Y71850000D03*
X126730000Y69310000D03*
X126730000Y66770000D03*
X126730000Y64230000D03*
%TD*%
%TO.C,J1*%
X126730000Y61190000D03*
X126730000Y58650000D03*
X126730000Y56110000D03*
X126730000Y53570000D03*
X126730000Y51030000D03*
X126730000Y48490000D03*
%TD*%
%TO.C,J1*%
X126730000Y45450000D03*
X126730000Y42910000D03*
X126730000Y40370000D03*
X126730000Y37830000D03*
X126730000Y35290000D03*
X126730000Y32750000D03*
%TD*%
%TO.C,J1*%
X126730000Y29710000D03*
X126730000Y27170000D03*
X126730000Y24630000D03*
X126730000Y22090000D03*
X126730000Y19550000D03*
X126730000Y17010000D03*
%TD*%
%TO.C,J1*%
X126730000Y13970000D03*
X126730000Y11430000D03*
X126730000Y8890000D03*
X126730000Y6350000D03*
X126730000Y3810000D03*
X126730000Y1270000D03*
%TD*%
%TO.C,J1*%
X81780000Y92670000D03*
X81780000Y90130000D03*
X81780000Y87590000D03*
X81780000Y85050000D03*
X81780000Y82510000D03*
X81780000Y79970000D03*
%TD*%
%TO.C,J1*%
X81780000Y76930000D03*
X81780000Y74390000D03*
X81780000Y71850000D03*
X81780000Y69310000D03*
X81780000Y66770000D03*
X81780000Y64230000D03*
%TD*%
%TO.C,J1*%
X81780000Y61190000D03*
X81780000Y58650000D03*
X81780000Y56110000D03*
X81780000Y53570000D03*
X81780000Y51030000D03*
X81780000Y48490000D03*
%TD*%
%TO.C,J1*%
X81780000Y45450000D03*
X81780000Y42910000D03*
X81780000Y40370000D03*
X81780000Y37830000D03*
X81780000Y35290000D03*
X81780000Y32750000D03*
%TD*%
%TO.C,J1*%
X81780000Y29710000D03*
X81780000Y27170000D03*
X81780000Y24630000D03*
X81780000Y22090000D03*
X81780000Y19550000D03*
X81780000Y17010000D03*
%TD*%
%TO.C,J1*%
X81780000Y13970000D03*
X81780000Y11430000D03*
X81780000Y8890000D03*
X81780000Y6350000D03*
X81780000Y3810000D03*
X81780000Y1270000D03*
%TD*%
%TO.C,J1*%
X36830000Y92670000D03*
X36830000Y90130000D03*
X36830000Y87590000D03*
X36830000Y85050000D03*
X36830000Y82510000D03*
X36830000Y79970000D03*
%TD*%
%TO.C,J1*%
X36830000Y76930000D03*
X36830000Y74390000D03*
X36830000Y71850000D03*
X36830000Y69310000D03*
X36830000Y66770000D03*
X36830000Y64230000D03*
%TD*%
%TO.C,J1*%
X36830000Y61190000D03*
X36830000Y58650000D03*
X36830000Y56110000D03*
X36830000Y53570000D03*
X36830000Y51030000D03*
X36830000Y48490000D03*
%TD*%
%TO.C,J1*%
X36830000Y45450000D03*
X36830000Y42910000D03*
X36830000Y40370000D03*
X36830000Y37830000D03*
X36830000Y35290000D03*
X36830000Y32750000D03*
%TD*%
%TO.C,J1*%
X36830000Y29710000D03*
X36830000Y27170000D03*
X36830000Y24630000D03*
X36830000Y22090000D03*
X36830000Y19550000D03*
X36830000Y17010000D03*
%TD*%
D19*
%TO.C,FID1*%
X95996000Y93432000D03*
%TD*%
%TO.C,FID1*%
X95996000Y77692000D03*
%TD*%
%TO.C,FID1*%
X95996000Y61952000D03*
%TD*%
%TO.C,FID1*%
X95996000Y46212000D03*
%TD*%
%TO.C,FID1*%
X95996000Y30472000D03*
%TD*%
%TO.C,FID1*%
X95996000Y14732000D03*
%TD*%
%TO.C,FID1*%
X51046000Y93432000D03*
%TD*%
%TO.C,FID1*%
X51046000Y77692000D03*
%TD*%
%TO.C,FID1*%
X51046000Y61952000D03*
%TD*%
%TO.C,FID1*%
X51046000Y46212000D03*
%TD*%
%TO.C,FID1*%
X51046000Y30472000D03*
%TD*%
%TO.C,FID1*%
X51046000Y14732000D03*
%TD*%
%TO.C,FID1*%
X6096000Y93432000D03*
%TD*%
%TO.C,FID1*%
X6096000Y77692000D03*
%TD*%
%TO.C,FID1*%
X6096000Y61952000D03*
%TD*%
%TO.C,FID1*%
X6096000Y46212000D03*
%TD*%
%TO.C,FID1*%
X6096000Y30472000D03*
%TD*%
D14*
%TO.C,C2*%
X114805000Y92670000D03*
X113255000Y92670000D03*
%TD*%
%TO.C,C2*%
X114805000Y76930000D03*
X113255000Y76930000D03*
%TD*%
%TO.C,C2*%
X114805000Y61190000D03*
X113255000Y61190000D03*
%TD*%
%TO.C,C2*%
X114805000Y45450000D03*
X113255000Y45450000D03*
%TD*%
%TO.C,C2*%
X114805000Y29710000D03*
X113255000Y29710000D03*
%TD*%
%TO.C,C2*%
X114805000Y13970000D03*
X113255000Y13970000D03*
%TD*%
%TO.C,C2*%
X69855000Y92670000D03*
X68305000Y92670000D03*
%TD*%
%TO.C,C2*%
X69855000Y76930000D03*
X68305000Y76930000D03*
%TD*%
%TO.C,C2*%
X69855000Y61190000D03*
X68305000Y61190000D03*
%TD*%
%TO.C,C2*%
X69855000Y45450000D03*
X68305000Y45450000D03*
%TD*%
%TO.C,C2*%
X69855000Y29710000D03*
X68305000Y29710000D03*
%TD*%
%TO.C,C2*%
X69855000Y13970000D03*
X68305000Y13970000D03*
%TD*%
%TO.C,C2*%
X24905000Y92670000D03*
X23355000Y92670000D03*
%TD*%
%TO.C,C2*%
X24905000Y76930000D03*
X23355000Y76930000D03*
%TD*%
%TO.C,C2*%
X24905000Y61190000D03*
X23355000Y61190000D03*
%TD*%
%TO.C,C2*%
X24905000Y45450000D03*
X23355000Y45450000D03*
%TD*%
%TO.C,C2*%
X24905000Y29710000D03*
X23355000Y29710000D03*
%TD*%
D13*
%TO.C,R7*%
X117840000Y84605000D03*
X117840000Y82955000D03*
%TD*%
%TO.C,R7*%
X117840000Y68865000D03*
X117840000Y67215000D03*
%TD*%
%TO.C,R7*%
X117840000Y53125000D03*
X117840000Y51475000D03*
%TD*%
%TO.C,R7*%
X117840000Y37385000D03*
X117840000Y35735000D03*
%TD*%
%TO.C,R7*%
X117840000Y21645000D03*
X117840000Y19995000D03*
%TD*%
%TO.C,R7*%
X117840000Y5905000D03*
X117840000Y4255000D03*
%TD*%
%TO.C,R7*%
X72890000Y84605000D03*
X72890000Y82955000D03*
%TD*%
%TO.C,R7*%
X72890000Y68865000D03*
X72890000Y67215000D03*
%TD*%
%TO.C,R7*%
X72890000Y53125000D03*
X72890000Y51475000D03*
%TD*%
%TO.C,R7*%
X72890000Y37385000D03*
X72890000Y35735000D03*
%TD*%
%TO.C,R7*%
X72890000Y21645000D03*
X72890000Y19995000D03*
%TD*%
%TO.C,R7*%
X72890000Y5905000D03*
X72890000Y4255000D03*
%TD*%
%TO.C,R7*%
X27940000Y84605000D03*
X27940000Y82955000D03*
%TD*%
%TO.C,R7*%
X27940000Y68865000D03*
X27940000Y67215000D03*
%TD*%
%TO.C,R7*%
X27940000Y53125000D03*
X27940000Y51475000D03*
%TD*%
%TO.C,R7*%
X27940000Y37385000D03*
X27940000Y35735000D03*
%TD*%
%TO.C,R7*%
X27940000Y21645000D03*
X27940000Y19995000D03*
%TD*%
D20*
%TO.C,U1*%
X97150000Y80420000D03*
X97950000Y80420000D03*
X98750000Y80420000D03*
X99550000Y80420000D03*
X100350000Y80420000D03*
X101150000Y80420000D03*
X101950000Y80420000D03*
X102750000Y80420000D03*
X103550000Y80420000D03*
X104350000Y80420000D03*
X105150000Y80420000D03*
D21*
X106050000Y81520000D03*
X106050000Y82320000D03*
X106050000Y83120000D03*
X106050000Y83920000D03*
X106050000Y84720000D03*
X106050000Y85520000D03*
X106050000Y86320000D03*
X106050000Y87120000D03*
X106050000Y87920000D03*
X106050000Y88720000D03*
X106050000Y89520000D03*
X106050000Y90320000D03*
X106050000Y91120000D03*
D20*
X105150000Y92220000D03*
X104350000Y92220000D03*
X103550000Y92220000D03*
X102750000Y92220000D03*
X101950000Y92220000D03*
X101150000Y92220000D03*
X100350000Y92220000D03*
X99550000Y92220000D03*
X98750000Y92220000D03*
X97950000Y92220000D03*
X97150000Y92220000D03*
D21*
X96250000Y91120000D03*
X96250000Y90320000D03*
X96250000Y89520000D03*
X96250000Y88720000D03*
X96250000Y87920000D03*
X96250000Y87120000D03*
X96250000Y86320000D03*
X96250000Y85520000D03*
X96250000Y84720000D03*
X96250000Y83920000D03*
X96250000Y83120000D03*
X96250000Y82320000D03*
X96250000Y81520000D03*
D22*
X99175000Y84345000D03*
X101150000Y84345000D03*
X103125000Y84345000D03*
X103125000Y86320000D03*
X103125000Y88295000D03*
X101150000Y88295000D03*
X99175000Y88295000D03*
X99175000Y86320000D03*
X101150000Y86320000D03*
D23*
X96200000Y92270000D03*
X106100000Y92270000D03*
X106100000Y80370000D03*
X96200000Y80370000D03*
%TD*%
D20*
%TO.C,U1*%
X97150000Y64680000D03*
X97950000Y64680000D03*
X98750000Y64680000D03*
X99550000Y64680000D03*
X100350000Y64680000D03*
X101150000Y64680000D03*
X101950000Y64680000D03*
X102750000Y64680000D03*
X103550000Y64680000D03*
X104350000Y64680000D03*
X105150000Y64680000D03*
D21*
X106050000Y65780000D03*
X106050000Y66580000D03*
X106050000Y67380000D03*
X106050000Y68180000D03*
X106050000Y68980000D03*
X106050000Y69780000D03*
X106050000Y70580000D03*
X106050000Y71380000D03*
X106050000Y72180000D03*
X106050000Y72980000D03*
X106050000Y73780000D03*
X106050000Y74580000D03*
X106050000Y75380000D03*
D20*
X105150000Y76480000D03*
X104350000Y76480000D03*
X103550000Y76480000D03*
X102750000Y76480000D03*
X101950000Y76480000D03*
X101150000Y76480000D03*
X100350000Y76480000D03*
X99550000Y76480000D03*
X98750000Y76480000D03*
X97950000Y76480000D03*
X97150000Y76480000D03*
D21*
X96250000Y75380000D03*
X96250000Y74580000D03*
X96250000Y73780000D03*
X96250000Y72980000D03*
X96250000Y72180000D03*
X96250000Y71380000D03*
X96250000Y70580000D03*
X96250000Y69780000D03*
X96250000Y68980000D03*
X96250000Y68180000D03*
X96250000Y67380000D03*
X96250000Y66580000D03*
X96250000Y65780000D03*
D22*
X99175000Y68605000D03*
X101150000Y68605000D03*
X103125000Y68605000D03*
X103125000Y70580000D03*
X103125000Y72555000D03*
X101150000Y72555000D03*
X99175000Y72555000D03*
X99175000Y70580000D03*
X101150000Y70580000D03*
D23*
X96200000Y76530000D03*
X106100000Y76530000D03*
X106100000Y64630000D03*
X96200000Y64630000D03*
%TD*%
D20*
%TO.C,U1*%
X97150000Y48940000D03*
X97950000Y48940000D03*
X98750000Y48940000D03*
X99550000Y48940000D03*
X100350000Y48940000D03*
X101150000Y48940000D03*
X101950000Y48940000D03*
X102750000Y48940000D03*
X103550000Y48940000D03*
X104350000Y48940000D03*
X105150000Y48940000D03*
D21*
X106050000Y50040000D03*
X106050000Y50840000D03*
X106050000Y51640000D03*
X106050000Y52440000D03*
X106050000Y53240000D03*
X106050000Y54040000D03*
X106050000Y54840000D03*
X106050000Y55640000D03*
X106050000Y56440000D03*
X106050000Y57240000D03*
X106050000Y58040000D03*
X106050000Y58840000D03*
X106050000Y59640000D03*
D20*
X105150000Y60740000D03*
X104350000Y60740000D03*
X103550000Y60740000D03*
X102750000Y60740000D03*
X101950000Y60740000D03*
X101150000Y60740000D03*
X100350000Y60740000D03*
X99550000Y60740000D03*
X98750000Y60740000D03*
X97950000Y60740000D03*
X97150000Y60740000D03*
D21*
X96250000Y59640000D03*
X96250000Y58840000D03*
X96250000Y58040000D03*
X96250000Y57240000D03*
X96250000Y56440000D03*
X96250000Y55640000D03*
X96250000Y54840000D03*
X96250000Y54040000D03*
X96250000Y53240000D03*
X96250000Y52440000D03*
X96250000Y51640000D03*
X96250000Y50840000D03*
X96250000Y50040000D03*
D22*
X99175000Y52865000D03*
X101150000Y52865000D03*
X103125000Y52865000D03*
X103125000Y54840000D03*
X103125000Y56815000D03*
X101150000Y56815000D03*
X99175000Y56815000D03*
X99175000Y54840000D03*
X101150000Y54840000D03*
D23*
X96200000Y60790000D03*
X106100000Y60790000D03*
X106100000Y48890000D03*
X96200000Y48890000D03*
%TD*%
D20*
%TO.C,U1*%
X97150000Y33200000D03*
X97950000Y33200000D03*
X98750000Y33200000D03*
X99550000Y33200000D03*
X100350000Y33200000D03*
X101150000Y33200000D03*
X101950000Y33200000D03*
X102750000Y33200000D03*
X103550000Y33200000D03*
X104350000Y33200000D03*
X105150000Y33200000D03*
D21*
X106050000Y34300000D03*
X106050000Y35100000D03*
X106050000Y35900000D03*
X106050000Y36700000D03*
X106050000Y37500000D03*
X106050000Y38300000D03*
X106050000Y39100000D03*
X106050000Y39900000D03*
X106050000Y40700000D03*
X106050000Y41500000D03*
X106050000Y42300000D03*
X106050000Y43100000D03*
X106050000Y43900000D03*
D20*
X105150000Y45000000D03*
X104350000Y45000000D03*
X103550000Y45000000D03*
X102750000Y45000000D03*
X101950000Y45000000D03*
X101150000Y45000000D03*
X100350000Y45000000D03*
X99550000Y45000000D03*
X98750000Y45000000D03*
X97950000Y45000000D03*
X97150000Y45000000D03*
D21*
X96250000Y43900000D03*
X96250000Y43100000D03*
X96250000Y42300000D03*
X96250000Y41500000D03*
X96250000Y40700000D03*
X96250000Y39900000D03*
X96250000Y39100000D03*
X96250000Y38300000D03*
X96250000Y37500000D03*
X96250000Y36700000D03*
X96250000Y35900000D03*
X96250000Y35100000D03*
X96250000Y34300000D03*
D22*
X99175000Y37125000D03*
X101150000Y37125000D03*
X103125000Y37125000D03*
X103125000Y39100000D03*
X103125000Y41075000D03*
X101150000Y41075000D03*
X99175000Y41075000D03*
X99175000Y39100000D03*
X101150000Y39100000D03*
D23*
X96200000Y45050000D03*
X106100000Y45050000D03*
X106100000Y33150000D03*
X96200000Y33150000D03*
%TD*%
D20*
%TO.C,U1*%
X97150000Y17460000D03*
X97950000Y17460000D03*
X98750000Y17460000D03*
X99550000Y17460000D03*
X100350000Y17460000D03*
X101150000Y17460000D03*
X101950000Y17460000D03*
X102750000Y17460000D03*
X103550000Y17460000D03*
X104350000Y17460000D03*
X105150000Y17460000D03*
D21*
X106050000Y18560000D03*
X106050000Y19360000D03*
X106050000Y20160000D03*
X106050000Y20960000D03*
X106050000Y21760000D03*
X106050000Y22560000D03*
X106050000Y23360000D03*
X106050000Y24160000D03*
X106050000Y24960000D03*
X106050000Y25760000D03*
X106050000Y26560000D03*
X106050000Y27360000D03*
X106050000Y28160000D03*
D20*
X105150000Y29260000D03*
X104350000Y29260000D03*
X103550000Y29260000D03*
X102750000Y29260000D03*
X101950000Y29260000D03*
X101150000Y29260000D03*
X100350000Y29260000D03*
X99550000Y29260000D03*
X98750000Y29260000D03*
X97950000Y29260000D03*
X97150000Y29260000D03*
D21*
X96250000Y28160000D03*
X96250000Y27360000D03*
X96250000Y26560000D03*
X96250000Y25760000D03*
X96250000Y24960000D03*
X96250000Y24160000D03*
X96250000Y23360000D03*
X96250000Y22560000D03*
X96250000Y21760000D03*
X96250000Y20960000D03*
X96250000Y20160000D03*
X96250000Y19360000D03*
X96250000Y18560000D03*
D22*
X99175000Y21385000D03*
X101150000Y21385000D03*
X103125000Y21385000D03*
X103125000Y23360000D03*
X103125000Y25335000D03*
X101150000Y25335000D03*
X99175000Y25335000D03*
X99175000Y23360000D03*
X101150000Y23360000D03*
D23*
X96200000Y29310000D03*
X106100000Y29310000D03*
X106100000Y17410000D03*
X96200000Y17410000D03*
%TD*%
D20*
%TO.C,U1*%
X97150000Y1720000D03*
X97950000Y1720000D03*
X98750000Y1720000D03*
X99550000Y1720000D03*
X100350000Y1720000D03*
X101150000Y1720000D03*
X101950000Y1720000D03*
X102750000Y1720000D03*
X103550000Y1720000D03*
X104350000Y1720000D03*
X105150000Y1720000D03*
D21*
X106050000Y2820000D03*
X106050000Y3620000D03*
X106050000Y4420000D03*
X106050000Y5220000D03*
X106050000Y6020000D03*
X106050000Y6820000D03*
X106050000Y7620000D03*
X106050000Y8420000D03*
X106050000Y9220000D03*
X106050000Y10020000D03*
X106050000Y10820000D03*
X106050000Y11620000D03*
X106050000Y12420000D03*
D20*
X105150000Y13520000D03*
X104350000Y13520000D03*
X103550000Y13520000D03*
X102750000Y13520000D03*
X101950000Y13520000D03*
X101150000Y13520000D03*
X100350000Y13520000D03*
X99550000Y13520000D03*
X98750000Y13520000D03*
X97950000Y13520000D03*
X97150000Y13520000D03*
D21*
X96250000Y12420000D03*
X96250000Y11620000D03*
X96250000Y10820000D03*
X96250000Y10020000D03*
X96250000Y9220000D03*
X96250000Y8420000D03*
X96250000Y7620000D03*
X96250000Y6820000D03*
X96250000Y6020000D03*
X96250000Y5220000D03*
X96250000Y4420000D03*
X96250000Y3620000D03*
X96250000Y2820000D03*
D22*
X99175000Y5645000D03*
X101150000Y5645000D03*
X103125000Y5645000D03*
X103125000Y7620000D03*
X103125000Y9595000D03*
X101150000Y9595000D03*
X99175000Y9595000D03*
X99175000Y7620000D03*
X101150000Y7620000D03*
D23*
X96200000Y13570000D03*
X106100000Y13570000D03*
X106100000Y1670000D03*
X96200000Y1670000D03*
%TD*%
D20*
%TO.C,U1*%
X52200000Y80420000D03*
X53000000Y80420000D03*
X53800000Y80420000D03*
X54600000Y80420000D03*
X55400000Y80420000D03*
X56200000Y80420000D03*
X57000000Y80420000D03*
X57800000Y80420000D03*
X58600000Y80420000D03*
X59400000Y80420000D03*
X60200000Y80420000D03*
D21*
X61100000Y81520000D03*
X61100000Y82320000D03*
X61100000Y83120000D03*
X61100000Y83920000D03*
X61100000Y84720000D03*
X61100000Y85520000D03*
X61100000Y86320000D03*
X61100000Y87120000D03*
X61100000Y87920000D03*
X61100000Y88720000D03*
X61100000Y89520000D03*
X61100000Y90320000D03*
X61100000Y91120000D03*
D20*
X60200000Y92220000D03*
X59400000Y92220000D03*
X58600000Y92220000D03*
X57800000Y92220000D03*
X57000000Y92220000D03*
X56200000Y92220000D03*
X55400000Y92220000D03*
X54600000Y92220000D03*
X53800000Y92220000D03*
X53000000Y92220000D03*
X52200000Y92220000D03*
D21*
X51300000Y91120000D03*
X51300000Y90320000D03*
X51300000Y89520000D03*
X51300000Y88720000D03*
X51300000Y87920000D03*
X51300000Y87120000D03*
X51300000Y86320000D03*
X51300000Y85520000D03*
X51300000Y84720000D03*
X51300000Y83920000D03*
X51300000Y83120000D03*
X51300000Y82320000D03*
X51300000Y81520000D03*
D22*
X54225000Y84345000D03*
X56200000Y84345000D03*
X58175000Y84345000D03*
X58175000Y86320000D03*
X58175000Y88295000D03*
X56200000Y88295000D03*
X54225000Y88295000D03*
X54225000Y86320000D03*
X56200000Y86320000D03*
D23*
X51250000Y92270000D03*
X61150000Y92270000D03*
X61150000Y80370000D03*
X51250000Y80370000D03*
%TD*%
D20*
%TO.C,U1*%
X52200000Y64680000D03*
X53000000Y64680000D03*
X53800000Y64680000D03*
X54600000Y64680000D03*
X55400000Y64680000D03*
X56200000Y64680000D03*
X57000000Y64680000D03*
X57800000Y64680000D03*
X58600000Y64680000D03*
X59400000Y64680000D03*
X60200000Y64680000D03*
D21*
X61100000Y65780000D03*
X61100000Y66580000D03*
X61100000Y67380000D03*
X61100000Y68180000D03*
X61100000Y68980000D03*
X61100000Y69780000D03*
X61100000Y70580000D03*
X61100000Y71380000D03*
X61100000Y72180000D03*
X61100000Y72980000D03*
X61100000Y73780000D03*
X61100000Y74580000D03*
X61100000Y75380000D03*
D20*
X60200000Y76480000D03*
X59400000Y76480000D03*
X58600000Y76480000D03*
X57800000Y76480000D03*
X57000000Y76480000D03*
X56200000Y76480000D03*
X55400000Y76480000D03*
X54600000Y76480000D03*
X53800000Y76480000D03*
X53000000Y76480000D03*
X52200000Y76480000D03*
D21*
X51300000Y75380000D03*
X51300000Y74580000D03*
X51300000Y73780000D03*
X51300000Y72980000D03*
X51300000Y72180000D03*
X51300000Y71380000D03*
X51300000Y70580000D03*
X51300000Y69780000D03*
X51300000Y68980000D03*
X51300000Y68180000D03*
X51300000Y67380000D03*
X51300000Y66580000D03*
X51300000Y65780000D03*
D22*
X54225000Y68605000D03*
X56200000Y68605000D03*
X58175000Y68605000D03*
X58175000Y70580000D03*
X58175000Y72555000D03*
X56200000Y72555000D03*
X54225000Y72555000D03*
X54225000Y70580000D03*
X56200000Y70580000D03*
D23*
X51250000Y76530000D03*
X61150000Y76530000D03*
X61150000Y64630000D03*
X51250000Y64630000D03*
%TD*%
D20*
%TO.C,U1*%
X52200000Y48940000D03*
X53000000Y48940000D03*
X53800000Y48940000D03*
X54600000Y48940000D03*
X55400000Y48940000D03*
X56200000Y48940000D03*
X57000000Y48940000D03*
X57800000Y48940000D03*
X58600000Y48940000D03*
X59400000Y48940000D03*
X60200000Y48940000D03*
D21*
X61100000Y50040000D03*
X61100000Y50840000D03*
X61100000Y51640000D03*
X61100000Y52440000D03*
X61100000Y53240000D03*
X61100000Y54040000D03*
X61100000Y54840000D03*
X61100000Y55640000D03*
X61100000Y56440000D03*
X61100000Y57240000D03*
X61100000Y58040000D03*
X61100000Y58840000D03*
X61100000Y59640000D03*
D20*
X60200000Y60740000D03*
X59400000Y60740000D03*
X58600000Y60740000D03*
X57800000Y60740000D03*
X57000000Y60740000D03*
X56200000Y60740000D03*
X55400000Y60740000D03*
X54600000Y60740000D03*
X53800000Y60740000D03*
X53000000Y60740000D03*
X52200000Y60740000D03*
D21*
X51300000Y59640000D03*
X51300000Y58840000D03*
X51300000Y58040000D03*
X51300000Y57240000D03*
X51300000Y56440000D03*
X51300000Y55640000D03*
X51300000Y54840000D03*
X51300000Y54040000D03*
X51300000Y53240000D03*
X51300000Y52440000D03*
X51300000Y51640000D03*
X51300000Y50840000D03*
X51300000Y50040000D03*
D22*
X54225000Y52865000D03*
X56200000Y52865000D03*
X58175000Y52865000D03*
X58175000Y54840000D03*
X58175000Y56815000D03*
X56200000Y56815000D03*
X54225000Y56815000D03*
X54225000Y54840000D03*
X56200000Y54840000D03*
D23*
X51250000Y60790000D03*
X61150000Y60790000D03*
X61150000Y48890000D03*
X51250000Y48890000D03*
%TD*%
D20*
%TO.C,U1*%
X52200000Y33200000D03*
X53000000Y33200000D03*
X53800000Y33200000D03*
X54600000Y33200000D03*
X55400000Y33200000D03*
X56200000Y33200000D03*
X57000000Y33200000D03*
X57800000Y33200000D03*
X58600000Y33200000D03*
X59400000Y33200000D03*
X60200000Y33200000D03*
D21*
X61100000Y34300000D03*
X61100000Y35100000D03*
X61100000Y35900000D03*
X61100000Y36700000D03*
X61100000Y37500000D03*
X61100000Y38300000D03*
X61100000Y39100000D03*
X61100000Y39900000D03*
X61100000Y40700000D03*
X61100000Y41500000D03*
X61100000Y42300000D03*
X61100000Y43100000D03*
X61100000Y43900000D03*
D20*
X60200000Y45000000D03*
X59400000Y45000000D03*
X58600000Y45000000D03*
X57800000Y45000000D03*
X57000000Y45000000D03*
X56200000Y45000000D03*
X55400000Y45000000D03*
X54600000Y45000000D03*
X53800000Y45000000D03*
X53000000Y45000000D03*
X52200000Y45000000D03*
D21*
X51300000Y43900000D03*
X51300000Y43100000D03*
X51300000Y42300000D03*
X51300000Y41500000D03*
X51300000Y40700000D03*
X51300000Y39900000D03*
X51300000Y39100000D03*
X51300000Y38300000D03*
X51300000Y37500000D03*
X51300000Y36700000D03*
X51300000Y35900000D03*
X51300000Y35100000D03*
X51300000Y34300000D03*
D22*
X54225000Y37125000D03*
X56200000Y37125000D03*
X58175000Y37125000D03*
X58175000Y39100000D03*
X58175000Y41075000D03*
X56200000Y41075000D03*
X54225000Y41075000D03*
X54225000Y39100000D03*
X56200000Y39100000D03*
D23*
X51250000Y45050000D03*
X61150000Y45050000D03*
X61150000Y33150000D03*
X51250000Y33150000D03*
%TD*%
D20*
%TO.C,U1*%
X52200000Y17460000D03*
X53000000Y17460000D03*
X53800000Y17460000D03*
X54600000Y17460000D03*
X55400000Y17460000D03*
X56200000Y17460000D03*
X57000000Y17460000D03*
X57800000Y17460000D03*
X58600000Y17460000D03*
X59400000Y17460000D03*
X60200000Y17460000D03*
D21*
X61100000Y18560000D03*
X61100000Y19360000D03*
X61100000Y20160000D03*
X61100000Y20960000D03*
X61100000Y21760000D03*
X61100000Y22560000D03*
X61100000Y23360000D03*
X61100000Y24160000D03*
X61100000Y24960000D03*
X61100000Y25760000D03*
X61100000Y26560000D03*
X61100000Y27360000D03*
X61100000Y28160000D03*
D20*
X60200000Y29260000D03*
X59400000Y29260000D03*
X58600000Y29260000D03*
X57800000Y29260000D03*
X57000000Y29260000D03*
X56200000Y29260000D03*
X55400000Y29260000D03*
X54600000Y29260000D03*
X53800000Y29260000D03*
X53000000Y29260000D03*
X52200000Y29260000D03*
D21*
X51300000Y28160000D03*
X51300000Y27360000D03*
X51300000Y26560000D03*
X51300000Y25760000D03*
X51300000Y24960000D03*
X51300000Y24160000D03*
X51300000Y23360000D03*
X51300000Y22560000D03*
X51300000Y21760000D03*
X51300000Y20960000D03*
X51300000Y20160000D03*
X51300000Y19360000D03*
X51300000Y18560000D03*
D22*
X54225000Y21385000D03*
X56200000Y21385000D03*
X58175000Y21385000D03*
X58175000Y23360000D03*
X58175000Y25335000D03*
X56200000Y25335000D03*
X54225000Y25335000D03*
X54225000Y23360000D03*
X56200000Y23360000D03*
D23*
X51250000Y29310000D03*
X61150000Y29310000D03*
X61150000Y17410000D03*
X51250000Y17410000D03*
%TD*%
D20*
%TO.C,U1*%
X52200000Y1720000D03*
X53000000Y1720000D03*
X53800000Y1720000D03*
X54600000Y1720000D03*
X55400000Y1720000D03*
X56200000Y1720000D03*
X57000000Y1720000D03*
X57800000Y1720000D03*
X58600000Y1720000D03*
X59400000Y1720000D03*
X60200000Y1720000D03*
D21*
X61100000Y2820000D03*
X61100000Y3620000D03*
X61100000Y4420000D03*
X61100000Y5220000D03*
X61100000Y6020000D03*
X61100000Y6820000D03*
X61100000Y7620000D03*
X61100000Y8420000D03*
X61100000Y9220000D03*
X61100000Y10020000D03*
X61100000Y10820000D03*
X61100000Y11620000D03*
X61100000Y12420000D03*
D20*
X60200000Y13520000D03*
X59400000Y13520000D03*
X58600000Y13520000D03*
X57800000Y13520000D03*
X57000000Y13520000D03*
X56200000Y13520000D03*
X55400000Y13520000D03*
X54600000Y13520000D03*
X53800000Y13520000D03*
X53000000Y13520000D03*
X52200000Y13520000D03*
D21*
X51300000Y12420000D03*
X51300000Y11620000D03*
X51300000Y10820000D03*
X51300000Y10020000D03*
X51300000Y9220000D03*
X51300000Y8420000D03*
X51300000Y7620000D03*
X51300000Y6820000D03*
X51300000Y6020000D03*
X51300000Y5220000D03*
X51300000Y4420000D03*
X51300000Y3620000D03*
X51300000Y2820000D03*
D22*
X54225000Y5645000D03*
X56200000Y5645000D03*
X58175000Y5645000D03*
X58175000Y7620000D03*
X58175000Y9595000D03*
X56200000Y9595000D03*
X54225000Y9595000D03*
X54225000Y7620000D03*
X56200000Y7620000D03*
D23*
X51250000Y13570000D03*
X61150000Y13570000D03*
X61150000Y1670000D03*
X51250000Y1670000D03*
%TD*%
D20*
%TO.C,U1*%
X7250000Y80420000D03*
X8050000Y80420000D03*
X8850000Y80420000D03*
X9650000Y80420000D03*
X10450000Y80420000D03*
X11250000Y80420000D03*
X12050000Y80420000D03*
X12850000Y80420000D03*
X13650000Y80420000D03*
X14450000Y80420000D03*
X15250000Y80420000D03*
D21*
X16150000Y81520000D03*
X16150000Y82320000D03*
X16150000Y83120000D03*
X16150000Y83920000D03*
X16150000Y84720000D03*
X16150000Y85520000D03*
X16150000Y86320000D03*
X16150000Y87120000D03*
X16150000Y87920000D03*
X16150000Y88720000D03*
X16150000Y89520000D03*
X16150000Y90320000D03*
X16150000Y91120000D03*
D20*
X15250000Y92220000D03*
X14450000Y92220000D03*
X13650000Y92220000D03*
X12850000Y92220000D03*
X12050000Y92220000D03*
X11250000Y92220000D03*
X10450000Y92220000D03*
X9650000Y92220000D03*
X8850000Y92220000D03*
X8050000Y92220000D03*
X7250000Y92220000D03*
D21*
X6350000Y91120000D03*
X6350000Y90320000D03*
X6350000Y89520000D03*
X6350000Y88720000D03*
X6350000Y87920000D03*
X6350000Y87120000D03*
X6350000Y86320000D03*
X6350000Y85520000D03*
X6350000Y84720000D03*
X6350000Y83920000D03*
X6350000Y83120000D03*
X6350000Y82320000D03*
X6350000Y81520000D03*
D22*
X9275000Y84345000D03*
X11250000Y84345000D03*
X13225000Y84345000D03*
X13225000Y86320000D03*
X13225000Y88295000D03*
X11250000Y88295000D03*
X9275000Y88295000D03*
X9275000Y86320000D03*
X11250000Y86320000D03*
D23*
X6300000Y92270000D03*
X16200000Y92270000D03*
X16200000Y80370000D03*
X6300000Y80370000D03*
%TD*%
D20*
%TO.C,U1*%
X7250000Y64680000D03*
X8050000Y64680000D03*
X8850000Y64680000D03*
X9650000Y64680000D03*
X10450000Y64680000D03*
X11250000Y64680000D03*
X12050000Y64680000D03*
X12850000Y64680000D03*
X13650000Y64680000D03*
X14450000Y64680000D03*
X15250000Y64680000D03*
D21*
X16150000Y65780000D03*
X16150000Y66580000D03*
X16150000Y67380000D03*
X16150000Y68180000D03*
X16150000Y68980000D03*
X16150000Y69780000D03*
X16150000Y70580000D03*
X16150000Y71380000D03*
X16150000Y72180000D03*
X16150000Y72980000D03*
X16150000Y73780000D03*
X16150000Y74580000D03*
X16150000Y75380000D03*
D20*
X15250000Y76480000D03*
X14450000Y76480000D03*
X13650000Y76480000D03*
X12850000Y76480000D03*
X12050000Y76480000D03*
X11250000Y76480000D03*
X10450000Y76480000D03*
X9650000Y76480000D03*
X8850000Y76480000D03*
X8050000Y76480000D03*
X7250000Y76480000D03*
D21*
X6350000Y75380000D03*
X6350000Y74580000D03*
X6350000Y73780000D03*
X6350000Y72980000D03*
X6350000Y72180000D03*
X6350000Y71380000D03*
X6350000Y70580000D03*
X6350000Y69780000D03*
X6350000Y68980000D03*
X6350000Y68180000D03*
X6350000Y67380000D03*
X6350000Y66580000D03*
X6350000Y65780000D03*
D22*
X9275000Y68605000D03*
X11250000Y68605000D03*
X13225000Y68605000D03*
X13225000Y70580000D03*
X13225000Y72555000D03*
X11250000Y72555000D03*
X9275000Y72555000D03*
X9275000Y70580000D03*
X11250000Y70580000D03*
D23*
X6300000Y76530000D03*
X16200000Y76530000D03*
X16200000Y64630000D03*
X6300000Y64630000D03*
%TD*%
D20*
%TO.C,U1*%
X7250000Y48940000D03*
X8050000Y48940000D03*
X8850000Y48940000D03*
X9650000Y48940000D03*
X10450000Y48940000D03*
X11250000Y48940000D03*
X12050000Y48940000D03*
X12850000Y48940000D03*
X13650000Y48940000D03*
X14450000Y48940000D03*
X15250000Y48940000D03*
D21*
X16150000Y50040000D03*
X16150000Y50840000D03*
X16150000Y51640000D03*
X16150000Y52440000D03*
X16150000Y53240000D03*
X16150000Y54040000D03*
X16150000Y54840000D03*
X16150000Y55640000D03*
X16150000Y56440000D03*
X16150000Y57240000D03*
X16150000Y58040000D03*
X16150000Y58840000D03*
X16150000Y59640000D03*
D20*
X15250000Y60740000D03*
X14450000Y60740000D03*
X13650000Y60740000D03*
X12850000Y60740000D03*
X12050000Y60740000D03*
X11250000Y60740000D03*
X10450000Y60740000D03*
X9650000Y60740000D03*
X8850000Y60740000D03*
X8050000Y60740000D03*
X7250000Y60740000D03*
D21*
X6350000Y59640000D03*
X6350000Y58840000D03*
X6350000Y58040000D03*
X6350000Y57240000D03*
X6350000Y56440000D03*
X6350000Y55640000D03*
X6350000Y54840000D03*
X6350000Y54040000D03*
X6350000Y53240000D03*
X6350000Y52440000D03*
X6350000Y51640000D03*
X6350000Y50840000D03*
X6350000Y50040000D03*
D22*
X9275000Y52865000D03*
X11250000Y52865000D03*
X13225000Y52865000D03*
X13225000Y54840000D03*
X13225000Y56815000D03*
X11250000Y56815000D03*
X9275000Y56815000D03*
X9275000Y54840000D03*
X11250000Y54840000D03*
D23*
X6300000Y60790000D03*
X16200000Y60790000D03*
X16200000Y48890000D03*
X6300000Y48890000D03*
%TD*%
D20*
%TO.C,U1*%
X7250000Y33200000D03*
X8050000Y33200000D03*
X8850000Y33200000D03*
X9650000Y33200000D03*
X10450000Y33200000D03*
X11250000Y33200000D03*
X12050000Y33200000D03*
X12850000Y33200000D03*
X13650000Y33200000D03*
X14450000Y33200000D03*
X15250000Y33200000D03*
D21*
X16150000Y34300000D03*
X16150000Y35100000D03*
X16150000Y35900000D03*
X16150000Y36700000D03*
X16150000Y37500000D03*
X16150000Y38300000D03*
X16150000Y39100000D03*
X16150000Y39900000D03*
X16150000Y40700000D03*
X16150000Y41500000D03*
X16150000Y42300000D03*
X16150000Y43100000D03*
X16150000Y43900000D03*
D20*
X15250000Y45000000D03*
X14450000Y45000000D03*
X13650000Y45000000D03*
X12850000Y45000000D03*
X12050000Y45000000D03*
X11250000Y45000000D03*
X10450000Y45000000D03*
X9650000Y45000000D03*
X8850000Y45000000D03*
X8050000Y45000000D03*
X7250000Y45000000D03*
D21*
X6350000Y43900000D03*
X6350000Y43100000D03*
X6350000Y42300000D03*
X6350000Y41500000D03*
X6350000Y40700000D03*
X6350000Y39900000D03*
X6350000Y39100000D03*
X6350000Y38300000D03*
X6350000Y37500000D03*
X6350000Y36700000D03*
X6350000Y35900000D03*
X6350000Y35100000D03*
X6350000Y34300000D03*
D22*
X9275000Y37125000D03*
X11250000Y37125000D03*
X13225000Y37125000D03*
X13225000Y39100000D03*
X13225000Y41075000D03*
X11250000Y41075000D03*
X9275000Y41075000D03*
X9275000Y39100000D03*
X11250000Y39100000D03*
D23*
X6300000Y45050000D03*
X16200000Y45050000D03*
X16200000Y33150000D03*
X6300000Y33150000D03*
%TD*%
D20*
%TO.C,U1*%
X7250000Y17460000D03*
X8050000Y17460000D03*
X8850000Y17460000D03*
X9650000Y17460000D03*
X10450000Y17460000D03*
X11250000Y17460000D03*
X12050000Y17460000D03*
X12850000Y17460000D03*
X13650000Y17460000D03*
X14450000Y17460000D03*
X15250000Y17460000D03*
D21*
X16150000Y18560000D03*
X16150000Y19360000D03*
X16150000Y20160000D03*
X16150000Y20960000D03*
X16150000Y21760000D03*
X16150000Y22560000D03*
X16150000Y23360000D03*
X16150000Y24160000D03*
X16150000Y24960000D03*
X16150000Y25760000D03*
X16150000Y26560000D03*
X16150000Y27360000D03*
X16150000Y28160000D03*
D20*
X15250000Y29260000D03*
X14450000Y29260000D03*
X13650000Y29260000D03*
X12850000Y29260000D03*
X12050000Y29260000D03*
X11250000Y29260000D03*
X10450000Y29260000D03*
X9650000Y29260000D03*
X8850000Y29260000D03*
X8050000Y29260000D03*
X7250000Y29260000D03*
D21*
X6350000Y28160000D03*
X6350000Y27360000D03*
X6350000Y26560000D03*
X6350000Y25760000D03*
X6350000Y24960000D03*
X6350000Y24160000D03*
X6350000Y23360000D03*
X6350000Y22560000D03*
X6350000Y21760000D03*
X6350000Y20960000D03*
X6350000Y20160000D03*
X6350000Y19360000D03*
X6350000Y18560000D03*
D22*
X9275000Y21385000D03*
X11250000Y21385000D03*
X13225000Y21385000D03*
X13225000Y23360000D03*
X13225000Y25335000D03*
X11250000Y25335000D03*
X9275000Y25335000D03*
X9275000Y23360000D03*
X11250000Y23360000D03*
D23*
X6300000Y29310000D03*
X16200000Y29310000D03*
X16200000Y17410000D03*
X6300000Y17410000D03*
%TD*%
D15*
%TO.C,R2*%
X108125000Y82510000D03*
X109775000Y82510000D03*
%TD*%
%TO.C,R2*%
X108125000Y66770000D03*
X109775000Y66770000D03*
%TD*%
%TO.C,R2*%
X108125000Y51030000D03*
X109775000Y51030000D03*
%TD*%
%TO.C,R2*%
X108125000Y35290000D03*
X109775000Y35290000D03*
%TD*%
%TO.C,R2*%
X108125000Y19550000D03*
X109775000Y19550000D03*
%TD*%
%TO.C,R2*%
X108125000Y3810000D03*
X109775000Y3810000D03*
%TD*%
%TO.C,R2*%
X63175000Y82510000D03*
X64825000Y82510000D03*
%TD*%
%TO.C,R2*%
X63175000Y66770000D03*
X64825000Y66770000D03*
%TD*%
%TO.C,R2*%
X63175000Y51030000D03*
X64825000Y51030000D03*
%TD*%
%TO.C,R2*%
X63175000Y35290000D03*
X64825000Y35290000D03*
%TD*%
%TO.C,R2*%
X63175000Y19550000D03*
X64825000Y19550000D03*
%TD*%
%TO.C,R2*%
X63175000Y3810000D03*
X64825000Y3810000D03*
%TD*%
%TO.C,R2*%
X18225000Y82510000D03*
X19875000Y82510000D03*
%TD*%
%TO.C,R2*%
X18225000Y66770000D03*
X19875000Y66770000D03*
%TD*%
%TO.C,R2*%
X18225000Y51030000D03*
X19875000Y51030000D03*
%TD*%
%TO.C,R2*%
X18225000Y35290000D03*
X19875000Y35290000D03*
%TD*%
%TO.C,R2*%
X18225000Y19550000D03*
X19875000Y19550000D03*
%TD*%
D24*
%TO.C,R10*%
X122920000Y88035000D03*
X122920000Y89685000D03*
%TD*%
%TO.C,R10*%
X122920000Y72295000D03*
X122920000Y73945000D03*
%TD*%
%TO.C,R10*%
X122920000Y56555000D03*
X122920000Y58205000D03*
%TD*%
%TO.C,R10*%
X122920000Y40815000D03*
X122920000Y42465000D03*
%TD*%
%TO.C,R10*%
X122920000Y25075000D03*
X122920000Y26725000D03*
%TD*%
%TO.C,R10*%
X122920000Y9335000D03*
X122920000Y10985000D03*
%TD*%
%TO.C,R10*%
X77970000Y88035000D03*
X77970000Y89685000D03*
%TD*%
%TO.C,R10*%
X77970000Y72295000D03*
X77970000Y73945000D03*
%TD*%
%TO.C,R10*%
X77970000Y56555000D03*
X77970000Y58205000D03*
%TD*%
%TO.C,R10*%
X77970000Y40815000D03*
X77970000Y42465000D03*
%TD*%
%TO.C,R10*%
X77970000Y25075000D03*
X77970000Y26725000D03*
%TD*%
%TO.C,R10*%
X77970000Y9335000D03*
X77970000Y10985000D03*
%TD*%
%TO.C,R10*%
X33020000Y88035000D03*
X33020000Y89685000D03*
%TD*%
%TO.C,R10*%
X33020000Y72295000D03*
X33020000Y73945000D03*
%TD*%
%TO.C,R10*%
X33020000Y56555000D03*
X33020000Y58205000D03*
%TD*%
%TO.C,R10*%
X33020000Y40815000D03*
X33020000Y42465000D03*
%TD*%
%TO.C,R10*%
X33020000Y25075000D03*
X33020000Y26725000D03*
%TD*%
D25*
%TO.C,Q1*%
X119380000Y84730000D03*
X119380000Y82830000D03*
X121480000Y83780000D03*
%TD*%
%TO.C,Q1*%
X119380000Y68990000D03*
X119380000Y67090000D03*
X121480000Y68040000D03*
%TD*%
%TO.C,Q1*%
X119380000Y53250000D03*
X119380000Y51350000D03*
X121480000Y52300000D03*
%TD*%
%TO.C,Q1*%
X119380000Y37510000D03*
X119380000Y35610000D03*
X121480000Y36560000D03*
%TD*%
%TO.C,Q1*%
X119380000Y21770000D03*
X119380000Y19870000D03*
X121480000Y20820000D03*
%TD*%
%TO.C,Q1*%
X119380000Y6030000D03*
X119380000Y4130000D03*
X121480000Y5080000D03*
%TD*%
%TO.C,Q1*%
X74430000Y84730000D03*
X74430000Y82830000D03*
X76530000Y83780000D03*
%TD*%
%TO.C,Q1*%
X74430000Y68990000D03*
X74430000Y67090000D03*
X76530000Y68040000D03*
%TD*%
%TO.C,Q1*%
X74430000Y53250000D03*
X74430000Y51350000D03*
X76530000Y52300000D03*
%TD*%
%TO.C,Q1*%
X74430000Y37510000D03*
X74430000Y35610000D03*
X76530000Y36560000D03*
%TD*%
%TO.C,Q1*%
X74430000Y21770000D03*
X74430000Y19870000D03*
X76530000Y20820000D03*
%TD*%
%TO.C,Q1*%
X74430000Y6030000D03*
X74430000Y4130000D03*
X76530000Y5080000D03*
%TD*%
%TO.C,Q1*%
X29480000Y84730000D03*
X29480000Y82830000D03*
X31580000Y83780000D03*
%TD*%
%TO.C,Q1*%
X29480000Y68990000D03*
X29480000Y67090000D03*
X31580000Y68040000D03*
%TD*%
%TO.C,Q1*%
X29480000Y53250000D03*
X29480000Y51350000D03*
X31580000Y52300000D03*
%TD*%
%TO.C,Q1*%
X29480000Y37510000D03*
X29480000Y35610000D03*
X31580000Y36560000D03*
%TD*%
%TO.C,Q1*%
X29480000Y21770000D03*
X29480000Y19870000D03*
X31580000Y20820000D03*
%TD*%
D12*
%TO.C,R1*%
X109775000Y79970000D03*
X108125000Y79970000D03*
%TD*%
%TO.C,R1*%
X109775000Y64230000D03*
X108125000Y64230000D03*
%TD*%
%TO.C,R1*%
X109775000Y48490000D03*
X108125000Y48490000D03*
%TD*%
%TO.C,R1*%
X109775000Y32750000D03*
X108125000Y32750000D03*
%TD*%
%TO.C,R1*%
X109775000Y17010000D03*
X108125000Y17010000D03*
%TD*%
%TO.C,R1*%
X109775000Y1270000D03*
X108125000Y1270000D03*
%TD*%
%TO.C,R1*%
X64825000Y79970000D03*
X63175000Y79970000D03*
%TD*%
%TO.C,R1*%
X64825000Y64230000D03*
X63175000Y64230000D03*
%TD*%
%TO.C,R1*%
X64825000Y48490000D03*
X63175000Y48490000D03*
%TD*%
%TO.C,R1*%
X64825000Y32750000D03*
X63175000Y32750000D03*
%TD*%
%TO.C,R1*%
X64825000Y17010000D03*
X63175000Y17010000D03*
%TD*%
%TO.C,R1*%
X64825000Y1270000D03*
X63175000Y1270000D03*
%TD*%
%TO.C,R1*%
X19875000Y79970000D03*
X18225000Y79970000D03*
%TD*%
%TO.C,R1*%
X19875000Y64230000D03*
X18225000Y64230000D03*
%TD*%
%TO.C,R1*%
X19875000Y48490000D03*
X18225000Y48490000D03*
%TD*%
%TO.C,R1*%
X19875000Y32750000D03*
X18225000Y32750000D03*
%TD*%
%TO.C,R1*%
X19875000Y17010000D03*
X18225000Y17010000D03*
%TD*%
D14*
%TO.C,C3*%
X114805000Y82510000D03*
X113255000Y82510000D03*
%TD*%
%TO.C,C3*%
X114805000Y66770000D03*
X113255000Y66770000D03*
%TD*%
%TO.C,C3*%
X114805000Y51030000D03*
X113255000Y51030000D03*
%TD*%
%TO.C,C3*%
X114805000Y35290000D03*
X113255000Y35290000D03*
%TD*%
%TO.C,C3*%
X114805000Y19550000D03*
X113255000Y19550000D03*
%TD*%
%TO.C,C3*%
X114805000Y3810000D03*
X113255000Y3810000D03*
%TD*%
%TO.C,C3*%
X69855000Y82510000D03*
X68305000Y82510000D03*
%TD*%
%TO.C,C3*%
X69855000Y66770000D03*
X68305000Y66770000D03*
%TD*%
%TO.C,C3*%
X69855000Y51030000D03*
X68305000Y51030000D03*
%TD*%
%TO.C,C3*%
X69855000Y35290000D03*
X68305000Y35290000D03*
%TD*%
%TO.C,C3*%
X69855000Y19550000D03*
X68305000Y19550000D03*
%TD*%
%TO.C,C3*%
X69855000Y3810000D03*
X68305000Y3810000D03*
%TD*%
%TO.C,C3*%
X24905000Y82510000D03*
X23355000Y82510000D03*
%TD*%
%TO.C,C3*%
X24905000Y66770000D03*
X23355000Y66770000D03*
%TD*%
%TO.C,C3*%
X24905000Y51030000D03*
X23355000Y51030000D03*
%TD*%
%TO.C,C3*%
X24905000Y35290000D03*
X23355000Y35290000D03*
%TD*%
%TO.C,C3*%
X24905000Y19550000D03*
X23355000Y19550000D03*
%TD*%
D13*
%TO.C,R9*%
X122920000Y84605000D03*
X122920000Y82955000D03*
%TD*%
%TO.C,R9*%
X122920000Y68865000D03*
X122920000Y67215000D03*
%TD*%
%TO.C,R9*%
X122920000Y53125000D03*
X122920000Y51475000D03*
%TD*%
%TO.C,R9*%
X122920000Y37385000D03*
X122920000Y35735000D03*
%TD*%
%TO.C,R9*%
X122920000Y21645000D03*
X122920000Y19995000D03*
%TD*%
%TO.C,R9*%
X122920000Y5905000D03*
X122920000Y4255000D03*
%TD*%
%TO.C,R9*%
X77970000Y84605000D03*
X77970000Y82955000D03*
%TD*%
%TO.C,R9*%
X77970000Y68865000D03*
X77970000Y67215000D03*
%TD*%
%TO.C,R9*%
X77970000Y53125000D03*
X77970000Y51475000D03*
%TD*%
%TO.C,R9*%
X77970000Y37385000D03*
X77970000Y35735000D03*
%TD*%
%TO.C,R9*%
X77970000Y21645000D03*
X77970000Y19995000D03*
%TD*%
%TO.C,R9*%
X77970000Y5905000D03*
X77970000Y4255000D03*
%TD*%
%TO.C,R9*%
X33020000Y84605000D03*
X33020000Y82955000D03*
%TD*%
%TO.C,R9*%
X33020000Y68865000D03*
X33020000Y67215000D03*
%TD*%
%TO.C,R9*%
X33020000Y53125000D03*
X33020000Y51475000D03*
%TD*%
%TO.C,R9*%
X33020000Y37385000D03*
X33020000Y35735000D03*
%TD*%
%TO.C,R9*%
X33020000Y21645000D03*
X33020000Y19995000D03*
%TD*%
D14*
%TO.C,C1*%
X114805000Y90130000D03*
X113255000Y90130000D03*
%TD*%
%TO.C,C1*%
X114805000Y74390000D03*
X113255000Y74390000D03*
%TD*%
%TO.C,C1*%
X114805000Y58650000D03*
X113255000Y58650000D03*
%TD*%
%TO.C,C1*%
X114805000Y42910000D03*
X113255000Y42910000D03*
%TD*%
%TO.C,C1*%
X114805000Y27170000D03*
X113255000Y27170000D03*
%TD*%
%TO.C,C1*%
X114805000Y11430000D03*
X113255000Y11430000D03*
%TD*%
%TO.C,C1*%
X69855000Y90130000D03*
X68305000Y90130000D03*
%TD*%
%TO.C,C1*%
X69855000Y74390000D03*
X68305000Y74390000D03*
%TD*%
%TO.C,C1*%
X69855000Y58650000D03*
X68305000Y58650000D03*
%TD*%
%TO.C,C1*%
X69855000Y42910000D03*
X68305000Y42910000D03*
%TD*%
%TO.C,C1*%
X69855000Y27170000D03*
X68305000Y27170000D03*
%TD*%
%TO.C,C1*%
X69855000Y11430000D03*
X68305000Y11430000D03*
%TD*%
%TO.C,C1*%
X24905000Y90130000D03*
X23355000Y90130000D03*
%TD*%
%TO.C,C1*%
X24905000Y74390000D03*
X23355000Y74390000D03*
%TD*%
%TO.C,C1*%
X24905000Y58650000D03*
X23355000Y58650000D03*
%TD*%
%TO.C,C1*%
X24905000Y42910000D03*
X23355000Y42910000D03*
%TD*%
%TO.C,C1*%
X24905000Y27170000D03*
X23355000Y27170000D03*
%TD*%
D26*
%TO.C,U2*%
X114980000Y87620100D03*
X114030000Y87620100D03*
X113080000Y87620100D03*
X113080000Y85019900D03*
X114980000Y85019900D03*
%TD*%
%TO.C,U2*%
X114980000Y71880100D03*
X114030000Y71880100D03*
X113080000Y71880100D03*
X113080000Y69279900D03*
X114980000Y69279900D03*
%TD*%
%TO.C,U2*%
X114980000Y56140100D03*
X114030000Y56140100D03*
X113080000Y56140100D03*
X113080000Y53539900D03*
X114980000Y53539900D03*
%TD*%
%TO.C,U2*%
X114980000Y40400100D03*
X114030000Y40400100D03*
X113080000Y40400100D03*
X113080000Y37799900D03*
X114980000Y37799900D03*
%TD*%
%TO.C,U2*%
X114980000Y24660100D03*
X114030000Y24660100D03*
X113080000Y24660100D03*
X113080000Y22059900D03*
X114980000Y22059900D03*
%TD*%
%TO.C,U2*%
X114980000Y8920100D03*
X114030000Y8920100D03*
X113080000Y8920100D03*
X113080000Y6319900D03*
X114980000Y6319900D03*
%TD*%
%TO.C,U2*%
X70030000Y87620100D03*
X69080000Y87620100D03*
X68130000Y87620100D03*
X68130000Y85019900D03*
X70030000Y85019900D03*
%TD*%
%TO.C,U2*%
X70030000Y71880100D03*
X69080000Y71880100D03*
X68130000Y71880100D03*
X68130000Y69279900D03*
X70030000Y69279900D03*
%TD*%
%TO.C,U2*%
X70030000Y56140100D03*
X69080000Y56140100D03*
X68130000Y56140100D03*
X68130000Y53539900D03*
X70030000Y53539900D03*
%TD*%
%TO.C,U2*%
X70030000Y40400100D03*
X69080000Y40400100D03*
X68130000Y40400100D03*
X68130000Y37799900D03*
X70030000Y37799900D03*
%TD*%
%TO.C,U2*%
X70030000Y24660100D03*
X69080000Y24660100D03*
X68130000Y24660100D03*
X68130000Y22059900D03*
X70030000Y22059900D03*
%TD*%
%TO.C,U2*%
X70030000Y8920100D03*
X69080000Y8920100D03*
X68130000Y8920100D03*
X68130000Y6319900D03*
X70030000Y6319900D03*
%TD*%
%TO.C,U2*%
X25080000Y87620100D03*
X24130000Y87620100D03*
X23180000Y87620100D03*
X23180000Y85019900D03*
X25080000Y85019900D03*
%TD*%
%TO.C,U2*%
X25080000Y71880100D03*
X24130000Y71880100D03*
X23180000Y71880100D03*
X23180000Y69279900D03*
X25080000Y69279900D03*
%TD*%
%TO.C,U2*%
X25080000Y56140100D03*
X24130000Y56140100D03*
X23180000Y56140100D03*
X23180000Y53539900D03*
X25080000Y53539900D03*
%TD*%
%TO.C,U2*%
X25080000Y40400100D03*
X24130000Y40400100D03*
X23180000Y40400100D03*
X23180000Y37799900D03*
X25080000Y37799900D03*
%TD*%
%TO.C,U2*%
X25080000Y24660100D03*
X24130000Y24660100D03*
X23180000Y24660100D03*
X23180000Y22059900D03*
X25080000Y22059900D03*
%TD*%
D27*
%TO.C,TP1*%
X111490000Y79970000D03*
%TD*%
%TO.C,TP1*%
X111490000Y64230000D03*
%TD*%
%TO.C,TP1*%
X111490000Y48490000D03*
%TD*%
%TO.C,TP1*%
X111490000Y32750000D03*
%TD*%
%TO.C,TP1*%
X111490000Y17010000D03*
%TD*%
%TO.C,TP1*%
X111490000Y1270000D03*
%TD*%
%TO.C,TP1*%
X66540000Y79970000D03*
%TD*%
%TO.C,TP1*%
X66540000Y64230000D03*
%TD*%
%TO.C,TP1*%
X66540000Y48490000D03*
%TD*%
%TO.C,TP1*%
X66540000Y32750000D03*
%TD*%
%TO.C,TP1*%
X66540000Y17010000D03*
%TD*%
%TO.C,TP1*%
X66540000Y1270000D03*
%TD*%
%TO.C,TP1*%
X21590000Y79970000D03*
%TD*%
%TO.C,TP1*%
X21590000Y64230000D03*
%TD*%
%TO.C,TP1*%
X21590000Y48490000D03*
%TD*%
%TO.C,TP1*%
X21590000Y32750000D03*
%TD*%
%TO.C,TP1*%
X21590000Y17010000D03*
%TD*%
D12*
%TO.C,R5*%
X122475000Y92670000D03*
X120825000Y92670000D03*
%TD*%
%TO.C,R5*%
X122475000Y76930000D03*
X120825000Y76930000D03*
%TD*%
%TO.C,R5*%
X122475000Y61190000D03*
X120825000Y61190000D03*
%TD*%
%TO.C,R5*%
X122475000Y45450000D03*
X120825000Y45450000D03*
%TD*%
%TO.C,R5*%
X122475000Y29710000D03*
X120825000Y29710000D03*
%TD*%
%TO.C,R5*%
X122475000Y13970000D03*
X120825000Y13970000D03*
%TD*%
%TO.C,R5*%
X77525000Y92670000D03*
X75875000Y92670000D03*
%TD*%
%TO.C,R5*%
X77525000Y76930000D03*
X75875000Y76930000D03*
%TD*%
%TO.C,R5*%
X77525000Y61190000D03*
X75875000Y61190000D03*
%TD*%
%TO.C,R5*%
X77525000Y45450000D03*
X75875000Y45450000D03*
%TD*%
%TO.C,R5*%
X77525000Y29710000D03*
X75875000Y29710000D03*
%TD*%
%TO.C,R5*%
X77525000Y13970000D03*
X75875000Y13970000D03*
%TD*%
%TO.C,R5*%
X32575000Y92670000D03*
X30925000Y92670000D03*
%TD*%
%TO.C,R5*%
X32575000Y76930000D03*
X30925000Y76930000D03*
%TD*%
%TO.C,R5*%
X32575000Y61190000D03*
X30925000Y61190000D03*
%TD*%
%TO.C,R5*%
X32575000Y45450000D03*
X30925000Y45450000D03*
%TD*%
%TO.C,R5*%
X32575000Y29710000D03*
X30925000Y29710000D03*
%TD*%
D15*
%TO.C,R3*%
X108125000Y92670000D03*
X109775000Y92670000D03*
%TD*%
%TO.C,R3*%
X108125000Y76930000D03*
X109775000Y76930000D03*
%TD*%
%TO.C,R3*%
X108125000Y61190000D03*
X109775000Y61190000D03*
%TD*%
%TO.C,R3*%
X108125000Y45450000D03*
X109775000Y45450000D03*
%TD*%
%TO.C,R3*%
X108125000Y29710000D03*
X109775000Y29710000D03*
%TD*%
%TO.C,R3*%
X108125000Y13970000D03*
X109775000Y13970000D03*
%TD*%
%TO.C,R3*%
X63175000Y92670000D03*
X64825000Y92670000D03*
%TD*%
%TO.C,R3*%
X63175000Y76930000D03*
X64825000Y76930000D03*
%TD*%
%TO.C,R3*%
X63175000Y61190000D03*
X64825000Y61190000D03*
%TD*%
%TO.C,R3*%
X63175000Y45450000D03*
X64825000Y45450000D03*
%TD*%
%TO.C,R3*%
X63175000Y29710000D03*
X64825000Y29710000D03*
%TD*%
%TO.C,R3*%
X63175000Y13970000D03*
X64825000Y13970000D03*
%TD*%
%TO.C,R3*%
X18225000Y92670000D03*
X19875000Y92670000D03*
%TD*%
%TO.C,R3*%
X18225000Y76930000D03*
X19875000Y76930000D03*
%TD*%
%TO.C,R3*%
X18225000Y61190000D03*
X19875000Y61190000D03*
%TD*%
%TO.C,R3*%
X18225000Y45450000D03*
X19875000Y45450000D03*
%TD*%
%TO.C,R3*%
X18225000Y29710000D03*
X19875000Y29710000D03*
%TD*%
D25*
%TO.C,Q2*%
X119380000Y89810000D03*
X119380000Y87910000D03*
X121480000Y88860000D03*
%TD*%
%TO.C,Q2*%
X119380000Y74070000D03*
X119380000Y72170000D03*
X121480000Y73120000D03*
%TD*%
%TO.C,Q2*%
X119380000Y58330000D03*
X119380000Y56430000D03*
X121480000Y57380000D03*
%TD*%
%TO.C,Q2*%
X119380000Y42590000D03*
X119380000Y40690000D03*
X121480000Y41640000D03*
%TD*%
%TO.C,Q2*%
X119380000Y26850000D03*
X119380000Y24950000D03*
X121480000Y25900000D03*
%TD*%
%TO.C,Q2*%
X119380000Y11110000D03*
X119380000Y9210000D03*
X121480000Y10160000D03*
%TD*%
%TO.C,Q2*%
X74430000Y89810000D03*
X74430000Y87910000D03*
X76530000Y88860000D03*
%TD*%
%TO.C,Q2*%
X74430000Y74070000D03*
X74430000Y72170000D03*
X76530000Y73120000D03*
%TD*%
%TO.C,Q2*%
X74430000Y58330000D03*
X74430000Y56430000D03*
X76530000Y57380000D03*
%TD*%
%TO.C,Q2*%
X74430000Y42590000D03*
X74430000Y40690000D03*
X76530000Y41640000D03*
%TD*%
%TO.C,Q2*%
X74430000Y26850000D03*
X74430000Y24950000D03*
X76530000Y25900000D03*
%TD*%
%TO.C,Q2*%
X74430000Y11110000D03*
X74430000Y9210000D03*
X76530000Y10160000D03*
%TD*%
%TO.C,Q2*%
X29480000Y89810000D03*
X29480000Y87910000D03*
X31580000Y88860000D03*
%TD*%
%TO.C,Q2*%
X29480000Y74070000D03*
X29480000Y72170000D03*
X31580000Y73120000D03*
%TD*%
%TO.C,Q2*%
X29480000Y58330000D03*
X29480000Y56430000D03*
X31580000Y57380000D03*
%TD*%
%TO.C,Q2*%
X29480000Y42590000D03*
X29480000Y40690000D03*
X31580000Y41640000D03*
%TD*%
%TO.C,Q2*%
X29480000Y26850000D03*
X29480000Y24950000D03*
X31580000Y25900000D03*
%TD*%
D16*
%TO.C,D1*%
X117052500Y92670000D03*
X118627500Y92670000D03*
%TD*%
%TO.C,D1*%
X117052500Y76930000D03*
X118627500Y76930000D03*
%TD*%
%TO.C,D1*%
X117052500Y61190000D03*
X118627500Y61190000D03*
%TD*%
%TO.C,D1*%
X117052500Y45450000D03*
X118627500Y45450000D03*
%TD*%
%TO.C,D1*%
X117052500Y29710000D03*
X118627500Y29710000D03*
%TD*%
%TO.C,D1*%
X117052500Y13970000D03*
X118627500Y13970000D03*
%TD*%
%TO.C,D1*%
X72102500Y92670000D03*
X73677500Y92670000D03*
%TD*%
%TO.C,D1*%
X72102500Y76930000D03*
X73677500Y76930000D03*
%TD*%
%TO.C,D1*%
X72102500Y61190000D03*
X73677500Y61190000D03*
%TD*%
%TO.C,D1*%
X72102500Y45450000D03*
X73677500Y45450000D03*
%TD*%
%TO.C,D1*%
X72102500Y29710000D03*
X73677500Y29710000D03*
%TD*%
%TO.C,D1*%
X72102500Y13970000D03*
X73677500Y13970000D03*
%TD*%
%TO.C,D1*%
X27152500Y92670000D03*
X28727500Y92670000D03*
%TD*%
%TO.C,D1*%
X27152500Y76930000D03*
X28727500Y76930000D03*
%TD*%
%TO.C,D1*%
X27152500Y61190000D03*
X28727500Y61190000D03*
%TD*%
%TO.C,D1*%
X27152500Y45450000D03*
X28727500Y45450000D03*
%TD*%
%TO.C,D1*%
X27152500Y29710000D03*
X28727500Y29710000D03*
%TD*%
D19*
%TO.C,FID2*%
X124190000Y81240000D03*
%TD*%
%TO.C,FID2*%
X124190000Y65500000D03*
%TD*%
%TO.C,FID2*%
X124190000Y49760000D03*
%TD*%
%TO.C,FID2*%
X124190000Y34020000D03*
%TD*%
%TO.C,FID2*%
X124190000Y18280000D03*
%TD*%
%TO.C,FID2*%
X124190000Y2540000D03*
%TD*%
%TO.C,FID2*%
X79240000Y81240000D03*
%TD*%
%TO.C,FID2*%
X79240000Y65500000D03*
%TD*%
%TO.C,FID2*%
X79240000Y49760000D03*
%TD*%
%TO.C,FID2*%
X79240000Y34020000D03*
%TD*%
%TO.C,FID2*%
X79240000Y18280000D03*
%TD*%
%TO.C,FID2*%
X79240000Y2540000D03*
%TD*%
%TO.C,FID2*%
X34290000Y81240000D03*
%TD*%
%TO.C,FID2*%
X34290000Y65500000D03*
%TD*%
%TO.C,FID2*%
X34290000Y49760000D03*
%TD*%
%TO.C,FID2*%
X34290000Y34020000D03*
%TD*%
%TO.C,FID2*%
X34290000Y18280000D03*
%TD*%
%TO.C,FID2*%
X34290000Y2540000D03*
%TD*%
D16*
%TO.C,D1*%
X27152500Y13970000D03*
X28727500Y13970000D03*
%TD*%
D25*
%TO.C,Q2*%
X29480000Y11110000D03*
X29480000Y9210000D03*
X31580000Y10160000D03*
%TD*%
D15*
%TO.C,R3*%
X18225000Y13970000D03*
X19875000Y13970000D03*
%TD*%
D12*
%TO.C,R5*%
X32575000Y13970000D03*
X30925000Y13970000D03*
%TD*%
D27*
%TO.C,TP1*%
X21590000Y1270000D03*
%TD*%
D26*
%TO.C,U2*%
X25080000Y8920100D03*
X24130000Y8920100D03*
X23180000Y8920100D03*
X23180000Y6319900D03*
X25080000Y6319900D03*
%TD*%
D14*
%TO.C,C1*%
X24905000Y11430000D03*
X23355000Y11430000D03*
%TD*%
D13*
%TO.C,R9*%
X33020000Y5905000D03*
X33020000Y4255000D03*
%TD*%
D14*
%TO.C,C3*%
X24905000Y3810000D03*
X23355000Y3810000D03*
%TD*%
D12*
%TO.C,R1*%
X19875000Y1270000D03*
X18225000Y1270000D03*
%TD*%
D25*
%TO.C,Q1*%
X29480000Y6030000D03*
X29480000Y4130000D03*
X31580000Y5080000D03*
%TD*%
D24*
%TO.C,R10*%
X33020000Y9335000D03*
X33020000Y10985000D03*
%TD*%
D15*
%TO.C,R2*%
X18225000Y3810000D03*
X19875000Y3810000D03*
%TD*%
D20*
%TO.C,U1*%
X7250000Y1720000D03*
X8050000Y1720000D03*
X8850000Y1720000D03*
X9650000Y1720000D03*
X10450000Y1720000D03*
X11250000Y1720000D03*
X12050000Y1720000D03*
X12850000Y1720000D03*
X13650000Y1720000D03*
X14450000Y1720000D03*
X15250000Y1720000D03*
D21*
X16150000Y2820000D03*
X16150000Y3620000D03*
X16150000Y4420000D03*
X16150000Y5220000D03*
X16150000Y6020000D03*
X16150000Y6820000D03*
X16150000Y7620000D03*
X16150000Y8420000D03*
X16150000Y9220000D03*
X16150000Y10020000D03*
X16150000Y10820000D03*
X16150000Y11620000D03*
X16150000Y12420000D03*
D20*
X15250000Y13520000D03*
X14450000Y13520000D03*
X13650000Y13520000D03*
X12850000Y13520000D03*
X12050000Y13520000D03*
X11250000Y13520000D03*
X10450000Y13520000D03*
X9650000Y13520000D03*
X8850000Y13520000D03*
X8050000Y13520000D03*
X7250000Y13520000D03*
D21*
X6350000Y12420000D03*
X6350000Y11620000D03*
X6350000Y10820000D03*
X6350000Y10020000D03*
X6350000Y9220000D03*
X6350000Y8420000D03*
X6350000Y7620000D03*
X6350000Y6820000D03*
X6350000Y6020000D03*
X6350000Y5220000D03*
X6350000Y4420000D03*
X6350000Y3620000D03*
X6350000Y2820000D03*
D22*
X9275000Y5645000D03*
X11250000Y5645000D03*
X13225000Y5645000D03*
X13225000Y7620000D03*
X13225000Y9595000D03*
X11250000Y9595000D03*
X9275000Y9595000D03*
X9275000Y7620000D03*
X11250000Y7620000D03*
D23*
X6300000Y13570000D03*
X16200000Y13570000D03*
X16200000Y1670000D03*
X6300000Y1670000D03*
%TD*%
D13*
%TO.C,R7*%
X27940000Y5905000D03*
X27940000Y4255000D03*
%TD*%
D14*
%TO.C,C2*%
X24905000Y13970000D03*
X23355000Y13970000D03*
%TD*%
D19*
%TO.C,FID1*%
X6096000Y14732000D03*
%TD*%
D18*
%TO.C,J1*%
X36830000Y13970000D03*
X36830000Y11430000D03*
X36830000Y8890000D03*
X36830000Y6350000D03*
X36830000Y3810000D03*
X36830000Y1270000D03*
%TD*%
D17*
%TO.C,SW1*%
X18250000Y5570000D03*
X18250000Y9670000D03*
X19850000Y5570000D03*
X19850000Y9670000D03*
%TD*%
D16*
%TO.C,D2*%
X27152500Y1270000D03*
X28727500Y1270000D03*
%TD*%
D15*
%TO.C,R4*%
X18035000Y11430000D03*
X19685000Y11430000D03*
%TD*%
D14*
%TO.C,C4*%
X24905000Y1270000D03*
X23355000Y1270000D03*
%TD*%
D13*
%TO.C,R8*%
X27940000Y10985000D03*
X27940000Y9335000D03*
%TD*%
D12*
%TO.C,R6*%
X32575000Y1270000D03*
X30925000Y1270000D03*
%TD*%
D11*
%TO.C,JP2*%
X27940000Y8026400D03*
X27940000Y7213600D03*
%TD*%
M02*
