%TF.GenerationSoftware,KiCad,Pcbnew,9.0.3*%
%TF.CreationDate,2025-12-05T19:07:11-07:00*%
%TF.ProjectId,SparkFun_BlueSMiRF-v2-JST_panelized,53706172-6b46-4756-9e5f-426c7565534d,v10*%
%TF.SameCoordinates,Original*%
%TF.FileFunction,Paste,Top*%
%TF.FilePolarity,Positive*%
%FSLAX46Y46*%
G04 Gerber Fmt 4.6, Leading zero omitted, Abs format (unit mm)*
G04 Created by KiCad (PCBNEW 9.0.3) date 2025-12-05 19:07:11*
%MOMM*%
%LPD*%
G01*
G04 APERTURE LIST*
G04 Aperture macros list*
%AMRoundRect*
0 Rectangle with rounded corners*
0 $1 Rounding radius*
0 $2 $3 $4 $5 $6 $7 $8 $9 X,Y pos of 4 corners*
0 Add a 4 corners polygon primitive as box body*
4,1,4,$2,$3,$4,$5,$6,$7,$8,$9,$2,$3,0*
0 Add four circle primitives for the rounded corners*
1,1,$1+$1,$2,$3*
1,1,$1+$1,$4,$5*
1,1,$1+$1,$6,$7*
1,1,$1+$1,$8,$9*
0 Add four rect primitives between the rounded corners*
20,1,$1+$1,$2,$3,$4,$5,0*
20,1,$1+$1,$4,$5,$6,$7,0*
20,1,$1+$1,$6,$7,$8,$9,0*
20,1,$1+$1,$8,$9,$2,$3,0*%
G04 Aperture macros list end*
%ADD10C,0.000000*%
%ADD11RoundRect,0.218750X-0.218750X-0.256250X0.218750X-0.256250X0.218750X0.256250X-0.218750X0.256250X0*%
%ADD12R,0.900000X0.800000*%
%ADD13RoundRect,0.200000X0.200000X0.275000X-0.200000X0.275000X-0.200000X-0.275000X0.200000X-0.275000X0*%
%ADD14RoundRect,0.200000X-0.200000X-0.275000X0.200000X-0.275000X0.200000X0.275000X-0.200000X0.275000X0*%
%ADD15R,0.550000X1.200000*%
%ADD16RoundRect,0.225000X0.225000X0.250000X-0.225000X0.250000X-0.225000X-0.250000X0.225000X-0.250000X0*%
%ADD17RoundRect,0.200000X-0.275000X0.200000X-0.275000X-0.200000X0.275000X-0.200000X0.275000X0.200000X0*%
%ADD18RoundRect,0.200000X0.275000X-0.200000X0.275000X0.200000X-0.275000X0.200000X-0.275000X-0.200000X0*%
%ADD19R,0.320000X0.640000*%
%ADD20R,0.640000X0.320000*%
%ADD21R,0.560000X0.560000*%
%ADD22R,1.700000X0.600000*%
%ADD23R,2.700000X1.000000*%
%ADD24R,1.000000X0.900000*%
%ADD25RoundRect,0.225000X-0.225000X-0.250000X0.225000X-0.250000X0.225000X0.250000X-0.225000X0.250000X0*%
G04 APERTURE END LIST*
D10*
%TO.C,U1*%
G36*
X57148000Y87920000D02*
G01*
X56348000Y87920000D01*
X56348000Y88720000D01*
X57148000Y88720000D01*
X57148000Y87920000D01*
G37*
G36*
X57148000Y85920000D02*
G01*
X56348000Y85920000D01*
X56348000Y86720000D01*
X57148000Y86720000D01*
X57148000Y85920000D01*
G37*
G36*
X57148000Y83920000D02*
G01*
X56348000Y83920000D01*
X56348000Y84720000D01*
X57148000Y84720000D01*
X57148000Y83920000D01*
G37*
G36*
X59148000Y87920000D02*
G01*
X58348000Y87920000D01*
X58348000Y88720000D01*
X59148000Y88720000D01*
X59148000Y87920000D01*
G37*
G36*
X59148000Y85920000D02*
G01*
X58348000Y85920000D01*
X58348000Y86720000D01*
X59148000Y86720000D01*
X59148000Y85920000D01*
G37*
G36*
X59148000Y83920000D02*
G01*
X58348000Y83920000D01*
X58348000Y84720000D01*
X59148000Y84720000D01*
X59148000Y83920000D01*
G37*
G36*
X61148000Y87920000D02*
G01*
X60348000Y87920000D01*
X60348000Y88720000D01*
X61148000Y88720000D01*
X61148000Y87920000D01*
G37*
G36*
X61148000Y85920000D02*
G01*
X60348000Y85920000D01*
X60348000Y86720000D01*
X61148000Y86720000D01*
X61148000Y85920000D01*
G37*
G36*
X61148000Y83920000D02*
G01*
X60348000Y83920000D01*
X60348000Y84720000D01*
X61148000Y84720000D01*
X61148000Y83920000D01*
G37*
G36*
X104646000Y40700000D02*
G01*
X103846000Y40700000D01*
X103846000Y41500000D01*
X104646000Y41500000D01*
X104646000Y40700000D01*
G37*
G36*
X104646000Y38700000D02*
G01*
X103846000Y38700000D01*
X103846000Y39500000D01*
X104646000Y39500000D01*
X104646000Y38700000D01*
G37*
G36*
X104646000Y36700000D02*
G01*
X103846000Y36700000D01*
X103846000Y37500000D01*
X104646000Y37500000D01*
X104646000Y36700000D01*
G37*
G36*
X106646000Y40700000D02*
G01*
X105846000Y40700000D01*
X105846000Y41500000D01*
X106646000Y41500000D01*
X106646000Y40700000D01*
G37*
G36*
X106646000Y38700000D02*
G01*
X105846000Y38700000D01*
X105846000Y39500000D01*
X106646000Y39500000D01*
X106646000Y38700000D01*
G37*
G36*
X106646000Y36700000D02*
G01*
X105846000Y36700000D01*
X105846000Y37500000D01*
X106646000Y37500000D01*
X106646000Y36700000D01*
G37*
G36*
X108646000Y40700000D02*
G01*
X107846000Y40700000D01*
X107846000Y41500000D01*
X108646000Y41500000D01*
X108646000Y40700000D01*
G37*
G36*
X108646000Y38700000D02*
G01*
X107846000Y38700000D01*
X107846000Y39500000D01*
X108646000Y39500000D01*
X108646000Y38700000D01*
G37*
G36*
X108646000Y36700000D02*
G01*
X107846000Y36700000D01*
X107846000Y37500000D01*
X108646000Y37500000D01*
X108646000Y36700000D01*
G37*
G36*
X104646000Y9220000D02*
G01*
X103846000Y9220000D01*
X103846000Y10020000D01*
X104646000Y10020000D01*
X104646000Y9220000D01*
G37*
G36*
X104646000Y7220000D02*
G01*
X103846000Y7220000D01*
X103846000Y8020000D01*
X104646000Y8020000D01*
X104646000Y7220000D01*
G37*
G36*
X104646000Y5220000D02*
G01*
X103846000Y5220000D01*
X103846000Y6020000D01*
X104646000Y6020000D01*
X104646000Y5220000D01*
G37*
G36*
X106646000Y9220000D02*
G01*
X105846000Y9220000D01*
X105846000Y10020000D01*
X106646000Y10020000D01*
X106646000Y9220000D01*
G37*
G36*
X106646000Y7220000D02*
G01*
X105846000Y7220000D01*
X105846000Y8020000D01*
X106646000Y8020000D01*
X106646000Y7220000D01*
G37*
G36*
X106646000Y5220000D02*
G01*
X105846000Y5220000D01*
X105846000Y6020000D01*
X106646000Y6020000D01*
X106646000Y5220000D01*
G37*
G36*
X108646000Y9220000D02*
G01*
X107846000Y9220000D01*
X107846000Y10020000D01*
X108646000Y10020000D01*
X108646000Y9220000D01*
G37*
G36*
X108646000Y7220000D02*
G01*
X107846000Y7220000D01*
X107846000Y8020000D01*
X108646000Y8020000D01*
X108646000Y7220000D01*
G37*
G36*
X108646000Y5220000D02*
G01*
X107846000Y5220000D01*
X107846000Y6020000D01*
X108646000Y6020000D01*
X108646000Y5220000D01*
G37*
G36*
X9650000Y87920000D02*
G01*
X8850000Y87920000D01*
X8850000Y88720000D01*
X9650000Y88720000D01*
X9650000Y87920000D01*
G37*
G36*
X9650000Y85920000D02*
G01*
X8850000Y85920000D01*
X8850000Y86720000D01*
X9650000Y86720000D01*
X9650000Y85920000D01*
G37*
G36*
X9650000Y83920000D02*
G01*
X8850000Y83920000D01*
X8850000Y84720000D01*
X9650000Y84720000D01*
X9650000Y83920000D01*
G37*
G36*
X11650000Y87920000D02*
G01*
X10850000Y87920000D01*
X10850000Y88720000D01*
X11650000Y88720000D01*
X11650000Y87920000D01*
G37*
G36*
X11650000Y85920000D02*
G01*
X10850000Y85920000D01*
X10850000Y86720000D01*
X11650000Y86720000D01*
X11650000Y85920000D01*
G37*
G36*
X11650000Y83920000D02*
G01*
X10850000Y83920000D01*
X10850000Y84720000D01*
X11650000Y84720000D01*
X11650000Y83920000D01*
G37*
G36*
X13650000Y87920000D02*
G01*
X12850000Y87920000D01*
X12850000Y88720000D01*
X13650000Y88720000D01*
X13650000Y87920000D01*
G37*
G36*
X13650000Y85920000D02*
G01*
X12850000Y85920000D01*
X12850000Y86720000D01*
X13650000Y86720000D01*
X13650000Y85920000D01*
G37*
G36*
X13650000Y83920000D02*
G01*
X12850000Y83920000D01*
X12850000Y84720000D01*
X13650000Y84720000D01*
X13650000Y83920000D01*
G37*
G36*
X57148000Y9220000D02*
G01*
X56348000Y9220000D01*
X56348000Y10020000D01*
X57148000Y10020000D01*
X57148000Y9220000D01*
G37*
G36*
X57148000Y7220000D02*
G01*
X56348000Y7220000D01*
X56348000Y8020000D01*
X57148000Y8020000D01*
X57148000Y7220000D01*
G37*
G36*
X57148000Y5220000D02*
G01*
X56348000Y5220000D01*
X56348000Y6020000D01*
X57148000Y6020000D01*
X57148000Y5220000D01*
G37*
G36*
X59148000Y9220000D02*
G01*
X58348000Y9220000D01*
X58348000Y10020000D01*
X59148000Y10020000D01*
X59148000Y9220000D01*
G37*
G36*
X59148000Y7220000D02*
G01*
X58348000Y7220000D01*
X58348000Y8020000D01*
X59148000Y8020000D01*
X59148000Y7220000D01*
G37*
G36*
X59148000Y5220000D02*
G01*
X58348000Y5220000D01*
X58348000Y6020000D01*
X59148000Y6020000D01*
X59148000Y5220000D01*
G37*
G36*
X61148000Y9220000D02*
G01*
X60348000Y9220000D01*
X60348000Y10020000D01*
X61148000Y10020000D01*
X61148000Y9220000D01*
G37*
G36*
X61148000Y7220000D02*
G01*
X60348000Y7220000D01*
X60348000Y8020000D01*
X61148000Y8020000D01*
X61148000Y7220000D01*
G37*
G36*
X61148000Y5220000D02*
G01*
X60348000Y5220000D01*
X60348000Y6020000D01*
X61148000Y6020000D01*
X61148000Y5220000D01*
G37*
G36*
X57148000Y24960000D02*
G01*
X56348000Y24960000D01*
X56348000Y25760000D01*
X57148000Y25760000D01*
X57148000Y24960000D01*
G37*
G36*
X57148000Y22960000D02*
G01*
X56348000Y22960000D01*
X56348000Y23760000D01*
X57148000Y23760000D01*
X57148000Y22960000D01*
G37*
G36*
X57148000Y20960000D02*
G01*
X56348000Y20960000D01*
X56348000Y21760000D01*
X57148000Y21760000D01*
X57148000Y20960000D01*
G37*
G36*
X59148000Y24960000D02*
G01*
X58348000Y24960000D01*
X58348000Y25760000D01*
X59148000Y25760000D01*
X59148000Y24960000D01*
G37*
G36*
X59148000Y22960000D02*
G01*
X58348000Y22960000D01*
X58348000Y23760000D01*
X59148000Y23760000D01*
X59148000Y22960000D01*
G37*
G36*
X59148000Y20960000D02*
G01*
X58348000Y20960000D01*
X58348000Y21760000D01*
X59148000Y21760000D01*
X59148000Y20960000D01*
G37*
G36*
X61148000Y24960000D02*
G01*
X60348000Y24960000D01*
X60348000Y25760000D01*
X61148000Y25760000D01*
X61148000Y24960000D01*
G37*
G36*
X61148000Y22960000D02*
G01*
X60348000Y22960000D01*
X60348000Y23760000D01*
X61148000Y23760000D01*
X61148000Y22960000D01*
G37*
G36*
X61148000Y20960000D02*
G01*
X60348000Y20960000D01*
X60348000Y21760000D01*
X61148000Y21760000D01*
X61148000Y20960000D01*
G37*
G36*
X57148000Y40700000D02*
G01*
X56348000Y40700000D01*
X56348000Y41500000D01*
X57148000Y41500000D01*
X57148000Y40700000D01*
G37*
G36*
X57148000Y38700000D02*
G01*
X56348000Y38700000D01*
X56348000Y39500000D01*
X57148000Y39500000D01*
X57148000Y38700000D01*
G37*
G36*
X57148000Y36700000D02*
G01*
X56348000Y36700000D01*
X56348000Y37500000D01*
X57148000Y37500000D01*
X57148000Y36700000D01*
G37*
G36*
X59148000Y40700000D02*
G01*
X58348000Y40700000D01*
X58348000Y41500000D01*
X59148000Y41500000D01*
X59148000Y40700000D01*
G37*
G36*
X59148000Y38700000D02*
G01*
X58348000Y38700000D01*
X58348000Y39500000D01*
X59148000Y39500000D01*
X59148000Y38700000D01*
G37*
G36*
X59148000Y36700000D02*
G01*
X58348000Y36700000D01*
X58348000Y37500000D01*
X59148000Y37500000D01*
X59148000Y36700000D01*
G37*
G36*
X61148000Y40700000D02*
G01*
X60348000Y40700000D01*
X60348000Y41500000D01*
X61148000Y41500000D01*
X61148000Y40700000D01*
G37*
G36*
X61148000Y38700000D02*
G01*
X60348000Y38700000D01*
X60348000Y39500000D01*
X61148000Y39500000D01*
X61148000Y38700000D01*
G37*
G36*
X61148000Y36700000D02*
G01*
X60348000Y36700000D01*
X60348000Y37500000D01*
X61148000Y37500000D01*
X61148000Y36700000D01*
G37*
G36*
X57148000Y56440000D02*
G01*
X56348000Y56440000D01*
X56348000Y57240000D01*
X57148000Y57240000D01*
X57148000Y56440000D01*
G37*
G36*
X57148000Y54440000D02*
G01*
X56348000Y54440000D01*
X56348000Y55240000D01*
X57148000Y55240000D01*
X57148000Y54440000D01*
G37*
G36*
X57148000Y52440000D02*
G01*
X56348000Y52440000D01*
X56348000Y53240000D01*
X57148000Y53240000D01*
X57148000Y52440000D01*
G37*
G36*
X59148000Y56440000D02*
G01*
X58348000Y56440000D01*
X58348000Y57240000D01*
X59148000Y57240000D01*
X59148000Y56440000D01*
G37*
G36*
X59148000Y54440000D02*
G01*
X58348000Y54440000D01*
X58348000Y55240000D01*
X59148000Y55240000D01*
X59148000Y54440000D01*
G37*
G36*
X59148000Y52440000D02*
G01*
X58348000Y52440000D01*
X58348000Y53240000D01*
X59148000Y53240000D01*
X59148000Y52440000D01*
G37*
G36*
X61148000Y56440000D02*
G01*
X60348000Y56440000D01*
X60348000Y57240000D01*
X61148000Y57240000D01*
X61148000Y56440000D01*
G37*
G36*
X61148000Y54440000D02*
G01*
X60348000Y54440000D01*
X60348000Y55240000D01*
X61148000Y55240000D01*
X61148000Y54440000D01*
G37*
G36*
X61148000Y52440000D02*
G01*
X60348000Y52440000D01*
X60348000Y53240000D01*
X61148000Y53240000D01*
X61148000Y52440000D01*
G37*
G36*
X57148000Y72180000D02*
G01*
X56348000Y72180000D01*
X56348000Y72980000D01*
X57148000Y72980000D01*
X57148000Y72180000D01*
G37*
G36*
X57148000Y70180000D02*
G01*
X56348000Y70180000D01*
X56348000Y70980000D01*
X57148000Y70980000D01*
X57148000Y70180000D01*
G37*
G36*
X57148000Y68180000D02*
G01*
X56348000Y68180000D01*
X56348000Y68980000D01*
X57148000Y68980000D01*
X57148000Y68180000D01*
G37*
G36*
X59148000Y72180000D02*
G01*
X58348000Y72180000D01*
X58348000Y72980000D01*
X59148000Y72980000D01*
X59148000Y72180000D01*
G37*
G36*
X59148000Y70180000D02*
G01*
X58348000Y70180000D01*
X58348000Y70980000D01*
X59148000Y70980000D01*
X59148000Y70180000D01*
G37*
G36*
X59148000Y68180000D02*
G01*
X58348000Y68180000D01*
X58348000Y68980000D01*
X59148000Y68980000D01*
X59148000Y68180000D01*
G37*
G36*
X61148000Y72180000D02*
G01*
X60348000Y72180000D01*
X60348000Y72980000D01*
X61148000Y72980000D01*
X61148000Y72180000D01*
G37*
G36*
X61148000Y70180000D02*
G01*
X60348000Y70180000D01*
X60348000Y70980000D01*
X61148000Y70980000D01*
X61148000Y70180000D01*
G37*
G36*
X61148000Y68180000D02*
G01*
X60348000Y68180000D01*
X60348000Y68980000D01*
X61148000Y68980000D01*
X61148000Y68180000D01*
G37*
G36*
X104646000Y24960000D02*
G01*
X103846000Y24960000D01*
X103846000Y25760000D01*
X104646000Y25760000D01*
X104646000Y24960000D01*
G37*
G36*
X104646000Y22960000D02*
G01*
X103846000Y22960000D01*
X103846000Y23760000D01*
X104646000Y23760000D01*
X104646000Y22960000D01*
G37*
G36*
X104646000Y20960000D02*
G01*
X103846000Y20960000D01*
X103846000Y21760000D01*
X104646000Y21760000D01*
X104646000Y20960000D01*
G37*
G36*
X106646000Y24960000D02*
G01*
X105846000Y24960000D01*
X105846000Y25760000D01*
X106646000Y25760000D01*
X106646000Y24960000D01*
G37*
G36*
X106646000Y22960000D02*
G01*
X105846000Y22960000D01*
X105846000Y23760000D01*
X106646000Y23760000D01*
X106646000Y22960000D01*
G37*
G36*
X106646000Y20960000D02*
G01*
X105846000Y20960000D01*
X105846000Y21760000D01*
X106646000Y21760000D01*
X106646000Y20960000D01*
G37*
G36*
X108646000Y24960000D02*
G01*
X107846000Y24960000D01*
X107846000Y25760000D01*
X108646000Y25760000D01*
X108646000Y24960000D01*
G37*
G36*
X108646000Y22960000D02*
G01*
X107846000Y22960000D01*
X107846000Y23760000D01*
X108646000Y23760000D01*
X108646000Y22960000D01*
G37*
G36*
X108646000Y20960000D02*
G01*
X107846000Y20960000D01*
X107846000Y21760000D01*
X108646000Y21760000D01*
X108646000Y20960000D01*
G37*
G36*
X104646000Y87920000D02*
G01*
X103846000Y87920000D01*
X103846000Y88720000D01*
X104646000Y88720000D01*
X104646000Y87920000D01*
G37*
G36*
X104646000Y85920000D02*
G01*
X103846000Y85920000D01*
X103846000Y86720000D01*
X104646000Y86720000D01*
X104646000Y85920000D01*
G37*
G36*
X104646000Y83920000D02*
G01*
X103846000Y83920000D01*
X103846000Y84720000D01*
X104646000Y84720000D01*
X104646000Y83920000D01*
G37*
G36*
X106646000Y87920000D02*
G01*
X105846000Y87920000D01*
X105846000Y88720000D01*
X106646000Y88720000D01*
X106646000Y87920000D01*
G37*
G36*
X106646000Y85920000D02*
G01*
X105846000Y85920000D01*
X105846000Y86720000D01*
X106646000Y86720000D01*
X106646000Y85920000D01*
G37*
G36*
X106646000Y83920000D02*
G01*
X105846000Y83920000D01*
X105846000Y84720000D01*
X106646000Y84720000D01*
X106646000Y83920000D01*
G37*
G36*
X108646000Y87920000D02*
G01*
X107846000Y87920000D01*
X107846000Y88720000D01*
X108646000Y88720000D01*
X108646000Y87920000D01*
G37*
G36*
X108646000Y85920000D02*
G01*
X107846000Y85920000D01*
X107846000Y86720000D01*
X108646000Y86720000D01*
X108646000Y85920000D01*
G37*
G36*
X108646000Y83920000D02*
G01*
X107846000Y83920000D01*
X107846000Y84720000D01*
X108646000Y84720000D01*
X108646000Y83920000D01*
G37*
G36*
X104646000Y72180000D02*
G01*
X103846000Y72180000D01*
X103846000Y72980000D01*
X104646000Y72980000D01*
X104646000Y72180000D01*
G37*
G36*
X104646000Y70180000D02*
G01*
X103846000Y70180000D01*
X103846000Y70980000D01*
X104646000Y70980000D01*
X104646000Y70180000D01*
G37*
G36*
X104646000Y68180000D02*
G01*
X103846000Y68180000D01*
X103846000Y68980000D01*
X104646000Y68980000D01*
X104646000Y68180000D01*
G37*
G36*
X106646000Y72180000D02*
G01*
X105846000Y72180000D01*
X105846000Y72980000D01*
X106646000Y72980000D01*
X106646000Y72180000D01*
G37*
G36*
X106646000Y70180000D02*
G01*
X105846000Y70180000D01*
X105846000Y70980000D01*
X106646000Y70980000D01*
X106646000Y70180000D01*
G37*
G36*
X106646000Y68180000D02*
G01*
X105846000Y68180000D01*
X105846000Y68980000D01*
X106646000Y68980000D01*
X106646000Y68180000D01*
G37*
G36*
X108646000Y72180000D02*
G01*
X107846000Y72180000D01*
X107846000Y72980000D01*
X108646000Y72980000D01*
X108646000Y72180000D01*
G37*
G36*
X108646000Y70180000D02*
G01*
X107846000Y70180000D01*
X107846000Y70980000D01*
X108646000Y70980000D01*
X108646000Y70180000D01*
G37*
G36*
X108646000Y68180000D02*
G01*
X107846000Y68180000D01*
X107846000Y68980000D01*
X108646000Y68980000D01*
X108646000Y68180000D01*
G37*
G36*
X104646000Y56440000D02*
G01*
X103846000Y56440000D01*
X103846000Y57240000D01*
X104646000Y57240000D01*
X104646000Y56440000D01*
G37*
G36*
X104646000Y54440000D02*
G01*
X103846000Y54440000D01*
X103846000Y55240000D01*
X104646000Y55240000D01*
X104646000Y54440000D01*
G37*
G36*
X104646000Y52440000D02*
G01*
X103846000Y52440000D01*
X103846000Y53240000D01*
X104646000Y53240000D01*
X104646000Y52440000D01*
G37*
G36*
X106646000Y56440000D02*
G01*
X105846000Y56440000D01*
X105846000Y57240000D01*
X106646000Y57240000D01*
X106646000Y56440000D01*
G37*
G36*
X106646000Y54440000D02*
G01*
X105846000Y54440000D01*
X105846000Y55240000D01*
X106646000Y55240000D01*
X106646000Y54440000D01*
G37*
G36*
X106646000Y52440000D02*
G01*
X105846000Y52440000D01*
X105846000Y53240000D01*
X106646000Y53240000D01*
X106646000Y52440000D01*
G37*
G36*
X108646000Y56440000D02*
G01*
X107846000Y56440000D01*
X107846000Y57240000D01*
X108646000Y57240000D01*
X108646000Y56440000D01*
G37*
G36*
X108646000Y54440000D02*
G01*
X107846000Y54440000D01*
X107846000Y55240000D01*
X108646000Y55240000D01*
X108646000Y54440000D01*
G37*
G36*
X108646000Y52440000D02*
G01*
X107846000Y52440000D01*
X107846000Y53240000D01*
X108646000Y53240000D01*
X108646000Y52440000D01*
G37*
G36*
X9650000Y40700000D02*
G01*
X8850000Y40700000D01*
X8850000Y41500000D01*
X9650000Y41500000D01*
X9650000Y40700000D01*
G37*
G36*
X9650000Y38700000D02*
G01*
X8850000Y38700000D01*
X8850000Y39500000D01*
X9650000Y39500000D01*
X9650000Y38700000D01*
G37*
G36*
X9650000Y36700000D02*
G01*
X8850000Y36700000D01*
X8850000Y37500000D01*
X9650000Y37500000D01*
X9650000Y36700000D01*
G37*
G36*
X11650000Y40700000D02*
G01*
X10850000Y40700000D01*
X10850000Y41500000D01*
X11650000Y41500000D01*
X11650000Y40700000D01*
G37*
G36*
X11650000Y38700000D02*
G01*
X10850000Y38700000D01*
X10850000Y39500000D01*
X11650000Y39500000D01*
X11650000Y38700000D01*
G37*
G36*
X11650000Y36700000D02*
G01*
X10850000Y36700000D01*
X10850000Y37500000D01*
X11650000Y37500000D01*
X11650000Y36700000D01*
G37*
G36*
X13650000Y40700000D02*
G01*
X12850000Y40700000D01*
X12850000Y41500000D01*
X13650000Y41500000D01*
X13650000Y40700000D01*
G37*
G36*
X13650000Y38700000D02*
G01*
X12850000Y38700000D01*
X12850000Y39500000D01*
X13650000Y39500000D01*
X13650000Y38700000D01*
G37*
G36*
X13650000Y36700000D02*
G01*
X12850000Y36700000D01*
X12850000Y37500000D01*
X13650000Y37500000D01*
X13650000Y36700000D01*
G37*
G36*
X9650000Y56440000D02*
G01*
X8850000Y56440000D01*
X8850000Y57240000D01*
X9650000Y57240000D01*
X9650000Y56440000D01*
G37*
G36*
X9650000Y54440000D02*
G01*
X8850000Y54440000D01*
X8850000Y55240000D01*
X9650000Y55240000D01*
X9650000Y54440000D01*
G37*
G36*
X9650000Y52440000D02*
G01*
X8850000Y52440000D01*
X8850000Y53240000D01*
X9650000Y53240000D01*
X9650000Y52440000D01*
G37*
G36*
X11650000Y56440000D02*
G01*
X10850000Y56440000D01*
X10850000Y57240000D01*
X11650000Y57240000D01*
X11650000Y56440000D01*
G37*
G36*
X11650000Y54440000D02*
G01*
X10850000Y54440000D01*
X10850000Y55240000D01*
X11650000Y55240000D01*
X11650000Y54440000D01*
G37*
G36*
X11650000Y52440000D02*
G01*
X10850000Y52440000D01*
X10850000Y53240000D01*
X11650000Y53240000D01*
X11650000Y52440000D01*
G37*
G36*
X13650000Y56440000D02*
G01*
X12850000Y56440000D01*
X12850000Y57240000D01*
X13650000Y57240000D01*
X13650000Y56440000D01*
G37*
G36*
X13650000Y54440000D02*
G01*
X12850000Y54440000D01*
X12850000Y55240000D01*
X13650000Y55240000D01*
X13650000Y54440000D01*
G37*
G36*
X13650000Y52440000D02*
G01*
X12850000Y52440000D01*
X12850000Y53240000D01*
X13650000Y53240000D01*
X13650000Y52440000D01*
G37*
G36*
X9650000Y24960000D02*
G01*
X8850000Y24960000D01*
X8850000Y25760000D01*
X9650000Y25760000D01*
X9650000Y24960000D01*
G37*
G36*
X9650000Y22960000D02*
G01*
X8850000Y22960000D01*
X8850000Y23760000D01*
X9650000Y23760000D01*
X9650000Y22960000D01*
G37*
G36*
X9650000Y20960000D02*
G01*
X8850000Y20960000D01*
X8850000Y21760000D01*
X9650000Y21760000D01*
X9650000Y20960000D01*
G37*
G36*
X11650000Y24960000D02*
G01*
X10850000Y24960000D01*
X10850000Y25760000D01*
X11650000Y25760000D01*
X11650000Y24960000D01*
G37*
G36*
X11650000Y22960000D02*
G01*
X10850000Y22960000D01*
X10850000Y23760000D01*
X11650000Y23760000D01*
X11650000Y22960000D01*
G37*
G36*
X11650000Y20960000D02*
G01*
X10850000Y20960000D01*
X10850000Y21760000D01*
X11650000Y21760000D01*
X11650000Y20960000D01*
G37*
G36*
X13650000Y24960000D02*
G01*
X12850000Y24960000D01*
X12850000Y25760000D01*
X13650000Y25760000D01*
X13650000Y24960000D01*
G37*
G36*
X13650000Y22960000D02*
G01*
X12850000Y22960000D01*
X12850000Y23760000D01*
X13650000Y23760000D01*
X13650000Y22960000D01*
G37*
G36*
X13650000Y20960000D02*
G01*
X12850000Y20960000D01*
X12850000Y21760000D01*
X13650000Y21760000D01*
X13650000Y20960000D01*
G37*
G36*
X9650000Y72180000D02*
G01*
X8850000Y72180000D01*
X8850000Y72980000D01*
X9650000Y72980000D01*
X9650000Y72180000D01*
G37*
G36*
X9650000Y70180000D02*
G01*
X8850000Y70180000D01*
X8850000Y70980000D01*
X9650000Y70980000D01*
X9650000Y70180000D01*
G37*
G36*
X9650000Y68180000D02*
G01*
X8850000Y68180000D01*
X8850000Y68980000D01*
X9650000Y68980000D01*
X9650000Y68180000D01*
G37*
G36*
X11650000Y72180000D02*
G01*
X10850000Y72180000D01*
X10850000Y72980000D01*
X11650000Y72980000D01*
X11650000Y72180000D01*
G37*
G36*
X11650000Y70180000D02*
G01*
X10850000Y70180000D01*
X10850000Y70980000D01*
X11650000Y70980000D01*
X11650000Y70180000D01*
G37*
G36*
X11650000Y68180000D02*
G01*
X10850000Y68180000D01*
X10850000Y68980000D01*
X11650000Y68980000D01*
X11650000Y68180000D01*
G37*
G36*
X13650000Y72180000D02*
G01*
X12850000Y72180000D01*
X12850000Y72980000D01*
X13650000Y72980000D01*
X13650000Y72180000D01*
G37*
G36*
X13650000Y70180000D02*
G01*
X12850000Y70180000D01*
X12850000Y70980000D01*
X13650000Y70980000D01*
X13650000Y70180000D01*
G37*
G36*
X13650000Y68180000D02*
G01*
X12850000Y68180000D01*
X12850000Y68980000D01*
X13650000Y68980000D01*
X13650000Y68180000D01*
G37*
G36*
X9650000Y9220000D02*
G01*
X8850000Y9220000D01*
X8850000Y10020000D01*
X9650000Y10020000D01*
X9650000Y9220000D01*
G37*
G36*
X9650000Y7220000D02*
G01*
X8850000Y7220000D01*
X8850000Y8020000D01*
X9650000Y8020000D01*
X9650000Y7220000D01*
G37*
G36*
X9650000Y5220000D02*
G01*
X8850000Y5220000D01*
X8850000Y6020000D01*
X9650000Y6020000D01*
X9650000Y5220000D01*
G37*
G36*
X11650000Y9220000D02*
G01*
X10850000Y9220000D01*
X10850000Y10020000D01*
X11650000Y10020000D01*
X11650000Y9220000D01*
G37*
G36*
X11650000Y7220000D02*
G01*
X10850000Y7220000D01*
X10850000Y8020000D01*
X11650000Y8020000D01*
X11650000Y7220000D01*
G37*
G36*
X11650000Y5220000D02*
G01*
X10850000Y5220000D01*
X10850000Y6020000D01*
X11650000Y6020000D01*
X11650000Y5220000D01*
G37*
G36*
X13650000Y9220000D02*
G01*
X12850000Y9220000D01*
X12850000Y10020000D01*
X13650000Y10020000D01*
X13650000Y9220000D01*
G37*
G36*
X13650000Y7220000D02*
G01*
X12850000Y7220000D01*
X12850000Y8020000D01*
X13650000Y8020000D01*
X13650000Y7220000D01*
G37*
G36*
X13650000Y5220000D02*
G01*
X12850000Y5220000D01*
X12850000Y6020000D01*
X13650000Y6020000D01*
X13650000Y5220000D01*
G37*
%TD*%
D11*
%TO.C,D1*%
X27152500Y13970000D03*
X28727500Y13970000D03*
%TD*%
%TO.C,D1*%
X27152500Y29710000D03*
X28727500Y29710000D03*
%TD*%
%TO.C,D1*%
X27152500Y61190000D03*
X28727500Y61190000D03*
%TD*%
%TO.C,D1*%
X27152500Y45450000D03*
X28727500Y45450000D03*
%TD*%
%TO.C,D1*%
X74650500Y76930000D03*
X76225500Y76930000D03*
%TD*%
%TO.C,D1*%
X74650500Y13970000D03*
X76225500Y13970000D03*
%TD*%
%TO.C,D1*%
X122148500Y13970000D03*
X123723500Y13970000D03*
%TD*%
%TO.C,D1*%
X74650500Y45450000D03*
X76225500Y45450000D03*
%TD*%
%TO.C,D1*%
X27152500Y92670000D03*
X28727500Y92670000D03*
%TD*%
%TO.C,D1*%
X27152500Y76930000D03*
X28727500Y76930000D03*
%TD*%
%TO.C,D1*%
X74650500Y29710000D03*
X76225500Y29710000D03*
%TD*%
%TO.C,D1*%
X74650500Y61190000D03*
X76225500Y61190000D03*
%TD*%
%TO.C,D1*%
X74650500Y92670000D03*
X76225500Y92670000D03*
%TD*%
%TO.C,D1*%
X122148500Y45450000D03*
X123723500Y45450000D03*
%TD*%
%TO.C,D1*%
X122148500Y76930000D03*
X123723500Y76930000D03*
%TD*%
%TO.C,D1*%
X122148500Y61190000D03*
X123723500Y61190000D03*
%TD*%
%TO.C,D1*%
X122148500Y29710000D03*
X123723500Y29710000D03*
%TD*%
%TO.C,D1*%
X122148500Y92670000D03*
X123723500Y92670000D03*
%TD*%
D12*
%TO.C,Q2*%
X124476000Y89810000D03*
X124476000Y87910000D03*
X126576000Y88860000D03*
%TD*%
%TO.C,Q2*%
X124476000Y74070000D03*
X124476000Y72170000D03*
X126576000Y73120000D03*
%TD*%
%TO.C,Q2*%
X29480000Y11110000D03*
X29480000Y9210000D03*
X31580000Y10160000D03*
%TD*%
%TO.C,Q2*%
X29480000Y74070000D03*
X29480000Y72170000D03*
X31580000Y73120000D03*
%TD*%
%TO.C,Q2*%
X29480000Y26850000D03*
X29480000Y24950000D03*
X31580000Y25900000D03*
%TD*%
%TO.C,Q2*%
X29480000Y42590000D03*
X29480000Y40690000D03*
X31580000Y41640000D03*
%TD*%
%TO.C,Q2*%
X29480000Y58330000D03*
X29480000Y56430000D03*
X31580000Y57380000D03*
%TD*%
%TO.C,Q2*%
X29480000Y89810000D03*
X29480000Y87910000D03*
X31580000Y88860000D03*
%TD*%
%TO.C,Q2*%
X76978000Y11110000D03*
X76978000Y9210000D03*
X79078000Y10160000D03*
%TD*%
%TO.C,Q2*%
X76978000Y26850000D03*
X76978000Y24950000D03*
X79078000Y25900000D03*
%TD*%
%TO.C,Q2*%
X124476000Y58330000D03*
X124476000Y56430000D03*
X126576000Y57380000D03*
%TD*%
%TO.C,Q2*%
X124476000Y26850000D03*
X124476000Y24950000D03*
X126576000Y25900000D03*
%TD*%
%TO.C,Q2*%
X76978000Y42590000D03*
X76978000Y40690000D03*
X79078000Y41640000D03*
%TD*%
%TO.C,Q2*%
X76978000Y58330000D03*
X76978000Y56430000D03*
X79078000Y57380000D03*
%TD*%
%TO.C,Q2*%
X76978000Y74070000D03*
X76978000Y72170000D03*
X79078000Y73120000D03*
%TD*%
%TO.C,Q2*%
X76978000Y89810000D03*
X76978000Y87910000D03*
X79078000Y88860000D03*
%TD*%
%TO.C,Q2*%
X124476000Y11110000D03*
X124476000Y9210000D03*
X126576000Y10160000D03*
%TD*%
%TO.C,Q2*%
X124476000Y42590000D03*
X124476000Y40690000D03*
X126576000Y41640000D03*
%TD*%
D13*
%TO.C,R3*%
X19875000Y76930000D03*
X18225000Y76930000D03*
%TD*%
%TO.C,R3*%
X67373000Y13970000D03*
X65723000Y13970000D03*
%TD*%
%TO.C,R3*%
X67373000Y61190000D03*
X65723000Y61190000D03*
%TD*%
%TO.C,R3*%
X67373000Y92670000D03*
X65723000Y92670000D03*
%TD*%
%TO.C,R3*%
X67373000Y29710000D03*
X65723000Y29710000D03*
%TD*%
%TO.C,R3*%
X19875000Y45450000D03*
X18225000Y45450000D03*
%TD*%
%TO.C,R3*%
X19875000Y29710000D03*
X18225000Y29710000D03*
%TD*%
%TO.C,R3*%
X19875000Y61190000D03*
X18225000Y61190000D03*
%TD*%
%TO.C,R3*%
X19875000Y92670000D03*
X18225000Y92670000D03*
%TD*%
%TO.C,R3*%
X67373000Y45450000D03*
X65723000Y45450000D03*
%TD*%
%TO.C,R3*%
X67373000Y76930000D03*
X65723000Y76930000D03*
%TD*%
%TO.C,R3*%
X114871000Y29710000D03*
X113221000Y29710000D03*
%TD*%
%TO.C,R3*%
X114871000Y61190000D03*
X113221000Y61190000D03*
%TD*%
%TO.C,R3*%
X114871000Y92670000D03*
X113221000Y92670000D03*
%TD*%
%TO.C,R3*%
X114871000Y13970000D03*
X113221000Y13970000D03*
%TD*%
%TO.C,R3*%
X114871000Y45450000D03*
X113221000Y45450000D03*
%TD*%
%TO.C,R3*%
X114871000Y76930000D03*
X113221000Y76930000D03*
%TD*%
%TO.C,R3*%
X19875000Y13970000D03*
X18225000Y13970000D03*
%TD*%
D14*
%TO.C,R5*%
X30925000Y76930000D03*
X32575000Y76930000D03*
%TD*%
%TO.C,R5*%
X30925000Y29710000D03*
X32575000Y29710000D03*
%TD*%
%TO.C,R5*%
X30925000Y45450000D03*
X32575000Y45450000D03*
%TD*%
%TO.C,R5*%
X125921000Y13970000D03*
X127571000Y13970000D03*
%TD*%
%TO.C,R5*%
X78423000Y29710000D03*
X80073000Y29710000D03*
%TD*%
%TO.C,R5*%
X30925000Y92670000D03*
X32575000Y92670000D03*
%TD*%
%TO.C,R5*%
X78423000Y45450000D03*
X80073000Y45450000D03*
%TD*%
%TO.C,R5*%
X78423000Y92670000D03*
X80073000Y92670000D03*
%TD*%
%TO.C,R5*%
X30925000Y61190000D03*
X32575000Y61190000D03*
%TD*%
%TO.C,R5*%
X78423000Y13970000D03*
X80073000Y13970000D03*
%TD*%
%TO.C,R5*%
X78423000Y76930000D03*
X80073000Y76930000D03*
%TD*%
%TO.C,R5*%
X78423000Y61190000D03*
X80073000Y61190000D03*
%TD*%
%TO.C,R5*%
X125921000Y29710000D03*
X127571000Y29710000D03*
%TD*%
%TO.C,R5*%
X125921000Y61190000D03*
X127571000Y61190000D03*
%TD*%
%TO.C,R5*%
X125921000Y76930000D03*
X127571000Y76930000D03*
%TD*%
%TO.C,R5*%
X125921000Y45450000D03*
X127571000Y45450000D03*
%TD*%
%TO.C,R5*%
X125921000Y92670000D03*
X127571000Y92670000D03*
%TD*%
%TO.C,R5*%
X30925000Y13970000D03*
X32575000Y13970000D03*
%TD*%
D15*
%TO.C,U2*%
X25080000Y87620100D03*
X24130000Y87620100D03*
X23180000Y87620100D03*
X23180000Y85019900D03*
X25080000Y85019900D03*
%TD*%
%TO.C,U2*%
X72578000Y56140100D03*
X71628000Y56140100D03*
X70678000Y56140100D03*
X70678000Y53539900D03*
X72578000Y53539900D03*
%TD*%
%TO.C,U2*%
X25080000Y71880100D03*
X24130000Y71880100D03*
X23180000Y71880100D03*
X23180000Y69279900D03*
X25080000Y69279900D03*
%TD*%
%TO.C,U2*%
X72578000Y8920100D03*
X71628000Y8920100D03*
X70678000Y8920100D03*
X70678000Y6319900D03*
X72578000Y6319900D03*
%TD*%
%TO.C,U2*%
X25080000Y24660100D03*
X24130000Y24660100D03*
X23180000Y24660100D03*
X23180000Y22059900D03*
X25080000Y22059900D03*
%TD*%
%TO.C,U2*%
X25080000Y56140100D03*
X24130000Y56140100D03*
X23180000Y56140100D03*
X23180000Y53539900D03*
X25080000Y53539900D03*
%TD*%
%TO.C,U2*%
X72578000Y24660100D03*
X71628000Y24660100D03*
X70678000Y24660100D03*
X70678000Y22059900D03*
X72578000Y22059900D03*
%TD*%
%TO.C,U2*%
X25080000Y40400100D03*
X24130000Y40400100D03*
X23180000Y40400100D03*
X23180000Y37799900D03*
X25080000Y37799900D03*
%TD*%
%TO.C,U2*%
X72578000Y40400100D03*
X71628000Y40400100D03*
X70678000Y40400100D03*
X70678000Y37799900D03*
X72578000Y37799900D03*
%TD*%
%TO.C,U2*%
X120076000Y71880100D03*
X119126000Y71880100D03*
X118176000Y71880100D03*
X118176000Y69279900D03*
X120076000Y69279900D03*
%TD*%
%TO.C,U2*%
X120076000Y87620100D03*
X119126000Y87620100D03*
X118176000Y87620100D03*
X118176000Y85019900D03*
X120076000Y85019900D03*
%TD*%
%TO.C,U2*%
X72578000Y87620100D03*
X71628000Y87620100D03*
X70678000Y87620100D03*
X70678000Y85019900D03*
X72578000Y85019900D03*
%TD*%
%TO.C,U2*%
X120076000Y24660100D03*
X119126000Y24660100D03*
X118176000Y24660100D03*
X118176000Y22059900D03*
X120076000Y22059900D03*
%TD*%
%TO.C,U2*%
X120076000Y40400100D03*
X119126000Y40400100D03*
X118176000Y40400100D03*
X118176000Y37799900D03*
X120076000Y37799900D03*
%TD*%
%TO.C,U2*%
X72578000Y71880100D03*
X71628000Y71880100D03*
X70678000Y71880100D03*
X70678000Y69279900D03*
X72578000Y69279900D03*
%TD*%
%TO.C,U2*%
X120076000Y56140100D03*
X119126000Y56140100D03*
X118176000Y56140100D03*
X118176000Y53539900D03*
X120076000Y53539900D03*
%TD*%
%TO.C,U2*%
X120076000Y8920100D03*
X119126000Y8920100D03*
X118176000Y8920100D03*
X118176000Y6319900D03*
X120076000Y6319900D03*
%TD*%
%TO.C,U2*%
X25080000Y8920100D03*
X24130000Y8920100D03*
X23180000Y8920100D03*
X23180000Y6319900D03*
X25080000Y6319900D03*
%TD*%
D16*
%TO.C,C1*%
X24905000Y42910000D03*
X23355000Y42910000D03*
%TD*%
%TO.C,C1*%
X24905000Y27170000D03*
X23355000Y27170000D03*
%TD*%
%TO.C,C1*%
X72403000Y11430000D03*
X70853000Y11430000D03*
%TD*%
%TO.C,C1*%
X72403000Y42910000D03*
X70853000Y42910000D03*
%TD*%
%TO.C,C1*%
X24905000Y74390000D03*
X23355000Y74390000D03*
%TD*%
%TO.C,C1*%
X24905000Y90130000D03*
X23355000Y90130000D03*
%TD*%
%TO.C,C1*%
X24905000Y58650000D03*
X23355000Y58650000D03*
%TD*%
%TO.C,C1*%
X119901000Y58650000D03*
X118351000Y58650000D03*
%TD*%
%TO.C,C1*%
X119901000Y11430000D03*
X118351000Y11430000D03*
%TD*%
%TO.C,C1*%
X72403000Y58650000D03*
X70853000Y58650000D03*
%TD*%
%TO.C,C1*%
X119901000Y42910000D03*
X118351000Y42910000D03*
%TD*%
%TO.C,C1*%
X72403000Y27170000D03*
X70853000Y27170000D03*
%TD*%
%TO.C,C1*%
X72403000Y74390000D03*
X70853000Y74390000D03*
%TD*%
%TO.C,C1*%
X72403000Y90130000D03*
X70853000Y90130000D03*
%TD*%
%TO.C,C1*%
X119901000Y27170000D03*
X118351000Y27170000D03*
%TD*%
%TO.C,C1*%
X119901000Y90130000D03*
X118351000Y90130000D03*
%TD*%
%TO.C,C1*%
X119901000Y74390000D03*
X118351000Y74390000D03*
%TD*%
%TO.C,C1*%
X24905000Y11430000D03*
X23355000Y11430000D03*
%TD*%
D17*
%TO.C,R9*%
X33020000Y68865000D03*
X33020000Y67215000D03*
%TD*%
%TO.C,R9*%
X33020000Y21645000D03*
X33020000Y19995000D03*
%TD*%
%TO.C,R9*%
X33020000Y37385000D03*
X33020000Y35735000D03*
%TD*%
%TO.C,R9*%
X33020000Y53125000D03*
X33020000Y51475000D03*
%TD*%
%TO.C,R9*%
X128016000Y5905000D03*
X128016000Y4255000D03*
%TD*%
%TO.C,R9*%
X80518000Y68865000D03*
X80518000Y67215000D03*
%TD*%
%TO.C,R9*%
X80518000Y53125000D03*
X80518000Y51475000D03*
%TD*%
%TO.C,R9*%
X128016000Y21645000D03*
X128016000Y19995000D03*
%TD*%
%TO.C,R9*%
X33020000Y84605000D03*
X33020000Y82955000D03*
%TD*%
%TO.C,R9*%
X80518000Y5905000D03*
X80518000Y4255000D03*
%TD*%
%TO.C,R9*%
X80518000Y21645000D03*
X80518000Y19995000D03*
%TD*%
%TO.C,R9*%
X80518000Y37385000D03*
X80518000Y35735000D03*
%TD*%
%TO.C,R9*%
X80518000Y84605000D03*
X80518000Y82955000D03*
%TD*%
%TO.C,R9*%
X128016000Y37385000D03*
X128016000Y35735000D03*
%TD*%
%TO.C,R9*%
X128016000Y53125000D03*
X128016000Y51475000D03*
%TD*%
%TO.C,R9*%
X128016000Y68865000D03*
X128016000Y67215000D03*
%TD*%
%TO.C,R9*%
X128016000Y84605000D03*
X128016000Y82955000D03*
%TD*%
%TO.C,R9*%
X33020000Y5905000D03*
X33020000Y4255000D03*
%TD*%
D16*
%TO.C,C3*%
X24905000Y66770000D03*
X23355000Y66770000D03*
%TD*%
%TO.C,C3*%
X24905000Y82510000D03*
X23355000Y82510000D03*
%TD*%
%TO.C,C3*%
X72403000Y3810000D03*
X70853000Y3810000D03*
%TD*%
%TO.C,C3*%
X24905000Y19550000D03*
X23355000Y19550000D03*
%TD*%
%TO.C,C3*%
X24905000Y51030000D03*
X23355000Y51030000D03*
%TD*%
%TO.C,C3*%
X24905000Y35290000D03*
X23355000Y35290000D03*
%TD*%
%TO.C,C3*%
X72403000Y66770000D03*
X70853000Y66770000D03*
%TD*%
%TO.C,C3*%
X119901000Y3810000D03*
X118351000Y3810000D03*
%TD*%
%TO.C,C3*%
X119901000Y35290000D03*
X118351000Y35290000D03*
%TD*%
%TO.C,C3*%
X119901000Y66770000D03*
X118351000Y66770000D03*
%TD*%
%TO.C,C3*%
X72403000Y19550000D03*
X70853000Y19550000D03*
%TD*%
%TO.C,C3*%
X119901000Y82510000D03*
X118351000Y82510000D03*
%TD*%
%TO.C,C3*%
X72403000Y35290000D03*
X70853000Y35290000D03*
%TD*%
%TO.C,C3*%
X72403000Y51030000D03*
X70853000Y51030000D03*
%TD*%
%TO.C,C3*%
X72403000Y82510000D03*
X70853000Y82510000D03*
%TD*%
%TO.C,C3*%
X119901000Y19550000D03*
X118351000Y19550000D03*
%TD*%
%TO.C,C3*%
X119901000Y51030000D03*
X118351000Y51030000D03*
%TD*%
%TO.C,C3*%
X24905000Y3810000D03*
X23355000Y3810000D03*
%TD*%
D14*
%TO.C,R1*%
X17885000Y48490000D03*
X19535000Y48490000D03*
%TD*%
%TO.C,R1*%
X17885000Y17010000D03*
X19535000Y17010000D03*
%TD*%
%TO.C,R1*%
X17885000Y32750000D03*
X19535000Y32750000D03*
%TD*%
%TO.C,R1*%
X17885000Y64230000D03*
X19535000Y64230000D03*
%TD*%
%TO.C,R1*%
X65383000Y48490000D03*
X67033000Y48490000D03*
%TD*%
%TO.C,R1*%
X112881000Y17010000D03*
X114531000Y17010000D03*
%TD*%
%TO.C,R1*%
X112881000Y1270000D03*
X114531000Y1270000D03*
%TD*%
%TO.C,R1*%
X112881000Y64230000D03*
X114531000Y64230000D03*
%TD*%
%TO.C,R1*%
X65383000Y32750000D03*
X67033000Y32750000D03*
%TD*%
%TO.C,R1*%
X65383000Y1270000D03*
X67033000Y1270000D03*
%TD*%
%TO.C,R1*%
X17885000Y79970000D03*
X19535000Y79970000D03*
%TD*%
%TO.C,R1*%
X65383000Y64230000D03*
X67033000Y64230000D03*
%TD*%
%TO.C,R1*%
X65383000Y17010000D03*
X67033000Y17010000D03*
%TD*%
%TO.C,R1*%
X65383000Y79970000D03*
X67033000Y79970000D03*
%TD*%
%TO.C,R1*%
X112881000Y32750000D03*
X114531000Y32750000D03*
%TD*%
%TO.C,R1*%
X112881000Y48490000D03*
X114531000Y48490000D03*
%TD*%
%TO.C,R1*%
X112881000Y79970000D03*
X114531000Y79970000D03*
%TD*%
%TO.C,R1*%
X17885000Y1270000D03*
X19535000Y1270000D03*
%TD*%
D12*
%TO.C,Q1*%
X29480000Y53250000D03*
X29480000Y51350000D03*
X31580000Y52300000D03*
%TD*%
%TO.C,Q1*%
X76978000Y53250000D03*
X76978000Y51350000D03*
X79078000Y52300000D03*
%TD*%
%TO.C,Q1*%
X29480000Y84730000D03*
X29480000Y82830000D03*
X31580000Y83780000D03*
%TD*%
%TO.C,Q1*%
X29480000Y21770000D03*
X29480000Y19870000D03*
X31580000Y20820000D03*
%TD*%
%TO.C,Q1*%
X29480000Y37510000D03*
X29480000Y35610000D03*
X31580000Y36560000D03*
%TD*%
%TO.C,Q1*%
X76978000Y6030000D03*
X76978000Y4130000D03*
X79078000Y5080000D03*
%TD*%
%TO.C,Q1*%
X76978000Y21770000D03*
X76978000Y19870000D03*
X79078000Y20820000D03*
%TD*%
%TO.C,Q1*%
X76978000Y37510000D03*
X76978000Y35610000D03*
X79078000Y36560000D03*
%TD*%
%TO.C,Q1*%
X29480000Y68990000D03*
X29480000Y67090000D03*
X31580000Y68040000D03*
%TD*%
%TO.C,Q1*%
X76978000Y84730000D03*
X76978000Y82830000D03*
X79078000Y83780000D03*
%TD*%
%TO.C,Q1*%
X124476000Y68990000D03*
X124476000Y67090000D03*
X126576000Y68040000D03*
%TD*%
%TO.C,Q1*%
X124476000Y6030000D03*
X124476000Y4130000D03*
X126576000Y5080000D03*
%TD*%
%TO.C,Q1*%
X124476000Y84730000D03*
X124476000Y82830000D03*
X126576000Y83780000D03*
%TD*%
%TO.C,Q1*%
X76978000Y68990000D03*
X76978000Y67090000D03*
X79078000Y68040000D03*
%TD*%
%TO.C,Q1*%
X124476000Y21770000D03*
X124476000Y19870000D03*
X126576000Y20820000D03*
%TD*%
%TO.C,Q1*%
X124476000Y53250000D03*
X124476000Y51350000D03*
X126576000Y52300000D03*
%TD*%
%TO.C,Q1*%
X124476000Y37510000D03*
X124476000Y35610000D03*
X126576000Y36560000D03*
%TD*%
%TO.C,Q1*%
X29480000Y6030000D03*
X29480000Y4130000D03*
X31580000Y5080000D03*
%TD*%
D18*
%TO.C,R10*%
X33020000Y56555000D03*
X33020000Y58205000D03*
%TD*%
%TO.C,R10*%
X80518000Y9335000D03*
X80518000Y10985000D03*
%TD*%
%TO.C,R10*%
X33020000Y25075000D03*
X33020000Y26725000D03*
%TD*%
%TO.C,R10*%
X33020000Y40815000D03*
X33020000Y42465000D03*
%TD*%
%TO.C,R10*%
X33020000Y72295000D03*
X33020000Y73945000D03*
%TD*%
%TO.C,R10*%
X33020000Y88035000D03*
X33020000Y89685000D03*
%TD*%
%TO.C,R10*%
X80518000Y40815000D03*
X80518000Y42465000D03*
%TD*%
%TO.C,R10*%
X128016000Y9335000D03*
X128016000Y10985000D03*
%TD*%
%TO.C,R10*%
X128016000Y88035000D03*
X128016000Y89685000D03*
%TD*%
%TO.C,R10*%
X80518000Y25075000D03*
X80518000Y26725000D03*
%TD*%
%TO.C,R10*%
X128016000Y72295000D03*
X128016000Y73945000D03*
%TD*%
%TO.C,R10*%
X80518000Y56555000D03*
X80518000Y58205000D03*
%TD*%
%TO.C,R10*%
X80518000Y72295000D03*
X80518000Y73945000D03*
%TD*%
%TO.C,R10*%
X80518000Y88035000D03*
X80518000Y89685000D03*
%TD*%
%TO.C,R10*%
X128016000Y25075000D03*
X128016000Y26725000D03*
%TD*%
%TO.C,R10*%
X128016000Y56555000D03*
X128016000Y58205000D03*
%TD*%
%TO.C,R10*%
X128016000Y40815000D03*
X128016000Y42465000D03*
%TD*%
%TO.C,R10*%
X33020000Y9335000D03*
X33020000Y10985000D03*
%TD*%
D14*
%TO.C,R2*%
X18225000Y19550000D03*
X19875000Y19550000D03*
%TD*%
%TO.C,R2*%
X18225000Y35290000D03*
X19875000Y35290000D03*
%TD*%
%TO.C,R2*%
X65723000Y82510000D03*
X67373000Y82510000D03*
%TD*%
%TO.C,R2*%
X65723000Y66770000D03*
X67373000Y66770000D03*
%TD*%
%TO.C,R2*%
X18225000Y66770000D03*
X19875000Y66770000D03*
%TD*%
%TO.C,R2*%
X65723000Y3810000D03*
X67373000Y3810000D03*
%TD*%
%TO.C,R2*%
X65723000Y35290000D03*
X67373000Y35290000D03*
%TD*%
%TO.C,R2*%
X65723000Y19550000D03*
X67373000Y19550000D03*
%TD*%
%TO.C,R2*%
X18225000Y51030000D03*
X19875000Y51030000D03*
%TD*%
%TO.C,R2*%
X18225000Y82510000D03*
X19875000Y82510000D03*
%TD*%
%TO.C,R2*%
X65723000Y51030000D03*
X67373000Y51030000D03*
%TD*%
%TO.C,R2*%
X113221000Y82510000D03*
X114871000Y82510000D03*
%TD*%
%TO.C,R2*%
X113221000Y19550000D03*
X114871000Y19550000D03*
%TD*%
%TO.C,R2*%
X113221000Y51030000D03*
X114871000Y51030000D03*
%TD*%
%TO.C,R2*%
X113221000Y3810000D03*
X114871000Y3810000D03*
%TD*%
%TO.C,R2*%
X113221000Y35290000D03*
X114871000Y35290000D03*
%TD*%
%TO.C,R2*%
X113221000Y66770000D03*
X114871000Y66770000D03*
%TD*%
%TO.C,R2*%
X18225000Y3810000D03*
X19875000Y3810000D03*
%TD*%
D19*
%TO.C,U1*%
X54748000Y80420000D03*
X55548000Y80420000D03*
X56348000Y80420000D03*
X57148000Y80420000D03*
X57948000Y80420000D03*
X58748000Y80420000D03*
X59548000Y80420000D03*
X60348000Y80420000D03*
X61148000Y80420000D03*
X61948000Y80420000D03*
X62748000Y80420000D03*
D20*
X63648000Y81520000D03*
X63648000Y82320000D03*
X63648000Y83120000D03*
X63648000Y83920000D03*
X63648000Y84720000D03*
X63648000Y85520000D03*
X63648000Y86320000D03*
X63648000Y87120000D03*
X63648000Y87920000D03*
X63648000Y88720000D03*
X63648000Y89520000D03*
X63648000Y90320000D03*
X63648000Y91120000D03*
D19*
X62748000Y92220000D03*
X61948000Y92220000D03*
X61148000Y92220000D03*
X60348000Y92220000D03*
X59548000Y92220000D03*
X58748000Y92220000D03*
X57948000Y92220000D03*
X57148000Y92220000D03*
X56348000Y92220000D03*
X55548000Y92220000D03*
X54748000Y92220000D03*
D20*
X53848000Y91120000D03*
X53848000Y90320000D03*
X53848000Y89520000D03*
X53848000Y88720000D03*
X53848000Y87920000D03*
X53848000Y87120000D03*
X53848000Y86320000D03*
X53848000Y85520000D03*
X53848000Y84720000D03*
X53848000Y83920000D03*
X53848000Y83120000D03*
X53848000Y82320000D03*
X53848000Y81520000D03*
D21*
X53798000Y92270000D03*
X63698000Y92270000D03*
X63698000Y80370000D03*
X53798000Y80370000D03*
%TD*%
D19*
%TO.C,U1*%
X102246000Y33200000D03*
X103046000Y33200000D03*
X103846000Y33200000D03*
X104646000Y33200000D03*
X105446000Y33200000D03*
X106246000Y33200000D03*
X107046000Y33200000D03*
X107846000Y33200000D03*
X108646000Y33200000D03*
X109446000Y33200000D03*
X110246000Y33200000D03*
D20*
X111146000Y34300000D03*
X111146000Y35100000D03*
X111146000Y35900000D03*
X111146000Y36700000D03*
X111146000Y37500000D03*
X111146000Y38300000D03*
X111146000Y39100000D03*
X111146000Y39900000D03*
X111146000Y40700000D03*
X111146000Y41500000D03*
X111146000Y42300000D03*
X111146000Y43100000D03*
X111146000Y43900000D03*
D19*
X110246000Y45000000D03*
X109446000Y45000000D03*
X108646000Y45000000D03*
X107846000Y45000000D03*
X107046000Y45000000D03*
X106246000Y45000000D03*
X105446000Y45000000D03*
X104646000Y45000000D03*
X103846000Y45000000D03*
X103046000Y45000000D03*
X102246000Y45000000D03*
D20*
X101346000Y43900000D03*
X101346000Y43100000D03*
X101346000Y42300000D03*
X101346000Y41500000D03*
X101346000Y40700000D03*
X101346000Y39900000D03*
X101346000Y39100000D03*
X101346000Y38300000D03*
X101346000Y37500000D03*
X101346000Y36700000D03*
X101346000Y35900000D03*
X101346000Y35100000D03*
X101346000Y34300000D03*
D21*
X101296000Y45050000D03*
X111196000Y45050000D03*
X111196000Y33150000D03*
X101296000Y33150000D03*
%TD*%
D19*
%TO.C,U1*%
X102246000Y1720000D03*
X103046000Y1720000D03*
X103846000Y1720000D03*
X104646000Y1720000D03*
X105446000Y1720000D03*
X106246000Y1720000D03*
X107046000Y1720000D03*
X107846000Y1720000D03*
X108646000Y1720000D03*
X109446000Y1720000D03*
X110246000Y1720000D03*
D20*
X111146000Y2820000D03*
X111146000Y3620000D03*
X111146000Y4420000D03*
X111146000Y5220000D03*
X111146000Y6020000D03*
X111146000Y6820000D03*
X111146000Y7620000D03*
X111146000Y8420000D03*
X111146000Y9220000D03*
X111146000Y10020000D03*
X111146000Y10820000D03*
X111146000Y11620000D03*
X111146000Y12420000D03*
D19*
X110246000Y13520000D03*
X109446000Y13520000D03*
X108646000Y13520000D03*
X107846000Y13520000D03*
X107046000Y13520000D03*
X106246000Y13520000D03*
X105446000Y13520000D03*
X104646000Y13520000D03*
X103846000Y13520000D03*
X103046000Y13520000D03*
X102246000Y13520000D03*
D20*
X101346000Y12420000D03*
X101346000Y11620000D03*
X101346000Y10820000D03*
X101346000Y10020000D03*
X101346000Y9220000D03*
X101346000Y8420000D03*
X101346000Y7620000D03*
X101346000Y6820000D03*
X101346000Y6020000D03*
X101346000Y5220000D03*
X101346000Y4420000D03*
X101346000Y3620000D03*
X101346000Y2820000D03*
D21*
X101296000Y13570000D03*
X111196000Y13570000D03*
X111196000Y1670000D03*
X101296000Y1670000D03*
%TD*%
D19*
%TO.C,U1*%
X7250000Y80420000D03*
X8050000Y80420000D03*
X8850000Y80420000D03*
X9650000Y80420000D03*
X10450000Y80420000D03*
X11250000Y80420000D03*
X12050000Y80420000D03*
X12850000Y80420000D03*
X13650000Y80420000D03*
X14450000Y80420000D03*
X15250000Y80420000D03*
D20*
X16150000Y81520000D03*
X16150000Y82320000D03*
X16150000Y83120000D03*
X16150000Y83920000D03*
X16150000Y84720000D03*
X16150000Y85520000D03*
X16150000Y86320000D03*
X16150000Y87120000D03*
X16150000Y87920000D03*
X16150000Y88720000D03*
X16150000Y89520000D03*
X16150000Y90320000D03*
X16150000Y91120000D03*
D19*
X15250000Y92220000D03*
X14450000Y92220000D03*
X13650000Y92220000D03*
X12850000Y92220000D03*
X12050000Y92220000D03*
X11250000Y92220000D03*
X10450000Y92220000D03*
X9650000Y92220000D03*
X8850000Y92220000D03*
X8050000Y92220000D03*
X7250000Y92220000D03*
D20*
X6350000Y91120000D03*
X6350000Y90320000D03*
X6350000Y89520000D03*
X6350000Y88720000D03*
X6350000Y87920000D03*
X6350000Y87120000D03*
X6350000Y86320000D03*
X6350000Y85520000D03*
X6350000Y84720000D03*
X6350000Y83920000D03*
X6350000Y83120000D03*
X6350000Y82320000D03*
X6350000Y81520000D03*
D21*
X6300000Y92270000D03*
X16200000Y92270000D03*
X16200000Y80370000D03*
X6300000Y80370000D03*
%TD*%
D19*
%TO.C,U1*%
X54748000Y1720000D03*
X55548000Y1720000D03*
X56348000Y1720000D03*
X57148000Y1720000D03*
X57948000Y1720000D03*
X58748000Y1720000D03*
X59548000Y1720000D03*
X60348000Y1720000D03*
X61148000Y1720000D03*
X61948000Y1720000D03*
X62748000Y1720000D03*
D20*
X63648000Y2820000D03*
X63648000Y3620000D03*
X63648000Y4420000D03*
X63648000Y5220000D03*
X63648000Y6020000D03*
X63648000Y6820000D03*
X63648000Y7620000D03*
X63648000Y8420000D03*
X63648000Y9220000D03*
X63648000Y10020000D03*
X63648000Y10820000D03*
X63648000Y11620000D03*
X63648000Y12420000D03*
D19*
X62748000Y13520000D03*
X61948000Y13520000D03*
X61148000Y13520000D03*
X60348000Y13520000D03*
X59548000Y13520000D03*
X58748000Y13520000D03*
X57948000Y13520000D03*
X57148000Y13520000D03*
X56348000Y13520000D03*
X55548000Y13520000D03*
X54748000Y13520000D03*
D20*
X53848000Y12420000D03*
X53848000Y11620000D03*
X53848000Y10820000D03*
X53848000Y10020000D03*
X53848000Y9220000D03*
X53848000Y8420000D03*
X53848000Y7620000D03*
X53848000Y6820000D03*
X53848000Y6020000D03*
X53848000Y5220000D03*
X53848000Y4420000D03*
X53848000Y3620000D03*
X53848000Y2820000D03*
D21*
X53798000Y13570000D03*
X63698000Y13570000D03*
X63698000Y1670000D03*
X53798000Y1670000D03*
%TD*%
D19*
%TO.C,U1*%
X54748000Y17460000D03*
X55548000Y17460000D03*
X56348000Y17460000D03*
X57148000Y17460000D03*
X57948000Y17460000D03*
X58748000Y17460000D03*
X59548000Y17460000D03*
X60348000Y17460000D03*
X61148000Y17460000D03*
X61948000Y17460000D03*
X62748000Y17460000D03*
D20*
X63648000Y18560000D03*
X63648000Y19360000D03*
X63648000Y20160000D03*
X63648000Y20960000D03*
X63648000Y21760000D03*
X63648000Y22560000D03*
X63648000Y23360000D03*
X63648000Y24160000D03*
X63648000Y24960000D03*
X63648000Y25760000D03*
X63648000Y26560000D03*
X63648000Y27360000D03*
X63648000Y28160000D03*
D19*
X62748000Y29260000D03*
X61948000Y29260000D03*
X61148000Y29260000D03*
X60348000Y29260000D03*
X59548000Y29260000D03*
X58748000Y29260000D03*
X57948000Y29260000D03*
X57148000Y29260000D03*
X56348000Y29260000D03*
X55548000Y29260000D03*
X54748000Y29260000D03*
D20*
X53848000Y28160000D03*
X53848000Y27360000D03*
X53848000Y26560000D03*
X53848000Y25760000D03*
X53848000Y24960000D03*
X53848000Y24160000D03*
X53848000Y23360000D03*
X53848000Y22560000D03*
X53848000Y21760000D03*
X53848000Y20960000D03*
X53848000Y20160000D03*
X53848000Y19360000D03*
X53848000Y18560000D03*
D21*
X53798000Y29310000D03*
X63698000Y29310000D03*
X63698000Y17410000D03*
X53798000Y17410000D03*
%TD*%
D19*
%TO.C,U1*%
X54748000Y33200000D03*
X55548000Y33200000D03*
X56348000Y33200000D03*
X57148000Y33200000D03*
X57948000Y33200000D03*
X58748000Y33200000D03*
X59548000Y33200000D03*
X60348000Y33200000D03*
X61148000Y33200000D03*
X61948000Y33200000D03*
X62748000Y33200000D03*
D20*
X63648000Y34300000D03*
X63648000Y35100000D03*
X63648000Y35900000D03*
X63648000Y36700000D03*
X63648000Y37500000D03*
X63648000Y38300000D03*
X63648000Y39100000D03*
X63648000Y39900000D03*
X63648000Y40700000D03*
X63648000Y41500000D03*
X63648000Y42300000D03*
X63648000Y43100000D03*
X63648000Y43900000D03*
D19*
X62748000Y45000000D03*
X61948000Y45000000D03*
X61148000Y45000000D03*
X60348000Y45000000D03*
X59548000Y45000000D03*
X58748000Y45000000D03*
X57948000Y45000000D03*
X57148000Y45000000D03*
X56348000Y45000000D03*
X55548000Y45000000D03*
X54748000Y45000000D03*
D20*
X53848000Y43900000D03*
X53848000Y43100000D03*
X53848000Y42300000D03*
X53848000Y41500000D03*
X53848000Y40700000D03*
X53848000Y39900000D03*
X53848000Y39100000D03*
X53848000Y38300000D03*
X53848000Y37500000D03*
X53848000Y36700000D03*
X53848000Y35900000D03*
X53848000Y35100000D03*
X53848000Y34300000D03*
D21*
X53798000Y45050000D03*
X63698000Y45050000D03*
X63698000Y33150000D03*
X53798000Y33150000D03*
%TD*%
D19*
%TO.C,U1*%
X54748000Y48940000D03*
X55548000Y48940000D03*
X56348000Y48940000D03*
X57148000Y48940000D03*
X57948000Y48940000D03*
X58748000Y48940000D03*
X59548000Y48940000D03*
X60348000Y48940000D03*
X61148000Y48940000D03*
X61948000Y48940000D03*
X62748000Y48940000D03*
D20*
X63648000Y50040000D03*
X63648000Y50840000D03*
X63648000Y51640000D03*
X63648000Y52440000D03*
X63648000Y53240000D03*
X63648000Y54040000D03*
X63648000Y54840000D03*
X63648000Y55640000D03*
X63648000Y56440000D03*
X63648000Y57240000D03*
X63648000Y58040000D03*
X63648000Y58840000D03*
X63648000Y59640000D03*
D19*
X62748000Y60740000D03*
X61948000Y60740000D03*
X61148000Y60740000D03*
X60348000Y60740000D03*
X59548000Y60740000D03*
X58748000Y60740000D03*
X57948000Y60740000D03*
X57148000Y60740000D03*
X56348000Y60740000D03*
X55548000Y60740000D03*
X54748000Y60740000D03*
D20*
X53848000Y59640000D03*
X53848000Y58840000D03*
X53848000Y58040000D03*
X53848000Y57240000D03*
X53848000Y56440000D03*
X53848000Y55640000D03*
X53848000Y54840000D03*
X53848000Y54040000D03*
X53848000Y53240000D03*
X53848000Y52440000D03*
X53848000Y51640000D03*
X53848000Y50840000D03*
X53848000Y50040000D03*
D21*
X53798000Y60790000D03*
X63698000Y60790000D03*
X63698000Y48890000D03*
X53798000Y48890000D03*
%TD*%
D19*
%TO.C,U1*%
X54748000Y64680000D03*
X55548000Y64680000D03*
X56348000Y64680000D03*
X57148000Y64680000D03*
X57948000Y64680000D03*
X58748000Y64680000D03*
X59548000Y64680000D03*
X60348000Y64680000D03*
X61148000Y64680000D03*
X61948000Y64680000D03*
X62748000Y64680000D03*
D20*
X63648000Y65780000D03*
X63648000Y66580000D03*
X63648000Y67380000D03*
X63648000Y68180000D03*
X63648000Y68980000D03*
X63648000Y69780000D03*
X63648000Y70580000D03*
X63648000Y71380000D03*
X63648000Y72180000D03*
X63648000Y72980000D03*
X63648000Y73780000D03*
X63648000Y74580000D03*
X63648000Y75380000D03*
D19*
X62748000Y76480000D03*
X61948000Y76480000D03*
X61148000Y76480000D03*
X60348000Y76480000D03*
X59548000Y76480000D03*
X58748000Y76480000D03*
X57948000Y76480000D03*
X57148000Y76480000D03*
X56348000Y76480000D03*
X55548000Y76480000D03*
X54748000Y76480000D03*
D20*
X53848000Y75380000D03*
X53848000Y74580000D03*
X53848000Y73780000D03*
X53848000Y72980000D03*
X53848000Y72180000D03*
X53848000Y71380000D03*
X53848000Y70580000D03*
X53848000Y69780000D03*
X53848000Y68980000D03*
X53848000Y68180000D03*
X53848000Y67380000D03*
X53848000Y66580000D03*
X53848000Y65780000D03*
D21*
X53798000Y76530000D03*
X63698000Y76530000D03*
X63698000Y64630000D03*
X53798000Y64630000D03*
%TD*%
D19*
%TO.C,U1*%
X102246000Y17460000D03*
X103046000Y17460000D03*
X103846000Y17460000D03*
X104646000Y17460000D03*
X105446000Y17460000D03*
X106246000Y17460000D03*
X107046000Y17460000D03*
X107846000Y17460000D03*
X108646000Y17460000D03*
X109446000Y17460000D03*
X110246000Y17460000D03*
D20*
X111146000Y18560000D03*
X111146000Y19360000D03*
X111146000Y20160000D03*
X111146000Y20960000D03*
X111146000Y21760000D03*
X111146000Y22560000D03*
X111146000Y23360000D03*
X111146000Y24160000D03*
X111146000Y24960000D03*
X111146000Y25760000D03*
X111146000Y26560000D03*
X111146000Y27360000D03*
X111146000Y28160000D03*
D19*
X110246000Y29260000D03*
X109446000Y29260000D03*
X108646000Y29260000D03*
X107846000Y29260000D03*
X107046000Y29260000D03*
X106246000Y29260000D03*
X105446000Y29260000D03*
X104646000Y29260000D03*
X103846000Y29260000D03*
X103046000Y29260000D03*
X102246000Y29260000D03*
D20*
X101346000Y28160000D03*
X101346000Y27360000D03*
X101346000Y26560000D03*
X101346000Y25760000D03*
X101346000Y24960000D03*
X101346000Y24160000D03*
X101346000Y23360000D03*
X101346000Y22560000D03*
X101346000Y21760000D03*
X101346000Y20960000D03*
X101346000Y20160000D03*
X101346000Y19360000D03*
X101346000Y18560000D03*
D21*
X101296000Y29310000D03*
X111196000Y29310000D03*
X111196000Y17410000D03*
X101296000Y17410000D03*
%TD*%
D19*
%TO.C,U1*%
X102246000Y80420000D03*
X103046000Y80420000D03*
X103846000Y80420000D03*
X104646000Y80420000D03*
X105446000Y80420000D03*
X106246000Y80420000D03*
X107046000Y80420000D03*
X107846000Y80420000D03*
X108646000Y80420000D03*
X109446000Y80420000D03*
X110246000Y80420000D03*
D20*
X111146000Y81520000D03*
X111146000Y82320000D03*
X111146000Y83120000D03*
X111146000Y83920000D03*
X111146000Y84720000D03*
X111146000Y85520000D03*
X111146000Y86320000D03*
X111146000Y87120000D03*
X111146000Y87920000D03*
X111146000Y88720000D03*
X111146000Y89520000D03*
X111146000Y90320000D03*
X111146000Y91120000D03*
D19*
X110246000Y92220000D03*
X109446000Y92220000D03*
X108646000Y92220000D03*
X107846000Y92220000D03*
X107046000Y92220000D03*
X106246000Y92220000D03*
X105446000Y92220000D03*
X104646000Y92220000D03*
X103846000Y92220000D03*
X103046000Y92220000D03*
X102246000Y92220000D03*
D20*
X101346000Y91120000D03*
X101346000Y90320000D03*
X101346000Y89520000D03*
X101346000Y88720000D03*
X101346000Y87920000D03*
X101346000Y87120000D03*
X101346000Y86320000D03*
X101346000Y85520000D03*
X101346000Y84720000D03*
X101346000Y83920000D03*
X101346000Y83120000D03*
X101346000Y82320000D03*
X101346000Y81520000D03*
D21*
X101296000Y92270000D03*
X111196000Y92270000D03*
X111196000Y80370000D03*
X101296000Y80370000D03*
%TD*%
D19*
%TO.C,U1*%
X102246000Y64680000D03*
X103046000Y64680000D03*
X103846000Y64680000D03*
X104646000Y64680000D03*
X105446000Y64680000D03*
X106246000Y64680000D03*
X107046000Y64680000D03*
X107846000Y64680000D03*
X108646000Y64680000D03*
X109446000Y64680000D03*
X110246000Y64680000D03*
D20*
X111146000Y65780000D03*
X111146000Y66580000D03*
X111146000Y67380000D03*
X111146000Y68180000D03*
X111146000Y68980000D03*
X111146000Y69780000D03*
X111146000Y70580000D03*
X111146000Y71380000D03*
X111146000Y72180000D03*
X111146000Y72980000D03*
X111146000Y73780000D03*
X111146000Y74580000D03*
X111146000Y75380000D03*
D19*
X110246000Y76480000D03*
X109446000Y76480000D03*
X108646000Y76480000D03*
X107846000Y76480000D03*
X107046000Y76480000D03*
X106246000Y76480000D03*
X105446000Y76480000D03*
X104646000Y76480000D03*
X103846000Y76480000D03*
X103046000Y76480000D03*
X102246000Y76480000D03*
D20*
X101346000Y75380000D03*
X101346000Y74580000D03*
X101346000Y73780000D03*
X101346000Y72980000D03*
X101346000Y72180000D03*
X101346000Y71380000D03*
X101346000Y70580000D03*
X101346000Y69780000D03*
X101346000Y68980000D03*
X101346000Y68180000D03*
X101346000Y67380000D03*
X101346000Y66580000D03*
X101346000Y65780000D03*
D21*
X101296000Y76530000D03*
X111196000Y76530000D03*
X111196000Y64630000D03*
X101296000Y64630000D03*
%TD*%
D19*
%TO.C,U1*%
X102246000Y48940000D03*
X103046000Y48940000D03*
X103846000Y48940000D03*
X104646000Y48940000D03*
X105446000Y48940000D03*
X106246000Y48940000D03*
X107046000Y48940000D03*
X107846000Y48940000D03*
X108646000Y48940000D03*
X109446000Y48940000D03*
X110246000Y48940000D03*
D20*
X111146000Y50040000D03*
X111146000Y50840000D03*
X111146000Y51640000D03*
X111146000Y52440000D03*
X111146000Y53240000D03*
X111146000Y54040000D03*
X111146000Y54840000D03*
X111146000Y55640000D03*
X111146000Y56440000D03*
X111146000Y57240000D03*
X111146000Y58040000D03*
X111146000Y58840000D03*
X111146000Y59640000D03*
D19*
X110246000Y60740000D03*
X109446000Y60740000D03*
X108646000Y60740000D03*
X107846000Y60740000D03*
X107046000Y60740000D03*
X106246000Y60740000D03*
X105446000Y60740000D03*
X104646000Y60740000D03*
X103846000Y60740000D03*
X103046000Y60740000D03*
X102246000Y60740000D03*
D20*
X101346000Y59640000D03*
X101346000Y58840000D03*
X101346000Y58040000D03*
X101346000Y57240000D03*
X101346000Y56440000D03*
X101346000Y55640000D03*
X101346000Y54840000D03*
X101346000Y54040000D03*
X101346000Y53240000D03*
X101346000Y52440000D03*
X101346000Y51640000D03*
X101346000Y50840000D03*
X101346000Y50040000D03*
D21*
X101296000Y60790000D03*
X111196000Y60790000D03*
X111196000Y48890000D03*
X101296000Y48890000D03*
%TD*%
D19*
%TO.C,U1*%
X7250000Y33200000D03*
X8050000Y33200000D03*
X8850000Y33200000D03*
X9650000Y33200000D03*
X10450000Y33200000D03*
X11250000Y33200000D03*
X12050000Y33200000D03*
X12850000Y33200000D03*
X13650000Y33200000D03*
X14450000Y33200000D03*
X15250000Y33200000D03*
D20*
X16150000Y34300000D03*
X16150000Y35100000D03*
X16150000Y35900000D03*
X16150000Y36700000D03*
X16150000Y37500000D03*
X16150000Y38300000D03*
X16150000Y39100000D03*
X16150000Y39900000D03*
X16150000Y40700000D03*
X16150000Y41500000D03*
X16150000Y42300000D03*
X16150000Y43100000D03*
X16150000Y43900000D03*
D19*
X15250000Y45000000D03*
X14450000Y45000000D03*
X13650000Y45000000D03*
X12850000Y45000000D03*
X12050000Y45000000D03*
X11250000Y45000000D03*
X10450000Y45000000D03*
X9650000Y45000000D03*
X8850000Y45000000D03*
X8050000Y45000000D03*
X7250000Y45000000D03*
D20*
X6350000Y43900000D03*
X6350000Y43100000D03*
X6350000Y42300000D03*
X6350000Y41500000D03*
X6350000Y40700000D03*
X6350000Y39900000D03*
X6350000Y39100000D03*
X6350000Y38300000D03*
X6350000Y37500000D03*
X6350000Y36700000D03*
X6350000Y35900000D03*
X6350000Y35100000D03*
X6350000Y34300000D03*
D21*
X6300000Y45050000D03*
X16200000Y45050000D03*
X16200000Y33150000D03*
X6300000Y33150000D03*
%TD*%
D19*
%TO.C,U1*%
X7250000Y48940000D03*
X8050000Y48940000D03*
X8850000Y48940000D03*
X9650000Y48940000D03*
X10450000Y48940000D03*
X11250000Y48940000D03*
X12050000Y48940000D03*
X12850000Y48940000D03*
X13650000Y48940000D03*
X14450000Y48940000D03*
X15250000Y48940000D03*
D20*
X16150000Y50040000D03*
X16150000Y50840000D03*
X16150000Y51640000D03*
X16150000Y52440000D03*
X16150000Y53240000D03*
X16150000Y54040000D03*
X16150000Y54840000D03*
X16150000Y55640000D03*
X16150000Y56440000D03*
X16150000Y57240000D03*
X16150000Y58040000D03*
X16150000Y58840000D03*
X16150000Y59640000D03*
D19*
X15250000Y60740000D03*
X14450000Y60740000D03*
X13650000Y60740000D03*
X12850000Y60740000D03*
X12050000Y60740000D03*
X11250000Y60740000D03*
X10450000Y60740000D03*
X9650000Y60740000D03*
X8850000Y60740000D03*
X8050000Y60740000D03*
X7250000Y60740000D03*
D20*
X6350000Y59640000D03*
X6350000Y58840000D03*
X6350000Y58040000D03*
X6350000Y57240000D03*
X6350000Y56440000D03*
X6350000Y55640000D03*
X6350000Y54840000D03*
X6350000Y54040000D03*
X6350000Y53240000D03*
X6350000Y52440000D03*
X6350000Y51640000D03*
X6350000Y50840000D03*
X6350000Y50040000D03*
D21*
X6300000Y60790000D03*
X16200000Y60790000D03*
X16200000Y48890000D03*
X6300000Y48890000D03*
%TD*%
D19*
%TO.C,U1*%
X7250000Y17460000D03*
X8050000Y17460000D03*
X8850000Y17460000D03*
X9650000Y17460000D03*
X10450000Y17460000D03*
X11250000Y17460000D03*
X12050000Y17460000D03*
X12850000Y17460000D03*
X13650000Y17460000D03*
X14450000Y17460000D03*
X15250000Y17460000D03*
D20*
X16150000Y18560000D03*
X16150000Y19360000D03*
X16150000Y20160000D03*
X16150000Y20960000D03*
X16150000Y21760000D03*
X16150000Y22560000D03*
X16150000Y23360000D03*
X16150000Y24160000D03*
X16150000Y24960000D03*
X16150000Y25760000D03*
X16150000Y26560000D03*
X16150000Y27360000D03*
X16150000Y28160000D03*
D19*
X15250000Y29260000D03*
X14450000Y29260000D03*
X13650000Y29260000D03*
X12850000Y29260000D03*
X12050000Y29260000D03*
X11250000Y29260000D03*
X10450000Y29260000D03*
X9650000Y29260000D03*
X8850000Y29260000D03*
X8050000Y29260000D03*
X7250000Y29260000D03*
D20*
X6350000Y28160000D03*
X6350000Y27360000D03*
X6350000Y26560000D03*
X6350000Y25760000D03*
X6350000Y24960000D03*
X6350000Y24160000D03*
X6350000Y23360000D03*
X6350000Y22560000D03*
X6350000Y21760000D03*
X6350000Y20960000D03*
X6350000Y20160000D03*
X6350000Y19360000D03*
X6350000Y18560000D03*
D21*
X6300000Y29310000D03*
X16200000Y29310000D03*
X16200000Y17410000D03*
X6300000Y17410000D03*
%TD*%
D19*
%TO.C,U1*%
X7250000Y64680000D03*
X8050000Y64680000D03*
X8850000Y64680000D03*
X9650000Y64680000D03*
X10450000Y64680000D03*
X11250000Y64680000D03*
X12050000Y64680000D03*
X12850000Y64680000D03*
X13650000Y64680000D03*
X14450000Y64680000D03*
X15250000Y64680000D03*
D20*
X16150000Y65780000D03*
X16150000Y66580000D03*
X16150000Y67380000D03*
X16150000Y68180000D03*
X16150000Y68980000D03*
X16150000Y69780000D03*
X16150000Y70580000D03*
X16150000Y71380000D03*
X16150000Y72180000D03*
X16150000Y72980000D03*
X16150000Y73780000D03*
X16150000Y74580000D03*
X16150000Y75380000D03*
D19*
X15250000Y76480000D03*
X14450000Y76480000D03*
X13650000Y76480000D03*
X12850000Y76480000D03*
X12050000Y76480000D03*
X11250000Y76480000D03*
X10450000Y76480000D03*
X9650000Y76480000D03*
X8850000Y76480000D03*
X8050000Y76480000D03*
X7250000Y76480000D03*
D20*
X6350000Y75380000D03*
X6350000Y74580000D03*
X6350000Y73780000D03*
X6350000Y72980000D03*
X6350000Y72180000D03*
X6350000Y71380000D03*
X6350000Y70580000D03*
X6350000Y69780000D03*
X6350000Y68980000D03*
X6350000Y68180000D03*
X6350000Y67380000D03*
X6350000Y66580000D03*
X6350000Y65780000D03*
D21*
X6300000Y76530000D03*
X16200000Y76530000D03*
X16200000Y64630000D03*
X6300000Y64630000D03*
%TD*%
D19*
%TO.C,U1*%
X7250000Y1720000D03*
X8050000Y1720000D03*
X8850000Y1720000D03*
X9650000Y1720000D03*
X10450000Y1720000D03*
X11250000Y1720000D03*
X12050000Y1720000D03*
X12850000Y1720000D03*
X13650000Y1720000D03*
X14450000Y1720000D03*
X15250000Y1720000D03*
D20*
X16150000Y2820000D03*
X16150000Y3620000D03*
X16150000Y4420000D03*
X16150000Y5220000D03*
X16150000Y6020000D03*
X16150000Y6820000D03*
X16150000Y7620000D03*
X16150000Y8420000D03*
X16150000Y9220000D03*
X16150000Y10020000D03*
X16150000Y10820000D03*
X16150000Y11620000D03*
X16150000Y12420000D03*
D19*
X15250000Y13520000D03*
X14450000Y13520000D03*
X13650000Y13520000D03*
X12850000Y13520000D03*
X12050000Y13520000D03*
X11250000Y13520000D03*
X10450000Y13520000D03*
X9650000Y13520000D03*
X8850000Y13520000D03*
X8050000Y13520000D03*
X7250000Y13520000D03*
D20*
X6350000Y12420000D03*
X6350000Y11620000D03*
X6350000Y10820000D03*
X6350000Y10020000D03*
X6350000Y9220000D03*
X6350000Y8420000D03*
X6350000Y7620000D03*
X6350000Y6820000D03*
X6350000Y6020000D03*
X6350000Y5220000D03*
X6350000Y4420000D03*
X6350000Y3620000D03*
X6350000Y2820000D03*
D21*
X6300000Y13570000D03*
X16200000Y13570000D03*
X16200000Y1670000D03*
X6300000Y1670000D03*
%TD*%
D17*
%TO.C,R7*%
X27940000Y68865000D03*
X27940000Y67215000D03*
%TD*%
%TO.C,R7*%
X27940000Y53125000D03*
X27940000Y51475000D03*
%TD*%
%TO.C,R7*%
X27940000Y21645000D03*
X27940000Y19995000D03*
%TD*%
%TO.C,R7*%
X75438000Y53125000D03*
X75438000Y51475000D03*
%TD*%
%TO.C,R7*%
X122936000Y21645000D03*
X122936000Y19995000D03*
%TD*%
%TO.C,R7*%
X27940000Y37385000D03*
X27940000Y35735000D03*
%TD*%
%TO.C,R7*%
X27940000Y84605000D03*
X27940000Y82955000D03*
%TD*%
%TO.C,R7*%
X75438000Y21645000D03*
X75438000Y19995000D03*
%TD*%
%TO.C,R7*%
X75438000Y68865000D03*
X75438000Y67215000D03*
%TD*%
%TO.C,R7*%
X75438000Y5905000D03*
X75438000Y4255000D03*
%TD*%
%TO.C,R7*%
X75438000Y37385000D03*
X75438000Y35735000D03*
%TD*%
%TO.C,R7*%
X75438000Y84605000D03*
X75438000Y82955000D03*
%TD*%
%TO.C,R7*%
X122936000Y5905000D03*
X122936000Y4255000D03*
%TD*%
%TO.C,R7*%
X122936000Y68865000D03*
X122936000Y67215000D03*
%TD*%
%TO.C,R7*%
X122936000Y53125000D03*
X122936000Y51475000D03*
%TD*%
%TO.C,R7*%
X122936000Y37385000D03*
X122936000Y35735000D03*
%TD*%
%TO.C,R7*%
X122936000Y84605000D03*
X122936000Y82955000D03*
%TD*%
%TO.C,R7*%
X27940000Y5905000D03*
X27940000Y4255000D03*
%TD*%
D16*
%TO.C,C2*%
X24905000Y29710000D03*
X23355000Y29710000D03*
%TD*%
%TO.C,C2*%
X24905000Y92670000D03*
X23355000Y92670000D03*
%TD*%
%TO.C,C2*%
X24905000Y45450000D03*
X23355000Y45450000D03*
%TD*%
%TO.C,C2*%
X72403000Y76930000D03*
X70853000Y76930000D03*
%TD*%
%TO.C,C2*%
X24905000Y61190000D03*
X23355000Y61190000D03*
%TD*%
%TO.C,C2*%
X24905000Y76930000D03*
X23355000Y76930000D03*
%TD*%
%TO.C,C2*%
X72403000Y45450000D03*
X70853000Y45450000D03*
%TD*%
%TO.C,C2*%
X72403000Y61190000D03*
X70853000Y61190000D03*
%TD*%
%TO.C,C2*%
X72403000Y13970000D03*
X70853000Y13970000D03*
%TD*%
%TO.C,C2*%
X72403000Y29710000D03*
X70853000Y29710000D03*
%TD*%
%TO.C,C2*%
X119901000Y13970000D03*
X118351000Y13970000D03*
%TD*%
%TO.C,C2*%
X119901000Y61190000D03*
X118351000Y61190000D03*
%TD*%
%TO.C,C2*%
X119901000Y76930000D03*
X118351000Y76930000D03*
%TD*%
%TO.C,C2*%
X119901000Y92670000D03*
X118351000Y92670000D03*
%TD*%
%TO.C,C2*%
X119901000Y29710000D03*
X118351000Y29710000D03*
%TD*%
%TO.C,C2*%
X72403000Y92670000D03*
X70853000Y92670000D03*
%TD*%
%TO.C,C2*%
X119901000Y45450000D03*
X118351000Y45450000D03*
%TD*%
%TO.C,C2*%
X24905000Y13970000D03*
X23355000Y13970000D03*
%TD*%
D22*
%TO.C,J1*%
X35518000Y20195000D03*
X35518000Y21445000D03*
X35518000Y22695000D03*
X35518000Y23945000D03*
X35518000Y25195000D03*
X35518000Y26445000D03*
D23*
X38718000Y18320000D03*
X38718000Y28320000D03*
%TD*%
D22*
%TO.C,J1*%
X35518000Y51675000D03*
X35518000Y52925000D03*
X35518000Y54175000D03*
X35518000Y55425000D03*
X35518000Y56675000D03*
X35518000Y57925000D03*
D23*
X38718000Y49800000D03*
X38718000Y59800000D03*
%TD*%
D22*
%TO.C,J1*%
X35518000Y83155000D03*
X35518000Y84405000D03*
X35518000Y85655000D03*
X35518000Y86905000D03*
X35518000Y88155000D03*
X35518000Y89405000D03*
D23*
X38718000Y81280000D03*
X38718000Y91280000D03*
%TD*%
D22*
%TO.C,J1*%
X83016000Y20195000D03*
X83016000Y21445000D03*
X83016000Y22695000D03*
X83016000Y23945000D03*
X83016000Y25195000D03*
X83016000Y26445000D03*
D23*
X86216000Y18320000D03*
X86216000Y28320000D03*
%TD*%
D22*
%TO.C,J1*%
X83016000Y51675000D03*
X83016000Y52925000D03*
X83016000Y54175000D03*
X83016000Y55425000D03*
X83016000Y56675000D03*
X83016000Y57925000D03*
D23*
X86216000Y49800000D03*
X86216000Y59800000D03*
%TD*%
D22*
%TO.C,J1*%
X35518000Y35935000D03*
X35518000Y37185000D03*
X35518000Y38435000D03*
X35518000Y39685000D03*
X35518000Y40935000D03*
X35518000Y42185000D03*
D23*
X38718000Y34060000D03*
X38718000Y44060000D03*
%TD*%
D22*
%TO.C,J1*%
X35518000Y67415000D03*
X35518000Y68665000D03*
X35518000Y69915000D03*
X35518000Y71165000D03*
X35518000Y72415000D03*
X35518000Y73665000D03*
D23*
X38718000Y65540000D03*
X38718000Y75540000D03*
%TD*%
D22*
%TO.C,J1*%
X83016000Y4455000D03*
X83016000Y5705000D03*
X83016000Y6955000D03*
X83016000Y8205000D03*
X83016000Y9455000D03*
X83016000Y10705000D03*
D23*
X86216000Y2580000D03*
X86216000Y12580000D03*
%TD*%
D22*
%TO.C,J1*%
X83016000Y35935000D03*
X83016000Y37185000D03*
X83016000Y38435000D03*
X83016000Y39685000D03*
X83016000Y40935000D03*
X83016000Y42185000D03*
D23*
X86216000Y34060000D03*
X86216000Y44060000D03*
%TD*%
D22*
%TO.C,J1*%
X130514000Y20195000D03*
X130514000Y21445000D03*
X130514000Y22695000D03*
X130514000Y23945000D03*
X130514000Y25195000D03*
X130514000Y26445000D03*
D23*
X133714000Y18320000D03*
X133714000Y28320000D03*
%TD*%
D22*
%TO.C,J1*%
X130514000Y51675000D03*
X130514000Y52925000D03*
X130514000Y54175000D03*
X130514000Y55425000D03*
X130514000Y56675000D03*
X130514000Y57925000D03*
D23*
X133714000Y49800000D03*
X133714000Y59800000D03*
%TD*%
D22*
%TO.C,J1*%
X83016000Y83155000D03*
X83016000Y84405000D03*
X83016000Y85655000D03*
X83016000Y86905000D03*
X83016000Y88155000D03*
X83016000Y89405000D03*
D23*
X86216000Y81280000D03*
X86216000Y91280000D03*
%TD*%
D22*
%TO.C,J1*%
X130514000Y35935000D03*
X130514000Y37185000D03*
X130514000Y38435000D03*
X130514000Y39685000D03*
X130514000Y40935000D03*
X130514000Y42185000D03*
D23*
X133714000Y34060000D03*
X133714000Y44060000D03*
%TD*%
D22*
%TO.C,J1*%
X130514000Y67415000D03*
X130514000Y68665000D03*
X130514000Y69915000D03*
X130514000Y71165000D03*
X130514000Y72415000D03*
X130514000Y73665000D03*
D23*
X133714000Y65540000D03*
X133714000Y75540000D03*
%TD*%
D22*
%TO.C,J1*%
X83016000Y67415000D03*
X83016000Y68665000D03*
X83016000Y69915000D03*
X83016000Y71165000D03*
X83016000Y72415000D03*
X83016000Y73665000D03*
D23*
X86216000Y65540000D03*
X86216000Y75540000D03*
%TD*%
D22*
%TO.C,J1*%
X130514000Y4455000D03*
X130514000Y5705000D03*
X130514000Y6955000D03*
X130514000Y8205000D03*
X130514000Y9455000D03*
X130514000Y10705000D03*
D23*
X133714000Y2580000D03*
X133714000Y12580000D03*
%TD*%
D22*
%TO.C,J1*%
X130514000Y83155000D03*
X130514000Y84405000D03*
X130514000Y85655000D03*
X130514000Y86905000D03*
X130514000Y88155000D03*
X130514000Y89405000D03*
D23*
X133714000Y81280000D03*
X133714000Y91280000D03*
%TD*%
D22*
%TO.C,J1*%
X35518000Y4455000D03*
X35518000Y5705000D03*
X35518000Y6955000D03*
X35518000Y8205000D03*
X35518000Y9455000D03*
X35518000Y10705000D03*
D23*
X38718000Y2580000D03*
X38718000Y12580000D03*
%TD*%
D24*
%TO.C,SW1*%
X18250000Y21310000D03*
X18250000Y25410000D03*
X19850000Y21310000D03*
X19850000Y25410000D03*
%TD*%
%TO.C,SW1*%
X18250000Y52790000D03*
X18250000Y56890000D03*
X19850000Y52790000D03*
X19850000Y56890000D03*
%TD*%
%TO.C,SW1*%
X18250000Y37050000D03*
X18250000Y41150000D03*
X19850000Y37050000D03*
X19850000Y41150000D03*
%TD*%
%TO.C,SW1*%
X65748000Y68530000D03*
X65748000Y72630000D03*
X67348000Y68530000D03*
X67348000Y72630000D03*
%TD*%
%TO.C,SW1*%
X18250000Y84270000D03*
X18250000Y88370000D03*
X19850000Y84270000D03*
X19850000Y88370000D03*
%TD*%
%TO.C,SW1*%
X65748000Y52790000D03*
X65748000Y56890000D03*
X67348000Y52790000D03*
X67348000Y56890000D03*
%TD*%
%TO.C,SW1*%
X18250000Y68530000D03*
X18250000Y72630000D03*
X19850000Y68530000D03*
X19850000Y72630000D03*
%TD*%
%TO.C,SW1*%
X65748000Y21310000D03*
X65748000Y25410000D03*
X67348000Y21310000D03*
X67348000Y25410000D03*
%TD*%
%TO.C,SW1*%
X65748000Y37050000D03*
X65748000Y41150000D03*
X67348000Y37050000D03*
X67348000Y41150000D03*
%TD*%
%TO.C,SW1*%
X65748000Y5570000D03*
X65748000Y9670000D03*
X67348000Y5570000D03*
X67348000Y9670000D03*
%TD*%
%TO.C,SW1*%
X113246000Y21310000D03*
X113246000Y25410000D03*
X114846000Y21310000D03*
X114846000Y25410000D03*
%TD*%
%TO.C,SW1*%
X65748000Y84270000D03*
X65748000Y88370000D03*
X67348000Y84270000D03*
X67348000Y88370000D03*
%TD*%
%TO.C,SW1*%
X113246000Y68530000D03*
X113246000Y72630000D03*
X114846000Y68530000D03*
X114846000Y72630000D03*
%TD*%
%TO.C,SW1*%
X113246000Y52790000D03*
X113246000Y56890000D03*
X114846000Y52790000D03*
X114846000Y56890000D03*
%TD*%
%TO.C,SW1*%
X113246000Y37050000D03*
X113246000Y41150000D03*
X114846000Y37050000D03*
X114846000Y41150000D03*
%TD*%
%TO.C,SW1*%
X113246000Y5570000D03*
X113246000Y9670000D03*
X114846000Y5570000D03*
X114846000Y9670000D03*
%TD*%
%TO.C,SW1*%
X113246000Y84270000D03*
X113246000Y88370000D03*
X114846000Y84270000D03*
X114846000Y88370000D03*
%TD*%
%TO.C,SW1*%
X18250000Y5570000D03*
X18250000Y9670000D03*
X19850000Y5570000D03*
X19850000Y9670000D03*
%TD*%
D11*
%TO.C,D2*%
X27152500Y17010000D03*
X28727500Y17010000D03*
%TD*%
%TO.C,D2*%
X27152500Y64230000D03*
X28727500Y64230000D03*
%TD*%
%TO.C,D2*%
X27152500Y79970000D03*
X28727500Y79970000D03*
%TD*%
%TO.C,D2*%
X74650500Y48490000D03*
X76225500Y48490000D03*
%TD*%
%TO.C,D2*%
X74650500Y17010000D03*
X76225500Y17010000D03*
%TD*%
%TO.C,D2*%
X74650500Y79970000D03*
X76225500Y79970000D03*
%TD*%
%TO.C,D2*%
X122148500Y17010000D03*
X123723500Y17010000D03*
%TD*%
%TO.C,D2*%
X27152500Y32750000D03*
X28727500Y32750000D03*
%TD*%
%TO.C,D2*%
X27152500Y48490000D03*
X28727500Y48490000D03*
%TD*%
%TO.C,D2*%
X74650500Y1270000D03*
X76225500Y1270000D03*
%TD*%
%TO.C,D2*%
X74650500Y32750000D03*
X76225500Y32750000D03*
%TD*%
%TO.C,D2*%
X74650500Y64230000D03*
X76225500Y64230000D03*
%TD*%
%TO.C,D2*%
X122148500Y1270000D03*
X123723500Y1270000D03*
%TD*%
%TO.C,D2*%
X122148500Y32750000D03*
X123723500Y32750000D03*
%TD*%
%TO.C,D2*%
X122148500Y64230000D03*
X123723500Y64230000D03*
%TD*%
%TO.C,D2*%
X122148500Y79970000D03*
X123723500Y79970000D03*
%TD*%
%TO.C,D2*%
X122148500Y48490000D03*
X123723500Y48490000D03*
%TD*%
%TO.C,D2*%
X27152500Y1270000D03*
X28727500Y1270000D03*
%TD*%
D13*
%TO.C,R4*%
X19685000Y42910000D03*
X18035000Y42910000D03*
%TD*%
%TO.C,R4*%
X19685000Y27170000D03*
X18035000Y27170000D03*
%TD*%
%TO.C,R4*%
X67183000Y27170000D03*
X65533000Y27170000D03*
%TD*%
%TO.C,R4*%
X67183000Y58650000D03*
X65533000Y58650000D03*
%TD*%
%TO.C,R4*%
X19685000Y58650000D03*
X18035000Y58650000D03*
%TD*%
%TO.C,R4*%
X19685000Y74390000D03*
X18035000Y74390000D03*
%TD*%
%TO.C,R4*%
X19685000Y90130000D03*
X18035000Y90130000D03*
%TD*%
%TO.C,R4*%
X67183000Y11430000D03*
X65533000Y11430000D03*
%TD*%
%TO.C,R4*%
X67183000Y42910000D03*
X65533000Y42910000D03*
%TD*%
%TO.C,R4*%
X114681000Y58650000D03*
X113031000Y58650000D03*
%TD*%
%TO.C,R4*%
X114681000Y90130000D03*
X113031000Y90130000D03*
%TD*%
%TO.C,R4*%
X114681000Y11430000D03*
X113031000Y11430000D03*
%TD*%
%TO.C,R4*%
X67183000Y74390000D03*
X65533000Y74390000D03*
%TD*%
%TO.C,R4*%
X67183000Y90130000D03*
X65533000Y90130000D03*
%TD*%
%TO.C,R4*%
X114681000Y27170000D03*
X113031000Y27170000D03*
%TD*%
%TO.C,R4*%
X114681000Y42910000D03*
X113031000Y42910000D03*
%TD*%
%TO.C,R4*%
X114681000Y74390000D03*
X113031000Y74390000D03*
%TD*%
%TO.C,R4*%
X19685000Y11430000D03*
X18035000Y11430000D03*
%TD*%
D25*
%TO.C,C4*%
X23685000Y32750000D03*
X25235000Y32750000D03*
%TD*%
%TO.C,C4*%
X23685000Y64230000D03*
X25235000Y64230000D03*
%TD*%
%TO.C,C4*%
X23685000Y17010000D03*
X25235000Y17010000D03*
%TD*%
%TO.C,C4*%
X23685000Y48490000D03*
X25235000Y48490000D03*
%TD*%
%TO.C,C4*%
X71183000Y79970000D03*
X72733000Y79970000D03*
%TD*%
%TO.C,C4*%
X118681000Y32750000D03*
X120231000Y32750000D03*
%TD*%
%TO.C,C4*%
X71183000Y48490000D03*
X72733000Y48490000D03*
%TD*%
%TO.C,C4*%
X71183000Y64230000D03*
X72733000Y64230000D03*
%TD*%
%TO.C,C4*%
X23685000Y79970000D03*
X25235000Y79970000D03*
%TD*%
%TO.C,C4*%
X118681000Y1270000D03*
X120231000Y1270000D03*
%TD*%
%TO.C,C4*%
X71183000Y17010000D03*
X72733000Y17010000D03*
%TD*%
%TO.C,C4*%
X71183000Y32750000D03*
X72733000Y32750000D03*
%TD*%
%TO.C,C4*%
X71183000Y1270000D03*
X72733000Y1270000D03*
%TD*%
%TO.C,C4*%
X118681000Y17010000D03*
X120231000Y17010000D03*
%TD*%
%TO.C,C4*%
X118681000Y48490000D03*
X120231000Y48490000D03*
%TD*%
%TO.C,C4*%
X118681000Y64230000D03*
X120231000Y64230000D03*
%TD*%
%TO.C,C4*%
X118681000Y79970000D03*
X120231000Y79970000D03*
%TD*%
%TO.C,C4*%
X23685000Y1270000D03*
X25235000Y1270000D03*
%TD*%
D17*
%TO.C,R8*%
X27940000Y73945000D03*
X27940000Y72295000D03*
%TD*%
%TO.C,R8*%
X75438000Y26725000D03*
X75438000Y25075000D03*
%TD*%
%TO.C,R8*%
X27940000Y42465000D03*
X27940000Y40815000D03*
%TD*%
%TO.C,R8*%
X75438000Y10985000D03*
X75438000Y9335000D03*
%TD*%
%TO.C,R8*%
X27940000Y26725000D03*
X27940000Y25075000D03*
%TD*%
%TO.C,R8*%
X27940000Y58205000D03*
X27940000Y56555000D03*
%TD*%
%TO.C,R8*%
X27940000Y89685000D03*
X27940000Y88035000D03*
%TD*%
%TO.C,R8*%
X75438000Y89685000D03*
X75438000Y88035000D03*
%TD*%
%TO.C,R8*%
X75438000Y73945000D03*
X75438000Y72295000D03*
%TD*%
%TO.C,R8*%
X122936000Y89685000D03*
X122936000Y88035000D03*
%TD*%
%TO.C,R8*%
X122936000Y10985000D03*
X122936000Y9335000D03*
%TD*%
%TO.C,R8*%
X122936000Y26725000D03*
X122936000Y25075000D03*
%TD*%
%TO.C,R8*%
X75438000Y58205000D03*
X75438000Y56555000D03*
%TD*%
%TO.C,R8*%
X122936000Y42465000D03*
X122936000Y40815000D03*
%TD*%
%TO.C,R8*%
X75438000Y42465000D03*
X75438000Y40815000D03*
%TD*%
%TO.C,R8*%
X122936000Y58205000D03*
X122936000Y56555000D03*
%TD*%
%TO.C,R8*%
X122936000Y73945000D03*
X122936000Y72295000D03*
%TD*%
%TO.C,R8*%
X27940000Y10985000D03*
X27940000Y9335000D03*
%TD*%
D14*
%TO.C,R6*%
X30417000Y64230000D03*
X32067000Y64230000D03*
%TD*%
%TO.C,R6*%
X30417000Y32750000D03*
X32067000Y32750000D03*
%TD*%
%TO.C,R6*%
X30417000Y17010000D03*
X32067000Y17010000D03*
%TD*%
%TO.C,R6*%
X30417000Y48490000D03*
X32067000Y48490000D03*
%TD*%
%TO.C,R6*%
X77915000Y1270000D03*
X79565000Y1270000D03*
%TD*%
%TO.C,R6*%
X30417000Y79970000D03*
X32067000Y79970000D03*
%TD*%
%TO.C,R6*%
X77915000Y17010000D03*
X79565000Y17010000D03*
%TD*%
%TO.C,R6*%
X77915000Y32750000D03*
X79565000Y32750000D03*
%TD*%
%TO.C,R6*%
X77915000Y48490000D03*
X79565000Y48490000D03*
%TD*%
%TO.C,R6*%
X125413000Y17010000D03*
X127063000Y17010000D03*
%TD*%
%TO.C,R6*%
X77915000Y79970000D03*
X79565000Y79970000D03*
%TD*%
%TO.C,R6*%
X125413000Y48490000D03*
X127063000Y48490000D03*
%TD*%
%TO.C,R6*%
X125413000Y64230000D03*
X127063000Y64230000D03*
%TD*%
%TO.C,R6*%
X77915000Y64230000D03*
X79565000Y64230000D03*
%TD*%
%TO.C,R6*%
X125413000Y1270000D03*
X127063000Y1270000D03*
%TD*%
%TO.C,R6*%
X125413000Y79970000D03*
X127063000Y79970000D03*
%TD*%
%TO.C,R6*%
X125413000Y32750000D03*
X127063000Y32750000D03*
%TD*%
%TO.C,R6*%
X30417000Y1270000D03*
X32067000Y1270000D03*
%TD*%
M02*
