M48
; DRILL file {KiCad 9.0.3} date 2025-12-05T19:07:11-0700
; FORMAT={-:-/ absolute / metric / decimal}
; #@! TF.CreationDate,2025-12-05T19:07:11-07:00
; #@! TF.GenerationSoftware,Kicad,Pcbnew,9.0.3
; #@! TF.FileFunction,MixedPlating,1,2
FMAT,2
METRIC
; #@! TA.AperFunction,Plated,PTH,ViaDrill
T1C0.300
; #@! TA.AperFunction,Plated,PTH,ViaDrill
T2C0.305
; #@! TA.AperFunction,Plated,PTH,ComponentDrill
T3C1.016
%
G90
G05
T1
X26.416Y86.726
X26.416Y70.986
X26.416Y55.246
X26.416Y39.506
X26.416Y23.766
X26.416Y8.026
X32.512Y86.32
X32.512Y70.58
X32.512Y54.84
X32.512Y39.1
X32.512Y23.36
X32.512Y7.62
X33.515Y86.905
X33.515Y71.165
X33.515Y55.425
X33.515Y39.685
X33.515Y23.945
X33.515Y8.205
X34.036Y85.655
X34.036Y69.915
X34.036Y54.175
X34.036Y38.435
X34.036Y22.695
X34.036Y6.955
X73.914Y86.726
X73.914Y70.986
X73.914Y55.246
X73.914Y39.506
X73.914Y23.766
X73.914Y8.026
X80.01Y86.32
X80.01Y70.58
X80.01Y54.84
X80.01Y39.1
X80.01Y23.36
X80.01Y7.62
X81.013Y86.905
X81.013Y71.165
X81.013Y55.425
X81.013Y39.685
X81.013Y23.945
X81.013Y8.205
X81.534Y85.655
X81.534Y69.915
X81.534Y54.175
X81.534Y38.435
X81.534Y22.695
X81.534Y6.955
X121.412Y86.726
X121.412Y70.986
X121.412Y55.246
X121.412Y39.506
X121.412Y23.766
X121.412Y8.026
X127.508Y86.32
X127.508Y70.58
X127.508Y54.84
X127.508Y39.1
X127.508Y23.36
X127.508Y7.62
X128.511Y86.905
X128.511Y71.165
X128.511Y55.425
X128.511Y39.685
X128.511Y23.945
X128.511Y8.205
X129.032Y85.655
X129.032Y69.915
X129.032Y54.175
X129.032Y38.435
X129.032Y22.695
X129.032Y6.955
T2
X7.366Y93.305
X7.366Y77.565
X7.366Y61.825
X7.366Y46.085
X7.366Y30.345
X7.366Y14.605
X7.493Y90.638
X7.493Y74.898
X7.493Y59.158
X7.493Y43.418
X7.493Y27.678
X7.493Y11.938
X7.747Y88.352
X7.747Y87.08
X7.747Y82.891
X7.747Y81.621
X7.747Y72.612
X7.747Y71.34
X7.747Y67.151
X7.747Y65.881
X7.747Y56.872
X7.747Y55.6
X7.747Y51.411
X7.747Y50.141
X7.747Y41.132
X7.747Y39.86
X7.747Y35.671
X7.747Y34.401
X7.747Y25.392
X7.747Y24.12
X7.747Y19.931
X7.747Y18.661
X7.747Y9.652
X7.747Y8.38
X7.747Y4.191
X7.747Y2.921
X8.382Y89.876
X8.382Y74.136
X8.382Y58.396
X8.382Y42.656
X8.382Y26.916
X8.382Y11.176
X8.86Y81.78
X8.86Y66.04
X8.86Y50.3
X8.86Y34.56
X8.86Y18.82
X8.86Y3.08
X9.06Y90.48
X9.06Y74.74
X9.06Y59.0
X9.06Y43.26
X9.06Y27.52
X9.06Y11.78
X9.271Y82.891
X9.271Y67.151
X9.271Y51.411
X9.271Y35.671
X9.271Y19.931
X9.271Y4.191
X9.96Y89.58
X9.96Y73.84
X9.96Y58.1
X9.96Y42.36
X9.96Y26.62
X9.96Y10.88
X10.001Y79.335
X10.001Y63.595
X10.001Y47.855
X10.001Y32.115
X10.001Y16.375
X10.001Y0.635
X10.661Y90.264
X10.661Y74.524
X10.661Y58.784
X10.661Y43.044
X10.661Y27.304
X10.661Y11.564
X11.303Y82.891
X11.303Y67.151
X11.303Y51.411
X11.303Y35.671
X11.303Y19.931
X11.303Y4.191
X13.208Y82.764
X13.208Y67.024
X13.208Y51.284
X13.208Y35.544
X13.208Y19.804
X13.208Y4.064
X14.605Y90.009
X14.605Y74.269
X14.605Y58.529
X14.605Y42.789
X14.605Y27.049
X14.605Y11.309
X15.16Y83.48
X15.16Y67.74
X15.16Y52.0
X15.16Y36.26
X15.16Y20.52
X15.16Y4.78
X15.24Y89.495
X15.24Y86.32
X15.24Y73.755
X15.24Y70.58
X15.24Y58.015
X15.24Y54.84
X15.24Y42.275
X15.24Y39.1
X15.24Y26.535
X15.24Y23.36
X15.24Y10.795
X15.24Y7.62
X17.113Y83.307
X17.113Y67.567
X17.113Y51.827
X17.113Y36.087
X17.113Y20.347
X17.113Y4.607
X17.126Y92.27
X17.126Y76.53
X17.126Y60.79
X17.126Y45.05
X17.126Y29.31
X17.126Y13.57
X17.145Y89.495
X17.145Y82.51
X17.145Y73.755
X17.145Y66.77
X17.145Y58.015
X17.145Y51.03
X17.145Y42.275
X17.145Y35.29
X17.145Y26.535
X17.145Y19.55
X17.145Y10.795
X17.145Y3.81
X17.281Y85.862
X17.281Y70.122
X17.281Y54.382
X17.281Y38.642
X17.281Y22.902
X17.281Y7.162
X17.78Y81.28
X17.78Y65.54
X17.78Y49.8
X17.78Y34.06
X17.78Y18.32
X17.78Y2.58
X18.16Y91.68
X18.16Y75.94
X18.16Y60.2
X18.16Y44.46
X18.16Y28.72
X18.16Y12.98
X19.844Y87.272
X19.844Y71.532
X19.844Y55.792
X19.844Y40.052
X19.844Y24.312
X19.844Y8.572
X20.32Y89.277
X20.32Y73.537
X20.32Y57.797
X20.32Y42.057
X20.32Y26.317
X20.32Y10.577
X20.701Y92.67
X20.701Y76.93
X20.701Y61.19
X20.701Y45.45
X20.701Y29.71
X20.701Y13.97
X21.06Y84.58
X21.06Y68.84
X21.06Y53.1
X21.06Y37.36
X21.06Y21.62
X21.06Y5.88
X23.622Y91.4
X23.622Y75.66
X23.622Y59.92
X23.622Y44.18
X23.622Y28.44
X23.622Y12.7
X24.13Y88.86
X24.13Y73.12
X24.13Y57.38
X24.13Y41.64
X24.13Y25.9
X24.13Y10.16
X25.908Y83.272
X25.908Y67.532
X25.908Y51.792
X25.908Y36.052
X25.908Y20.312
X25.908Y4.572
X26.035Y92.67
X26.035Y76.93
X26.035Y61.19
X26.035Y45.45
X26.035Y29.71
X26.035Y13.97
X26.21Y81.03
X26.21Y65.29
X26.21Y49.55
X26.21Y33.81
X26.21Y18.07
X26.21Y2.33
X26.289Y88.987
X26.289Y73.247
X26.289Y57.507
X26.289Y41.767
X26.289Y26.027
X26.289Y10.287
X26.924Y83.872
X26.924Y68.132
X26.924Y52.392
X26.924Y36.652
X26.924Y20.912
X26.924Y5.172
X31.623Y90.13
X31.623Y74.39
X31.623Y58.65
X31.623Y42.91
X31.623Y27.17
X31.623Y11.43
X31.75Y84.796
X31.75Y69.056
X31.75Y53.316
X31.75Y37.576
X31.75Y21.836
X31.75Y6.096
X32.004Y83.018
X32.004Y67.278
X32.004Y51.538
X32.004Y35.798
X32.004Y20.058
X32.004Y4.318
X32.46Y91.28
X32.46Y75.54
X32.46Y59.8
X32.46Y44.06
X32.46Y28.32
X32.46Y12.58
X33.02Y91.654
X33.02Y75.914
X33.02Y60.174
X33.02Y44.434
X33.02Y28.694
X33.02Y12.954
X33.274Y80.478
X33.274Y64.738
X33.274Y48.998
X33.274Y33.258
X33.274Y17.518
X33.274Y1.778
X34.29Y92.416
X34.29Y76.676
X34.29Y60.936
X34.29Y45.196
X34.29Y29.456
X34.29Y13.716
X36.96Y79.78
X36.96Y64.04
X36.96Y48.3
X36.96Y32.56
X36.96Y16.82
X36.96Y1.08
X37.173Y84.679
X37.173Y68.939
X37.173Y53.199
X37.173Y37.459
X37.173Y21.719
X37.173Y5.979
X37.96Y92.78
X37.96Y82.78
X37.96Y77.04
X37.96Y67.04
X37.96Y61.3
X37.96Y51.3
X37.96Y45.56
X37.96Y35.56
X37.96Y29.82
X37.96Y19.82
X37.96Y14.08
X37.96Y4.08
X38.862Y89.622
X38.862Y87.336
X38.862Y73.882
X38.862Y71.596
X38.862Y58.142
X38.862Y55.856
X38.862Y42.402
X38.862Y40.116
X38.862Y26.662
X38.862Y24.376
X38.862Y10.922
X38.862Y8.636
X54.864Y93.305
X54.864Y77.565
X54.864Y61.825
X54.864Y46.085
X54.864Y30.345
X54.864Y14.605
X54.991Y90.638
X54.991Y74.898
X54.991Y59.158
X54.991Y43.418
X54.991Y27.678
X54.991Y11.938
X55.245Y88.352
X55.245Y87.08
X55.245Y82.891
X55.245Y81.621
X55.245Y72.612
X55.245Y71.34
X55.245Y67.151
X55.245Y65.881
X55.245Y56.872
X55.245Y55.6
X55.245Y51.411
X55.245Y50.141
X55.245Y41.132
X55.245Y39.86
X55.245Y35.671
X55.245Y34.401
X55.245Y25.392
X55.245Y24.12
X55.245Y19.931
X55.245Y18.661
X55.245Y9.652
X55.245Y8.38
X55.245Y4.191
X55.245Y2.921
X55.88Y89.876
X55.88Y74.136
X55.88Y58.396
X55.88Y42.656
X55.88Y26.916
X55.88Y11.176
X56.358Y81.78
X56.358Y66.04
X56.358Y50.3
X56.358Y34.56
X56.358Y18.82
X56.358Y3.08
X56.558Y90.48
X56.558Y74.74
X56.558Y59.0
X56.558Y43.26
X56.558Y27.52
X56.558Y11.78
X56.769Y82.891
X56.769Y67.151
X56.769Y51.411
X56.769Y35.671
X56.769Y19.931
X56.769Y4.191
X57.458Y89.58
X57.458Y73.84
X57.458Y58.1
X57.458Y42.36
X57.458Y26.62
X57.458Y10.88
X57.499Y79.335
X57.499Y63.595
X57.499Y47.855
X57.499Y32.115
X57.499Y16.375
X57.499Y0.635
X58.159Y90.264
X58.159Y74.524
X58.159Y58.784
X58.159Y43.044
X58.159Y27.304
X58.159Y11.564
X58.801Y82.891
X58.801Y67.151
X58.801Y51.411
X58.801Y35.671
X58.801Y19.931
X58.801Y4.191
X60.706Y82.764
X60.706Y67.024
X60.706Y51.284
X60.706Y35.544
X60.706Y19.804
X60.706Y4.064
X62.103Y90.009
X62.103Y74.269
X62.103Y58.529
X62.103Y42.789
X62.103Y27.049
X62.103Y11.309
X62.658Y83.48
X62.658Y67.74
X62.658Y52.0
X62.658Y36.26
X62.658Y20.52
X62.658Y4.78
X62.738Y89.495
X62.738Y86.32
X62.738Y73.755
X62.738Y70.58
X62.738Y58.015
X62.738Y54.84
X62.738Y42.275
X62.738Y39.1
X62.738Y26.535
X62.738Y23.36
X62.738Y10.795
X62.738Y7.62
X64.611Y83.307
X64.611Y67.567
X64.611Y51.827
X64.611Y36.087
X64.611Y20.347
X64.611Y4.607
X64.624Y92.27
X64.624Y76.53
X64.624Y60.79
X64.624Y45.05
X64.624Y29.31
X64.624Y13.57
X64.643Y89.495
X64.643Y82.51
X64.643Y73.755
X64.643Y66.77
X64.643Y58.015
X64.643Y51.03
X64.643Y42.275
X64.643Y35.29
X64.643Y26.535
X64.643Y19.55
X64.643Y10.795
X64.643Y3.81
X64.779Y85.862
X64.779Y70.122
X64.779Y54.382
X64.779Y38.642
X64.779Y22.902
X64.779Y7.162
X65.278Y81.28
X65.278Y65.54
X65.278Y49.8
X65.278Y34.06
X65.278Y18.32
X65.278Y2.58
X65.658Y91.68
X65.658Y75.94
X65.658Y60.2
X65.658Y44.46
X65.658Y28.72
X65.658Y12.98
X67.342Y87.272
X67.342Y71.532
X67.342Y55.792
X67.342Y40.052
X67.342Y24.312
X67.342Y8.572
X67.818Y89.277
X67.818Y73.537
X67.818Y57.797
X67.818Y42.057
X67.818Y26.317
X67.818Y10.577
X68.199Y92.67
X68.199Y76.93
X68.199Y61.19
X68.199Y45.45
X68.199Y29.71
X68.199Y13.97
X68.558Y84.58
X68.558Y68.84
X68.558Y53.1
X68.558Y37.36
X68.558Y21.62
X68.558Y5.88
X71.12Y91.4
X71.12Y75.66
X71.12Y59.92
X71.12Y44.18
X71.12Y28.44
X71.12Y12.7
X71.628Y88.86
X71.628Y73.12
X71.628Y57.38
X71.628Y41.64
X71.628Y25.9
X71.628Y10.16
X73.406Y83.272
X73.406Y67.532
X73.406Y51.792
X73.406Y36.052
X73.406Y20.312
X73.406Y4.572
X73.533Y92.67
X73.533Y76.93
X73.533Y61.19
X73.533Y45.45
X73.533Y29.71
X73.533Y13.97
X73.708Y81.03
X73.708Y65.29
X73.708Y49.55
X73.708Y33.81
X73.708Y18.07
X73.708Y2.33
X73.787Y88.987
X73.787Y73.247
X73.787Y57.507
X73.787Y41.767
X73.787Y26.027
X73.787Y10.287
X74.422Y83.872
X74.422Y68.132
X74.422Y52.392
X74.422Y36.652
X74.422Y20.912
X74.422Y5.172
X79.121Y90.13
X79.121Y74.39
X79.121Y58.65
X79.121Y42.91
X79.121Y27.17
X79.121Y11.43
X79.248Y84.796
X79.248Y69.056
X79.248Y53.316
X79.248Y37.576
X79.248Y21.836
X79.248Y6.096
X79.502Y83.018
X79.502Y67.278
X79.502Y51.538
X79.502Y35.798
X79.502Y20.058
X79.502Y4.318
X79.958Y91.28
X79.958Y75.54
X79.958Y59.8
X79.958Y44.06
X79.958Y28.32
X79.958Y12.58
X80.518Y91.654
X80.518Y75.914
X80.518Y60.174
X80.518Y44.434
X80.518Y28.694
X80.518Y12.954
X80.772Y80.478
X80.772Y64.738
X80.772Y48.998
X80.772Y33.258
X80.772Y17.518
X80.772Y1.778
X81.788Y92.416
X81.788Y76.676
X81.788Y60.936
X81.788Y45.196
X81.788Y29.456
X81.788Y13.716
X84.458Y79.78
X84.458Y64.04
X84.458Y48.3
X84.458Y32.56
X84.458Y16.82
X84.458Y1.08
X84.671Y84.679
X84.671Y68.939
X84.671Y53.199
X84.671Y37.459
X84.671Y21.719
X84.671Y5.979
X85.458Y92.78
X85.458Y82.78
X85.458Y77.04
X85.458Y67.04
X85.458Y61.3
X85.458Y51.3
X85.458Y45.56
X85.458Y35.56
X85.458Y29.82
X85.458Y19.82
X85.458Y14.08
X85.458Y4.08
X86.36Y89.622
X86.36Y87.336
X86.36Y73.882
X86.36Y71.596
X86.36Y58.142
X86.36Y55.856
X86.36Y42.402
X86.36Y40.116
X86.36Y26.662
X86.36Y24.376
X86.36Y10.922
X86.36Y8.636
X102.362Y93.305
X102.362Y77.565
X102.362Y61.825
X102.362Y46.085
X102.362Y30.345
X102.362Y14.605
X102.489Y90.638
X102.489Y74.898
X102.489Y59.158
X102.489Y43.418
X102.489Y27.678
X102.489Y11.938
X102.743Y88.352
X102.743Y87.08
X102.743Y82.891
X102.743Y81.621
X102.743Y72.612
X102.743Y71.34
X102.743Y67.151
X102.743Y65.881
X102.743Y56.872
X102.743Y55.6
X102.743Y51.411
X102.743Y50.141
X102.743Y41.132
X102.743Y39.86
X102.743Y35.671
X102.743Y34.401
X102.743Y25.392
X102.743Y24.12
X102.743Y19.931
X102.743Y18.661
X102.743Y9.652
X102.743Y8.38
X102.743Y4.191
X102.743Y2.921
X103.378Y89.876
X103.378Y74.136
X103.378Y58.396
X103.378Y42.656
X103.378Y26.916
X103.378Y11.176
X103.856Y81.78
X103.856Y66.04
X103.856Y50.3
X103.856Y34.56
X103.856Y18.82
X103.856Y3.08
X104.056Y90.48
X104.056Y74.74
X104.056Y59.0
X104.056Y43.26
X104.056Y27.52
X104.056Y11.78
X104.267Y82.891
X104.267Y67.151
X104.267Y51.411
X104.267Y35.671
X104.267Y19.931
X104.267Y4.191
X104.956Y89.58
X104.956Y73.84
X104.956Y58.1
X104.956Y42.36
X104.956Y26.62
X104.956Y10.88
X104.997Y79.335
X104.997Y63.595
X104.997Y47.855
X104.997Y32.115
X104.997Y16.375
X104.997Y0.635
X105.657Y90.264
X105.657Y74.524
X105.657Y58.784
X105.657Y43.044
X105.657Y27.304
X105.657Y11.564
X106.299Y82.891
X106.299Y67.151
X106.299Y51.411
X106.299Y35.671
X106.299Y19.931
X106.299Y4.191
X108.204Y82.764
X108.204Y67.024
X108.204Y51.284
X108.204Y35.544
X108.204Y19.804
X108.204Y4.064
X109.601Y90.009
X109.601Y74.269
X109.601Y58.529
X109.601Y42.789
X109.601Y27.049
X109.601Y11.309
X110.156Y83.48
X110.156Y67.74
X110.156Y52.0
X110.156Y36.26
X110.156Y20.52
X110.156Y4.78
X110.236Y89.495
X110.236Y86.32
X110.236Y73.755
X110.236Y70.58
X110.236Y58.015
X110.236Y54.84
X110.236Y42.275
X110.236Y39.1
X110.236Y26.535
X110.236Y23.36
X110.236Y10.795
X110.236Y7.62
X112.109Y83.307
X112.109Y67.567
X112.109Y51.827
X112.109Y36.087
X112.109Y20.347
X112.109Y4.607
X112.122Y92.27
X112.122Y76.53
X112.122Y60.79
X112.122Y45.05
X112.122Y29.31
X112.122Y13.57
X112.141Y89.495
X112.141Y82.51
X112.141Y73.755
X112.141Y66.77
X112.141Y58.015
X112.141Y51.03
X112.141Y42.275
X112.141Y35.29
X112.141Y26.535
X112.141Y19.55
X112.141Y10.795
X112.141Y3.81
X112.277Y85.862
X112.277Y70.122
X112.277Y54.382
X112.277Y38.642
X112.277Y22.902
X112.277Y7.162
X112.776Y81.28
X112.776Y65.54
X112.776Y49.8
X112.776Y34.06
X112.776Y18.32
X112.776Y2.58
X113.156Y91.68
X113.156Y75.94
X113.156Y60.2
X113.156Y44.46
X113.156Y28.72
X113.156Y12.98
X114.84Y87.272
X114.84Y71.532
X114.84Y55.792
X114.84Y40.052
X114.84Y24.312
X114.84Y8.572
X115.316Y89.277
X115.316Y73.537
X115.316Y57.797
X115.316Y42.057
X115.316Y26.317
X115.316Y10.577
X115.697Y92.67
X115.697Y76.93
X115.697Y61.19
X115.697Y45.45
X115.697Y29.71
X115.697Y13.97
X116.056Y84.58
X116.056Y68.84
X116.056Y53.1
X116.056Y37.36
X116.056Y21.62
X116.056Y5.88
X118.618Y91.4
X118.618Y75.66
X118.618Y59.92
X118.618Y44.18
X118.618Y28.44
X118.618Y12.7
X119.126Y88.86
X119.126Y73.12
X119.126Y57.38
X119.126Y41.64
X119.126Y25.9
X119.126Y10.16
X120.904Y83.272
X120.904Y67.532
X120.904Y51.792
X120.904Y36.052
X120.904Y20.312
X120.904Y4.572
X121.031Y92.67
X121.031Y76.93
X121.031Y61.19
X121.031Y45.45
X121.031Y29.71
X121.031Y13.97
X121.206Y81.03
X121.206Y65.29
X121.206Y49.55
X121.206Y33.81
X121.206Y18.07
X121.206Y2.33
X121.285Y88.987
X121.285Y73.247
X121.285Y57.507
X121.285Y41.767
X121.285Y26.027
X121.285Y10.287
X121.92Y83.872
X121.92Y68.132
X121.92Y52.392
X121.92Y36.652
X121.92Y20.912
X121.92Y5.172
X126.619Y90.13
X126.619Y74.39
X126.619Y58.65
X126.619Y42.91
X126.619Y27.17
X126.619Y11.43
X126.746Y84.796
X126.746Y69.056
X126.746Y53.316
X126.746Y37.576
X126.746Y21.836
X126.746Y6.096
X127.0Y83.018
X127.0Y67.278
X127.0Y51.538
X127.0Y35.798
X127.0Y20.058
X127.0Y4.318
X127.456Y91.28
X127.456Y75.54
X127.456Y59.8
X127.456Y44.06
X127.456Y28.32
X127.456Y12.58
X128.016Y91.654
X128.016Y75.914
X128.016Y60.174
X128.016Y44.434
X128.016Y28.694
X128.016Y12.954
X128.27Y80.478
X128.27Y64.738
X128.27Y48.998
X128.27Y33.258
X128.27Y17.518
X128.27Y1.778
X129.286Y92.416
X129.286Y76.676
X129.286Y60.936
X129.286Y45.196
X129.286Y29.456
X129.286Y13.716
X131.956Y79.78
X131.956Y64.04
X131.956Y48.3
X131.956Y32.56
X131.956Y16.82
X131.956Y1.08
X132.169Y84.679
X132.169Y68.939
X132.169Y53.199
X132.169Y37.459
X132.169Y21.719
X132.169Y5.979
X132.956Y92.78
X132.956Y82.78
X132.956Y77.04
X132.956Y67.04
X132.956Y61.3
X132.956Y51.3
X132.956Y45.56
X132.956Y35.56
X132.956Y29.82
X132.956Y19.82
X132.956Y14.08
X132.956Y4.08
X133.858Y89.622
X133.858Y87.336
X133.858Y73.882
X133.858Y71.596
X133.858Y58.142
X133.858Y55.856
X133.858Y42.402
X133.858Y40.116
X133.858Y26.662
X133.858Y24.376
X133.858Y10.922
X133.858Y8.636
T3
X21.59Y79.97
X21.59Y64.23
X21.59Y48.49
X21.59Y32.75
X21.59Y17.01
X21.59Y1.27
X69.088Y79.97
X69.088Y64.23
X69.088Y48.49
X69.088Y32.75
X69.088Y17.01
X69.088Y1.27
X116.586Y79.97
X116.586Y64.23
X116.586Y48.49
X116.586Y32.75
X116.586Y17.01
X116.586Y1.27
M30
