%TF.GenerationSoftware,KiCad,Pcbnew,7.0.6*%
%TF.CreationDate,2023-11-19T12:44:14-07:00*%
%TF.ProjectId,SparkFun_BlueSMiRF-ESP32_panelized,53706172-6b46-4756-9e5f-426c7565534d,rev?*%
%TF.SameCoordinates,Original*%
%TF.FileFunction,Soldermask,Bot*%
%TF.FilePolarity,Negative*%
%FSLAX46Y46*%
G04 Gerber Fmt 4.6, Leading zero omitted, Abs format (unit mm)*
G04 Created by KiCad (PCBNEW 7.0.6) date 2023-11-19 12:44:14*
%MOMM*%
%LPD*%
G01*
G04 APERTURE LIST*
%TA.AperFunction,Profile*%
%ADD10C,0.100000*%
%TD*%
%ADD11C,0.500000*%
%ADD12C,0.250000*%
%ADD13C,0.300000*%
%ADD14C,0.457200*%
%ADD15C,0.142240*%
%ADD16C,0.203200*%
%ADD17C,0.200000*%
G04 APERTURE END LIST*
D10*
X0Y15240000D02*
X38100000Y15240000D01*
X38100000Y0D01*
X0Y0D01*
X0Y15240000D01*
X0Y46720000D02*
X38100000Y46720000D01*
X38100000Y31480000D01*
X0Y31480000D01*
X0Y46720000D01*
X-13200000Y-6850000D02*
X-13200000Y100790000D01*
X89900000Y93940000D02*
X128000000Y93940000D01*
X128000000Y78700000D01*
X89900000Y78700000D01*
X89900000Y93940000D01*
X89900000Y30980000D02*
X128000000Y30980000D01*
X128000000Y15740000D01*
X89900000Y15740000D01*
X89900000Y30980000D01*
X44950000Y15240000D02*
X83050000Y15240000D01*
X83050000Y0D01*
X44950000Y0D01*
X44950000Y15240000D01*
X44950000Y93940000D02*
X83050000Y93940000D01*
X83050000Y78700000D01*
X44950000Y78700000D01*
X44950000Y93940000D01*
X0Y62460000D02*
X38100000Y62460000D01*
X38100000Y47220000D01*
X0Y47220000D01*
X0Y62460000D01*
X-13200000Y100790000D02*
X141200000Y100790000D01*
X134850000Y-500000D02*
X-6850000Y-500000D01*
X141200000Y-6850000D02*
X-13200000Y-6850000D01*
X89900000Y15240000D02*
X128000000Y15240000D01*
X128000000Y0D01*
X89900000Y0D01*
X89900000Y15240000D01*
X-6850000Y-500000D02*
X-6850000Y94440000D01*
X0Y30980000D02*
X38100000Y30980000D01*
X38100000Y15740000D01*
X0Y15740000D01*
X0Y30980000D01*
X44950000Y78200000D02*
X83050000Y78200000D01*
X83050000Y62960000D01*
X44950000Y62960000D01*
X44950000Y78200000D01*
X134850000Y94440000D02*
X134850000Y-500000D01*
X44950000Y30980000D02*
X83050000Y30980000D01*
X83050000Y15740000D01*
X44950000Y15740000D01*
X44950000Y30980000D01*
X89900000Y62460000D02*
X128000000Y62460000D01*
X128000000Y47220000D01*
X89900000Y47220000D01*
X89900000Y62460000D01*
X141200000Y100790000D02*
X141200000Y-6850000D01*
X0Y93940000D02*
X38100000Y93940000D01*
X38100000Y78700000D01*
X0Y78700000D01*
X0Y93940000D01*
X89900000Y78200000D02*
X128000000Y78200000D01*
X128000000Y62960000D01*
X89900000Y62960000D01*
X89900000Y78200000D01*
X89900000Y46720000D02*
X128000000Y46720000D01*
X128000000Y31480000D01*
X89900000Y31480000D01*
X89900000Y46720000D01*
X44950000Y46720000D02*
X83050000Y46720000D01*
X83050000Y31480000D01*
X44950000Y31480000D01*
X44950000Y46720000D01*
X-6850000Y94440000D02*
X134850000Y94440000D01*
X0Y78200000D02*
X38100000Y78200000D01*
X38100000Y62960000D01*
X0Y62960000D01*
X0Y78200000D01*
X44950000Y62460000D02*
X83050000Y62460000D01*
X83050000Y47220000D01*
X44950000Y47220000D01*
X44950000Y62460000D01*
D11*
X-13450000Y-250000D02*
X141450000Y-250000D01*
X-13450000Y62710000D02*
X141450000Y62710000D01*
X-13450000Y46970000D02*
X141450000Y46970000D01*
X-13450000Y15490000D02*
X141450000Y15490000D01*
X-13450000Y31230000D02*
X141450000Y31230000D01*
X-13450000Y78450000D02*
X141450000Y78450000D01*
X-13450000Y94190000D02*
X141450000Y94190000D01*
D12*
X-29423997Y48057762D02*
X-28757331Y46057762D01*
X-28757331Y46057762D02*
X-28090664Y48057762D01*
X-27423997Y46819667D02*
X-25900187Y46819667D01*
X-25043045Y46153000D02*
X-24757331Y46057762D01*
X-24757331Y46057762D02*
X-24281140Y46057762D01*
X-24281140Y46057762D02*
X-24090664Y46153000D01*
X-24090664Y46153000D02*
X-23995426Y46248239D01*
X-23995426Y46248239D02*
X-23900188Y46438715D01*
X-23900188Y46438715D02*
X-23900188Y46629191D01*
X-23900188Y46629191D02*
X-23995426Y46819667D01*
X-23995426Y46819667D02*
X-24090664Y46914905D01*
X-24090664Y46914905D02*
X-24281140Y47010143D01*
X-24281140Y47010143D02*
X-24662093Y47105381D01*
X-24662093Y47105381D02*
X-24852569Y47200620D01*
X-24852569Y47200620D02*
X-24947807Y47295858D01*
X-24947807Y47295858D02*
X-25043045Y47486334D01*
X-25043045Y47486334D02*
X-25043045Y47676810D01*
X-25043045Y47676810D02*
X-24947807Y47867286D01*
X-24947807Y47867286D02*
X-24852569Y47962524D01*
X-24852569Y47962524D02*
X-24662093Y48057762D01*
X-24662093Y48057762D02*
X-24185902Y48057762D01*
X-24185902Y48057762D02*
X-23900188Y47962524D01*
X-21900188Y46248239D02*
X-21995426Y46153000D01*
X-21995426Y46153000D02*
X-22281140Y46057762D01*
X-22281140Y46057762D02*
X-22471616Y46057762D01*
X-22471616Y46057762D02*
X-22757331Y46153000D01*
X-22757331Y46153000D02*
X-22947807Y46343477D01*
X-22947807Y46343477D02*
X-23043045Y46533953D01*
X-23043045Y46533953D02*
X-23138283Y46914905D01*
X-23138283Y46914905D02*
X-23138283Y47200620D01*
X-23138283Y47200620D02*
X-23043045Y47581572D01*
X-23043045Y47581572D02*
X-22947807Y47772048D01*
X-22947807Y47772048D02*
X-22757331Y47962524D01*
X-22757331Y47962524D02*
X-22471616Y48057762D01*
X-22471616Y48057762D02*
X-22281140Y48057762D01*
X-22281140Y48057762D02*
X-21995426Y47962524D01*
X-21995426Y47962524D02*
X-21900188Y47867286D01*
X-20662093Y48057762D02*
X-20281140Y48057762D01*
X-20281140Y48057762D02*
X-20090664Y47962524D01*
X-20090664Y47962524D02*
X-19900188Y47772048D01*
X-19900188Y47772048D02*
X-19804950Y47391096D01*
X-19804950Y47391096D02*
X-19804950Y46724429D01*
X-19804950Y46724429D02*
X-19900188Y46343477D01*
X-19900188Y46343477D02*
X-20090664Y46153000D01*
X-20090664Y46153000D02*
X-20281140Y46057762D01*
X-20281140Y46057762D02*
X-20662093Y46057762D01*
X-20662093Y46057762D02*
X-20852569Y46153000D01*
X-20852569Y46153000D02*
X-21043045Y46343477D01*
X-21043045Y46343477D02*
X-21138283Y46724429D01*
X-21138283Y46724429D02*
X-21138283Y47391096D01*
X-21138283Y47391096D02*
X-21043045Y47772048D01*
X-21043045Y47772048D02*
X-20852569Y47962524D01*
X-20852569Y47962524D02*
X-20662093Y48057762D01*
X-17804950Y46057762D02*
X-18471617Y47010143D01*
X-18947807Y46057762D02*
X-18947807Y48057762D01*
X-18947807Y48057762D02*
X-18185902Y48057762D01*
X-18185902Y48057762D02*
X-17995426Y47962524D01*
X-17995426Y47962524D02*
X-17900188Y47867286D01*
X-17900188Y47867286D02*
X-17804950Y47676810D01*
X-17804950Y47676810D02*
X-17804950Y47391096D01*
X-17804950Y47391096D02*
X-17900188Y47200620D01*
X-17900188Y47200620D02*
X-17995426Y47105381D01*
X-17995426Y47105381D02*
X-18185902Y47010143D01*
X-18185902Y47010143D02*
X-18947807Y47010143D01*
X-16947807Y47105381D02*
X-16281140Y47105381D01*
X-15995426Y46057762D02*
X-16947807Y46057762D01*
X-16947807Y46057762D02*
X-16947807Y48057762D01*
X-16947807Y48057762D02*
X-15995426Y48057762D01*
X42437238Y40208095D02*
X41484857Y39541428D01*
X42437238Y39065238D02*
X40437238Y39065238D01*
X40437238Y39065238D02*
X40437238Y39827143D01*
X40437238Y39827143D02*
X40532476Y40017619D01*
X40532476Y40017619D02*
X40627714Y40112857D01*
X40627714Y40112857D02*
X40818190Y40208095D01*
X40818190Y40208095D02*
X41103904Y40208095D01*
X41103904Y40208095D02*
X41294380Y40112857D01*
X41294380Y40112857D02*
X41389619Y40017619D01*
X41389619Y40017619D02*
X41484857Y39827143D01*
X41484857Y39827143D02*
X41484857Y39065238D01*
X40437238Y41446190D02*
X40437238Y41827143D01*
X40437238Y41827143D02*
X40532476Y42017619D01*
X40532476Y42017619D02*
X40722952Y42208095D01*
X40722952Y42208095D02*
X41103904Y42303333D01*
X41103904Y42303333D02*
X41770571Y42303333D01*
X41770571Y42303333D02*
X42151523Y42208095D01*
X42151523Y42208095D02*
X42342000Y42017619D01*
X42342000Y42017619D02*
X42437238Y41827143D01*
X42437238Y41827143D02*
X42437238Y41446190D01*
X42437238Y41446190D02*
X42342000Y41255714D01*
X42342000Y41255714D02*
X42151523Y41065238D01*
X42151523Y41065238D02*
X41770571Y40970000D01*
X41770571Y40970000D02*
X41103904Y40970000D01*
X41103904Y40970000D02*
X40722952Y41065238D01*
X40722952Y41065238D02*
X40532476Y41255714D01*
X40532476Y41255714D02*
X40437238Y41446190D01*
X40437238Y43160476D02*
X42056285Y43160476D01*
X42056285Y43160476D02*
X42246761Y43255714D01*
X42246761Y43255714D02*
X42342000Y43350952D01*
X42342000Y43350952D02*
X42437238Y43541428D01*
X42437238Y43541428D02*
X42437238Y43922381D01*
X42437238Y43922381D02*
X42342000Y44112857D01*
X42342000Y44112857D02*
X42246761Y44208095D01*
X42246761Y44208095D02*
X42056285Y44303333D01*
X42056285Y44303333D02*
X40437238Y44303333D01*
X40437238Y44970000D02*
X40437238Y46112857D01*
X42437238Y45541428D02*
X40437238Y45541428D01*
X41389619Y46779524D02*
X41389619Y47446191D01*
X42437238Y47731905D02*
X42437238Y46779524D01*
X42437238Y46779524D02*
X40437238Y46779524D01*
X40437238Y46779524D02*
X40437238Y47731905D01*
X40437238Y50493810D02*
X40437238Y50874763D01*
X40437238Y50874763D02*
X40532476Y51065239D01*
X40532476Y51065239D02*
X40722952Y51255715D01*
X40722952Y51255715D02*
X41103904Y51350953D01*
X41103904Y51350953D02*
X41770571Y51350953D01*
X41770571Y51350953D02*
X42151523Y51255715D01*
X42151523Y51255715D02*
X42342000Y51065239D01*
X42342000Y51065239D02*
X42437238Y50874763D01*
X42437238Y50874763D02*
X42437238Y50493810D01*
X42437238Y50493810D02*
X42342000Y50303334D01*
X42342000Y50303334D02*
X42151523Y50112858D01*
X42151523Y50112858D02*
X41770571Y50017620D01*
X41770571Y50017620D02*
X41103904Y50017620D01*
X41103904Y50017620D02*
X40722952Y50112858D01*
X40722952Y50112858D02*
X40532476Y50303334D01*
X40532476Y50303334D02*
X40437238Y50493810D01*
X40437238Y52208096D02*
X42056285Y52208096D01*
X42056285Y52208096D02*
X42246761Y52303334D01*
X42246761Y52303334D02*
X42342000Y52398572D01*
X42342000Y52398572D02*
X42437238Y52589048D01*
X42437238Y52589048D02*
X42437238Y52970001D01*
X42437238Y52970001D02*
X42342000Y53160477D01*
X42342000Y53160477D02*
X42246761Y53255715D01*
X42246761Y53255715D02*
X42056285Y53350953D01*
X42056285Y53350953D02*
X40437238Y53350953D01*
X40437238Y54017620D02*
X40437238Y55160477D01*
X42437238Y54589048D02*
X40437238Y54589048D01*
X-29423997Y837762D02*
X-28757331Y-1162238D01*
X-28757331Y-1162238D02*
X-28090664Y837762D01*
X-27423997Y-400333D02*
X-25900187Y-400333D01*
X-25043045Y-1067000D02*
X-24757331Y-1162238D01*
X-24757331Y-1162238D02*
X-24281140Y-1162238D01*
X-24281140Y-1162238D02*
X-24090664Y-1067000D01*
X-24090664Y-1067000D02*
X-23995426Y-971761D01*
X-23995426Y-971761D02*
X-23900188Y-781285D01*
X-23900188Y-781285D02*
X-23900188Y-590809D01*
X-23900188Y-590809D02*
X-23995426Y-400333D01*
X-23995426Y-400333D02*
X-24090664Y-305095D01*
X-24090664Y-305095D02*
X-24281140Y-209857D01*
X-24281140Y-209857D02*
X-24662093Y-114619D01*
X-24662093Y-114619D02*
X-24852569Y-19380D01*
X-24852569Y-19380D02*
X-24947807Y75858D01*
X-24947807Y75858D02*
X-25043045Y266334D01*
X-25043045Y266334D02*
X-25043045Y456810D01*
X-25043045Y456810D02*
X-24947807Y647286D01*
X-24947807Y647286D02*
X-24852569Y742524D01*
X-24852569Y742524D02*
X-24662093Y837762D01*
X-24662093Y837762D02*
X-24185902Y837762D01*
X-24185902Y837762D02*
X-23900188Y742524D01*
X-21900188Y-971761D02*
X-21995426Y-1067000D01*
X-21995426Y-1067000D02*
X-22281140Y-1162238D01*
X-22281140Y-1162238D02*
X-22471616Y-1162238D01*
X-22471616Y-1162238D02*
X-22757331Y-1067000D01*
X-22757331Y-1067000D02*
X-22947807Y-876523D01*
X-22947807Y-876523D02*
X-23043045Y-686047D01*
X-23043045Y-686047D02*
X-23138283Y-305095D01*
X-23138283Y-305095D02*
X-23138283Y-19380D01*
X-23138283Y-19380D02*
X-23043045Y361572D01*
X-23043045Y361572D02*
X-22947807Y552048D01*
X-22947807Y552048D02*
X-22757331Y742524D01*
X-22757331Y742524D02*
X-22471616Y837762D01*
X-22471616Y837762D02*
X-22281140Y837762D01*
X-22281140Y837762D02*
X-21995426Y742524D01*
X-21995426Y742524D02*
X-21900188Y647286D01*
X-20662093Y837762D02*
X-20281140Y837762D01*
X-20281140Y837762D02*
X-20090664Y742524D01*
X-20090664Y742524D02*
X-19900188Y552048D01*
X-19900188Y552048D02*
X-19804950Y171096D01*
X-19804950Y171096D02*
X-19804950Y-495571D01*
X-19804950Y-495571D02*
X-19900188Y-876523D01*
X-19900188Y-876523D02*
X-20090664Y-1067000D01*
X-20090664Y-1067000D02*
X-20281140Y-1162238D01*
X-20281140Y-1162238D02*
X-20662093Y-1162238D01*
X-20662093Y-1162238D02*
X-20852569Y-1067000D01*
X-20852569Y-1067000D02*
X-21043045Y-876523D01*
X-21043045Y-876523D02*
X-21138283Y-495571D01*
X-21138283Y-495571D02*
X-21138283Y171096D01*
X-21138283Y171096D02*
X-21043045Y552048D01*
X-21043045Y552048D02*
X-20852569Y742524D01*
X-20852569Y742524D02*
X-20662093Y837762D01*
X-17804950Y-1162238D02*
X-18471617Y-209857D01*
X-18947807Y-1162238D02*
X-18947807Y837762D01*
X-18947807Y837762D02*
X-18185902Y837762D01*
X-18185902Y837762D02*
X-17995426Y742524D01*
X-17995426Y742524D02*
X-17900188Y647286D01*
X-17900188Y647286D02*
X-17804950Y456810D01*
X-17804950Y456810D02*
X-17804950Y171096D01*
X-17804950Y171096D02*
X-17900188Y-19380D01*
X-17900188Y-19380D02*
X-17995426Y-114619D01*
X-17995426Y-114619D02*
X-18185902Y-209857D01*
X-18185902Y-209857D02*
X-18947807Y-209857D01*
X-16947807Y-114619D02*
X-16281140Y-114619D01*
X-15995426Y-1162238D02*
X-16947807Y-1162238D01*
X-16947807Y-1162238D02*
X-16947807Y837762D01*
X-16947807Y837762D02*
X-15995426Y837762D01*
D13*
X32044285Y-16310828D02*
X32044285Y-14810828D01*
X32044285Y-14810828D02*
X32901428Y-16310828D01*
X32901428Y-16310828D02*
X32901428Y-14810828D01*
X33615714Y-16167971D02*
X33687143Y-16239400D01*
X33687143Y-16239400D02*
X33615714Y-16310828D01*
X33615714Y-16310828D02*
X33544286Y-16239400D01*
X33544286Y-16239400D02*
X33615714Y-16167971D01*
X33615714Y-16167971D02*
X33615714Y-16310828D01*
X35401429Y-16239400D02*
X35615715Y-16310828D01*
X35615715Y-16310828D02*
X35972857Y-16310828D01*
X35972857Y-16310828D02*
X36115715Y-16239400D01*
X36115715Y-16239400D02*
X36187143Y-16167971D01*
X36187143Y-16167971D02*
X36258572Y-16025114D01*
X36258572Y-16025114D02*
X36258572Y-15882257D01*
X36258572Y-15882257D02*
X36187143Y-15739400D01*
X36187143Y-15739400D02*
X36115715Y-15667971D01*
X36115715Y-15667971D02*
X35972857Y-15596542D01*
X35972857Y-15596542D02*
X35687143Y-15525114D01*
X35687143Y-15525114D02*
X35544286Y-15453685D01*
X35544286Y-15453685D02*
X35472857Y-15382257D01*
X35472857Y-15382257D02*
X35401429Y-15239400D01*
X35401429Y-15239400D02*
X35401429Y-15096542D01*
X35401429Y-15096542D02*
X35472857Y-14953685D01*
X35472857Y-14953685D02*
X35544286Y-14882257D01*
X35544286Y-14882257D02*
X35687143Y-14810828D01*
X35687143Y-14810828D02*
X36044286Y-14810828D01*
X36044286Y-14810828D02*
X36258572Y-14882257D01*
X37472857Y-16239400D02*
X37330000Y-16310828D01*
X37330000Y-16310828D02*
X37044286Y-16310828D01*
X37044286Y-16310828D02*
X36901428Y-16239400D01*
X36901428Y-16239400D02*
X36830000Y-16096542D01*
X36830000Y-16096542D02*
X36830000Y-15525114D01*
X36830000Y-15525114D02*
X36901428Y-15382257D01*
X36901428Y-15382257D02*
X37044286Y-15310828D01*
X37044286Y-15310828D02*
X37330000Y-15310828D01*
X37330000Y-15310828D02*
X37472857Y-15382257D01*
X37472857Y-15382257D02*
X37544286Y-15525114D01*
X37544286Y-15525114D02*
X37544286Y-15667971D01*
X37544286Y-15667971D02*
X36830000Y-15810828D01*
X38187142Y-16310828D02*
X38187142Y-15310828D01*
X38187142Y-14810828D02*
X38115714Y-14882257D01*
X38115714Y-14882257D02*
X38187142Y-14953685D01*
X38187142Y-14953685D02*
X38258571Y-14882257D01*
X38258571Y-14882257D02*
X38187142Y-14810828D01*
X38187142Y-14810828D02*
X38187142Y-14953685D01*
X39544286Y-16310828D02*
X39544286Y-14810828D01*
X39544286Y-16239400D02*
X39401428Y-16310828D01*
X39401428Y-16310828D02*
X39115714Y-16310828D01*
X39115714Y-16310828D02*
X38972857Y-16239400D01*
X38972857Y-16239400D02*
X38901428Y-16167971D01*
X38901428Y-16167971D02*
X38830000Y-16025114D01*
X38830000Y-16025114D02*
X38830000Y-15596542D01*
X38830000Y-15596542D02*
X38901428Y-15453685D01*
X38901428Y-15453685D02*
X38972857Y-15382257D01*
X38972857Y-15382257D02*
X39115714Y-15310828D01*
X39115714Y-15310828D02*
X39401428Y-15310828D01*
X39401428Y-15310828D02*
X39544286Y-15382257D01*
X40472857Y-16310828D02*
X40330000Y-16239400D01*
X40330000Y-16239400D02*
X40258571Y-16096542D01*
X40258571Y-16096542D02*
X40258571Y-14810828D01*
X41615714Y-16239400D02*
X41472857Y-16310828D01*
X41472857Y-16310828D02*
X41187143Y-16310828D01*
X41187143Y-16310828D02*
X41044285Y-16239400D01*
X41044285Y-16239400D02*
X40972857Y-16096542D01*
X40972857Y-16096542D02*
X40972857Y-15525114D01*
X40972857Y-15525114D02*
X41044285Y-15382257D01*
X41044285Y-15382257D02*
X41187143Y-15310828D01*
X41187143Y-15310828D02*
X41472857Y-15310828D01*
X41472857Y-15310828D02*
X41615714Y-15382257D01*
X41615714Y-15382257D02*
X41687143Y-15525114D01*
X41687143Y-15525114D02*
X41687143Y-15667971D01*
X41687143Y-15667971D02*
X40972857Y-15810828D01*
D12*
X-29423997Y79537762D02*
X-28757331Y77537762D01*
X-28757331Y77537762D02*
X-28090664Y79537762D01*
X-27423997Y78299667D02*
X-25900187Y78299667D01*
X-25043045Y77633000D02*
X-24757331Y77537762D01*
X-24757331Y77537762D02*
X-24281140Y77537762D01*
X-24281140Y77537762D02*
X-24090664Y77633000D01*
X-24090664Y77633000D02*
X-23995426Y77728239D01*
X-23995426Y77728239D02*
X-23900188Y77918715D01*
X-23900188Y77918715D02*
X-23900188Y78109191D01*
X-23900188Y78109191D02*
X-23995426Y78299667D01*
X-23995426Y78299667D02*
X-24090664Y78394905D01*
X-24090664Y78394905D02*
X-24281140Y78490143D01*
X-24281140Y78490143D02*
X-24662093Y78585381D01*
X-24662093Y78585381D02*
X-24852569Y78680620D01*
X-24852569Y78680620D02*
X-24947807Y78775858D01*
X-24947807Y78775858D02*
X-25043045Y78966334D01*
X-25043045Y78966334D02*
X-25043045Y79156810D01*
X-25043045Y79156810D02*
X-24947807Y79347286D01*
X-24947807Y79347286D02*
X-24852569Y79442524D01*
X-24852569Y79442524D02*
X-24662093Y79537762D01*
X-24662093Y79537762D02*
X-24185902Y79537762D01*
X-24185902Y79537762D02*
X-23900188Y79442524D01*
X-21900188Y77728239D02*
X-21995426Y77633000D01*
X-21995426Y77633000D02*
X-22281140Y77537762D01*
X-22281140Y77537762D02*
X-22471616Y77537762D01*
X-22471616Y77537762D02*
X-22757331Y77633000D01*
X-22757331Y77633000D02*
X-22947807Y77823477D01*
X-22947807Y77823477D02*
X-23043045Y78013953D01*
X-23043045Y78013953D02*
X-23138283Y78394905D01*
X-23138283Y78394905D02*
X-23138283Y78680620D01*
X-23138283Y78680620D02*
X-23043045Y79061572D01*
X-23043045Y79061572D02*
X-22947807Y79252048D01*
X-22947807Y79252048D02*
X-22757331Y79442524D01*
X-22757331Y79442524D02*
X-22471616Y79537762D01*
X-22471616Y79537762D02*
X-22281140Y79537762D01*
X-22281140Y79537762D02*
X-21995426Y79442524D01*
X-21995426Y79442524D02*
X-21900188Y79347286D01*
X-20662093Y79537762D02*
X-20281140Y79537762D01*
X-20281140Y79537762D02*
X-20090664Y79442524D01*
X-20090664Y79442524D02*
X-19900188Y79252048D01*
X-19900188Y79252048D02*
X-19804950Y78871096D01*
X-19804950Y78871096D02*
X-19804950Y78204429D01*
X-19804950Y78204429D02*
X-19900188Y77823477D01*
X-19900188Y77823477D02*
X-20090664Y77633000D01*
X-20090664Y77633000D02*
X-20281140Y77537762D01*
X-20281140Y77537762D02*
X-20662093Y77537762D01*
X-20662093Y77537762D02*
X-20852569Y77633000D01*
X-20852569Y77633000D02*
X-21043045Y77823477D01*
X-21043045Y77823477D02*
X-21138283Y78204429D01*
X-21138283Y78204429D02*
X-21138283Y78871096D01*
X-21138283Y78871096D02*
X-21043045Y79252048D01*
X-21043045Y79252048D02*
X-20852569Y79442524D01*
X-20852569Y79442524D02*
X-20662093Y79537762D01*
X-17804950Y77537762D02*
X-18471617Y78490143D01*
X-18947807Y77537762D02*
X-18947807Y79537762D01*
X-18947807Y79537762D02*
X-18185902Y79537762D01*
X-18185902Y79537762D02*
X-17995426Y79442524D01*
X-17995426Y79442524D02*
X-17900188Y79347286D01*
X-17900188Y79347286D02*
X-17804950Y79156810D01*
X-17804950Y79156810D02*
X-17804950Y78871096D01*
X-17804950Y78871096D02*
X-17900188Y78680620D01*
X-17900188Y78680620D02*
X-17995426Y78585381D01*
X-17995426Y78585381D02*
X-18185902Y78490143D01*
X-18185902Y78490143D02*
X-18947807Y78490143D01*
X-16947807Y78585381D02*
X-16281140Y78585381D01*
X-15995426Y77537762D02*
X-16947807Y77537762D01*
X-16947807Y77537762D02*
X-16947807Y79537762D01*
X-16947807Y79537762D02*
X-15995426Y79537762D01*
X-29423997Y63797762D02*
X-28757331Y61797762D01*
X-28757331Y61797762D02*
X-28090664Y63797762D01*
X-27423997Y62559667D02*
X-25900187Y62559667D01*
X-25043045Y61893000D02*
X-24757331Y61797762D01*
X-24757331Y61797762D02*
X-24281140Y61797762D01*
X-24281140Y61797762D02*
X-24090664Y61893000D01*
X-24090664Y61893000D02*
X-23995426Y61988239D01*
X-23995426Y61988239D02*
X-23900188Y62178715D01*
X-23900188Y62178715D02*
X-23900188Y62369191D01*
X-23900188Y62369191D02*
X-23995426Y62559667D01*
X-23995426Y62559667D02*
X-24090664Y62654905D01*
X-24090664Y62654905D02*
X-24281140Y62750143D01*
X-24281140Y62750143D02*
X-24662093Y62845381D01*
X-24662093Y62845381D02*
X-24852569Y62940620D01*
X-24852569Y62940620D02*
X-24947807Y63035858D01*
X-24947807Y63035858D02*
X-25043045Y63226334D01*
X-25043045Y63226334D02*
X-25043045Y63416810D01*
X-25043045Y63416810D02*
X-24947807Y63607286D01*
X-24947807Y63607286D02*
X-24852569Y63702524D01*
X-24852569Y63702524D02*
X-24662093Y63797762D01*
X-24662093Y63797762D02*
X-24185902Y63797762D01*
X-24185902Y63797762D02*
X-23900188Y63702524D01*
X-21900188Y61988239D02*
X-21995426Y61893000D01*
X-21995426Y61893000D02*
X-22281140Y61797762D01*
X-22281140Y61797762D02*
X-22471616Y61797762D01*
X-22471616Y61797762D02*
X-22757331Y61893000D01*
X-22757331Y61893000D02*
X-22947807Y62083477D01*
X-22947807Y62083477D02*
X-23043045Y62273953D01*
X-23043045Y62273953D02*
X-23138283Y62654905D01*
X-23138283Y62654905D02*
X-23138283Y62940620D01*
X-23138283Y62940620D02*
X-23043045Y63321572D01*
X-23043045Y63321572D02*
X-22947807Y63512048D01*
X-22947807Y63512048D02*
X-22757331Y63702524D01*
X-22757331Y63702524D02*
X-22471616Y63797762D01*
X-22471616Y63797762D02*
X-22281140Y63797762D01*
X-22281140Y63797762D02*
X-21995426Y63702524D01*
X-21995426Y63702524D02*
X-21900188Y63607286D01*
X-20662093Y63797762D02*
X-20281140Y63797762D01*
X-20281140Y63797762D02*
X-20090664Y63702524D01*
X-20090664Y63702524D02*
X-19900188Y63512048D01*
X-19900188Y63512048D02*
X-19804950Y63131096D01*
X-19804950Y63131096D02*
X-19804950Y62464429D01*
X-19804950Y62464429D02*
X-19900188Y62083477D01*
X-19900188Y62083477D02*
X-20090664Y61893000D01*
X-20090664Y61893000D02*
X-20281140Y61797762D01*
X-20281140Y61797762D02*
X-20662093Y61797762D01*
X-20662093Y61797762D02*
X-20852569Y61893000D01*
X-20852569Y61893000D02*
X-21043045Y62083477D01*
X-21043045Y62083477D02*
X-21138283Y62464429D01*
X-21138283Y62464429D02*
X-21138283Y63131096D01*
X-21138283Y63131096D02*
X-21043045Y63512048D01*
X-21043045Y63512048D02*
X-20852569Y63702524D01*
X-20852569Y63702524D02*
X-20662093Y63797762D01*
X-17804950Y61797762D02*
X-18471617Y62750143D01*
X-18947807Y61797762D02*
X-18947807Y63797762D01*
X-18947807Y63797762D02*
X-18185902Y63797762D01*
X-18185902Y63797762D02*
X-17995426Y63702524D01*
X-17995426Y63702524D02*
X-17900188Y63607286D01*
X-17900188Y63607286D02*
X-17804950Y63416810D01*
X-17804950Y63416810D02*
X-17804950Y63131096D01*
X-17804950Y63131096D02*
X-17900188Y62940620D01*
X-17900188Y62940620D02*
X-17995426Y62845381D01*
X-17995426Y62845381D02*
X-18185902Y62750143D01*
X-18185902Y62750143D02*
X-18947807Y62750143D01*
X-16947807Y62845381D02*
X-16281140Y62845381D01*
X-15995426Y61797762D02*
X-16947807Y61797762D01*
X-16947807Y61797762D02*
X-16947807Y63797762D01*
X-16947807Y63797762D02*
X-15995426Y63797762D01*
X-2512762Y40208095D02*
X-3465143Y39541428D01*
X-2512762Y39065238D02*
X-4512762Y39065238D01*
X-4512762Y39065238D02*
X-4512762Y39827143D01*
X-4512762Y39827143D02*
X-4417524Y40017619D01*
X-4417524Y40017619D02*
X-4322286Y40112857D01*
X-4322286Y40112857D02*
X-4131810Y40208095D01*
X-4131810Y40208095D02*
X-3846096Y40208095D01*
X-3846096Y40208095D02*
X-3655620Y40112857D01*
X-3655620Y40112857D02*
X-3560381Y40017619D01*
X-3560381Y40017619D02*
X-3465143Y39827143D01*
X-3465143Y39827143D02*
X-3465143Y39065238D01*
X-4512762Y41446190D02*
X-4512762Y41827143D01*
X-4512762Y41827143D02*
X-4417524Y42017619D01*
X-4417524Y42017619D02*
X-4227048Y42208095D01*
X-4227048Y42208095D02*
X-3846096Y42303333D01*
X-3846096Y42303333D02*
X-3179429Y42303333D01*
X-3179429Y42303333D02*
X-2798477Y42208095D01*
X-2798477Y42208095D02*
X-2608000Y42017619D01*
X-2608000Y42017619D02*
X-2512762Y41827143D01*
X-2512762Y41827143D02*
X-2512762Y41446190D01*
X-2512762Y41446190D02*
X-2608000Y41255714D01*
X-2608000Y41255714D02*
X-2798477Y41065238D01*
X-2798477Y41065238D02*
X-3179429Y40970000D01*
X-3179429Y40970000D02*
X-3846096Y40970000D01*
X-3846096Y40970000D02*
X-4227048Y41065238D01*
X-4227048Y41065238D02*
X-4417524Y41255714D01*
X-4417524Y41255714D02*
X-4512762Y41446190D01*
X-4512762Y43160476D02*
X-2893715Y43160476D01*
X-2893715Y43160476D02*
X-2703239Y43255714D01*
X-2703239Y43255714D02*
X-2608000Y43350952D01*
X-2608000Y43350952D02*
X-2512762Y43541428D01*
X-2512762Y43541428D02*
X-2512762Y43922381D01*
X-2512762Y43922381D02*
X-2608000Y44112857D01*
X-2608000Y44112857D02*
X-2703239Y44208095D01*
X-2703239Y44208095D02*
X-2893715Y44303333D01*
X-2893715Y44303333D02*
X-4512762Y44303333D01*
X-4512762Y44970000D02*
X-4512762Y46112857D01*
X-2512762Y45541428D02*
X-4512762Y45541428D01*
X-3560381Y46779524D02*
X-3560381Y47446191D01*
X-2512762Y47731905D02*
X-2512762Y46779524D01*
X-2512762Y46779524D02*
X-4512762Y46779524D01*
X-4512762Y46779524D02*
X-4512762Y47731905D01*
X-4512762Y50493810D02*
X-4512762Y50874763D01*
X-4512762Y50874763D02*
X-4417524Y51065239D01*
X-4417524Y51065239D02*
X-4227048Y51255715D01*
X-4227048Y51255715D02*
X-3846096Y51350953D01*
X-3846096Y51350953D02*
X-3179429Y51350953D01*
X-3179429Y51350953D02*
X-2798477Y51255715D01*
X-2798477Y51255715D02*
X-2608000Y51065239D01*
X-2608000Y51065239D02*
X-2512762Y50874763D01*
X-2512762Y50874763D02*
X-2512762Y50493810D01*
X-2512762Y50493810D02*
X-2608000Y50303334D01*
X-2608000Y50303334D02*
X-2798477Y50112858D01*
X-2798477Y50112858D02*
X-3179429Y50017620D01*
X-3179429Y50017620D02*
X-3846096Y50017620D01*
X-3846096Y50017620D02*
X-4227048Y50112858D01*
X-4227048Y50112858D02*
X-4417524Y50303334D01*
X-4417524Y50303334D02*
X-4512762Y50493810D01*
X-4512762Y52208096D02*
X-2893715Y52208096D01*
X-2893715Y52208096D02*
X-2703239Y52303334D01*
X-2703239Y52303334D02*
X-2608000Y52398572D01*
X-2608000Y52398572D02*
X-2512762Y52589048D01*
X-2512762Y52589048D02*
X-2512762Y52970001D01*
X-2512762Y52970001D02*
X-2608000Y53160477D01*
X-2608000Y53160477D02*
X-2703239Y53255715D01*
X-2703239Y53255715D02*
X-2893715Y53350953D01*
X-2893715Y53350953D02*
X-4512762Y53350953D01*
X-4512762Y54017620D02*
X-4512762Y55160477D01*
X-2512762Y54589048D02*
X-4512762Y54589048D01*
X-29423997Y95277762D02*
X-28757331Y93277762D01*
X-28757331Y93277762D02*
X-28090664Y95277762D01*
X-27423997Y94039667D02*
X-25900187Y94039667D01*
X-25043045Y93373000D02*
X-24757331Y93277762D01*
X-24757331Y93277762D02*
X-24281140Y93277762D01*
X-24281140Y93277762D02*
X-24090664Y93373000D01*
X-24090664Y93373000D02*
X-23995426Y93468239D01*
X-23995426Y93468239D02*
X-23900188Y93658715D01*
X-23900188Y93658715D02*
X-23900188Y93849191D01*
X-23900188Y93849191D02*
X-23995426Y94039667D01*
X-23995426Y94039667D02*
X-24090664Y94134905D01*
X-24090664Y94134905D02*
X-24281140Y94230143D01*
X-24281140Y94230143D02*
X-24662093Y94325381D01*
X-24662093Y94325381D02*
X-24852569Y94420620D01*
X-24852569Y94420620D02*
X-24947807Y94515858D01*
X-24947807Y94515858D02*
X-25043045Y94706334D01*
X-25043045Y94706334D02*
X-25043045Y94896810D01*
X-25043045Y94896810D02*
X-24947807Y95087286D01*
X-24947807Y95087286D02*
X-24852569Y95182524D01*
X-24852569Y95182524D02*
X-24662093Y95277762D01*
X-24662093Y95277762D02*
X-24185902Y95277762D01*
X-24185902Y95277762D02*
X-23900188Y95182524D01*
X-21900188Y93468239D02*
X-21995426Y93373000D01*
X-21995426Y93373000D02*
X-22281140Y93277762D01*
X-22281140Y93277762D02*
X-22471616Y93277762D01*
X-22471616Y93277762D02*
X-22757331Y93373000D01*
X-22757331Y93373000D02*
X-22947807Y93563477D01*
X-22947807Y93563477D02*
X-23043045Y93753953D01*
X-23043045Y93753953D02*
X-23138283Y94134905D01*
X-23138283Y94134905D02*
X-23138283Y94420620D01*
X-23138283Y94420620D02*
X-23043045Y94801572D01*
X-23043045Y94801572D02*
X-22947807Y94992048D01*
X-22947807Y94992048D02*
X-22757331Y95182524D01*
X-22757331Y95182524D02*
X-22471616Y95277762D01*
X-22471616Y95277762D02*
X-22281140Y95277762D01*
X-22281140Y95277762D02*
X-21995426Y95182524D01*
X-21995426Y95182524D02*
X-21900188Y95087286D01*
X-20662093Y95277762D02*
X-20281140Y95277762D01*
X-20281140Y95277762D02*
X-20090664Y95182524D01*
X-20090664Y95182524D02*
X-19900188Y94992048D01*
X-19900188Y94992048D02*
X-19804950Y94611096D01*
X-19804950Y94611096D02*
X-19804950Y93944429D01*
X-19804950Y93944429D02*
X-19900188Y93563477D01*
X-19900188Y93563477D02*
X-20090664Y93373000D01*
X-20090664Y93373000D02*
X-20281140Y93277762D01*
X-20281140Y93277762D02*
X-20662093Y93277762D01*
X-20662093Y93277762D02*
X-20852569Y93373000D01*
X-20852569Y93373000D02*
X-21043045Y93563477D01*
X-21043045Y93563477D02*
X-21138283Y93944429D01*
X-21138283Y93944429D02*
X-21138283Y94611096D01*
X-21138283Y94611096D02*
X-21043045Y94992048D01*
X-21043045Y94992048D02*
X-20852569Y95182524D01*
X-20852569Y95182524D02*
X-20662093Y95277762D01*
X-17804950Y93277762D02*
X-18471617Y94230143D01*
X-18947807Y93277762D02*
X-18947807Y95277762D01*
X-18947807Y95277762D02*
X-18185902Y95277762D01*
X-18185902Y95277762D02*
X-17995426Y95182524D01*
X-17995426Y95182524D02*
X-17900188Y95087286D01*
X-17900188Y95087286D02*
X-17804950Y94896810D01*
X-17804950Y94896810D02*
X-17804950Y94611096D01*
X-17804950Y94611096D02*
X-17900188Y94420620D01*
X-17900188Y94420620D02*
X-17995426Y94325381D01*
X-17995426Y94325381D02*
X-18185902Y94230143D01*
X-18185902Y94230143D02*
X-18947807Y94230143D01*
X-16947807Y94325381D02*
X-16281140Y94325381D01*
X-15995426Y93277762D02*
X-16947807Y93277762D01*
X-16947807Y93277762D02*
X-16947807Y95277762D01*
X-16947807Y95277762D02*
X-15995426Y95277762D01*
X132337238Y40208095D02*
X131384857Y39541428D01*
X132337238Y39065238D02*
X130337238Y39065238D01*
X130337238Y39065238D02*
X130337238Y39827143D01*
X130337238Y39827143D02*
X130432476Y40017619D01*
X130432476Y40017619D02*
X130527714Y40112857D01*
X130527714Y40112857D02*
X130718190Y40208095D01*
X130718190Y40208095D02*
X131003904Y40208095D01*
X131003904Y40208095D02*
X131194380Y40112857D01*
X131194380Y40112857D02*
X131289619Y40017619D01*
X131289619Y40017619D02*
X131384857Y39827143D01*
X131384857Y39827143D02*
X131384857Y39065238D01*
X130337238Y41446190D02*
X130337238Y41827143D01*
X130337238Y41827143D02*
X130432476Y42017619D01*
X130432476Y42017619D02*
X130622952Y42208095D01*
X130622952Y42208095D02*
X131003904Y42303333D01*
X131003904Y42303333D02*
X131670571Y42303333D01*
X131670571Y42303333D02*
X132051523Y42208095D01*
X132051523Y42208095D02*
X132242000Y42017619D01*
X132242000Y42017619D02*
X132337238Y41827143D01*
X132337238Y41827143D02*
X132337238Y41446190D01*
X132337238Y41446190D02*
X132242000Y41255714D01*
X132242000Y41255714D02*
X132051523Y41065238D01*
X132051523Y41065238D02*
X131670571Y40970000D01*
X131670571Y40970000D02*
X131003904Y40970000D01*
X131003904Y40970000D02*
X130622952Y41065238D01*
X130622952Y41065238D02*
X130432476Y41255714D01*
X130432476Y41255714D02*
X130337238Y41446190D01*
X130337238Y43160476D02*
X131956285Y43160476D01*
X131956285Y43160476D02*
X132146761Y43255714D01*
X132146761Y43255714D02*
X132242000Y43350952D01*
X132242000Y43350952D02*
X132337238Y43541428D01*
X132337238Y43541428D02*
X132337238Y43922381D01*
X132337238Y43922381D02*
X132242000Y44112857D01*
X132242000Y44112857D02*
X132146761Y44208095D01*
X132146761Y44208095D02*
X131956285Y44303333D01*
X131956285Y44303333D02*
X130337238Y44303333D01*
X130337238Y44970000D02*
X130337238Y46112857D01*
X132337238Y45541428D02*
X130337238Y45541428D01*
X131289619Y46779524D02*
X131289619Y47446191D01*
X132337238Y47731905D02*
X132337238Y46779524D01*
X132337238Y46779524D02*
X130337238Y46779524D01*
X130337238Y46779524D02*
X130337238Y47731905D01*
X130337238Y50493810D02*
X130337238Y50874763D01*
X130337238Y50874763D02*
X130432476Y51065239D01*
X130432476Y51065239D02*
X130622952Y51255715D01*
X130622952Y51255715D02*
X131003904Y51350953D01*
X131003904Y51350953D02*
X131670571Y51350953D01*
X131670571Y51350953D02*
X132051523Y51255715D01*
X132051523Y51255715D02*
X132242000Y51065239D01*
X132242000Y51065239D02*
X132337238Y50874763D01*
X132337238Y50874763D02*
X132337238Y50493810D01*
X132337238Y50493810D02*
X132242000Y50303334D01*
X132242000Y50303334D02*
X132051523Y50112858D01*
X132051523Y50112858D02*
X131670571Y50017620D01*
X131670571Y50017620D02*
X131003904Y50017620D01*
X131003904Y50017620D02*
X130622952Y50112858D01*
X130622952Y50112858D02*
X130432476Y50303334D01*
X130432476Y50303334D02*
X130337238Y50493810D01*
X130337238Y52208096D02*
X131956285Y52208096D01*
X131956285Y52208096D02*
X132146761Y52303334D01*
X132146761Y52303334D02*
X132242000Y52398572D01*
X132242000Y52398572D02*
X132337238Y52589048D01*
X132337238Y52589048D02*
X132337238Y52970001D01*
X132337238Y52970001D02*
X132242000Y53160477D01*
X132242000Y53160477D02*
X132146761Y53255715D01*
X132146761Y53255715D02*
X131956285Y53350953D01*
X131956285Y53350953D02*
X130337238Y53350953D01*
X130337238Y54017620D02*
X130337238Y55160477D01*
X132337238Y54589048D02*
X130337238Y54589048D01*
X87387238Y40208095D02*
X86434857Y39541428D01*
X87387238Y39065238D02*
X85387238Y39065238D01*
X85387238Y39065238D02*
X85387238Y39827143D01*
X85387238Y39827143D02*
X85482476Y40017619D01*
X85482476Y40017619D02*
X85577714Y40112857D01*
X85577714Y40112857D02*
X85768190Y40208095D01*
X85768190Y40208095D02*
X86053904Y40208095D01*
X86053904Y40208095D02*
X86244380Y40112857D01*
X86244380Y40112857D02*
X86339619Y40017619D01*
X86339619Y40017619D02*
X86434857Y39827143D01*
X86434857Y39827143D02*
X86434857Y39065238D01*
X85387238Y41446190D02*
X85387238Y41827143D01*
X85387238Y41827143D02*
X85482476Y42017619D01*
X85482476Y42017619D02*
X85672952Y42208095D01*
X85672952Y42208095D02*
X86053904Y42303333D01*
X86053904Y42303333D02*
X86720571Y42303333D01*
X86720571Y42303333D02*
X87101523Y42208095D01*
X87101523Y42208095D02*
X87292000Y42017619D01*
X87292000Y42017619D02*
X87387238Y41827143D01*
X87387238Y41827143D02*
X87387238Y41446190D01*
X87387238Y41446190D02*
X87292000Y41255714D01*
X87292000Y41255714D02*
X87101523Y41065238D01*
X87101523Y41065238D02*
X86720571Y40970000D01*
X86720571Y40970000D02*
X86053904Y40970000D01*
X86053904Y40970000D02*
X85672952Y41065238D01*
X85672952Y41065238D02*
X85482476Y41255714D01*
X85482476Y41255714D02*
X85387238Y41446190D01*
X85387238Y43160476D02*
X87006285Y43160476D01*
X87006285Y43160476D02*
X87196761Y43255714D01*
X87196761Y43255714D02*
X87292000Y43350952D01*
X87292000Y43350952D02*
X87387238Y43541428D01*
X87387238Y43541428D02*
X87387238Y43922381D01*
X87387238Y43922381D02*
X87292000Y44112857D01*
X87292000Y44112857D02*
X87196761Y44208095D01*
X87196761Y44208095D02*
X87006285Y44303333D01*
X87006285Y44303333D02*
X85387238Y44303333D01*
X85387238Y44970000D02*
X85387238Y46112857D01*
X87387238Y45541428D02*
X85387238Y45541428D01*
X86339619Y46779524D02*
X86339619Y47446191D01*
X87387238Y47731905D02*
X87387238Y46779524D01*
X87387238Y46779524D02*
X85387238Y46779524D01*
X85387238Y46779524D02*
X85387238Y47731905D01*
X85387238Y50493810D02*
X85387238Y50874763D01*
X85387238Y50874763D02*
X85482476Y51065239D01*
X85482476Y51065239D02*
X85672952Y51255715D01*
X85672952Y51255715D02*
X86053904Y51350953D01*
X86053904Y51350953D02*
X86720571Y51350953D01*
X86720571Y51350953D02*
X87101523Y51255715D01*
X87101523Y51255715D02*
X87292000Y51065239D01*
X87292000Y51065239D02*
X87387238Y50874763D01*
X87387238Y50874763D02*
X87387238Y50493810D01*
X87387238Y50493810D02*
X87292000Y50303334D01*
X87292000Y50303334D02*
X87101523Y50112858D01*
X87101523Y50112858D02*
X86720571Y50017620D01*
X86720571Y50017620D02*
X86053904Y50017620D01*
X86053904Y50017620D02*
X85672952Y50112858D01*
X85672952Y50112858D02*
X85482476Y50303334D01*
X85482476Y50303334D02*
X85387238Y50493810D01*
X85387238Y52208096D02*
X87006285Y52208096D01*
X87006285Y52208096D02*
X87196761Y52303334D01*
X87196761Y52303334D02*
X87292000Y52398572D01*
X87292000Y52398572D02*
X87387238Y52589048D01*
X87387238Y52589048D02*
X87387238Y52970001D01*
X87387238Y52970001D02*
X87292000Y53160477D01*
X87292000Y53160477D02*
X87196761Y53255715D01*
X87196761Y53255715D02*
X87006285Y53350953D01*
X87006285Y53350953D02*
X85387238Y53350953D01*
X85387238Y54017620D02*
X85387238Y55160477D01*
X87387238Y54589048D02*
X85387238Y54589048D01*
X-29423997Y16577762D02*
X-28757331Y14577762D01*
X-28757331Y14577762D02*
X-28090664Y16577762D01*
X-27423997Y15339667D02*
X-25900187Y15339667D01*
X-25043045Y14673000D02*
X-24757331Y14577762D01*
X-24757331Y14577762D02*
X-24281140Y14577762D01*
X-24281140Y14577762D02*
X-24090664Y14673000D01*
X-24090664Y14673000D02*
X-23995426Y14768239D01*
X-23995426Y14768239D02*
X-23900188Y14958715D01*
X-23900188Y14958715D02*
X-23900188Y15149191D01*
X-23900188Y15149191D02*
X-23995426Y15339667D01*
X-23995426Y15339667D02*
X-24090664Y15434905D01*
X-24090664Y15434905D02*
X-24281140Y15530143D01*
X-24281140Y15530143D02*
X-24662093Y15625381D01*
X-24662093Y15625381D02*
X-24852569Y15720620D01*
X-24852569Y15720620D02*
X-24947807Y15815858D01*
X-24947807Y15815858D02*
X-25043045Y16006334D01*
X-25043045Y16006334D02*
X-25043045Y16196810D01*
X-25043045Y16196810D02*
X-24947807Y16387286D01*
X-24947807Y16387286D02*
X-24852569Y16482524D01*
X-24852569Y16482524D02*
X-24662093Y16577762D01*
X-24662093Y16577762D02*
X-24185902Y16577762D01*
X-24185902Y16577762D02*
X-23900188Y16482524D01*
X-21900188Y14768239D02*
X-21995426Y14673000D01*
X-21995426Y14673000D02*
X-22281140Y14577762D01*
X-22281140Y14577762D02*
X-22471616Y14577762D01*
X-22471616Y14577762D02*
X-22757331Y14673000D01*
X-22757331Y14673000D02*
X-22947807Y14863477D01*
X-22947807Y14863477D02*
X-23043045Y15053953D01*
X-23043045Y15053953D02*
X-23138283Y15434905D01*
X-23138283Y15434905D02*
X-23138283Y15720620D01*
X-23138283Y15720620D02*
X-23043045Y16101572D01*
X-23043045Y16101572D02*
X-22947807Y16292048D01*
X-22947807Y16292048D02*
X-22757331Y16482524D01*
X-22757331Y16482524D02*
X-22471616Y16577762D01*
X-22471616Y16577762D02*
X-22281140Y16577762D01*
X-22281140Y16577762D02*
X-21995426Y16482524D01*
X-21995426Y16482524D02*
X-21900188Y16387286D01*
X-20662093Y16577762D02*
X-20281140Y16577762D01*
X-20281140Y16577762D02*
X-20090664Y16482524D01*
X-20090664Y16482524D02*
X-19900188Y16292048D01*
X-19900188Y16292048D02*
X-19804950Y15911096D01*
X-19804950Y15911096D02*
X-19804950Y15244429D01*
X-19804950Y15244429D02*
X-19900188Y14863477D01*
X-19900188Y14863477D02*
X-20090664Y14673000D01*
X-20090664Y14673000D02*
X-20281140Y14577762D01*
X-20281140Y14577762D02*
X-20662093Y14577762D01*
X-20662093Y14577762D02*
X-20852569Y14673000D01*
X-20852569Y14673000D02*
X-21043045Y14863477D01*
X-21043045Y14863477D02*
X-21138283Y15244429D01*
X-21138283Y15244429D02*
X-21138283Y15911096D01*
X-21138283Y15911096D02*
X-21043045Y16292048D01*
X-21043045Y16292048D02*
X-20852569Y16482524D01*
X-20852569Y16482524D02*
X-20662093Y16577762D01*
X-17804950Y14577762D02*
X-18471617Y15530143D01*
X-18947807Y14577762D02*
X-18947807Y16577762D01*
X-18947807Y16577762D02*
X-18185902Y16577762D01*
X-18185902Y16577762D02*
X-17995426Y16482524D01*
X-17995426Y16482524D02*
X-17900188Y16387286D01*
X-17900188Y16387286D02*
X-17804950Y16196810D01*
X-17804950Y16196810D02*
X-17804950Y15911096D01*
X-17804950Y15911096D02*
X-17900188Y15720620D01*
X-17900188Y15720620D02*
X-17995426Y15625381D01*
X-17995426Y15625381D02*
X-18185902Y15530143D01*
X-18185902Y15530143D02*
X-18947807Y15530143D01*
X-16947807Y15625381D02*
X-16281140Y15625381D01*
X-15995426Y14577762D02*
X-16947807Y14577762D01*
X-16947807Y14577762D02*
X-16947807Y16577762D01*
X-16947807Y16577762D02*
X-15995426Y16577762D01*
X-29423997Y32317762D02*
X-28757331Y30317762D01*
X-28757331Y30317762D02*
X-28090664Y32317762D01*
X-27423997Y31079667D02*
X-25900187Y31079667D01*
X-25043045Y30413000D02*
X-24757331Y30317762D01*
X-24757331Y30317762D02*
X-24281140Y30317762D01*
X-24281140Y30317762D02*
X-24090664Y30413000D01*
X-24090664Y30413000D02*
X-23995426Y30508239D01*
X-23995426Y30508239D02*
X-23900188Y30698715D01*
X-23900188Y30698715D02*
X-23900188Y30889191D01*
X-23900188Y30889191D02*
X-23995426Y31079667D01*
X-23995426Y31079667D02*
X-24090664Y31174905D01*
X-24090664Y31174905D02*
X-24281140Y31270143D01*
X-24281140Y31270143D02*
X-24662093Y31365381D01*
X-24662093Y31365381D02*
X-24852569Y31460620D01*
X-24852569Y31460620D02*
X-24947807Y31555858D01*
X-24947807Y31555858D02*
X-25043045Y31746334D01*
X-25043045Y31746334D02*
X-25043045Y31936810D01*
X-25043045Y31936810D02*
X-24947807Y32127286D01*
X-24947807Y32127286D02*
X-24852569Y32222524D01*
X-24852569Y32222524D02*
X-24662093Y32317762D01*
X-24662093Y32317762D02*
X-24185902Y32317762D01*
X-24185902Y32317762D02*
X-23900188Y32222524D01*
X-21900188Y30508239D02*
X-21995426Y30413000D01*
X-21995426Y30413000D02*
X-22281140Y30317762D01*
X-22281140Y30317762D02*
X-22471616Y30317762D01*
X-22471616Y30317762D02*
X-22757331Y30413000D01*
X-22757331Y30413000D02*
X-22947807Y30603477D01*
X-22947807Y30603477D02*
X-23043045Y30793953D01*
X-23043045Y30793953D02*
X-23138283Y31174905D01*
X-23138283Y31174905D02*
X-23138283Y31460620D01*
X-23138283Y31460620D02*
X-23043045Y31841572D01*
X-23043045Y31841572D02*
X-22947807Y32032048D01*
X-22947807Y32032048D02*
X-22757331Y32222524D01*
X-22757331Y32222524D02*
X-22471616Y32317762D01*
X-22471616Y32317762D02*
X-22281140Y32317762D01*
X-22281140Y32317762D02*
X-21995426Y32222524D01*
X-21995426Y32222524D02*
X-21900188Y32127286D01*
X-20662093Y32317762D02*
X-20281140Y32317762D01*
X-20281140Y32317762D02*
X-20090664Y32222524D01*
X-20090664Y32222524D02*
X-19900188Y32032048D01*
X-19900188Y32032048D02*
X-19804950Y31651096D01*
X-19804950Y31651096D02*
X-19804950Y30984429D01*
X-19804950Y30984429D02*
X-19900188Y30603477D01*
X-19900188Y30603477D02*
X-20090664Y30413000D01*
X-20090664Y30413000D02*
X-20281140Y30317762D01*
X-20281140Y30317762D02*
X-20662093Y30317762D01*
X-20662093Y30317762D02*
X-20852569Y30413000D01*
X-20852569Y30413000D02*
X-21043045Y30603477D01*
X-21043045Y30603477D02*
X-21138283Y30984429D01*
X-21138283Y30984429D02*
X-21138283Y31651096D01*
X-21138283Y31651096D02*
X-21043045Y32032048D01*
X-21043045Y32032048D02*
X-20852569Y32222524D01*
X-20852569Y32222524D02*
X-20662093Y32317762D01*
X-17804950Y30317762D02*
X-18471617Y31270143D01*
X-18947807Y30317762D02*
X-18947807Y32317762D01*
X-18947807Y32317762D02*
X-18185902Y32317762D01*
X-18185902Y32317762D02*
X-17995426Y32222524D01*
X-17995426Y32222524D02*
X-17900188Y32127286D01*
X-17900188Y32127286D02*
X-17804950Y31936810D01*
X-17804950Y31936810D02*
X-17804950Y31651096D01*
X-17804950Y31651096D02*
X-17900188Y31460620D01*
X-17900188Y31460620D02*
X-17995426Y31365381D01*
X-17995426Y31365381D02*
X-18185902Y31270143D01*
X-18185902Y31270143D02*
X-18947807Y31270143D01*
X-16947807Y31365381D02*
X-16281140Y31365381D01*
X-15995426Y30317762D02*
X-16947807Y30317762D01*
X-16947807Y30317762D02*
X-16947807Y32317762D01*
X-16947807Y32317762D02*
X-15995426Y32317762D01*
D14*
X149731131Y49430404D02*
X150224617Y49430404D01*
X150224617Y49430404D02*
X150471360Y49307033D01*
X150471360Y49307033D02*
X150718103Y49060290D01*
X150718103Y49060290D02*
X150841474Y48566804D01*
X150841474Y48566804D02*
X150841474Y47703204D01*
X150841474Y47703204D02*
X150718103Y47209718D01*
X150718103Y47209718D02*
X150471360Y46962975D01*
X150471360Y46962975D02*
X150224617Y46839604D01*
X150224617Y46839604D02*
X149731131Y46839604D01*
X149731131Y46839604D02*
X149484389Y46962975D01*
X149484389Y46962975D02*
X149237646Y47209718D01*
X149237646Y47209718D02*
X149114274Y47703204D01*
X149114274Y47703204D02*
X149114274Y48566804D01*
X149114274Y48566804D02*
X149237646Y49060290D01*
X149237646Y49060290D02*
X149484389Y49307033D01*
X149484389Y49307033D02*
X149731131Y49430404D01*
X151951817Y46839604D02*
X151951817Y48566804D01*
X151951817Y48073318D02*
X152075188Y48320061D01*
X152075188Y48320061D02*
X152198560Y48443433D01*
X152198560Y48443433D02*
X152445302Y48566804D01*
X152445302Y48566804D02*
X152692045Y48566804D01*
X154665989Y46839604D02*
X154665989Y49430404D01*
X154665989Y46962975D02*
X154419246Y46839604D01*
X154419246Y46839604D02*
X153925760Y46839604D01*
X153925760Y46839604D02*
X153679017Y46962975D01*
X153679017Y46962975D02*
X153555646Y47086347D01*
X153555646Y47086347D02*
X153432274Y47333090D01*
X153432274Y47333090D02*
X153432274Y48073318D01*
X153432274Y48073318D02*
X153555646Y48320061D01*
X153555646Y48320061D02*
X153679017Y48443433D01*
X153679017Y48443433D02*
X153925760Y48566804D01*
X153925760Y48566804D02*
X154419246Y48566804D01*
X154419246Y48566804D02*
X154665989Y48443433D01*
X156886674Y46962975D02*
X156639931Y46839604D01*
X156639931Y46839604D02*
X156146446Y46839604D01*
X156146446Y46839604D02*
X155899703Y46962975D01*
X155899703Y46962975D02*
X155776331Y47209718D01*
X155776331Y47209718D02*
X155776331Y48196690D01*
X155776331Y48196690D02*
X155899703Y48443433D01*
X155899703Y48443433D02*
X156146446Y48566804D01*
X156146446Y48566804D02*
X156639931Y48566804D01*
X156639931Y48566804D02*
X156886674Y48443433D01*
X156886674Y48443433D02*
X157010046Y48196690D01*
X157010046Y48196690D02*
X157010046Y47949947D01*
X157010046Y47949947D02*
X155776331Y47703204D01*
X158120389Y46839604D02*
X158120389Y48566804D01*
X158120389Y48073318D02*
X158243760Y48320061D01*
X158243760Y48320061D02*
X158367132Y48443433D01*
X158367132Y48443433D02*
X158613874Y48566804D01*
X158613874Y48566804D02*
X158860617Y48566804D01*
X159724218Y46839604D02*
X159724218Y48566804D01*
X159724218Y49430404D02*
X159600846Y49307033D01*
X159600846Y49307033D02*
X159724218Y49183661D01*
X159724218Y49183661D02*
X159847589Y49307033D01*
X159847589Y49307033D02*
X159724218Y49430404D01*
X159724218Y49430404D02*
X159724218Y49183661D01*
X160957932Y48566804D02*
X160957932Y46839604D01*
X160957932Y48320061D02*
X161081303Y48443433D01*
X161081303Y48443433D02*
X161328046Y48566804D01*
X161328046Y48566804D02*
X161698160Y48566804D01*
X161698160Y48566804D02*
X161944903Y48443433D01*
X161944903Y48443433D02*
X162068275Y48196690D01*
X162068275Y48196690D02*
X162068275Y46839604D01*
X164412332Y48566804D02*
X164412332Y46469490D01*
X164412332Y46469490D02*
X164288960Y46222747D01*
X164288960Y46222747D02*
X164165589Y46099375D01*
X164165589Y46099375D02*
X163918846Y45976004D01*
X163918846Y45976004D02*
X163548732Y45976004D01*
X163548732Y45976004D02*
X163301989Y46099375D01*
X164412332Y46962975D02*
X164165589Y46839604D01*
X164165589Y46839604D02*
X163672103Y46839604D01*
X163672103Y46839604D02*
X163425360Y46962975D01*
X163425360Y46962975D02*
X163301989Y47086347D01*
X163301989Y47086347D02*
X163178617Y47333090D01*
X163178617Y47333090D02*
X163178617Y48073318D01*
X163178617Y48073318D02*
X163301989Y48320061D01*
X163301989Y48320061D02*
X163425360Y48443433D01*
X163425360Y48443433D02*
X163672103Y48566804D01*
X163672103Y48566804D02*
X164165589Y48566804D01*
X164165589Y48566804D02*
X164412332Y48443433D01*
X167619989Y46839604D02*
X167619989Y49430404D01*
X168853703Y48566804D02*
X168853703Y46839604D01*
X168853703Y48320061D02*
X168977074Y48443433D01*
X168977074Y48443433D02*
X169223817Y48566804D01*
X169223817Y48566804D02*
X169593931Y48566804D01*
X169593931Y48566804D02*
X169840674Y48443433D01*
X169840674Y48443433D02*
X169964046Y48196690D01*
X169964046Y48196690D02*
X169964046Y46839604D01*
X171074388Y46962975D02*
X171321131Y46839604D01*
X171321131Y46839604D02*
X171814617Y46839604D01*
X171814617Y46839604D02*
X172061360Y46962975D01*
X172061360Y46962975D02*
X172184731Y47209718D01*
X172184731Y47209718D02*
X172184731Y47333090D01*
X172184731Y47333090D02*
X172061360Y47579833D01*
X172061360Y47579833D02*
X171814617Y47703204D01*
X171814617Y47703204D02*
X171444503Y47703204D01*
X171444503Y47703204D02*
X171197760Y47826575D01*
X171197760Y47826575D02*
X171074388Y48073318D01*
X171074388Y48073318D02*
X171074388Y48196690D01*
X171074388Y48196690D02*
X171197760Y48443433D01*
X171197760Y48443433D02*
X171444503Y48566804D01*
X171444503Y48566804D02*
X171814617Y48566804D01*
X171814617Y48566804D02*
X172061360Y48443433D01*
X172924959Y48566804D02*
X173911931Y48566804D01*
X173295074Y49430404D02*
X173295074Y47209718D01*
X173295074Y47209718D02*
X173418445Y46962975D01*
X173418445Y46962975D02*
X173665188Y46839604D01*
X173665188Y46839604D02*
X173911931Y46839604D01*
X174775531Y46839604D02*
X174775531Y48566804D01*
X174775531Y48073318D02*
X174898902Y48320061D01*
X174898902Y48320061D02*
X175022274Y48443433D01*
X175022274Y48443433D02*
X175269016Y48566804D01*
X175269016Y48566804D02*
X175515759Y48566804D01*
X177489703Y48566804D02*
X177489703Y46839604D01*
X176379360Y48566804D02*
X176379360Y47209718D01*
X176379360Y47209718D02*
X176502731Y46962975D01*
X176502731Y46962975D02*
X176749474Y46839604D01*
X176749474Y46839604D02*
X177119588Y46839604D01*
X177119588Y46839604D02*
X177366331Y46962975D01*
X177366331Y46962975D02*
X177489703Y47086347D01*
X179833760Y46962975D02*
X179587017Y46839604D01*
X179587017Y46839604D02*
X179093531Y46839604D01*
X179093531Y46839604D02*
X178846788Y46962975D01*
X178846788Y46962975D02*
X178723417Y47086347D01*
X178723417Y47086347D02*
X178600045Y47333090D01*
X178600045Y47333090D02*
X178600045Y48073318D01*
X178600045Y48073318D02*
X178723417Y48320061D01*
X178723417Y48320061D02*
X178846788Y48443433D01*
X178846788Y48443433D02*
X179093531Y48566804D01*
X179093531Y48566804D02*
X179587017Y48566804D01*
X179587017Y48566804D02*
X179833760Y48443433D01*
X180573988Y48566804D02*
X181560960Y48566804D01*
X180944103Y49430404D02*
X180944103Y47209718D01*
X180944103Y47209718D02*
X181067474Y46962975D01*
X181067474Y46962975D02*
X181314217Y46839604D01*
X181314217Y46839604D02*
X181560960Y46839604D01*
X182424560Y46839604D02*
X182424560Y48566804D01*
X182424560Y49430404D02*
X182301188Y49307033D01*
X182301188Y49307033D02*
X182424560Y49183661D01*
X182424560Y49183661D02*
X182547931Y49307033D01*
X182547931Y49307033D02*
X182424560Y49430404D01*
X182424560Y49430404D02*
X182424560Y49183661D01*
X184028388Y46839604D02*
X183781645Y46962975D01*
X183781645Y46962975D02*
X183658274Y47086347D01*
X183658274Y47086347D02*
X183534902Y47333090D01*
X183534902Y47333090D02*
X183534902Y48073318D01*
X183534902Y48073318D02*
X183658274Y48320061D01*
X183658274Y48320061D02*
X183781645Y48443433D01*
X183781645Y48443433D02*
X184028388Y48566804D01*
X184028388Y48566804D02*
X184398502Y48566804D01*
X184398502Y48566804D02*
X184645245Y48443433D01*
X184645245Y48443433D02*
X184768617Y48320061D01*
X184768617Y48320061D02*
X184891988Y48073318D01*
X184891988Y48073318D02*
X184891988Y47333090D01*
X184891988Y47333090D02*
X184768617Y47086347D01*
X184768617Y47086347D02*
X184645245Y46962975D01*
X184645245Y46962975D02*
X184398502Y46839604D01*
X184398502Y46839604D02*
X184028388Y46839604D01*
X186002331Y48566804D02*
X186002331Y46839604D01*
X186002331Y48320061D02*
X186125702Y48443433D01*
X186125702Y48443433D02*
X186372445Y48566804D01*
X186372445Y48566804D02*
X186742559Y48566804D01*
X186742559Y48566804D02*
X186989302Y48443433D01*
X186989302Y48443433D02*
X187112674Y48196690D01*
X187112674Y48196690D02*
X187112674Y46839604D01*
X188223016Y46962975D02*
X188469759Y46839604D01*
X188469759Y46839604D02*
X188963245Y46839604D01*
X188963245Y46839604D02*
X189209988Y46962975D01*
X189209988Y46962975D02*
X189333359Y47209718D01*
X189333359Y47209718D02*
X189333359Y47333090D01*
X189333359Y47333090D02*
X189209988Y47579833D01*
X189209988Y47579833D02*
X188963245Y47703204D01*
X188963245Y47703204D02*
X188593131Y47703204D01*
X188593131Y47703204D02*
X188346388Y47826575D01*
X188346388Y47826575D02*
X188223016Y48073318D01*
X188223016Y48073318D02*
X188223016Y48196690D01*
X188223016Y48196690D02*
X188346388Y48443433D01*
X188346388Y48443433D02*
X188593131Y48566804D01*
X188593131Y48566804D02*
X188963245Y48566804D01*
X188963245Y48566804D02*
X189209988Y48443433D01*
X190443702Y47086347D02*
X190567073Y46962975D01*
X190567073Y46962975D02*
X190443702Y46839604D01*
X190443702Y46839604D02*
X190320330Y46962975D01*
X190320330Y46962975D02*
X190443702Y47086347D01*
X190443702Y47086347D02*
X190443702Y46839604D01*
X190443702Y48443433D02*
X190567073Y48320061D01*
X190567073Y48320061D02*
X190443702Y48196690D01*
X190443702Y48196690D02*
X190320330Y48320061D01*
X190320330Y48320061D02*
X190443702Y48443433D01*
X190443702Y48443433D02*
X190443702Y48196690D01*
D15*
X-8414171Y-13762417D02*
X-8414171Y-12126657D01*
X-7713131Y-13762417D02*
X-7713131Y-12905590D01*
X-7713131Y-12905590D02*
X-7791024Y-12749804D01*
X-7791024Y-12749804D02*
X-7946811Y-12671910D01*
X-7946811Y-12671910D02*
X-8180491Y-12671910D01*
X-8180491Y-12671910D02*
X-8336277Y-12749804D01*
X-8336277Y-12749804D02*
X-8414171Y-12827697D01*
X-7167878Y-12671910D02*
X-6544731Y-12671910D01*
X-6934198Y-12126657D02*
X-6934198Y-13528737D01*
X-6934198Y-13528737D02*
X-6856304Y-13684524D01*
X-6856304Y-13684524D02*
X-6700518Y-13762417D01*
X-6700518Y-13762417D02*
X-6544731Y-13762417D01*
X-6233158Y-12671910D02*
X-5610011Y-12671910D01*
X-5999478Y-12126657D02*
X-5999478Y-13528737D01*
X-5999478Y-13528737D02*
X-5921584Y-13684524D01*
X-5921584Y-13684524D02*
X-5765798Y-13762417D01*
X-5765798Y-13762417D02*
X-5610011Y-13762417D01*
X-5064758Y-12671910D02*
X-5064758Y-14307670D01*
X-5064758Y-12749804D02*
X-4908971Y-12671910D01*
X-4908971Y-12671910D02*
X-4597398Y-12671910D01*
X-4597398Y-12671910D02*
X-4441611Y-12749804D01*
X-4441611Y-12749804D02*
X-4363718Y-12827697D01*
X-4363718Y-12827697D02*
X-4285824Y-12983484D01*
X-4285824Y-12983484D02*
X-4285824Y-13450844D01*
X-4285824Y-13450844D02*
X-4363718Y-13606630D01*
X-4363718Y-13606630D02*
X-4441611Y-13684524D01*
X-4441611Y-13684524D02*
X-4597398Y-13762417D01*
X-4597398Y-13762417D02*
X-4908971Y-13762417D01*
X-4908971Y-13762417D02*
X-5064758Y-13684524D01*
X-3662678Y-13684524D02*
X-3506891Y-13762417D01*
X-3506891Y-13762417D02*
X-3195318Y-13762417D01*
X-3195318Y-13762417D02*
X-3039531Y-13684524D01*
X-3039531Y-13684524D02*
X-2961638Y-13528737D01*
X-2961638Y-13528737D02*
X-2961638Y-13450844D01*
X-2961638Y-13450844D02*
X-3039531Y-13295057D01*
X-3039531Y-13295057D02*
X-3195318Y-13217164D01*
X-3195318Y-13217164D02*
X-3428998Y-13217164D01*
X-3428998Y-13217164D02*
X-3584785Y-13139270D01*
X-3584785Y-13139270D02*
X-3662678Y-12983484D01*
X-3662678Y-12983484D02*
X-3662678Y-12905590D01*
X-3662678Y-12905590D02*
X-3584785Y-12749804D01*
X-3584785Y-12749804D02*
X-3428998Y-12671910D01*
X-3428998Y-12671910D02*
X-3195318Y-12671910D01*
X-3195318Y-12671910D02*
X-3039531Y-12749804D01*
X-2260598Y-13606630D02*
X-2182704Y-13684524D01*
X-2182704Y-13684524D02*
X-2260598Y-13762417D01*
X-2260598Y-13762417D02*
X-2338491Y-13684524D01*
X-2338491Y-13684524D02*
X-2260598Y-13606630D01*
X-2260598Y-13606630D02*
X-2260598Y-13762417D01*
X-2260598Y-12749804D02*
X-2182704Y-12827697D01*
X-2182704Y-12827697D02*
X-2260598Y-12905590D01*
X-2260598Y-12905590D02*
X-2338491Y-12827697D01*
X-2338491Y-12827697D02*
X-2260598Y-12749804D01*
X-2260598Y-12749804D02*
X-2260598Y-12905590D01*
X-313265Y-12048764D02*
X-1715345Y-14151884D01*
X1400388Y-12048764D02*
X-1692Y-14151884D01*
X2646681Y-13684524D02*
X2490895Y-13762417D01*
X2490895Y-13762417D02*
X2179321Y-13762417D01*
X2179321Y-13762417D02*
X2023535Y-13684524D01*
X2023535Y-13684524D02*
X1945641Y-13606630D01*
X1945641Y-13606630D02*
X1867748Y-13450844D01*
X1867748Y-13450844D02*
X1867748Y-12983484D01*
X1867748Y-12983484D02*
X1945641Y-12827697D01*
X1945641Y-12827697D02*
X2023535Y-12749804D01*
X2023535Y-12749804D02*
X2179321Y-12671910D01*
X2179321Y-12671910D02*
X2490895Y-12671910D01*
X2490895Y-12671910D02*
X2646681Y-12749804D01*
X3347721Y-13762417D02*
X3347721Y-12671910D01*
X3347721Y-12983484D02*
X3425615Y-12827697D01*
X3425615Y-12827697D02*
X3503508Y-12749804D01*
X3503508Y-12749804D02*
X3659295Y-12671910D01*
X3659295Y-12671910D02*
X3815081Y-12671910D01*
X4983481Y-13684524D02*
X4827694Y-13762417D01*
X4827694Y-13762417D02*
X4516121Y-13762417D01*
X4516121Y-13762417D02*
X4360334Y-13684524D01*
X4360334Y-13684524D02*
X4282441Y-13528737D01*
X4282441Y-13528737D02*
X4282441Y-12905590D01*
X4282441Y-12905590D02*
X4360334Y-12749804D01*
X4360334Y-12749804D02*
X4516121Y-12671910D01*
X4516121Y-12671910D02*
X4827694Y-12671910D01*
X4827694Y-12671910D02*
X4983481Y-12749804D01*
X4983481Y-12749804D02*
X5061374Y-12905590D01*
X5061374Y-12905590D02*
X5061374Y-13061377D01*
X5061374Y-13061377D02*
X4282441Y-13217164D01*
X6463454Y-13762417D02*
X6463454Y-12905590D01*
X6463454Y-12905590D02*
X6385561Y-12749804D01*
X6385561Y-12749804D02*
X6229774Y-12671910D01*
X6229774Y-12671910D02*
X5918201Y-12671910D01*
X5918201Y-12671910D02*
X5762414Y-12749804D01*
X6463454Y-13684524D02*
X6307668Y-13762417D01*
X6307668Y-13762417D02*
X5918201Y-13762417D01*
X5918201Y-13762417D02*
X5762414Y-13684524D01*
X5762414Y-13684524D02*
X5684521Y-13528737D01*
X5684521Y-13528737D02*
X5684521Y-13372950D01*
X5684521Y-13372950D02*
X5762414Y-13217164D01*
X5762414Y-13217164D02*
X5918201Y-13139270D01*
X5918201Y-13139270D02*
X6307668Y-13139270D01*
X6307668Y-13139270D02*
X6463454Y-13061377D01*
X7008707Y-12671910D02*
X7631854Y-12671910D01*
X7242387Y-12126657D02*
X7242387Y-13528737D01*
X7242387Y-13528737D02*
X7320281Y-13684524D01*
X7320281Y-13684524D02*
X7476067Y-13762417D01*
X7476067Y-13762417D02*
X7631854Y-13762417D01*
X8177107Y-13762417D02*
X8177107Y-12671910D01*
X8177107Y-12126657D02*
X8099214Y-12204550D01*
X8099214Y-12204550D02*
X8177107Y-12282444D01*
X8177107Y-12282444D02*
X8255001Y-12204550D01*
X8255001Y-12204550D02*
X8177107Y-12126657D01*
X8177107Y-12126657D02*
X8177107Y-12282444D01*
X8800254Y-12671910D02*
X9189720Y-13762417D01*
X9189720Y-13762417D02*
X9579187Y-12671910D01*
X10825480Y-13684524D02*
X10669693Y-13762417D01*
X10669693Y-13762417D02*
X10358120Y-13762417D01*
X10358120Y-13762417D02*
X10202333Y-13684524D01*
X10202333Y-13684524D02*
X10124440Y-13528737D01*
X10124440Y-13528737D02*
X10124440Y-12905590D01*
X10124440Y-12905590D02*
X10202333Y-12749804D01*
X10202333Y-12749804D02*
X10358120Y-12671910D01*
X10358120Y-12671910D02*
X10669693Y-12671910D01*
X10669693Y-12671910D02*
X10825480Y-12749804D01*
X10825480Y-12749804D02*
X10903373Y-12905590D01*
X10903373Y-12905590D02*
X10903373Y-13061377D01*
X10903373Y-13061377D02*
X10124440Y-13217164D01*
X12305453Y-13684524D02*
X12149667Y-13762417D01*
X12149667Y-13762417D02*
X11838093Y-13762417D01*
X11838093Y-13762417D02*
X11682307Y-13684524D01*
X11682307Y-13684524D02*
X11604413Y-13606630D01*
X11604413Y-13606630D02*
X11526520Y-13450844D01*
X11526520Y-13450844D02*
X11526520Y-12983484D01*
X11526520Y-12983484D02*
X11604413Y-12827697D01*
X11604413Y-12827697D02*
X11682307Y-12749804D01*
X11682307Y-12749804D02*
X11838093Y-12671910D01*
X11838093Y-12671910D02*
X12149667Y-12671910D01*
X12149667Y-12671910D02*
X12305453Y-12749804D01*
X13240173Y-13762417D02*
X13084387Y-13684524D01*
X13084387Y-13684524D02*
X13006493Y-13606630D01*
X13006493Y-13606630D02*
X12928600Y-13450844D01*
X12928600Y-13450844D02*
X12928600Y-12983484D01*
X12928600Y-12983484D02*
X13006493Y-12827697D01*
X13006493Y-12827697D02*
X13084387Y-12749804D01*
X13084387Y-12749804D02*
X13240173Y-12671910D01*
X13240173Y-12671910D02*
X13473853Y-12671910D01*
X13473853Y-12671910D02*
X13629640Y-12749804D01*
X13629640Y-12749804D02*
X13707533Y-12827697D01*
X13707533Y-12827697D02*
X13785427Y-12983484D01*
X13785427Y-12983484D02*
X13785427Y-13450844D01*
X13785427Y-13450844D02*
X13707533Y-13606630D01*
X13707533Y-13606630D02*
X13629640Y-13684524D01*
X13629640Y-13684524D02*
X13473853Y-13762417D01*
X13473853Y-13762417D02*
X13240173Y-13762417D01*
X14486466Y-13762417D02*
X14486466Y-12671910D01*
X14486466Y-12827697D02*
X14564360Y-12749804D01*
X14564360Y-12749804D02*
X14720146Y-12671910D01*
X14720146Y-12671910D02*
X14953826Y-12671910D01*
X14953826Y-12671910D02*
X15109613Y-12749804D01*
X15109613Y-12749804D02*
X15187506Y-12905590D01*
X15187506Y-12905590D02*
X15187506Y-13762417D01*
X15187506Y-12905590D02*
X15265400Y-12749804D01*
X15265400Y-12749804D02*
X15421186Y-12671910D01*
X15421186Y-12671910D02*
X15654866Y-12671910D01*
X15654866Y-12671910D02*
X15810653Y-12749804D01*
X15810653Y-12749804D02*
X15888546Y-12905590D01*
X15888546Y-12905590D02*
X15888546Y-13762417D01*
X16667479Y-13762417D02*
X16667479Y-12671910D01*
X16667479Y-12827697D02*
X16745373Y-12749804D01*
X16745373Y-12749804D02*
X16901159Y-12671910D01*
X16901159Y-12671910D02*
X17134839Y-12671910D01*
X17134839Y-12671910D02*
X17290626Y-12749804D01*
X17290626Y-12749804D02*
X17368519Y-12905590D01*
X17368519Y-12905590D02*
X17368519Y-13762417D01*
X17368519Y-12905590D02*
X17446413Y-12749804D01*
X17446413Y-12749804D02*
X17602199Y-12671910D01*
X17602199Y-12671910D02*
X17835879Y-12671910D01*
X17835879Y-12671910D02*
X17991666Y-12749804D01*
X17991666Y-12749804D02*
X18069559Y-12905590D01*
X18069559Y-12905590D02*
X18069559Y-13762417D01*
X19082172Y-13762417D02*
X18926386Y-13684524D01*
X18926386Y-13684524D02*
X18848492Y-13606630D01*
X18848492Y-13606630D02*
X18770599Y-13450844D01*
X18770599Y-13450844D02*
X18770599Y-12983484D01*
X18770599Y-12983484D02*
X18848492Y-12827697D01*
X18848492Y-12827697D02*
X18926386Y-12749804D01*
X18926386Y-12749804D02*
X19082172Y-12671910D01*
X19082172Y-12671910D02*
X19315852Y-12671910D01*
X19315852Y-12671910D02*
X19471639Y-12749804D01*
X19471639Y-12749804D02*
X19549532Y-12827697D01*
X19549532Y-12827697D02*
X19627426Y-12983484D01*
X19627426Y-12983484D02*
X19627426Y-13450844D01*
X19627426Y-13450844D02*
X19549532Y-13606630D01*
X19549532Y-13606630D02*
X19471639Y-13684524D01*
X19471639Y-13684524D02*
X19315852Y-13762417D01*
X19315852Y-13762417D02*
X19082172Y-13762417D01*
X20328465Y-12671910D02*
X20328465Y-13762417D01*
X20328465Y-12827697D02*
X20406359Y-12749804D01*
X20406359Y-12749804D02*
X20562145Y-12671910D01*
X20562145Y-12671910D02*
X20795825Y-12671910D01*
X20795825Y-12671910D02*
X20951612Y-12749804D01*
X20951612Y-12749804D02*
X21029505Y-12905590D01*
X21029505Y-12905590D02*
X21029505Y-13762417D01*
X21730545Y-13684524D02*
X21886332Y-13762417D01*
X21886332Y-13762417D02*
X22197905Y-13762417D01*
X22197905Y-13762417D02*
X22353692Y-13684524D01*
X22353692Y-13684524D02*
X22431585Y-13528737D01*
X22431585Y-13528737D02*
X22431585Y-13450844D01*
X22431585Y-13450844D02*
X22353692Y-13295057D01*
X22353692Y-13295057D02*
X22197905Y-13217164D01*
X22197905Y-13217164D02*
X21964225Y-13217164D01*
X21964225Y-13217164D02*
X21808438Y-13139270D01*
X21808438Y-13139270D02*
X21730545Y-12983484D01*
X21730545Y-12983484D02*
X21730545Y-12905590D01*
X21730545Y-12905590D02*
X21808438Y-12749804D01*
X21808438Y-12749804D02*
X21964225Y-12671910D01*
X21964225Y-12671910D02*
X22197905Y-12671910D01*
X22197905Y-12671910D02*
X22353692Y-12749804D01*
X23132625Y-13606630D02*
X23210519Y-13684524D01*
X23210519Y-13684524D02*
X23132625Y-13762417D01*
X23132625Y-13762417D02*
X23054732Y-13684524D01*
X23054732Y-13684524D02*
X23132625Y-13606630D01*
X23132625Y-13606630D02*
X23132625Y-13762417D01*
X24145238Y-13762417D02*
X23989452Y-13684524D01*
X23989452Y-13684524D02*
X23911558Y-13606630D01*
X23911558Y-13606630D02*
X23833665Y-13450844D01*
X23833665Y-13450844D02*
X23833665Y-12983484D01*
X23833665Y-12983484D02*
X23911558Y-12827697D01*
X23911558Y-12827697D02*
X23989452Y-12749804D01*
X23989452Y-12749804D02*
X24145238Y-12671910D01*
X24145238Y-12671910D02*
X24378918Y-12671910D01*
X24378918Y-12671910D02*
X24534705Y-12749804D01*
X24534705Y-12749804D02*
X24612598Y-12827697D01*
X24612598Y-12827697D02*
X24690492Y-12983484D01*
X24690492Y-12983484D02*
X24690492Y-13450844D01*
X24690492Y-13450844D02*
X24612598Y-13606630D01*
X24612598Y-13606630D02*
X24534705Y-13684524D01*
X24534705Y-13684524D02*
X24378918Y-13762417D01*
X24378918Y-13762417D02*
X24145238Y-13762417D01*
X25391531Y-13762417D02*
X25391531Y-12671910D01*
X25391531Y-12983484D02*
X25469425Y-12827697D01*
X25469425Y-12827697D02*
X25547318Y-12749804D01*
X25547318Y-12749804D02*
X25703105Y-12671910D01*
X25703105Y-12671910D02*
X25858891Y-12671910D01*
X27105184Y-12671910D02*
X27105184Y-13996097D01*
X27105184Y-13996097D02*
X27027291Y-14151884D01*
X27027291Y-14151884D02*
X26949398Y-14229777D01*
X26949398Y-14229777D02*
X26793611Y-14307670D01*
X26793611Y-14307670D02*
X26559931Y-14307670D01*
X26559931Y-14307670D02*
X26404144Y-14229777D01*
X27105184Y-13684524D02*
X26949398Y-13762417D01*
X26949398Y-13762417D02*
X26637824Y-13762417D01*
X26637824Y-13762417D02*
X26482038Y-13684524D01*
X26482038Y-13684524D02*
X26404144Y-13606630D01*
X26404144Y-13606630D02*
X26326251Y-13450844D01*
X26326251Y-13450844D02*
X26326251Y-12983484D01*
X26326251Y-12983484D02*
X26404144Y-12827697D01*
X26404144Y-12827697D02*
X26482038Y-12749804D01*
X26482038Y-12749804D02*
X26637824Y-12671910D01*
X26637824Y-12671910D02*
X26949398Y-12671910D01*
X26949398Y-12671910D02*
X27105184Y-12749804D01*
X29052517Y-12048764D02*
X27650437Y-14151884D01*
X29831450Y-13762417D02*
X29675664Y-13684524D01*
X29675664Y-13684524D02*
X29597770Y-13528737D01*
X29597770Y-13528737D02*
X29597770Y-12126657D01*
X30454597Y-13762417D02*
X30454597Y-12671910D01*
X30454597Y-12126657D02*
X30376704Y-12204550D01*
X30376704Y-12204550D02*
X30454597Y-12282444D01*
X30454597Y-12282444D02*
X30532491Y-12204550D01*
X30532491Y-12204550D02*
X30454597Y-12126657D01*
X30454597Y-12126657D02*
X30454597Y-12282444D01*
X31934570Y-13684524D02*
X31778784Y-13762417D01*
X31778784Y-13762417D02*
X31467210Y-13762417D01*
X31467210Y-13762417D02*
X31311424Y-13684524D01*
X31311424Y-13684524D02*
X31233530Y-13606630D01*
X31233530Y-13606630D02*
X31155637Y-13450844D01*
X31155637Y-13450844D02*
X31155637Y-12983484D01*
X31155637Y-12983484D02*
X31233530Y-12827697D01*
X31233530Y-12827697D02*
X31311424Y-12749804D01*
X31311424Y-12749804D02*
X31467210Y-12671910D01*
X31467210Y-12671910D02*
X31778784Y-12671910D01*
X31778784Y-12671910D02*
X31934570Y-12749804D01*
X33258757Y-13684524D02*
X33102970Y-13762417D01*
X33102970Y-13762417D02*
X32791397Y-13762417D01*
X32791397Y-13762417D02*
X32635610Y-13684524D01*
X32635610Y-13684524D02*
X32557717Y-13528737D01*
X32557717Y-13528737D02*
X32557717Y-12905590D01*
X32557717Y-12905590D02*
X32635610Y-12749804D01*
X32635610Y-12749804D02*
X32791397Y-12671910D01*
X32791397Y-12671910D02*
X33102970Y-12671910D01*
X33102970Y-12671910D02*
X33258757Y-12749804D01*
X33258757Y-12749804D02*
X33336650Y-12905590D01*
X33336650Y-12905590D02*
X33336650Y-13061377D01*
X33336650Y-13061377D02*
X32557717Y-13217164D01*
X34037690Y-12671910D02*
X34037690Y-13762417D01*
X34037690Y-12827697D02*
X34115584Y-12749804D01*
X34115584Y-12749804D02*
X34271370Y-12671910D01*
X34271370Y-12671910D02*
X34505050Y-12671910D01*
X34505050Y-12671910D02*
X34660837Y-12749804D01*
X34660837Y-12749804D02*
X34738730Y-12905590D01*
X34738730Y-12905590D02*
X34738730Y-13762417D01*
X35439770Y-13684524D02*
X35595557Y-13762417D01*
X35595557Y-13762417D02*
X35907130Y-13762417D01*
X35907130Y-13762417D02*
X36062917Y-13684524D01*
X36062917Y-13684524D02*
X36140810Y-13528737D01*
X36140810Y-13528737D02*
X36140810Y-13450844D01*
X36140810Y-13450844D02*
X36062917Y-13295057D01*
X36062917Y-13295057D02*
X35907130Y-13217164D01*
X35907130Y-13217164D02*
X35673450Y-13217164D01*
X35673450Y-13217164D02*
X35517663Y-13139270D01*
X35517663Y-13139270D02*
X35439770Y-12983484D01*
X35439770Y-12983484D02*
X35439770Y-12905590D01*
X35439770Y-12905590D02*
X35517663Y-12749804D01*
X35517663Y-12749804D02*
X35673450Y-12671910D01*
X35673450Y-12671910D02*
X35907130Y-12671910D01*
X35907130Y-12671910D02*
X36062917Y-12749804D01*
X37464997Y-13684524D02*
X37309210Y-13762417D01*
X37309210Y-13762417D02*
X36997637Y-13762417D01*
X36997637Y-13762417D02*
X36841850Y-13684524D01*
X36841850Y-13684524D02*
X36763957Y-13528737D01*
X36763957Y-13528737D02*
X36763957Y-12905590D01*
X36763957Y-12905590D02*
X36841850Y-12749804D01*
X36841850Y-12749804D02*
X36997637Y-12671910D01*
X36997637Y-12671910D02*
X37309210Y-12671910D01*
X37309210Y-12671910D02*
X37464997Y-12749804D01*
X37464997Y-12749804D02*
X37542890Y-12905590D01*
X37542890Y-12905590D02*
X37542890Y-13061377D01*
X37542890Y-13061377D02*
X36763957Y-13217164D01*
X38166037Y-13684524D02*
X38321824Y-13762417D01*
X38321824Y-13762417D02*
X38633397Y-13762417D01*
X38633397Y-13762417D02*
X38789184Y-13684524D01*
X38789184Y-13684524D02*
X38867077Y-13528737D01*
X38867077Y-13528737D02*
X38867077Y-13450844D01*
X38867077Y-13450844D02*
X38789184Y-13295057D01*
X38789184Y-13295057D02*
X38633397Y-13217164D01*
X38633397Y-13217164D02*
X38399717Y-13217164D01*
X38399717Y-13217164D02*
X38243930Y-13139270D01*
X38243930Y-13139270D02*
X38166037Y-12983484D01*
X38166037Y-12983484D02*
X38166037Y-12905590D01*
X38166037Y-12905590D02*
X38243930Y-12749804D01*
X38243930Y-12749804D02*
X38399717Y-12671910D01*
X38399717Y-12671910D02*
X38633397Y-12671910D01*
X38633397Y-12671910D02*
X38789184Y-12749804D01*
X40736517Y-12048764D02*
X39334437Y-14151884D01*
X41281770Y-13762417D02*
X41281770Y-12126657D01*
X41281770Y-12749804D02*
X41437557Y-12671910D01*
X41437557Y-12671910D02*
X41749130Y-12671910D01*
X41749130Y-12671910D02*
X41904917Y-12749804D01*
X41904917Y-12749804D02*
X41982810Y-12827697D01*
X41982810Y-12827697D02*
X42060704Y-12983484D01*
X42060704Y-12983484D02*
X42060704Y-13450844D01*
X42060704Y-13450844D02*
X41982810Y-13606630D01*
X41982810Y-13606630D02*
X41904917Y-13684524D01*
X41904917Y-13684524D02*
X41749130Y-13762417D01*
X41749130Y-13762417D02*
X41437557Y-13762417D01*
X41437557Y-13762417D02*
X41281770Y-13684524D01*
X42605957Y-12671910D02*
X42995423Y-13762417D01*
X43384890Y-12671910D02*
X42995423Y-13762417D01*
X42995423Y-13762417D02*
X42839637Y-14151884D01*
X42839637Y-14151884D02*
X42761743Y-14229777D01*
X42761743Y-14229777D02*
X42605957Y-14307670D01*
X44008036Y-13139270D02*
X45254330Y-13139270D01*
X45955370Y-13684524D02*
X46111157Y-13762417D01*
X46111157Y-13762417D02*
X46422730Y-13762417D01*
X46422730Y-13762417D02*
X46578517Y-13684524D01*
X46578517Y-13684524D02*
X46656410Y-13528737D01*
X46656410Y-13528737D02*
X46656410Y-13450844D01*
X46656410Y-13450844D02*
X46578517Y-13295057D01*
X46578517Y-13295057D02*
X46422730Y-13217164D01*
X46422730Y-13217164D02*
X46189050Y-13217164D01*
X46189050Y-13217164D02*
X46033263Y-13139270D01*
X46033263Y-13139270D02*
X45955370Y-12983484D01*
X45955370Y-12983484D02*
X45955370Y-12905590D01*
X45955370Y-12905590D02*
X46033263Y-12749804D01*
X46033263Y-12749804D02*
X46189050Y-12671910D01*
X46189050Y-12671910D02*
X46422730Y-12671910D01*
X46422730Y-12671910D02*
X46578517Y-12749804D01*
X48058490Y-13762417D02*
X48058490Y-12905590D01*
X48058490Y-12905590D02*
X47980597Y-12749804D01*
X47980597Y-12749804D02*
X47824810Y-12671910D01*
X47824810Y-12671910D02*
X47513237Y-12671910D01*
X47513237Y-12671910D02*
X47357450Y-12749804D01*
X48058490Y-13684524D02*
X47902704Y-13762417D01*
X47902704Y-13762417D02*
X47513237Y-13762417D01*
X47513237Y-13762417D02*
X47357450Y-13684524D01*
X47357450Y-13684524D02*
X47279557Y-13528737D01*
X47279557Y-13528737D02*
X47279557Y-13372950D01*
X47279557Y-13372950D02*
X47357450Y-13217164D01*
X47357450Y-13217164D02*
X47513237Y-13139270D01*
X47513237Y-13139270D02*
X47902704Y-13139270D01*
X47902704Y-13139270D02*
X48058490Y-13061377D01*
X50005823Y-12048764D02*
X48603743Y-14151884D01*
X51252116Y-12671910D02*
X51252116Y-13762417D01*
X50862650Y-12048764D02*
X50473183Y-13217164D01*
X50473183Y-13217164D02*
X51485796Y-13217164D01*
X52108943Y-13606630D02*
X52186837Y-13684524D01*
X52186837Y-13684524D02*
X52108943Y-13762417D01*
X52108943Y-13762417D02*
X52031050Y-13684524D01*
X52031050Y-13684524D02*
X52108943Y-13606630D01*
X52108943Y-13606630D02*
X52108943Y-13762417D01*
X53199450Y-12126657D02*
X53355236Y-12126657D01*
X53355236Y-12126657D02*
X53511023Y-12204550D01*
X53511023Y-12204550D02*
X53588916Y-12282444D01*
X53588916Y-12282444D02*
X53666810Y-12438230D01*
X53666810Y-12438230D02*
X53744703Y-12749804D01*
X53744703Y-12749804D02*
X53744703Y-13139270D01*
X53744703Y-13139270D02*
X53666810Y-13450844D01*
X53666810Y-13450844D02*
X53588916Y-13606630D01*
X53588916Y-13606630D02*
X53511023Y-13684524D01*
X53511023Y-13684524D02*
X53355236Y-13762417D01*
X53355236Y-13762417D02*
X53199450Y-13762417D01*
X53199450Y-13762417D02*
X53043663Y-13684524D01*
X53043663Y-13684524D02*
X52965770Y-13606630D01*
X52965770Y-13606630D02*
X52887876Y-13450844D01*
X52887876Y-13450844D02*
X52809983Y-13139270D01*
X52809983Y-13139270D02*
X52809983Y-12749804D01*
X52809983Y-12749804D02*
X52887876Y-12438230D01*
X52887876Y-12438230D02*
X52965770Y-12282444D01*
X52965770Y-12282444D02*
X53043663Y-12204550D01*
X53043663Y-12204550D02*
X53199450Y-12126657D01*
X55614143Y-12048764D02*
X54212063Y-14151884D01*
X15382241Y-16302417D02*
X15382241Y-14666657D01*
X15382241Y-14666657D02*
X15771708Y-14666657D01*
X15771708Y-14666657D02*
X16005388Y-14744550D01*
X16005388Y-14744550D02*
X16161175Y-14900337D01*
X16161175Y-14900337D02*
X16239068Y-15056124D01*
X16239068Y-15056124D02*
X16316961Y-15367697D01*
X16316961Y-15367697D02*
X16316961Y-15601377D01*
X16316961Y-15601377D02*
X16239068Y-15912950D01*
X16239068Y-15912950D02*
X16161175Y-16068737D01*
X16161175Y-16068737D02*
X16005388Y-16224524D01*
X16005388Y-16224524D02*
X15771708Y-16302417D01*
X15771708Y-16302417D02*
X15382241Y-16302417D01*
X17641148Y-16224524D02*
X17485361Y-16302417D01*
X17485361Y-16302417D02*
X17173788Y-16302417D01*
X17173788Y-16302417D02*
X17018001Y-16224524D01*
X17018001Y-16224524D02*
X16940108Y-16068737D01*
X16940108Y-16068737D02*
X16940108Y-15445590D01*
X16940108Y-15445590D02*
X17018001Y-15289804D01*
X17018001Y-15289804D02*
X17173788Y-15211910D01*
X17173788Y-15211910D02*
X17485361Y-15211910D01*
X17485361Y-15211910D02*
X17641148Y-15289804D01*
X17641148Y-15289804D02*
X17719041Y-15445590D01*
X17719041Y-15445590D02*
X17719041Y-15601377D01*
X17719041Y-15601377D02*
X16940108Y-15757164D01*
X18342188Y-16224524D02*
X18497975Y-16302417D01*
X18497975Y-16302417D02*
X18809548Y-16302417D01*
X18809548Y-16302417D02*
X18965335Y-16224524D01*
X18965335Y-16224524D02*
X19043228Y-16068737D01*
X19043228Y-16068737D02*
X19043228Y-15990844D01*
X19043228Y-15990844D02*
X18965335Y-15835057D01*
X18965335Y-15835057D02*
X18809548Y-15757164D01*
X18809548Y-15757164D02*
X18575868Y-15757164D01*
X18575868Y-15757164D02*
X18420081Y-15679270D01*
X18420081Y-15679270D02*
X18342188Y-15523484D01*
X18342188Y-15523484D02*
X18342188Y-15445590D01*
X18342188Y-15445590D02*
X18420081Y-15289804D01*
X18420081Y-15289804D02*
X18575868Y-15211910D01*
X18575868Y-15211910D02*
X18809548Y-15211910D01*
X18809548Y-15211910D02*
X18965335Y-15289804D01*
X19744268Y-16302417D02*
X19744268Y-15211910D01*
X19744268Y-14666657D02*
X19666375Y-14744550D01*
X19666375Y-14744550D02*
X19744268Y-14822444D01*
X19744268Y-14822444D02*
X19822162Y-14744550D01*
X19822162Y-14744550D02*
X19744268Y-14666657D01*
X19744268Y-14666657D02*
X19744268Y-14822444D01*
X21224241Y-15211910D02*
X21224241Y-16536097D01*
X21224241Y-16536097D02*
X21146348Y-16691884D01*
X21146348Y-16691884D02*
X21068455Y-16769777D01*
X21068455Y-16769777D02*
X20912668Y-16847670D01*
X20912668Y-16847670D02*
X20678988Y-16847670D01*
X20678988Y-16847670D02*
X20523201Y-16769777D01*
X21224241Y-16224524D02*
X21068455Y-16302417D01*
X21068455Y-16302417D02*
X20756881Y-16302417D01*
X20756881Y-16302417D02*
X20601095Y-16224524D01*
X20601095Y-16224524D02*
X20523201Y-16146630D01*
X20523201Y-16146630D02*
X20445308Y-15990844D01*
X20445308Y-15990844D02*
X20445308Y-15523484D01*
X20445308Y-15523484D02*
X20523201Y-15367697D01*
X20523201Y-15367697D02*
X20601095Y-15289804D01*
X20601095Y-15289804D02*
X20756881Y-15211910D01*
X20756881Y-15211910D02*
X21068455Y-15211910D01*
X21068455Y-15211910D02*
X21224241Y-15289804D01*
X22003174Y-15211910D02*
X22003174Y-16302417D01*
X22003174Y-15367697D02*
X22081068Y-15289804D01*
X22081068Y-15289804D02*
X22236854Y-15211910D01*
X22236854Y-15211910D02*
X22470534Y-15211910D01*
X22470534Y-15211910D02*
X22626321Y-15289804D01*
X22626321Y-15289804D02*
X22704214Y-15445590D01*
X22704214Y-15445590D02*
X22704214Y-16302417D01*
X24106294Y-16224524D02*
X23950507Y-16302417D01*
X23950507Y-16302417D02*
X23638934Y-16302417D01*
X23638934Y-16302417D02*
X23483147Y-16224524D01*
X23483147Y-16224524D02*
X23405254Y-16068737D01*
X23405254Y-16068737D02*
X23405254Y-15445590D01*
X23405254Y-15445590D02*
X23483147Y-15289804D01*
X23483147Y-15289804D02*
X23638934Y-15211910D01*
X23638934Y-15211910D02*
X23950507Y-15211910D01*
X23950507Y-15211910D02*
X24106294Y-15289804D01*
X24106294Y-15289804D02*
X24184187Y-15445590D01*
X24184187Y-15445590D02*
X24184187Y-15601377D01*
X24184187Y-15601377D02*
X23405254Y-15757164D01*
X25586267Y-16302417D02*
X25586267Y-14666657D01*
X25586267Y-16224524D02*
X25430481Y-16302417D01*
X25430481Y-16302417D02*
X25118907Y-16302417D01*
X25118907Y-16302417D02*
X24963121Y-16224524D01*
X24963121Y-16224524D02*
X24885227Y-16146630D01*
X24885227Y-16146630D02*
X24807334Y-15990844D01*
X24807334Y-15990844D02*
X24807334Y-15523484D01*
X24807334Y-15523484D02*
X24885227Y-15367697D01*
X24885227Y-15367697D02*
X24963121Y-15289804D01*
X24963121Y-15289804D02*
X25118907Y-15211910D01*
X25118907Y-15211910D02*
X25430481Y-15211910D01*
X25430481Y-15211910D02*
X25586267Y-15289804D01*
X27611493Y-16302417D02*
X27611493Y-14666657D01*
X27611493Y-15289804D02*
X27767280Y-15211910D01*
X27767280Y-15211910D02*
X28078853Y-15211910D01*
X28078853Y-15211910D02*
X28234640Y-15289804D01*
X28234640Y-15289804D02*
X28312533Y-15367697D01*
X28312533Y-15367697D02*
X28390427Y-15523484D01*
X28390427Y-15523484D02*
X28390427Y-15990844D01*
X28390427Y-15990844D02*
X28312533Y-16146630D01*
X28312533Y-16146630D02*
X28234640Y-16224524D01*
X28234640Y-16224524D02*
X28078853Y-16302417D01*
X28078853Y-16302417D02*
X27767280Y-16302417D01*
X27767280Y-16302417D02*
X27611493Y-16224524D01*
X28935680Y-15211910D02*
X29325146Y-16302417D01*
X29714613Y-15211910D02*
X29325146Y-16302417D01*
X29325146Y-16302417D02*
X29169360Y-16691884D01*
X29169360Y-16691884D02*
X29091466Y-16769777D01*
X29091466Y-16769777D02*
X28935680Y-16847670D01*
X30337759Y-16146630D02*
X30415653Y-16224524D01*
X30415653Y-16224524D02*
X30337759Y-16302417D01*
X30337759Y-16302417D02*
X30259866Y-16224524D01*
X30259866Y-16224524D02*
X30337759Y-16146630D01*
X30337759Y-16146630D02*
X30337759Y-16302417D01*
X30337759Y-15289804D02*
X30415653Y-15367697D01*
X30415653Y-15367697D02*
X30337759Y-15445590D01*
X30337759Y-15445590D02*
X30259866Y-15367697D01*
X30259866Y-15367697D02*
X30337759Y-15289804D01*
X30337759Y-15289804D02*
X30337759Y-15445590D01*
X-22668649Y-11222417D02*
X-23213902Y-10443484D01*
X-23603369Y-11222417D02*
X-23603369Y-9586657D01*
X-23603369Y-9586657D02*
X-22980222Y-9586657D01*
X-22980222Y-9586657D02*
X-22824435Y-9664550D01*
X-22824435Y-9664550D02*
X-22746542Y-9742444D01*
X-22746542Y-9742444D02*
X-22668649Y-9898230D01*
X-22668649Y-9898230D02*
X-22668649Y-10131910D01*
X-22668649Y-10131910D02*
X-22746542Y-10287697D01*
X-22746542Y-10287697D02*
X-22824435Y-10365590D01*
X-22824435Y-10365590D02*
X-22980222Y-10443484D01*
X-22980222Y-10443484D02*
X-23603369Y-10443484D01*
X-21344462Y-11144524D02*
X-21500249Y-11222417D01*
X-21500249Y-11222417D02*
X-21811822Y-11222417D01*
X-21811822Y-11222417D02*
X-21967609Y-11144524D01*
X-21967609Y-11144524D02*
X-22045502Y-10988737D01*
X-22045502Y-10988737D02*
X-22045502Y-10365590D01*
X-22045502Y-10365590D02*
X-21967609Y-10209804D01*
X-21967609Y-10209804D02*
X-21811822Y-10131910D01*
X-21811822Y-10131910D02*
X-21500249Y-10131910D01*
X-21500249Y-10131910D02*
X-21344462Y-10209804D01*
X-21344462Y-10209804D02*
X-21266569Y-10365590D01*
X-21266569Y-10365590D02*
X-21266569Y-10521377D01*
X-21266569Y-10521377D02*
X-22045502Y-10677164D01*
X-20331849Y-11222417D02*
X-20487635Y-11144524D01*
X-20487635Y-11144524D02*
X-20565529Y-10988737D01*
X-20565529Y-10988737D02*
X-20565529Y-9586657D01*
X-19085555Y-11144524D02*
X-19241342Y-11222417D01*
X-19241342Y-11222417D02*
X-19552915Y-11222417D01*
X-19552915Y-11222417D02*
X-19708702Y-11144524D01*
X-19708702Y-11144524D02*
X-19786595Y-10988737D01*
X-19786595Y-10988737D02*
X-19786595Y-10365590D01*
X-19786595Y-10365590D02*
X-19708702Y-10209804D01*
X-19708702Y-10209804D02*
X-19552915Y-10131910D01*
X-19552915Y-10131910D02*
X-19241342Y-10131910D01*
X-19241342Y-10131910D02*
X-19085555Y-10209804D01*
X-19085555Y-10209804D02*
X-19007662Y-10365590D01*
X-19007662Y-10365590D02*
X-19007662Y-10521377D01*
X-19007662Y-10521377D02*
X-19786595Y-10677164D01*
X-17605582Y-11222417D02*
X-17605582Y-10365590D01*
X-17605582Y-10365590D02*
X-17683475Y-10209804D01*
X-17683475Y-10209804D02*
X-17839262Y-10131910D01*
X-17839262Y-10131910D02*
X-18150835Y-10131910D01*
X-18150835Y-10131910D02*
X-18306622Y-10209804D01*
X-17605582Y-11144524D02*
X-17761368Y-11222417D01*
X-17761368Y-11222417D02*
X-18150835Y-11222417D01*
X-18150835Y-11222417D02*
X-18306622Y-11144524D01*
X-18306622Y-11144524D02*
X-18384515Y-10988737D01*
X-18384515Y-10988737D02*
X-18384515Y-10832950D01*
X-18384515Y-10832950D02*
X-18306622Y-10677164D01*
X-18306622Y-10677164D02*
X-18150835Y-10599270D01*
X-18150835Y-10599270D02*
X-17761368Y-10599270D01*
X-17761368Y-10599270D02*
X-17605582Y-10521377D01*
X-16904542Y-11144524D02*
X-16748755Y-11222417D01*
X-16748755Y-11222417D02*
X-16437182Y-11222417D01*
X-16437182Y-11222417D02*
X-16281395Y-11144524D01*
X-16281395Y-11144524D02*
X-16203502Y-10988737D01*
X-16203502Y-10988737D02*
X-16203502Y-10910844D01*
X-16203502Y-10910844D02*
X-16281395Y-10755057D01*
X-16281395Y-10755057D02*
X-16437182Y-10677164D01*
X-16437182Y-10677164D02*
X-16670862Y-10677164D01*
X-16670862Y-10677164D02*
X-16826649Y-10599270D01*
X-16826649Y-10599270D02*
X-16904542Y-10443484D01*
X-16904542Y-10443484D02*
X-16904542Y-10365590D01*
X-16904542Y-10365590D02*
X-16826649Y-10209804D01*
X-16826649Y-10209804D02*
X-16670862Y-10131910D01*
X-16670862Y-10131910D02*
X-16437182Y-10131910D01*
X-16437182Y-10131910D02*
X-16281395Y-10209804D01*
X-14879315Y-11144524D02*
X-15035102Y-11222417D01*
X-15035102Y-11222417D02*
X-15346675Y-11222417D01*
X-15346675Y-11222417D02*
X-15502462Y-11144524D01*
X-15502462Y-11144524D02*
X-15580355Y-10988737D01*
X-15580355Y-10988737D02*
X-15580355Y-10365590D01*
X-15580355Y-10365590D02*
X-15502462Y-10209804D01*
X-15502462Y-10209804D02*
X-15346675Y-10131910D01*
X-15346675Y-10131910D02*
X-15035102Y-10131910D01*
X-15035102Y-10131910D02*
X-14879315Y-10209804D01*
X-14879315Y-10209804D02*
X-14801422Y-10365590D01*
X-14801422Y-10365590D02*
X-14801422Y-10521377D01*
X-14801422Y-10521377D02*
X-15580355Y-10677164D01*
X-13399342Y-11222417D02*
X-13399342Y-9586657D01*
X-13399342Y-11144524D02*
X-13555128Y-11222417D01*
X-13555128Y-11222417D02*
X-13866702Y-11222417D01*
X-13866702Y-11222417D02*
X-14022488Y-11144524D01*
X-14022488Y-11144524D02*
X-14100382Y-11066630D01*
X-14100382Y-11066630D02*
X-14178275Y-10910844D01*
X-14178275Y-10910844D02*
X-14178275Y-10443484D01*
X-14178275Y-10443484D02*
X-14100382Y-10287697D01*
X-14100382Y-10287697D02*
X-14022488Y-10209804D01*
X-14022488Y-10209804D02*
X-13866702Y-10131910D01*
X-13866702Y-10131910D02*
X-13555128Y-10131910D01*
X-13555128Y-10131910D02*
X-13399342Y-10209804D01*
X-10673076Y-10131910D02*
X-10673076Y-11222417D01*
X-11374116Y-10131910D02*
X-11374116Y-10988737D01*
X-11374116Y-10988737D02*
X-11296222Y-11144524D01*
X-11296222Y-11144524D02*
X-11140436Y-11222417D01*
X-11140436Y-11222417D02*
X-10906756Y-11222417D01*
X-10906756Y-11222417D02*
X-10750969Y-11144524D01*
X-10750969Y-11144524D02*
X-10673076Y-11066630D01*
X-9894143Y-10131910D02*
X-9894143Y-11222417D01*
X-9894143Y-10287697D02*
X-9816249Y-10209804D01*
X-9816249Y-10209804D02*
X-9660463Y-10131910D01*
X-9660463Y-10131910D02*
X-9426783Y-10131910D01*
X-9426783Y-10131910D02*
X-9270996Y-10209804D01*
X-9270996Y-10209804D02*
X-9193103Y-10365590D01*
X-9193103Y-10365590D02*
X-9193103Y-11222417D01*
X-7713130Y-11222417D02*
X-7713130Y-9586657D01*
X-7713130Y-11144524D02*
X-7868916Y-11222417D01*
X-7868916Y-11222417D02*
X-8180490Y-11222417D01*
X-8180490Y-11222417D02*
X-8336276Y-11144524D01*
X-8336276Y-11144524D02*
X-8414170Y-11066630D01*
X-8414170Y-11066630D02*
X-8492063Y-10910844D01*
X-8492063Y-10910844D02*
X-8492063Y-10443484D01*
X-8492063Y-10443484D02*
X-8414170Y-10287697D01*
X-8414170Y-10287697D02*
X-8336276Y-10209804D01*
X-8336276Y-10209804D02*
X-8180490Y-10131910D01*
X-8180490Y-10131910D02*
X-7868916Y-10131910D01*
X-7868916Y-10131910D02*
X-7713130Y-10209804D01*
X-6311050Y-11144524D02*
X-6466837Y-11222417D01*
X-6466837Y-11222417D02*
X-6778410Y-11222417D01*
X-6778410Y-11222417D02*
X-6934197Y-11144524D01*
X-6934197Y-11144524D02*
X-7012090Y-10988737D01*
X-7012090Y-10988737D02*
X-7012090Y-10365590D01*
X-7012090Y-10365590D02*
X-6934197Y-10209804D01*
X-6934197Y-10209804D02*
X-6778410Y-10131910D01*
X-6778410Y-10131910D02*
X-6466837Y-10131910D01*
X-6466837Y-10131910D02*
X-6311050Y-10209804D01*
X-6311050Y-10209804D02*
X-6233157Y-10365590D01*
X-6233157Y-10365590D02*
X-6233157Y-10521377D01*
X-6233157Y-10521377D02*
X-7012090Y-10677164D01*
X-5532117Y-11222417D02*
X-5532117Y-10131910D01*
X-5532117Y-10443484D02*
X-5454223Y-10287697D01*
X-5454223Y-10287697D02*
X-5376330Y-10209804D01*
X-5376330Y-10209804D02*
X-5220543Y-10131910D01*
X-5220543Y-10131910D02*
X-5064757Y-10131910D01*
X-3506891Y-10131910D02*
X-2883744Y-10131910D01*
X-3273211Y-9586657D02*
X-3273211Y-10988737D01*
X-3273211Y-10988737D02*
X-3195317Y-11144524D01*
X-3195317Y-11144524D02*
X-3039531Y-11222417D01*
X-3039531Y-11222417D02*
X-2883744Y-11222417D01*
X-2338491Y-11222417D02*
X-2338491Y-9586657D01*
X-1637451Y-11222417D02*
X-1637451Y-10365590D01*
X-1637451Y-10365590D02*
X-1715344Y-10209804D01*
X-1715344Y-10209804D02*
X-1871131Y-10131910D01*
X-1871131Y-10131910D02*
X-2104811Y-10131910D01*
X-2104811Y-10131910D02*
X-2260597Y-10209804D01*
X-2260597Y-10209804D02*
X-2338491Y-10287697D01*
X-235371Y-11144524D02*
X-391158Y-11222417D01*
X-391158Y-11222417D02*
X-702731Y-11222417D01*
X-702731Y-11222417D02*
X-858518Y-11144524D01*
X-858518Y-11144524D02*
X-936411Y-10988737D01*
X-936411Y-10988737D02*
X-936411Y-10365590D01*
X-936411Y-10365590D02*
X-858518Y-10209804D01*
X-858518Y-10209804D02*
X-702731Y-10131910D01*
X-702731Y-10131910D02*
X-391158Y-10131910D01*
X-391158Y-10131910D02*
X-235371Y-10209804D01*
X-235371Y-10209804D02*
X-157478Y-10365590D01*
X-157478Y-10365590D02*
X-157478Y-10521377D01*
X-157478Y-10521377D02*
X-936411Y-10677164D01*
X2724575Y-11066630D02*
X2646682Y-11144524D01*
X2646682Y-11144524D02*
X2413002Y-11222417D01*
X2413002Y-11222417D02*
X2257215Y-11222417D01*
X2257215Y-11222417D02*
X2023535Y-11144524D01*
X2023535Y-11144524D02*
X1867749Y-10988737D01*
X1867749Y-10988737D02*
X1789855Y-10832950D01*
X1789855Y-10832950D02*
X1711962Y-10521377D01*
X1711962Y-10521377D02*
X1711962Y-10287697D01*
X1711962Y-10287697D02*
X1789855Y-9976124D01*
X1789855Y-9976124D02*
X1867749Y-9820337D01*
X1867749Y-9820337D02*
X2023535Y-9664550D01*
X2023535Y-9664550D02*
X2257215Y-9586657D01*
X2257215Y-9586657D02*
X2413002Y-9586657D01*
X2413002Y-9586657D02*
X2646682Y-9664550D01*
X2646682Y-9664550D02*
X2724575Y-9742444D01*
X3425615Y-11222417D02*
X3425615Y-10131910D01*
X3425615Y-10443484D02*
X3503509Y-10287697D01*
X3503509Y-10287697D02*
X3581402Y-10209804D01*
X3581402Y-10209804D02*
X3737189Y-10131910D01*
X3737189Y-10131910D02*
X3892975Y-10131910D01*
X5061375Y-11144524D02*
X4905588Y-11222417D01*
X4905588Y-11222417D02*
X4594015Y-11222417D01*
X4594015Y-11222417D02*
X4438228Y-11144524D01*
X4438228Y-11144524D02*
X4360335Y-10988737D01*
X4360335Y-10988737D02*
X4360335Y-10365590D01*
X4360335Y-10365590D02*
X4438228Y-10209804D01*
X4438228Y-10209804D02*
X4594015Y-10131910D01*
X4594015Y-10131910D02*
X4905588Y-10131910D01*
X4905588Y-10131910D02*
X5061375Y-10209804D01*
X5061375Y-10209804D02*
X5139268Y-10365590D01*
X5139268Y-10365590D02*
X5139268Y-10521377D01*
X5139268Y-10521377D02*
X4360335Y-10677164D01*
X6541348Y-11222417D02*
X6541348Y-10365590D01*
X6541348Y-10365590D02*
X6463455Y-10209804D01*
X6463455Y-10209804D02*
X6307668Y-10131910D01*
X6307668Y-10131910D02*
X5996095Y-10131910D01*
X5996095Y-10131910D02*
X5840308Y-10209804D01*
X6541348Y-11144524D02*
X6385562Y-11222417D01*
X6385562Y-11222417D02*
X5996095Y-11222417D01*
X5996095Y-11222417D02*
X5840308Y-11144524D01*
X5840308Y-11144524D02*
X5762415Y-10988737D01*
X5762415Y-10988737D02*
X5762415Y-10832950D01*
X5762415Y-10832950D02*
X5840308Y-10677164D01*
X5840308Y-10677164D02*
X5996095Y-10599270D01*
X5996095Y-10599270D02*
X6385562Y-10599270D01*
X6385562Y-10599270D02*
X6541348Y-10521377D01*
X7086601Y-10131910D02*
X7709748Y-10131910D01*
X7320281Y-9586657D02*
X7320281Y-10988737D01*
X7320281Y-10988737D02*
X7398175Y-11144524D01*
X7398175Y-11144524D02*
X7553961Y-11222417D01*
X7553961Y-11222417D02*
X7709748Y-11222417D01*
X8255001Y-11222417D02*
X8255001Y-10131910D01*
X8255001Y-9586657D02*
X8177108Y-9664550D01*
X8177108Y-9664550D02*
X8255001Y-9742444D01*
X8255001Y-9742444D02*
X8332895Y-9664550D01*
X8332895Y-9664550D02*
X8255001Y-9586657D01*
X8255001Y-9586657D02*
X8255001Y-9742444D01*
X8878148Y-10131910D02*
X9267614Y-11222417D01*
X9267614Y-11222417D02*
X9657081Y-10131910D01*
X10903374Y-11144524D02*
X10747587Y-11222417D01*
X10747587Y-11222417D02*
X10436014Y-11222417D01*
X10436014Y-11222417D02*
X10280227Y-11144524D01*
X10280227Y-11144524D02*
X10202334Y-10988737D01*
X10202334Y-10988737D02*
X10202334Y-10365590D01*
X10202334Y-10365590D02*
X10280227Y-10209804D01*
X10280227Y-10209804D02*
X10436014Y-10131910D01*
X10436014Y-10131910D02*
X10747587Y-10131910D01*
X10747587Y-10131910D02*
X10903374Y-10209804D01*
X10903374Y-10209804D02*
X10981267Y-10365590D01*
X10981267Y-10365590D02*
X10981267Y-10521377D01*
X10981267Y-10521377D02*
X10202334Y-10677164D01*
X13863320Y-11066630D02*
X13785427Y-11144524D01*
X13785427Y-11144524D02*
X13551747Y-11222417D01*
X13551747Y-11222417D02*
X13395960Y-11222417D01*
X13395960Y-11222417D02*
X13162280Y-11144524D01*
X13162280Y-11144524D02*
X13006494Y-10988737D01*
X13006494Y-10988737D02*
X12928600Y-10832950D01*
X12928600Y-10832950D02*
X12850707Y-10521377D01*
X12850707Y-10521377D02*
X12850707Y-10287697D01*
X12850707Y-10287697D02*
X12928600Y-9976124D01*
X12928600Y-9976124D02*
X13006494Y-9820337D01*
X13006494Y-9820337D02*
X13162280Y-9664550D01*
X13162280Y-9664550D02*
X13395960Y-9586657D01*
X13395960Y-9586657D02*
X13551747Y-9586657D01*
X13551747Y-9586657D02*
X13785427Y-9664550D01*
X13785427Y-9664550D02*
X13863320Y-9742444D01*
X14798040Y-11222417D02*
X14642254Y-11144524D01*
X14642254Y-11144524D02*
X14564360Y-11066630D01*
X14564360Y-11066630D02*
X14486467Y-10910844D01*
X14486467Y-10910844D02*
X14486467Y-10443484D01*
X14486467Y-10443484D02*
X14564360Y-10287697D01*
X14564360Y-10287697D02*
X14642254Y-10209804D01*
X14642254Y-10209804D02*
X14798040Y-10131910D01*
X14798040Y-10131910D02*
X15031720Y-10131910D01*
X15031720Y-10131910D02*
X15187507Y-10209804D01*
X15187507Y-10209804D02*
X15265400Y-10287697D01*
X15265400Y-10287697D02*
X15343294Y-10443484D01*
X15343294Y-10443484D02*
X15343294Y-10910844D01*
X15343294Y-10910844D02*
X15265400Y-11066630D01*
X15265400Y-11066630D02*
X15187507Y-11144524D01*
X15187507Y-11144524D02*
X15031720Y-11222417D01*
X15031720Y-11222417D02*
X14798040Y-11222417D01*
X16044333Y-11222417D02*
X16044333Y-10131910D01*
X16044333Y-10287697D02*
X16122227Y-10209804D01*
X16122227Y-10209804D02*
X16278013Y-10131910D01*
X16278013Y-10131910D02*
X16511693Y-10131910D01*
X16511693Y-10131910D02*
X16667480Y-10209804D01*
X16667480Y-10209804D02*
X16745373Y-10365590D01*
X16745373Y-10365590D02*
X16745373Y-11222417D01*
X16745373Y-10365590D02*
X16823267Y-10209804D01*
X16823267Y-10209804D02*
X16979053Y-10131910D01*
X16979053Y-10131910D02*
X17212733Y-10131910D01*
X17212733Y-10131910D02*
X17368520Y-10209804D01*
X17368520Y-10209804D02*
X17446413Y-10365590D01*
X17446413Y-10365590D02*
X17446413Y-11222417D01*
X18225346Y-11222417D02*
X18225346Y-10131910D01*
X18225346Y-10287697D02*
X18303240Y-10209804D01*
X18303240Y-10209804D02*
X18459026Y-10131910D01*
X18459026Y-10131910D02*
X18692706Y-10131910D01*
X18692706Y-10131910D02*
X18848493Y-10209804D01*
X18848493Y-10209804D02*
X18926386Y-10365590D01*
X18926386Y-10365590D02*
X18926386Y-11222417D01*
X18926386Y-10365590D02*
X19004280Y-10209804D01*
X19004280Y-10209804D02*
X19160066Y-10131910D01*
X19160066Y-10131910D02*
X19393746Y-10131910D01*
X19393746Y-10131910D02*
X19549533Y-10209804D01*
X19549533Y-10209804D02*
X19627426Y-10365590D01*
X19627426Y-10365590D02*
X19627426Y-11222417D01*
X20640039Y-11222417D02*
X20484253Y-11144524D01*
X20484253Y-11144524D02*
X20406359Y-11066630D01*
X20406359Y-11066630D02*
X20328466Y-10910844D01*
X20328466Y-10910844D02*
X20328466Y-10443484D01*
X20328466Y-10443484D02*
X20406359Y-10287697D01*
X20406359Y-10287697D02*
X20484253Y-10209804D01*
X20484253Y-10209804D02*
X20640039Y-10131910D01*
X20640039Y-10131910D02*
X20873719Y-10131910D01*
X20873719Y-10131910D02*
X21029506Y-10209804D01*
X21029506Y-10209804D02*
X21107399Y-10287697D01*
X21107399Y-10287697D02*
X21185293Y-10443484D01*
X21185293Y-10443484D02*
X21185293Y-10910844D01*
X21185293Y-10910844D02*
X21107399Y-11066630D01*
X21107399Y-11066630D02*
X21029506Y-11144524D01*
X21029506Y-11144524D02*
X20873719Y-11222417D01*
X20873719Y-11222417D02*
X20640039Y-11222417D01*
X21886332Y-10131910D02*
X21886332Y-11222417D01*
X21886332Y-10287697D02*
X21964226Y-10209804D01*
X21964226Y-10209804D02*
X22120012Y-10131910D01*
X22120012Y-10131910D02*
X22353692Y-10131910D01*
X22353692Y-10131910D02*
X22509479Y-10209804D01*
X22509479Y-10209804D02*
X22587372Y-10365590D01*
X22587372Y-10365590D02*
X22587372Y-11222417D01*
X23288412Y-11144524D02*
X23444199Y-11222417D01*
X23444199Y-11222417D02*
X23755772Y-11222417D01*
X23755772Y-11222417D02*
X23911559Y-11144524D01*
X23911559Y-11144524D02*
X23989452Y-10988737D01*
X23989452Y-10988737D02*
X23989452Y-10910844D01*
X23989452Y-10910844D02*
X23911559Y-10755057D01*
X23911559Y-10755057D02*
X23755772Y-10677164D01*
X23755772Y-10677164D02*
X23522092Y-10677164D01*
X23522092Y-10677164D02*
X23366305Y-10599270D01*
X23366305Y-10599270D02*
X23288412Y-10443484D01*
X23288412Y-10443484D02*
X23288412Y-10365590D01*
X23288412Y-10365590D02*
X23366305Y-10209804D01*
X23366305Y-10209804D02*
X23522092Y-10131910D01*
X23522092Y-10131910D02*
X23755772Y-10131910D01*
X23755772Y-10131910D02*
X23911559Y-10209804D01*
X25858892Y-10755057D02*
X26637825Y-10755057D01*
X25703105Y-11222417D02*
X26248359Y-9586657D01*
X26248359Y-9586657D02*
X26793612Y-11222417D01*
X27105185Y-10131910D02*
X27728332Y-10131910D01*
X27338865Y-9586657D02*
X27338865Y-10988737D01*
X27338865Y-10988737D02*
X27416759Y-11144524D01*
X27416759Y-11144524D02*
X27572545Y-11222417D01*
X27572545Y-11222417D02*
X27728332Y-11222417D01*
X28039905Y-10131910D02*
X28663052Y-10131910D01*
X28273585Y-9586657D02*
X28273585Y-10988737D01*
X28273585Y-10988737D02*
X28351479Y-11144524D01*
X28351479Y-11144524D02*
X28507265Y-11222417D01*
X28507265Y-11222417D02*
X28663052Y-11222417D01*
X29208305Y-11222417D02*
X29208305Y-10131910D01*
X29208305Y-10443484D02*
X29286199Y-10287697D01*
X29286199Y-10287697D02*
X29364092Y-10209804D01*
X29364092Y-10209804D02*
X29519879Y-10131910D01*
X29519879Y-10131910D02*
X29675665Y-10131910D01*
X30220918Y-11222417D02*
X30220918Y-10131910D01*
X30220918Y-9586657D02*
X30143025Y-9664550D01*
X30143025Y-9664550D02*
X30220918Y-9742444D01*
X30220918Y-9742444D02*
X30298812Y-9664550D01*
X30298812Y-9664550D02*
X30220918Y-9586657D01*
X30220918Y-9586657D02*
X30220918Y-9742444D01*
X30999851Y-11222417D02*
X30999851Y-9586657D01*
X30999851Y-10209804D02*
X31155638Y-10131910D01*
X31155638Y-10131910D02*
X31467211Y-10131910D01*
X31467211Y-10131910D02*
X31622998Y-10209804D01*
X31622998Y-10209804D02*
X31700891Y-10287697D01*
X31700891Y-10287697D02*
X31778785Y-10443484D01*
X31778785Y-10443484D02*
X31778785Y-10910844D01*
X31778785Y-10910844D02*
X31700891Y-11066630D01*
X31700891Y-11066630D02*
X31622998Y-11144524D01*
X31622998Y-11144524D02*
X31467211Y-11222417D01*
X31467211Y-11222417D02*
X31155638Y-11222417D01*
X31155638Y-11222417D02*
X30999851Y-11144524D01*
X33180864Y-10131910D02*
X33180864Y-11222417D01*
X32479824Y-10131910D02*
X32479824Y-10988737D01*
X32479824Y-10988737D02*
X32557718Y-11144524D01*
X32557718Y-11144524D02*
X32713504Y-11222417D01*
X32713504Y-11222417D02*
X32947184Y-11222417D01*
X32947184Y-11222417D02*
X33102971Y-11144524D01*
X33102971Y-11144524D02*
X33180864Y-11066630D01*
X33726117Y-10131910D02*
X34349264Y-10131910D01*
X33959797Y-9586657D02*
X33959797Y-10988737D01*
X33959797Y-10988737D02*
X34037691Y-11144524D01*
X34037691Y-11144524D02*
X34193477Y-11222417D01*
X34193477Y-11222417D02*
X34349264Y-11222417D01*
X34894517Y-11222417D02*
X34894517Y-10131910D01*
X34894517Y-9586657D02*
X34816624Y-9664550D01*
X34816624Y-9664550D02*
X34894517Y-9742444D01*
X34894517Y-9742444D02*
X34972411Y-9664550D01*
X34972411Y-9664550D02*
X34894517Y-9586657D01*
X34894517Y-9586657D02*
X34894517Y-9742444D01*
X35907130Y-11222417D02*
X35751344Y-11144524D01*
X35751344Y-11144524D02*
X35673450Y-11066630D01*
X35673450Y-11066630D02*
X35595557Y-10910844D01*
X35595557Y-10910844D02*
X35595557Y-10443484D01*
X35595557Y-10443484D02*
X35673450Y-10287697D01*
X35673450Y-10287697D02*
X35751344Y-10209804D01*
X35751344Y-10209804D02*
X35907130Y-10131910D01*
X35907130Y-10131910D02*
X36140810Y-10131910D01*
X36140810Y-10131910D02*
X36296597Y-10209804D01*
X36296597Y-10209804D02*
X36374490Y-10287697D01*
X36374490Y-10287697D02*
X36452384Y-10443484D01*
X36452384Y-10443484D02*
X36452384Y-10910844D01*
X36452384Y-10910844D02*
X36374490Y-11066630D01*
X36374490Y-11066630D02*
X36296597Y-11144524D01*
X36296597Y-11144524D02*
X36140810Y-11222417D01*
X36140810Y-11222417D02*
X35907130Y-11222417D01*
X37153423Y-10131910D02*
X37153423Y-11222417D01*
X37153423Y-10287697D02*
X37231317Y-10209804D01*
X37231317Y-10209804D02*
X37387103Y-10131910D01*
X37387103Y-10131910D02*
X37620783Y-10131910D01*
X37620783Y-10131910D02*
X37776570Y-10209804D01*
X37776570Y-10209804D02*
X37854463Y-10365590D01*
X37854463Y-10365590D02*
X37854463Y-11222417D01*
X39801796Y-11144524D02*
X40035476Y-11222417D01*
X40035476Y-11222417D02*
X40424943Y-11222417D01*
X40424943Y-11222417D02*
X40580729Y-11144524D01*
X40580729Y-11144524D02*
X40658623Y-11066630D01*
X40658623Y-11066630D02*
X40736516Y-10910844D01*
X40736516Y-10910844D02*
X40736516Y-10755057D01*
X40736516Y-10755057D02*
X40658623Y-10599270D01*
X40658623Y-10599270D02*
X40580729Y-10521377D01*
X40580729Y-10521377D02*
X40424943Y-10443484D01*
X40424943Y-10443484D02*
X40113369Y-10365590D01*
X40113369Y-10365590D02*
X39957583Y-10287697D01*
X39957583Y-10287697D02*
X39879689Y-10209804D01*
X39879689Y-10209804D02*
X39801796Y-10054017D01*
X39801796Y-10054017D02*
X39801796Y-9898230D01*
X39801796Y-9898230D02*
X39879689Y-9742444D01*
X39879689Y-9742444D02*
X39957583Y-9664550D01*
X39957583Y-9664550D02*
X40113369Y-9586657D01*
X40113369Y-9586657D02*
X40502836Y-9586657D01*
X40502836Y-9586657D02*
X40736516Y-9664550D01*
X41437556Y-11222417D02*
X41437556Y-9586657D01*
X42138596Y-11222417D02*
X42138596Y-10365590D01*
X42138596Y-10365590D02*
X42060703Y-10209804D01*
X42060703Y-10209804D02*
X41904916Y-10131910D01*
X41904916Y-10131910D02*
X41671236Y-10131910D01*
X41671236Y-10131910D02*
X41515450Y-10209804D01*
X41515450Y-10209804D02*
X41437556Y-10287697D01*
X43618569Y-11222417D02*
X43618569Y-10365590D01*
X43618569Y-10365590D02*
X43540676Y-10209804D01*
X43540676Y-10209804D02*
X43384889Y-10131910D01*
X43384889Y-10131910D02*
X43073316Y-10131910D01*
X43073316Y-10131910D02*
X42917529Y-10209804D01*
X43618569Y-11144524D02*
X43462783Y-11222417D01*
X43462783Y-11222417D02*
X43073316Y-11222417D01*
X43073316Y-11222417D02*
X42917529Y-11144524D01*
X42917529Y-11144524D02*
X42839636Y-10988737D01*
X42839636Y-10988737D02*
X42839636Y-10832950D01*
X42839636Y-10832950D02*
X42917529Y-10677164D01*
X42917529Y-10677164D02*
X43073316Y-10599270D01*
X43073316Y-10599270D02*
X43462783Y-10599270D01*
X43462783Y-10599270D02*
X43618569Y-10521377D01*
X44397502Y-11222417D02*
X44397502Y-10131910D01*
X44397502Y-10443484D02*
X44475396Y-10287697D01*
X44475396Y-10287697D02*
X44553289Y-10209804D01*
X44553289Y-10209804D02*
X44709076Y-10131910D01*
X44709076Y-10131910D02*
X44864862Y-10131910D01*
X46033262Y-11144524D02*
X45877475Y-11222417D01*
X45877475Y-11222417D02*
X45565902Y-11222417D01*
X45565902Y-11222417D02*
X45410115Y-11144524D01*
X45410115Y-11144524D02*
X45332222Y-10988737D01*
X45332222Y-10988737D02*
X45332222Y-10365590D01*
X45332222Y-10365590D02*
X45410115Y-10209804D01*
X45410115Y-10209804D02*
X45565902Y-10131910D01*
X45565902Y-10131910D02*
X45877475Y-10131910D01*
X45877475Y-10131910D02*
X46033262Y-10209804D01*
X46033262Y-10209804D02*
X46111155Y-10365590D01*
X46111155Y-10365590D02*
X46111155Y-10521377D01*
X46111155Y-10521377D02*
X45332222Y-10677164D01*
X46812195Y-10599270D02*
X48058489Y-10599270D01*
X48759529Y-10755057D02*
X49538462Y-10755057D01*
X48603742Y-11222417D02*
X49148996Y-9586657D01*
X49148996Y-9586657D02*
X49694249Y-11222417D01*
X50473182Y-11222417D02*
X50317396Y-11144524D01*
X50317396Y-11144524D02*
X50239502Y-10988737D01*
X50239502Y-10988737D02*
X50239502Y-9586657D01*
X51096329Y-11222417D02*
X51096329Y-10131910D01*
X51096329Y-9586657D02*
X51018436Y-9664550D01*
X51018436Y-9664550D02*
X51096329Y-9742444D01*
X51096329Y-9742444D02*
X51174223Y-9664550D01*
X51174223Y-9664550D02*
X51096329Y-9586657D01*
X51096329Y-9586657D02*
X51096329Y-9742444D01*
X51875262Y-11222417D02*
X51875262Y-9586657D01*
X52031049Y-10599270D02*
X52498409Y-11222417D01*
X52498409Y-10131910D02*
X51875262Y-10755057D01*
X53822596Y-11144524D02*
X53666809Y-11222417D01*
X53666809Y-11222417D02*
X53355236Y-11222417D01*
X53355236Y-11222417D02*
X53199449Y-11144524D01*
X53199449Y-11144524D02*
X53121556Y-10988737D01*
X53121556Y-10988737D02*
X53121556Y-10365590D01*
X53121556Y-10365590D02*
X53199449Y-10209804D01*
X53199449Y-10209804D02*
X53355236Y-10131910D01*
X53355236Y-10131910D02*
X53666809Y-10131910D01*
X53666809Y-10131910D02*
X53822596Y-10209804D01*
X53822596Y-10209804D02*
X53900489Y-10365590D01*
X53900489Y-10365590D02*
X53900489Y-10521377D01*
X53900489Y-10521377D02*
X53121556Y-10677164D01*
X56548862Y-10131910D02*
X56548862Y-11222417D01*
X56159396Y-9508764D02*
X55769929Y-10677164D01*
X55769929Y-10677164D02*
X56782542Y-10677164D01*
X57405689Y-11066630D02*
X57483583Y-11144524D01*
X57483583Y-11144524D02*
X57405689Y-11222417D01*
X57405689Y-11222417D02*
X57327796Y-11144524D01*
X57327796Y-11144524D02*
X57405689Y-11066630D01*
X57405689Y-11066630D02*
X57405689Y-11222417D01*
X58496196Y-9586657D02*
X58651982Y-9586657D01*
X58651982Y-9586657D02*
X58807769Y-9664550D01*
X58807769Y-9664550D02*
X58885662Y-9742444D01*
X58885662Y-9742444D02*
X58963556Y-9898230D01*
X58963556Y-9898230D02*
X59041449Y-10209804D01*
X59041449Y-10209804D02*
X59041449Y-10599270D01*
X59041449Y-10599270D02*
X58963556Y-10910844D01*
X58963556Y-10910844D02*
X58885662Y-11066630D01*
X58885662Y-11066630D02*
X58807769Y-11144524D01*
X58807769Y-11144524D02*
X58651982Y-11222417D01*
X58651982Y-11222417D02*
X58496196Y-11222417D01*
X58496196Y-11222417D02*
X58340409Y-11144524D01*
X58340409Y-11144524D02*
X58262516Y-11066630D01*
X58262516Y-11066630D02*
X58184622Y-10910844D01*
X58184622Y-10910844D02*
X58106729Y-10599270D01*
X58106729Y-10599270D02*
X58106729Y-10209804D01*
X58106729Y-10209804D02*
X58184622Y-9898230D01*
X58184622Y-9898230D02*
X58262516Y-9742444D01*
X58262516Y-9742444D02*
X58340409Y-9664550D01*
X58340409Y-9664550D02*
X58496196Y-9586657D01*
X61767716Y-11222417D02*
X60988782Y-11222417D01*
X60988782Y-11222417D02*
X60988782Y-9586657D01*
X62312969Y-11222417D02*
X62312969Y-10131910D01*
X62312969Y-9586657D02*
X62235076Y-9664550D01*
X62235076Y-9664550D02*
X62312969Y-9742444D01*
X62312969Y-9742444D02*
X62390863Y-9664550D01*
X62390863Y-9664550D02*
X62312969Y-9586657D01*
X62312969Y-9586657D02*
X62312969Y-9742444D01*
X63792942Y-11144524D02*
X63637156Y-11222417D01*
X63637156Y-11222417D02*
X63325582Y-11222417D01*
X63325582Y-11222417D02*
X63169796Y-11144524D01*
X63169796Y-11144524D02*
X63091902Y-11066630D01*
X63091902Y-11066630D02*
X63014009Y-10910844D01*
X63014009Y-10910844D02*
X63014009Y-10443484D01*
X63014009Y-10443484D02*
X63091902Y-10287697D01*
X63091902Y-10287697D02*
X63169796Y-10209804D01*
X63169796Y-10209804D02*
X63325582Y-10131910D01*
X63325582Y-10131910D02*
X63637156Y-10131910D01*
X63637156Y-10131910D02*
X63792942Y-10209804D01*
X65117129Y-11144524D02*
X64961342Y-11222417D01*
X64961342Y-11222417D02*
X64649769Y-11222417D01*
X64649769Y-11222417D02*
X64493982Y-11144524D01*
X64493982Y-11144524D02*
X64416089Y-10988737D01*
X64416089Y-10988737D02*
X64416089Y-10365590D01*
X64416089Y-10365590D02*
X64493982Y-10209804D01*
X64493982Y-10209804D02*
X64649769Y-10131910D01*
X64649769Y-10131910D02*
X64961342Y-10131910D01*
X64961342Y-10131910D02*
X65117129Y-10209804D01*
X65117129Y-10209804D02*
X65195022Y-10365590D01*
X65195022Y-10365590D02*
X65195022Y-10521377D01*
X65195022Y-10521377D02*
X64416089Y-10677164D01*
X65896062Y-10131910D02*
X65896062Y-11222417D01*
X65896062Y-10287697D02*
X65973956Y-10209804D01*
X65973956Y-10209804D02*
X66129742Y-10131910D01*
X66129742Y-10131910D02*
X66363422Y-10131910D01*
X66363422Y-10131910D02*
X66519209Y-10209804D01*
X66519209Y-10209804D02*
X66597102Y-10365590D01*
X66597102Y-10365590D02*
X66597102Y-11222417D01*
X67298142Y-11144524D02*
X67453929Y-11222417D01*
X67453929Y-11222417D02*
X67765502Y-11222417D01*
X67765502Y-11222417D02*
X67921289Y-11144524D01*
X67921289Y-11144524D02*
X67999182Y-10988737D01*
X67999182Y-10988737D02*
X67999182Y-10910844D01*
X67999182Y-10910844D02*
X67921289Y-10755057D01*
X67921289Y-10755057D02*
X67765502Y-10677164D01*
X67765502Y-10677164D02*
X67531822Y-10677164D01*
X67531822Y-10677164D02*
X67376035Y-10599270D01*
X67376035Y-10599270D02*
X67298142Y-10443484D01*
X67298142Y-10443484D02*
X67298142Y-10365590D01*
X67298142Y-10365590D02*
X67376035Y-10209804D01*
X67376035Y-10209804D02*
X67531822Y-10131910D01*
X67531822Y-10131910D02*
X67765502Y-10131910D01*
X67765502Y-10131910D02*
X67921289Y-10209804D01*
X69323369Y-11144524D02*
X69167582Y-11222417D01*
X69167582Y-11222417D02*
X68856009Y-11222417D01*
X68856009Y-11222417D02*
X68700222Y-11144524D01*
X68700222Y-11144524D02*
X68622329Y-10988737D01*
X68622329Y-10988737D02*
X68622329Y-10365590D01*
X68622329Y-10365590D02*
X68700222Y-10209804D01*
X68700222Y-10209804D02*
X68856009Y-10131910D01*
X68856009Y-10131910D02*
X69167582Y-10131910D01*
X69167582Y-10131910D02*
X69323369Y-10209804D01*
X69323369Y-10209804D02*
X69401262Y-10365590D01*
X69401262Y-10365590D02*
X69401262Y-10521377D01*
X69401262Y-10521377D02*
X68622329Y-10677164D01*
D16*
%TO.C,U7*%
X147050000Y46355000D02*
X210550000Y46355000D01*
D17*
X147050000Y50800000D02*
X210550000Y50800000D01*
X210550000Y50800000D02*
X210550000Y0D01*
X210550000Y0D02*
X147050000Y0D01*
X147050000Y0D02*
X147050000Y50800000D01*
%TD*%
M02*
