%TF.GenerationSoftware,KiCad,Pcbnew,7.0.6*%
%TF.CreationDate,2023-11-19T12:44:13-07:00*%
%TF.ProjectId,SparkFun_BlueSMiRF-ESP32_panelized,53706172-6b46-4756-9e5f-426c7565534d,rev?*%
%TF.SameCoordinates,Original*%
%TF.FileFunction,Paste,Bot*%
%TF.FilePolarity,Positive*%
%FSLAX46Y46*%
G04 Gerber Fmt 4.6, Leading zero omitted, Abs format (unit mm)*
G04 Created by KiCad (PCBNEW 7.0.6) date 2023-11-19 12:44:13*
%MOMM*%
%LPD*%
G01*
G04 APERTURE LIST*
%ADD10R,3.000000X1.000000*%
G04 APERTURE END LIST*
D10*
%TO.C,J1*%
X121730000Y29710000D03*
X121730000Y27170000D03*
X121730000Y24630000D03*
X121730000Y22090000D03*
X121730000Y19550000D03*
X121730000Y17010000D03*
%TD*%
%TO.C,J1*%
X121730000Y61190000D03*
X121730000Y58650000D03*
X121730000Y56110000D03*
X121730000Y53570000D03*
X121730000Y51030000D03*
X121730000Y48490000D03*
%TD*%
%TO.C,J1*%
X121730000Y92670000D03*
X121730000Y90130000D03*
X121730000Y87590000D03*
X121730000Y85050000D03*
X121730000Y82510000D03*
X121730000Y79970000D03*
%TD*%
%TO.C,J1*%
X31830000Y45450000D03*
X31830000Y42910000D03*
X31830000Y40370000D03*
X31830000Y37830000D03*
X31830000Y35290000D03*
X31830000Y32750000D03*
%TD*%
%TO.C,J1*%
X31830000Y29710000D03*
X31830000Y27170000D03*
X31830000Y24630000D03*
X31830000Y22090000D03*
X31830000Y19550000D03*
X31830000Y17010000D03*
%TD*%
%TO.C,J1*%
X76780000Y76930000D03*
X76780000Y74390000D03*
X76780000Y71850000D03*
X76780000Y69310000D03*
X76780000Y66770000D03*
X76780000Y64230000D03*
%TD*%
%TO.C,J1*%
X31830000Y76930000D03*
X31830000Y74390000D03*
X31830000Y71850000D03*
X31830000Y69310000D03*
X31830000Y66770000D03*
X31830000Y64230000D03*
%TD*%
%TO.C,J1*%
X31830000Y61190000D03*
X31830000Y58650000D03*
X31830000Y56110000D03*
X31830000Y53570000D03*
X31830000Y51030000D03*
X31830000Y48490000D03*
%TD*%
%TO.C,J1*%
X76780000Y13970000D03*
X76780000Y11430000D03*
X76780000Y8890000D03*
X76780000Y6350000D03*
X76780000Y3810000D03*
X76780000Y1270000D03*
%TD*%
%TO.C,J1*%
X76780000Y29710000D03*
X76780000Y27170000D03*
X76780000Y24630000D03*
X76780000Y22090000D03*
X76780000Y19550000D03*
X76780000Y17010000D03*
%TD*%
%TO.C,J1*%
X31830000Y92670000D03*
X31830000Y90130000D03*
X31830000Y87590000D03*
X31830000Y85050000D03*
X31830000Y82510000D03*
X31830000Y79970000D03*
%TD*%
%TO.C,J1*%
X76780000Y45450000D03*
X76780000Y42910000D03*
X76780000Y40370000D03*
X76780000Y37830000D03*
X76780000Y35290000D03*
X76780000Y32750000D03*
%TD*%
%TO.C,J1*%
X76780000Y61190000D03*
X76780000Y58650000D03*
X76780000Y56110000D03*
X76780000Y53570000D03*
X76780000Y51030000D03*
X76780000Y48490000D03*
%TD*%
%TO.C,J1*%
X76780000Y92670000D03*
X76780000Y90130000D03*
X76780000Y87590000D03*
X76780000Y85050000D03*
X76780000Y82510000D03*
X76780000Y79970000D03*
%TD*%
%TO.C,J1*%
X121730000Y13970000D03*
X121730000Y11430000D03*
X121730000Y8890000D03*
X121730000Y6350000D03*
X121730000Y3810000D03*
X121730000Y1270000D03*
%TD*%
%TO.C,J1*%
X121730000Y45450000D03*
X121730000Y42910000D03*
X121730000Y40370000D03*
X121730000Y37830000D03*
X121730000Y35290000D03*
X121730000Y32750000D03*
%TD*%
%TO.C,J1*%
X121730000Y76930000D03*
X121730000Y74390000D03*
X121730000Y71850000D03*
X121730000Y69310000D03*
X121730000Y66770000D03*
X121730000Y64230000D03*
%TD*%
%TO.C,J1*%
X31830000Y13970000D03*
X31830000Y11430000D03*
X31830000Y8890000D03*
X31830000Y6350000D03*
X31830000Y3810000D03*
X31830000Y1270000D03*
%TD*%
M02*
