M48
; DRILL file {KiCad 7.0.6} date Sun Nov 19 12:44:14 2023
; FORMAT={-:-/ absolute / metric / decimal}
; #@! TF.CreationDate,2023-11-19T12:44:14-07:00
; #@! TF.GenerationSoftware,Kicad,Pcbnew,7.0.6
; #@! TF.FileFunction,MixedPlating,1,2
FMAT,2
METRIC
; #@! TA.AperFunction,Plated,PTH,ViaDrill
T1C0.300
; #@! TA.AperFunction,Plated,PTH,ViaDrill
T2C0.305
; #@! TA.AperFunction,Plated,PTH,ComponentDrill
T3C0.950
; #@! TA.AperFunction,NonPlated,NPTH,ComponentDrill
T4C1.400
%
G90
G05
T1
X20.701Y92.67
X20.701Y76.93
X20.701Y61.19
X20.701Y45.45
X20.701Y29.71
X20.701Y13.97
X20.955Y88.987
X20.955Y73.247
X20.955Y57.507
X20.955Y41.767
X20.955Y26.027
X20.955Y10.287
X24.003Y91.4
X24.003Y75.66
X24.003Y59.92
X24.003Y44.18
X24.003Y28.44
X24.003Y12.7
X65.651Y92.67
X65.651Y76.93
X65.651Y61.19
X65.651Y45.45
X65.651Y29.71
X65.651Y13.97
X65.905Y88.987
X65.905Y73.247
X65.905Y57.507
X65.905Y41.767
X65.905Y26.027
X65.905Y10.287
X68.953Y91.4
X68.953Y75.66
X68.953Y59.92
X68.953Y44.18
X68.953Y28.44
X68.953Y12.7
X110.601Y92.67
X110.601Y76.93
X110.601Y61.19
X110.601Y45.45
X110.601Y29.71
X110.601Y13.97
X110.855Y88.987
X110.855Y73.247
X110.855Y57.507
X110.855Y41.767
X110.855Y26.027
X110.855Y10.287
X113.903Y91.4
X113.903Y75.66
X113.903Y59.92
X113.903Y44.18
X113.903Y28.44
X113.903Y12.7
T2
X7.366Y93.432
X7.366Y77.692
X7.366Y61.952
X7.366Y46.212
X7.366Y30.472
X7.366Y14.732
X7.747Y88.352
X7.747Y87.08
X7.747Y82.891
X7.747Y81.621
X7.747Y72.612
X7.747Y71.34
X7.747Y67.151
X7.747Y65.881
X7.747Y56.872
X7.747Y55.6
X7.747Y51.411
X7.747Y50.141
X7.747Y41.132
X7.747Y39.86
X7.747Y35.671
X7.747Y34.401
X7.747Y25.392
X7.747Y24.12
X7.747Y19.931
X7.747Y18.661
X7.747Y9.652
X7.747Y8.38
X7.747Y4.191
X7.747Y2.921
X8.382Y89.876
X8.382Y74.136
X8.382Y58.396
X8.382Y42.656
X8.382Y26.916
X8.382Y11.176
X8.86Y81.78
X8.86Y66.04
X8.86Y50.3
X8.86Y34.56
X8.86Y18.82
X8.86Y3.08
X9.06Y90.48
X9.06Y74.74
X9.06Y59.0
X9.06Y43.26
X9.06Y27.52
X9.06Y11.78
X9.271Y82.891
X9.271Y67.151
X9.271Y51.411
X9.271Y35.671
X9.271Y19.931
X9.271Y4.191
X9.906Y79.335
X9.906Y63.595
X9.906Y47.855
X9.906Y32.115
X9.906Y16.375
X9.906Y0.635
X9.96Y89.58
X9.96Y73.84
X9.96Y58.1
X9.96Y42.36
X9.96Y26.62
X9.96Y10.88
X10.661Y90.264
X10.661Y74.524
X10.661Y58.784
X10.661Y43.044
X10.661Y27.304
X10.661Y11.564
X11.303Y82.891
X11.303Y67.151
X11.303Y51.411
X11.303Y35.671
X11.303Y19.931
X11.303Y4.191
X13.208Y82.764
X13.208Y67.024
X13.208Y51.284
X13.208Y35.544
X13.208Y19.804
X13.208Y4.064
X14.605Y90.009
X14.605Y74.269
X14.605Y58.529
X14.605Y42.789
X14.605Y27.049
X14.605Y11.309
X15.16Y83.48
X15.16Y67.74
X15.16Y52.0
X15.16Y36.26
X15.16Y20.52
X15.16Y4.78
X15.24Y89.495
X15.24Y86.32
X15.24Y73.755
X15.24Y70.58
X15.24Y58.015
X15.24Y54.84
X15.24Y42.275
X15.24Y39.1
X15.24Y26.535
X15.24Y23.36
X15.24Y10.795
X15.24Y7.62
X17.145Y92.289
X17.145Y89.495
X17.145Y82.51
X17.145Y76.549
X17.145Y73.755
X17.145Y66.77
X17.145Y60.809
X17.145Y58.015
X17.145Y51.03
X17.145Y45.069
X17.145Y42.275
X17.145Y35.29
X17.145Y29.329
X17.145Y26.535
X17.145Y19.55
X17.145Y13.589
X17.145Y10.795
X17.145Y3.81
X17.281Y85.862
X17.281Y70.122
X17.281Y54.382
X17.281Y38.642
X17.281Y22.902
X17.281Y7.162
X17.287Y83.307
X17.287Y67.567
X17.287Y51.827
X17.287Y36.087
X17.287Y20.347
X17.287Y4.607
X17.78Y81.28
X17.78Y65.54
X17.78Y49.8
X17.78Y34.06
X17.78Y18.32
X17.78Y2.58
X18.16Y91.68
X18.16Y75.94
X18.16Y60.2
X18.16Y44.46
X18.16Y28.72
X18.16Y12.98
X19.812Y87.336
X19.812Y71.596
X19.812Y55.856
X19.812Y40.116
X19.812Y24.376
X19.812Y8.636
X22.352Y83.526
X22.352Y67.786
X22.352Y52.046
X22.352Y36.306
X22.352Y20.566
X22.352Y4.826
X24.13Y88.86
X24.13Y86.28
X24.13Y73.12
X24.13Y70.54
X24.13Y57.38
X24.13Y54.8
X24.13Y41.64
X24.13Y39.06
X24.13Y25.9
X24.13Y23.32
X24.13Y10.16
X24.13Y7.58
X25.781Y79.208
X25.781Y63.468
X25.781Y47.728
X25.781Y31.988
X25.781Y16.248
X25.781Y0.508
X25.908Y83.272
X25.908Y67.532
X25.908Y51.792
X25.908Y36.052
X25.908Y20.312
X25.908Y4.572
X26.289Y88.987
X26.289Y73.247
X26.289Y57.507
X26.289Y41.767
X26.289Y26.027
X26.289Y10.287
X26.924Y83.872
X26.924Y68.132
X26.924Y52.392
X26.924Y36.652
X26.924Y20.912
X26.924Y5.172
X31.877Y86.193
X31.877Y70.453
X31.877Y54.713
X31.877Y38.973
X31.877Y23.233
X31.877Y7.493
X33.02Y91.16
X33.02Y75.42
X33.02Y59.68
X33.02Y43.94
X33.02Y28.2
X33.02Y12.46
X33.782Y79.97
X33.782Y64.23
X33.782Y48.49
X33.782Y32.75
X33.782Y17.01
X33.782Y1.27
X34.29Y91.273
X34.29Y83.78
X34.29Y75.533
X34.29Y68.04
X34.29Y59.793
X34.29Y52.3
X34.29Y44.053
X34.29Y36.56
X34.29Y28.313
X34.29Y20.82
X34.29Y12.573
X34.29Y5.08
X52.316Y93.432
X52.316Y77.692
X52.316Y61.952
X52.316Y46.212
X52.316Y30.472
X52.316Y14.732
X52.697Y88.352
X52.697Y87.08
X52.697Y82.891
X52.697Y81.621
X52.697Y72.612
X52.697Y71.34
X52.697Y67.151
X52.697Y65.881
X52.697Y56.872
X52.697Y55.6
X52.697Y51.411
X52.697Y50.141
X52.697Y41.132
X52.697Y39.86
X52.697Y35.671
X52.697Y34.401
X52.697Y25.392
X52.697Y24.12
X52.697Y19.931
X52.697Y18.661
X52.697Y9.652
X52.697Y8.38
X52.697Y4.191
X52.697Y2.921
X53.332Y89.876
X53.332Y74.136
X53.332Y58.396
X53.332Y42.656
X53.332Y26.916
X53.332Y11.176
X53.81Y81.78
X53.81Y66.04
X53.81Y50.3
X53.81Y34.56
X53.81Y18.82
X53.81Y3.08
X54.01Y90.48
X54.01Y74.74
X54.01Y59.0
X54.01Y43.26
X54.01Y27.52
X54.01Y11.78
X54.221Y82.891
X54.221Y67.151
X54.221Y51.411
X54.221Y35.671
X54.221Y19.931
X54.221Y4.191
X54.856Y79.335
X54.856Y63.595
X54.856Y47.855
X54.856Y32.115
X54.856Y16.375
X54.856Y0.635
X54.91Y89.58
X54.91Y73.84
X54.91Y58.1
X54.91Y42.36
X54.91Y26.62
X54.91Y10.88
X55.611Y90.264
X55.611Y74.524
X55.611Y58.784
X55.611Y43.044
X55.611Y27.304
X55.611Y11.564
X56.253Y82.891
X56.253Y67.151
X56.253Y51.411
X56.253Y35.671
X56.253Y19.931
X56.253Y4.191
X58.158Y82.764
X58.158Y67.024
X58.158Y51.284
X58.158Y35.544
X58.158Y19.804
X58.158Y4.064
X59.555Y90.009
X59.555Y74.269
X59.555Y58.529
X59.555Y42.789
X59.555Y27.049
X59.555Y11.309
X60.11Y83.48
X60.11Y67.74
X60.11Y52.0
X60.11Y36.26
X60.11Y20.52
X60.11Y4.78
X60.19Y89.495
X60.19Y86.32
X60.19Y73.755
X60.19Y70.58
X60.19Y58.015
X60.19Y54.84
X60.19Y42.275
X60.19Y39.1
X60.19Y26.535
X60.19Y23.36
X60.19Y10.795
X60.19Y7.62
X62.095Y92.289
X62.095Y89.495
X62.095Y82.51
X62.095Y76.549
X62.095Y73.755
X62.095Y66.77
X62.095Y60.809
X62.095Y58.015
X62.095Y51.03
X62.095Y45.069
X62.095Y42.275
X62.095Y35.29
X62.095Y29.329
X62.095Y26.535
X62.095Y19.55
X62.095Y13.589
X62.095Y10.795
X62.095Y3.81
X62.231Y85.862
X62.231Y70.122
X62.231Y54.382
X62.231Y38.642
X62.231Y22.902
X62.231Y7.162
X62.237Y83.307
X62.237Y67.567
X62.237Y51.827
X62.237Y36.087
X62.237Y20.347
X62.237Y4.607
X62.73Y81.28
X62.73Y65.54
X62.73Y49.8
X62.73Y34.06
X62.73Y18.32
X62.73Y2.58
X63.11Y91.68
X63.11Y75.94
X63.11Y60.2
X63.11Y44.46
X63.11Y28.72
X63.11Y12.98
X64.762Y87.336
X64.762Y71.596
X64.762Y55.856
X64.762Y40.116
X64.762Y24.376
X64.762Y8.636
X67.302Y83.526
X67.302Y67.786
X67.302Y52.046
X67.302Y36.306
X67.302Y20.566
X67.302Y4.826
X69.08Y88.86
X69.08Y86.28
X69.08Y73.12
X69.08Y70.54
X69.08Y57.38
X69.08Y54.8
X69.08Y41.64
X69.08Y39.06
X69.08Y25.9
X69.08Y23.32
X69.08Y10.16
X69.08Y7.58
X70.731Y79.208
X70.731Y63.468
X70.731Y47.728
X70.731Y31.988
X70.731Y16.248
X70.731Y0.508
X70.858Y83.272
X70.858Y67.532
X70.858Y51.792
X70.858Y36.052
X70.858Y20.312
X70.858Y4.572
X71.239Y88.987
X71.239Y73.247
X71.239Y57.507
X71.239Y41.767
X71.239Y26.027
X71.239Y10.287
X71.874Y83.872
X71.874Y68.132
X71.874Y52.392
X71.874Y36.652
X71.874Y20.912
X71.874Y5.172
X76.827Y86.193
X76.827Y70.453
X76.827Y54.713
X76.827Y38.973
X76.827Y23.233
X76.827Y7.493
X77.97Y91.16
X77.97Y75.42
X77.97Y59.68
X77.97Y43.94
X77.97Y28.2
X77.97Y12.46
X78.732Y79.97
X78.732Y64.23
X78.732Y48.49
X78.732Y32.75
X78.732Y17.01
X78.732Y1.27
X79.24Y91.273
X79.24Y83.78
X79.24Y75.533
X79.24Y68.04
X79.24Y59.793
X79.24Y52.3
X79.24Y44.053
X79.24Y36.56
X79.24Y28.313
X79.24Y20.82
X79.24Y12.573
X79.24Y5.08
X97.266Y93.432
X97.266Y77.692
X97.266Y61.952
X97.266Y46.212
X97.266Y30.472
X97.266Y14.732
X97.647Y88.352
X97.647Y87.08
X97.647Y82.891
X97.647Y81.621
X97.647Y72.612
X97.647Y71.34
X97.647Y67.151
X97.647Y65.881
X97.647Y56.872
X97.647Y55.6
X97.647Y51.411
X97.647Y50.141
X97.647Y41.132
X97.647Y39.86
X97.647Y35.671
X97.647Y34.401
X97.647Y25.392
X97.647Y24.12
X97.647Y19.931
X97.647Y18.661
X97.647Y9.652
X97.647Y8.38
X97.647Y4.191
X97.647Y2.921
X98.282Y89.876
X98.282Y74.136
X98.282Y58.396
X98.282Y42.656
X98.282Y26.916
X98.282Y11.176
X98.76Y81.78
X98.76Y66.04
X98.76Y50.3
X98.76Y34.56
X98.76Y18.82
X98.76Y3.08
X98.96Y90.48
X98.96Y74.74
X98.96Y59.0
X98.96Y43.26
X98.96Y27.52
X98.96Y11.78
X99.171Y82.891
X99.171Y67.151
X99.171Y51.411
X99.171Y35.671
X99.171Y19.931
X99.171Y4.191
X99.806Y79.335
X99.806Y63.595
X99.806Y47.855
X99.806Y32.115
X99.806Y16.375
X99.806Y0.635
X99.86Y89.58
X99.86Y73.84
X99.86Y58.1
X99.86Y42.36
X99.86Y26.62
X99.86Y10.88
X100.561Y90.264
X100.561Y74.524
X100.561Y58.784
X100.561Y43.044
X100.561Y27.304
X100.561Y11.564
X101.203Y82.891
X101.203Y67.151
X101.203Y51.411
X101.203Y35.671
X101.203Y19.931
X101.203Y4.191
X103.108Y82.764
X103.108Y67.024
X103.108Y51.284
X103.108Y35.544
X103.108Y19.804
X103.108Y4.064
X104.505Y90.009
X104.505Y74.269
X104.505Y58.529
X104.505Y42.789
X104.505Y27.049
X104.505Y11.309
X105.06Y83.48
X105.06Y67.74
X105.06Y52.0
X105.06Y36.26
X105.06Y20.52
X105.06Y4.78
X105.14Y89.495
X105.14Y86.32
X105.14Y73.755
X105.14Y70.58
X105.14Y58.015
X105.14Y54.84
X105.14Y42.275
X105.14Y39.1
X105.14Y26.535
X105.14Y23.36
X105.14Y10.795
X105.14Y7.62
X107.045Y92.289
X107.045Y89.495
X107.045Y82.51
X107.045Y76.549
X107.045Y73.755
X107.045Y66.77
X107.045Y60.809
X107.045Y58.015
X107.045Y51.03
X107.045Y45.069
X107.045Y42.275
X107.045Y35.29
X107.045Y29.329
X107.045Y26.535
X107.045Y19.55
X107.045Y13.589
X107.045Y10.795
X107.045Y3.81
X107.181Y85.862
X107.181Y70.122
X107.181Y54.382
X107.181Y38.642
X107.181Y22.902
X107.181Y7.162
X107.187Y83.307
X107.187Y67.567
X107.187Y51.827
X107.187Y36.087
X107.187Y20.347
X107.187Y4.607
X107.68Y81.28
X107.68Y65.54
X107.68Y49.8
X107.68Y34.06
X107.68Y18.32
X107.68Y2.58
X108.06Y91.68
X108.06Y75.94
X108.06Y60.2
X108.06Y44.46
X108.06Y28.72
X108.06Y12.98
X109.712Y87.336
X109.712Y71.596
X109.712Y55.856
X109.712Y40.116
X109.712Y24.376
X109.712Y8.636
X112.252Y83.526
X112.252Y67.786
X112.252Y52.046
X112.252Y36.306
X112.252Y20.566
X112.252Y4.826
X114.03Y88.86
X114.03Y86.28
X114.03Y73.12
X114.03Y70.54
X114.03Y57.38
X114.03Y54.8
X114.03Y41.64
X114.03Y39.06
X114.03Y25.9
X114.03Y23.32
X114.03Y10.16
X114.03Y7.58
X115.681Y79.208
X115.681Y63.468
X115.681Y47.728
X115.681Y31.988
X115.681Y16.248
X115.681Y0.508
X115.808Y83.272
X115.808Y67.532
X115.808Y51.792
X115.808Y36.052
X115.808Y20.312
X115.808Y4.572
X116.189Y88.987
X116.189Y73.247
X116.189Y57.507
X116.189Y41.767
X116.189Y26.027
X116.189Y10.287
X116.824Y83.872
X116.824Y68.132
X116.824Y52.392
X116.824Y36.652
X116.824Y20.912
X116.824Y5.172
X121.777Y86.193
X121.777Y70.453
X121.777Y54.713
X121.777Y38.973
X121.777Y23.233
X121.777Y7.493
X122.92Y91.16
X122.92Y75.42
X122.92Y59.68
X122.92Y43.94
X122.92Y28.2
X122.92Y12.46
X123.682Y79.97
X123.682Y64.23
X123.682Y48.49
X123.682Y32.75
X123.682Y17.01
X123.682Y1.27
X124.19Y91.273
X124.19Y83.78
X124.19Y75.533
X124.19Y68.04
X124.19Y59.793
X124.19Y52.3
X124.19Y44.053
X124.19Y36.56
X124.19Y28.313
X124.19Y20.82
X124.19Y12.573
X124.19Y5.08
T3
X21.59Y79.97
X21.59Y64.23
X21.59Y48.49
X21.59Y32.75
X21.59Y17.01
X21.59Y1.27
X66.54Y79.97
X66.54Y64.23
X66.54Y48.49
X66.54Y32.75
X66.54Y17.01
X66.54Y1.27
X111.49Y79.97
X111.49Y64.23
X111.49Y48.49
X111.49Y32.75
X111.49Y17.01
X111.49Y1.27
T4
X36.83Y91.4
X36.83Y81.24
X36.83Y75.66
X36.83Y65.5
X36.83Y59.92
X36.83Y49.76
X36.83Y44.18
X36.83Y34.02
X36.83Y28.44
X36.83Y18.28
X36.83Y12.7
X36.83Y2.54
X81.78Y91.4
X81.78Y81.24
X81.78Y75.66
X81.78Y65.5
X81.78Y59.92
X81.78Y49.76
X81.78Y44.18
X81.78Y34.02
X81.78Y28.44
X81.78Y18.28
X81.78Y12.7
X81.78Y2.54
X126.73Y91.4
X126.73Y81.24
X126.73Y75.66
X126.73Y65.5
X126.73Y59.92
X126.73Y49.76
X126.73Y44.18
X126.73Y34.02
X126.73Y28.44
X126.73Y18.28
X126.73Y12.7
X126.73Y2.54
T0
M30
