<svg xmlns="http://www.w3.org/2000/svg" width="108" height="48" fill="currentColor" viewBox="0 0 108 48"><path d="M48.993 21.204c-1.16 0-2.383-1.171-2.383-2.382V10.11c0-1.213 1.222-2.382 2.383-2.382h13.012c1.16 0 2.38 1.17 2.38 2.381v1.936h-6.99s0-1.24-1.897-1.24-1.936 1.394-1.936 1.394v4.802s.02 1.55 1.956 1.55c1.937 0 1.956-1.705 1.956-1.705v-.948h-1.878v-2.323h8.85v7.629h-6.41l-.659-1.124s-.699 1.124-1.782 1.124h-6.602v-.001ZM67.424 21.203V7.727h17.039s2.671.233 2.671 2.517v3.215c0 2.283-2.671 2.517-2.671 2.517h-1.357l4.261 5.228h-8.714l-4.047-4.666v4.666h-7.182v-.001Zm10.436-6.99s1.395-.174 1.395-1.86c0-1.684-1.395-1.857-1.395-1.857h-3.254v3.717h3.254ZM107.579 18.762c0 1.213-1.219 2.381-2.38 2.381l-.6.059H92.381c-1.163 0-2.382-1.17-2.382-2.382v-8.712c0-1.211 1.22-2.381 2.382-2.381h12.799c1.161 0 2.399 1.17 2.399 2.38v8.655Zm-6.759-6.404s-.036-1.688-1.932-1.688c-1.899 0-1.936 1.82-1.936 1.82V17s.018 1.55 1.955 1.55c1.936 0 1.918-1.704 1.918-1.704l-.005-4.488ZM16.096 0H32.61v4.125H21.633c-.387 0-.793.368-.793.795v2.806h11.946v8.966s.078 1.878 1.781 1.878c1.705 0 1.782-1.878 1.782-1.878V7.726h6.97l-.02 11.076c0 1.213-1.22 2.4-2.382 2.4H28.023c-1.16 0-2.382-1.17-2.382-2.38v-8.016h-4.764V41.94L17.295 48l-3.562-6.06V10.805H.42V7.728h13.293V2.383C13.713 1.17 14.819 0 15.978 0"></path></svg>