<?xml version="1.0" encoding="UTF-8" standalone="no"?>
<svg
   viewBox="0 0 27.710998 31.999999"
   height="32"
   width="27.710999"
   xml:space="preserve"
   id="svg2"
   version="1.1"
   xmlns="http://www.w3.org/2000/svg"
   xmlns:svg="http://www.w3.org/2000/svg"
   xmlns:rdf="http://www.w3.org/1999/02/22-rdf-syntax-ns#"
   xmlns:cc="http://creativecommons.org/ns#"
   xmlns:dc="http://purl.org/dc/elements/1.1/"><metadata
     id="metadata8"><rdf:RDF><cc:Work
         rdf:about=""><dc:format>image/svg+xml</dc:format><dc:type
           rdf:resource="http://purl.org/dc/dcmitype/StillImage" /></cc:Work></rdf:RDF></metadata><defs
     id="defs6" /><g
     id="g2"
     transform="matrix(0.2739342,0,0,0.27393102,-8.4181766e-8,0.00120541)"><path
       id="path28"
       style="fill:#8cd4db;fill-opacity:1;fill-rule:nonzero;stroke:none;stroke-width:0.133333"
       d="m 0,87.604931 h 33.718266 l -8.4308,-14.598933 z" /><path
       id="path30"
       style="fill:#8cd4db;fill-opacity:1;fill-rule:nonzero;stroke:none;stroke-width:0.133333"
       d="M 67.440665,87.604931 101.15786,29.201332 50.578665,58.403998 v 29.200933 h 16.862" /><path
       id="path32"
       style="fill:#9cd750;fill-opacity:1;fill-rule:nonzero;stroke:none;stroke-width:0.133333"
       d="M 50.578665,116.81333 101.15933,87.604931 H 67.440665 Z" /><path
       id="path34"
       style="fill:#9cd750;fill-opacity:1;fill-rule:nonzero;stroke:none;stroke-width:0.133333"
       d="m 25.287466,73.005998 25.291199,-14.602 V -0.00440041 L 16.857333,58.403998 l 8.430133,14.602" /><path
       id="path36"
       style="fill:#9cd750;fill-opacity:1;fill-rule:nonzero;stroke:none;stroke-width:0.133333"
       d="M 33.718266,87.604931 50.578665,116.81333 V 87.604931 Z" /><path
       id="path38"
       style="fill:#8cd4db;fill-opacity:1;fill-rule:nonzero;stroke:none;stroke-width:0.133333"
       d="M 0,29.198799 V 87.604931 L 16.857333,58.403998 Z" /><path
       id="path40"
       style="fill:#3c98be;fill-opacity:1;fill-rule:nonzero;stroke:none;stroke-width:0.133333"
       d="M 101.15786,29.201332 67.440665,87.604931 H 101.15933 V 29.201332 h -10e-4" /><path
       id="path42"
       style="fill:#3c98be;fill-opacity:1;fill-rule:nonzero;stroke:none;stroke-width:0.133333"
       d="m 50.578665,58.403998 -25.291199,14.602 8.4308,14.598933 H 50.578665 V 58.403998" /><path
       id="path44"
       style="fill:#3c98be;fill-opacity:1;fill-rule:nonzero;stroke:none;stroke-width:0.133333"
       d="M 50.578665,-0.00440041 0,29.198799 16.857333,58.403998 Z" /></g></svg>
