<?xml version="1.0" encoding="UTF-8" standalone="no"?>
<svg
   viewBox="0 0 378.82666 116.81333"
   height="116.81333"
   width="378.82666"
   xml:space="preserve"
   id="svg2"
   version="1.1"
   xmlns="http://www.w3.org/2000/svg"
   xmlns:svg="http://www.w3.org/2000/svg"
   xmlns:rdf="http://www.w3.org/1999/02/22-rdf-syntax-ns#"
   xmlns:cc="http://creativecommons.org/ns#"
   xmlns:dc="http://purl.org/dc/elements/1.1/"><metadata
     id="metadata8"><rdf:RDF><cc:Work
         rdf:about=""><dc:format>image/svg+xml</dc:format><dc:type
           rdf:resource="http://purl.org/dc/dcmitype/StillImage" /></cc:Work></rdf:RDF></metadata><defs
     id="defs6" /><g
     id="g1"><path
       id="path14"
       style="fill:#000000;fill-opacity:1;fill-rule:nonzero;stroke:none;stroke-width:0.133333"
       d="M 153.38533,78.690931 V 61.360265 h -16.32 v 17.330666 h -7.23667 l 0.002,-39.771866 h 7.23507 v 15.542667 h 16.32 V 38.919065 h 7.23733 v 39.771866 h -7.23733" /><path
       id="path16"
       style="fill:#000000;fill-opacity:1;fill-rule:nonzero;stroke:none;stroke-width:0.133333"
       d="M 168.17466,78.690931 V 38.919065 h 27.144 v 6.564533 H 175.4 v 9.259467 h 17.39333 v 6.504133 H 175.4 v 10.878666 h 19.916 v 6.565067 h -27.14134" /><path
       id="path18"
       style="fill:#000000;fill-opacity:1;fill-rule:nonzero;stroke:none;stroke-width:0.133333"
       d="m 224.55066,78.690931 -8.908,-14.4688 -8.924,14.4688 H 198.928 L 211.43066,58.440398 199.03733,38.919065 h 7.904 l 8.92,13.921333 8.644,-13.921333 h 7.85333 l -12.22933,19.582266 12.388,20.1896 h -7.96667" /><path
       id="path20"
       style="fill:#000000;fill-opacity:1;fill-rule:nonzero;stroke:none;stroke-width:0.133333"
       d="m 250.73066,47.786265 -5.664,16.777066 h 11.328 z m 10.492,30.904666 -2.58533,-7.626 h -15.81334 l -2.57733,7.626 h -7.292 l 13.96267,-39.771866 h 7.90666 l 13.964,39.771866 h -7.56533" /><path
       id="path22"
       style="fill:#000000;fill-opacity:1;fill-rule:nonzero;stroke:none;stroke-width:0.133333"
       d="m 301.38666,78.690931 -4.19333,-4.3776 c -1.18267,2.307333 -4.992,5.052133 -9.988,5.107867 -4.592,0.05613 -8.692,-1.118267 -11.83734,-4.4344 -4.14133,-4.316667 -5.15733,-9.647467 -5.15733,-16.152667 0,-6.506799 0.84533,-11.663466 5.16,-15.980132 3.032,-3.028134 7.57067,-4.664667 11.83467,-4.664667 4.884,0 9.08666,1.8032 11.78,4.551067 1.96666,2.013599 3.42,4.546399 3.64666,8.023466 h -7.40933 c -0.112,-1.576 -0.888,-2.631733 -1.73333,-3.6516 -1.4,-1.628667 -3.58667,-2.412933 -6.33467,-2.412933 -2.304,0 -4.95067,1.013466 -6.516,2.690533 -2.74,2.862533 -3.07733,7.802667 -3.07733,11.444266 0,3.648534 0.39066,8.752667 3.13466,11.614667 1.57867,1.677066 4.15467,2.5244 6.45867,2.5244 2.57333,0 4.59467,-0.899467 5.94667,-2.303067 2.12133,-2.242266 2.576,-4.7068 2.576,-7.742266 h -9.48134 v -6.004134 h 16.49334 v 21.7672 h -1.30267" /><path
       id="path24"
       style="fill:#000000;fill-opacity:1;fill-rule:nonzero;stroke:none;stroke-width:0.133333"
       d="m 331.29866,47.389865 c -1.576,-1.677067 -3.99467,-2.635867 -6.29333,-2.635867 -2.28934,0 -4.71734,0.9588 -6.28,2.635867 -2.74,2.862533 -2.86267,7.802667 -2.86267,11.444266 0,3.648534 0.12267,8.528667 2.86267,11.388 1.56266,1.6876 3.99066,2.637067 6.28,2.637067 2.29866,0 4.71733,-0.949467 6.29333,-2.637067 2.74133,-2.859333 2.85866,-7.739466 2.85866,-11.388 0,-3.641599 -0.11733,-8.581733 -2.85866,-11.444266 z m 5.14933,27.544266 c -3.03067,3.030267 -7.17866,4.487067 -11.44266,4.487067 -4.252,0 -8.408,-1.4568 -11.44,-4.487067 -4.32134,-4.322933 -5.05067,-9.5948 -5.05067,-16.1 0,-6.506799 0.72933,-11.837999 5.05067,-16.152532 3.032,-3.0292 7.188,-4.492267 11.44,-4.492267 4.264,0 8.41199,1.463067 11.44266,4.492267 4.31867,4.314533 5.05333,9.645733 5.05333,16.152532 0,6.5052 -0.73466,11.777067 -5.05333,16.1" /><path
       id="path26"
       style="fill:#000000;fill-opacity:1;fill-rule:nonzero;stroke:none;stroke-width:0.133333"
       d="m 371.37199,78.690931 -17.22,-27.315599 v 27.315599 h -7.124 V 38.919065 h 7.68 l 16.996,26.924 v -26.924 h 7.12267 v 39.771866 h -7.45467" /></g><g
     id="g2"><path
       id="path28"
       style="fill:#8cd4db;fill-opacity:1;fill-rule:nonzero;stroke:none;stroke-width:0.133333"
       d="m 0,87.604931 h 33.718266 l -8.4308,-14.598933 z" /><path
       id="path30"
       style="fill:#8cd4db;fill-opacity:1;fill-rule:nonzero;stroke:none;stroke-width:0.133333"
       d="M 67.440665,87.604931 101.15786,29.201332 50.578665,58.403998 v 29.200933 h 16.862" /><path
       id="path32"
       style="fill:#9cd750;fill-opacity:1;fill-rule:nonzero;stroke:none;stroke-width:0.133333"
       d="M 50.578665,116.81333 101.15933,87.604931 H 67.440665 Z" /><path
       id="path34"
       style="fill:#9cd750;fill-opacity:1;fill-rule:nonzero;stroke:none;stroke-width:0.133333"
       d="m 25.287466,73.005998 25.291199,-14.602 V -0.00440041 L 16.857333,58.403998 l 8.430133,14.602" /><path
       id="path36"
       style="fill:#9cd750;fill-opacity:1;fill-rule:nonzero;stroke:none;stroke-width:0.133333"
       d="M 33.718266,87.604931 50.578665,116.81333 V 87.604931 Z" /><path
       id="path38"
       style="fill:#8cd4db;fill-opacity:1;fill-rule:nonzero;stroke:none;stroke-width:0.133333"
       d="M 0,29.198799 V 87.604931 L 16.857333,58.403998 Z" /><path
       id="path40"
       style="fill:#3c98be;fill-opacity:1;fill-rule:nonzero;stroke:none;stroke-width:0.133333"
       d="M 101.15786,29.201332 67.440665,87.604931 H 101.15933 V 29.201332 h -10e-4" /><path
       id="path42"
       style="fill:#3c98be;fill-opacity:1;fill-rule:nonzero;stroke:none;stroke-width:0.133333"
       d="m 50.578665,58.403998 -25.291199,14.602 8.4308,14.598933 H 50.578665 V 58.403998" /><path
       id="path44"
       style="fill:#3c98be;fill-opacity:1;fill-rule:nonzero;stroke:none;stroke-width:0.133333"
       d="M 50.578665,-0.00440041 0,29.198799 16.857333,58.403998 Z" /></g></svg>
