<svg xmlns="http://www.w3.org/2000/svg" viewBox="0 0 397.935 117.235"><path fill="currentColor" d="M202.705 36.84c-.523.21-.51.14-.777 4.243-.248 3.819-.598 5.886-1.068 6.308-.322.288-2.537.776-3.528.776-.375 0-.903.114-1.174.254l-.491.254v1.663c0 2.324.005 2.329 2.829 2.329h2.162l.254.491c.221.428.255 2.06.255 12.479 0 10.236.036 12.091.25 12.697.138.39.327 1.187.42 1.771.281 1.762 2.445 4.878 3.397 4.893.083.001.561.196 1.063.434 1.045.494 6.831.573 7.657.105.204-.116.763-.285 1.244-.376 1.37-.26 1.432-.513.774-3.161-.474-1.908-.257-1.784-3.268-1.86-3.466-.089-4.528-.697-4.979-2.852-.421-2.006-.314-23.866.119-24.298.328-.329.512-.343 4.208-.322 2.125.011 3.949.016 4.053.01.573-.034.809-4.332.267-4.873-.162-.162-1.134-.199-4.132-.16-3.384.045-3.975.015-4.33-.217l-.41-.269V36.992l-.428-.163c-.533-.203-3.856-.195-4.367.011m94.98.055c-.104.125-.266 1.039-.36 2.031-.094.992-.24 2.111-.324 2.486-.084.376-.235 1.73-.334 3.01-.258 3.31-.427 3.465-4.007 3.697-1.994.129-2.043.188-1.968 2.364.079 2.271.082 2.274 2.53 2.207 1.953-.054 3.103.195 3.118.676.004.12.003 4.98-.002 10.801-.012 12.214.122 15.275.723 16.562.22.47.456 1.042.526 1.271.325 1.071 1.767 2.483 3.315 3.248l1.184.585h2.839c2.084 0 3.102-.071 3.832-.268a79.584 79.584 0 0 1 1.558-.404c1.032-.249 1.071-.371.838-2.597-.26-2.48-.018-2.299-3.202-2.4-3.2-.101-3.808-.338-4.802-1.874l-.566-.873-.048-12c-.042-10.315-.015-12.047.194-12.334.231-.316.47-.336 4.6-.387l4.355-.054.158-.415c.179-.47.185-3.425.009-4.06l-.115-.417-4.382-.083c-4.092-.078-4.397-.105-4.618-.407-.191-.262-.236-1.261-.236-5.259 0-3.615-.053-4.988-.2-5.134-.3-.301-4.363-.276-4.615.028m-196.814 10.28c-1.105.189-2.067.45-2.334.634-.249.172-.684.455-.966.627-1.733 1.061-2.712 3.179-2.949 6.377-.218 2.929.03 6.345.531 7.326.191.375.347.786.347.914 0 1.382 4.144 4.209 6.868 4.685.34.059.826.216 1.081.348.254.132.876.321 1.382.42a10.96 10.96 0 0 1 1.669.485c.412.168 1.286.426 1.942.572.655.147 1.405.38 1.666.518a6.12 6.12 0 0 0 1.156.417c.468.115.995.465 1.69 1.126l1.009.959.194 1.371c.51 3.617-.5 5.717-3.022 6.282-2.737.613-8.507.748-13.909.325-1.655-.13-1.656-.129-1.975 2.324-.248 1.905-.2 2.018.916 2.199.32.052 1.024.207 1.564.345 2.715.696 14.786.788 16.275.125.415-.185 1.02-.386 1.344-.447 1.089-.204 3.65-2.165 3.65-2.795 0-.097.145-.36.321-.585 1.575-2.002 1.444-10.029-.209-12.774-.794-1.32-3.272-3.286-4.139-3.286-.13 0-.522-.146-.871-.324-.349-.178-1.162-.444-1.807-.59-.645-.147-1.414-.368-1.708-.491-.295-.123-1.082-.348-1.75-.5-.667-.152-1.41-.375-1.65-.497-.24-.121-1.017-.348-1.725-.504-.709-.155-1.329-.347-1.377-.426-.049-.078-.46-.266-.913-.416-1.803-.599-2.556-2.046-2.561-4.922-.005-2.995.692-4.253 2.618-4.729.581-.143 9.803-.146 12.938-.004 2.852.13 2.79.17 3.111-2.004.378-2.563.266-2.627-5.278-3.027-5.909-.427-10.844-.448-13.129-.058m37.615-.274c-.038.037-.884.188-1.88.335-1.111.165-1.98.386-2.25.574-.242.168-.687.39-.989.492-1.081.366-3.296 2.409-3.898 3.595-.191.377-.479.854-.64 1.06-.16.205-.344.652-.407.992-.064.34-.261.901-.437 1.247-.176.345-.396 1.211-.488 1.924a79.53 79.53 0 0 1-.517 3.207c-.396 2.169-.407 11.266-.015 12.207.103.249.301 1.316.44 2.372.145 1.106.388 2.188.573 2.55.176.346.411.966.521 1.378.599 2.244 3.824 5.635 5.804 6.105.246.058.897.302 1.447.542l1 .436 5.333-.006c5.002-.005 5.396-.027 6.334-.358.55-.195 1.487-.442 2.083-.549 2.637-.476 3.143-.988 2.864-2.904-.318-2.182-.338-2.189-5.031-1.656-6.989.795-10.824.221-12.54-1.876-1.535-1.876-2.989-7.486-2.236-8.634l.274-.418 7.626-.052 7.626-.052 1.047-.595c.94-.533 2.703-2.289 2.703-2.692 0-.076.145-.342.322-.59.176-.248.407-.902.513-1.452.106-.55.293-1.352.417-1.782 1.911-6.648-2.097-14.098-8.048-14.96L143.676 47c-1.119-.161-5.049-.236-5.19-.099m41.5.001c-.038.037-.922.186-1.963.331-1.042.144-2.204.409-2.584.589-.379.18-1.027.483-1.439.674-1.8.835-2.482 1.323-4.356 3.118-2.049 1.964-2.183 1.877-2.451-1.589-.193-2.486 0-2.298-2.474-2.405-3.005-.13-2.628-3.845-2.679 26.456l-.044 25.874.357.453.356.454 2.485-.054c1.986-.042 2.517-.103 2.643-.303.094-.149.159-3.672.16-8.683.003-10.044-.115-9.496 1.8-8.339.627.379 1.198.689 1.27.689.072 0 .321.149.553.332.233.183.732.412 1.11.508.378.097 1.062.336 1.52.531 1.582.674 8.41.605 9.236-.093.145-.123.526-.324.847-.448.873-.335 2.996-2.176 2.999-2.599.001-.102.228-.471.505-.819.277-.349.55-.828.607-1.065.057-.237.237-.698.4-1.025 1.627-3.251 2.35-15.89 1.215-21.239-.136-.642-.36-1.767-.497-2.5-.137-.733-.393-1.633-.569-2-.176-.367-.432-.99-.569-1.386-.138-.396-.402-.932-.587-1.192-.185-.261-.337-.537-.338-.614-.006-.766-2.859-2.967-4.2-3.241-.485-.099-1.197-.248-1.581-.332-.729-.158-1.612-.201-1.732-.083m53.764.023c-.092.035-.917.175-1.833.31-5.284.779-8.308 4.429-9.607 11.598-.357 1.971-.298 13.82.077 15.5.498 2.227 1.048 4.068 1.418 4.748.199.365.362.743.362.839 0 1.259 3.734 4.636 5.653 5.112.42.105 1.063.346 1.43.537.958.5 11.023.525 12.25.031.412-.166 1.347-.413 2.076-.548 1.224-.226 2.493-.782 2.895-1.268.105-.127.113-.477.022-.951a10.114 10.114 0 0 1-.152-1.516c-.012-1.206-.249-1.326-2.258-1.142l-4.416.403c-4.411.403-6.066.321-8.488-.422-.993-.305-2.932-2.237-3.184-3.173a5.907 5.907 0 0 0-.504-1.211c-.219-.37-.384-1.107-.494-2.206-.091-.907-.212-2.108-.27-2.668-.142-1.388-.616-1.304 7.856-1.398l7.5-.083 1.025-.536c1.57-.82 3.016-2.427 3.343-3.714.058-.229.239-.721.403-1.092.461-1.043.732-4.725.52-7.075-.63-6.991-4.888-10.209-13.436-10.154-1.112.008-2.096.043-2.188.079m40 .255c-.917.168-1.967.457-2.333.643-.367.186-.93.453-1.25.594-1.185.52-3.572 2.129-5.609 3.781-1.005.815-1.279.964-1.475.801-.25-.207-.277-.328-.589-2.666-.378-2.83-.311-2.772-3.154-2.756-2.065.011-2.077.013-2.191.425-.233.835-.169 36.574.066 36.894.281.385 5.541.348 6.01-.041.251-.209.275-1.366.275-13.447V58.19l.548-.553c.301-.305.882-.8 1.291-1.101.41-.301 1.018-.751 1.353-1 .335-.249.823-.583 1.084-.743.261-.16.849-.527 1.307-.815 3.454-2.17 7.571-2.329 8.264-.318.081.233.271.648.424.923.448.808.555 4.286.544 17.716-.008 9.741.035 12.437.2 12.636.288.347 5.281.276 5.71-.08.399-.333.416-26.353.019-30.132-.651-6.204-4.134-8.708-10.494-7.543m60.333.063c-.916.202-1.891.492-2.166.645-.275.152-.763.392-1.084.531-.581.253-1.715.937-2.938 1.771-.355.243-1.184.93-1.843 1.527-2.054 1.865-2.18 1.798-2.472-1.306-.27-2.874-.192-2.787-2.529-2.835-2.03-.041-2.274.034-2.533.779-.211.604-.266 35.931-.057 36.245.37.554 5.005.864 5.883.394.315-.168.323-.492.323-13.312 0-7.227.047-13.378.105-13.669.1-.5 1.749-2.013 2.195-2.013.087 0 .262-.125.388-.277.125-.152.566-.424.978-.604.413-.18.863-.421 1-.537.907-.764 4.248-1.744 6.14-1.801 1.597-.048 1.61-.059 1.975-1.691.425-1.905.583-3.123.477-3.689l-.107-.568-1.034.022c-.569.012-1.784.187-2.701.388m37.5-.295-2.363.298c-1.352.169-2.083.35-2.665.66-.441.235-.878.429-.97.432-.248.006-1.799 1.021-2.443 1.598-1.15 1.031-2.276 2.766-2.82 4.346-.176.512-.394 1.02-.483 1.128-.09.108-.247.754-.351 1.435a48.876 48.876 0 0 1-.546 2.822c-.489 2.16-.539 10.957-.074 13 .157.687.372 1.887.477 2.666.106.779.326 1.728.49 2.109.164.381.42 1.108.567 1.617.148.508.344.971.437 1.028.092.057.348.459.568.894.719 1.418 3.739 4.019 4.667 4.019.196 0 .64.145.988.323 1.919.978 10.1 1.115 11.895.199.345-.176.965-.41 1.377-.52 1.786-.474 4.601-3.165 5.257-5.024.138-.391.354-.828.479-.97.126-.142.319-.699.429-1.237.11-.539.343-1.394.517-1.9.884-2.571.883-15.859-.002-18.503-.175-.523-.4-1.396-.499-1.938-.1-.543-.299-1.167-.443-1.387a5.898 5.898 0 0 1-.485-1.033c-.534-1.513-3.689-4.677-4.663-4.677-.069 0-.474-.174-.9-.388-1.489-.747-6.127-1.295-8.441-.997m-26.589.72c-.942.221-.906-.477-.962 18.95-.037 13.114-.001 17.962.138 18.222.241.45 5.528.452 6.069.003.272-.227.285-1.275.213-17.75-.078-17.952-.109-18.768-.728-19.281-.266-.221-3.928-.333-4.73-.144m-199.911 5.149c1.295.712 1.472.879 2.119 1.998l.541.935.061 3.124c.068 3.525-.041 3.983-1.228 5.133l-.594.576-6.092.048c-7.174.056-6.558.247-6.552-2.026.018-5.858 1.67-9.15 5.162-10.291 1.224-.399 5.543-.07 6.583.503m35.417.063c.504.284.944.585.978.668.033.083.263.387.511.676 1.844 2.151 2.876 11.803 1.928 18.026-.125.825-.307 2.033-.404 2.685-.761 5.143-5.119 6.942-11.513 4.752a47.845 47.845 0 0 0-1.833-.579c-.505-.146-1.161-.489-1.459-.761l-.541-.495.001-9.718.002-9.717.713-.75c.686-.723 2.068-1.97 3.284-2.965 2.865-2.345 6.139-3.061 8.333-1.822m59.715-.093c3.211 1.669 4.171 8.947 1.491 11.315l-.623.551-5.95.007c-7.189.008-6.801.103-6.689-1.639.046-.699.156-1.684.246-2.188.089-.504.228-1.576.307-2.382.092-.929.263-1.665.468-2.013.178-.302.41-.805.514-1.118.379-1.136 2.206-2.592 3.771-3.006 1.341-.355 5.449-.054 6.465.473m136.618-.009c3.296 1.581 4.312 4.611 4.46 13.309.191 11.192-1.803 14.83-8.126 14.83-5.654 0-7.544-2.932-7.841-12.167-.321-9.935.779-14.108 4.174-15.837 1.9-.968 5.46-1.033 7.333-.135" style="display:inline" transform="translate(-1.12)"/><path fill="#f49508" d="M27 .232c0 .277-.288.356-2.25.61-.825.107-1.913.365-2.417.572-.504.207-1.216.429-1.583.494-.367.064-.892.248-1.168.408-.276.161-.859.414-1.296.563-.437.149-.99.424-1.23.612-.239.188-.514.342-.611.342-.097 0-.444.174-.769.386l-1.593 1.034c-2.13 1.382-5.379 4.503-6.71 6.446a75.61 75.61 0 0 1-1.042 1.463c-.365.502-.664.999-.664 1.105 0 .106-.106.28-.236.388-.13.107-.395.51-.591.895-.195.385-.459.888-.586 1.117-.528.951-1.421 2.959-1.421 3.196 0 .14-.182.598-.406 1.018-.223.42-.486 1.194-.583 1.72-.097.526-.289 1.128-.427 1.339-.596.91-.219 1.991.473 1.355 1.062-.976 2.681-2.137 4.943-3.547 1.928-1.201 2.293-1.415 2.416-1.415.075 0 .368-.176.652-.391a4.634 4.634 0 0 1 1.127-.592c.337-.11.699-.305.805-.433.107-.128.469-.32.805-.427a8.254 8.254 0 0 0 1.279-.569 8.365 8.365 0 0 1 1.333-.586c.367-.116.779-.307.917-.424.137-.117.586-.303.998-.413a8.575 8.575 0 0 0 1.499-.598c.412-.22.867-.4 1.01-.4.143 0 .632-.182 1.085-.404a10.08 10.08 0 0 1 1.574-.599c.413-.107.867-.298 1.009-.425.142-.126.759-.335 1.372-.463.613-.129 1.304-.359 1.537-.511.233-.153.853-.356 1.378-.452.525-.096 1.179-.311 1.454-.477.275-.166 1.082-.42 1.794-.565.711-.145 1.502-.372 1.757-.504.255-.132.948-.327 1.54-.435.592-.107 1.376-.328 1.743-.492.366-.163 1.191-.387 1.833-.497.642-.11 1.579-.34 2.083-.512.504-.171 1.48-.4 2.167-.509.688-.108 1.587-.326 2-.485.413-.159 1.313-.34 2-.401 1.617-.145 4.969-.89 5.482-1.218l.398-.256-.795-.522C49.504 4.733 48.572 4.168 48 3.901a8.012 8.012 0 0 1-1-.564c-.229-.16-.717-.387-1.083-.504-.367-.117-.873-.357-1.124-.533-.251-.176-.738-.365-1.083-.418-.345-.054-.964-.268-1.377-.476-.439-.222-1.356-.456-2.212-.566-1.708-.218-1.954-.295-1.954-.608 0-.194-.922-.232-5.584-.232C27.925 0 27 .038 27 .232m32.25 19.091a5.754 5.754 0 0 0-1.075.421c-.317.165-1.059.4-1.649.524-.59.123-1.248.339-1.461.479-.214.14-.785.338-1.269.441-.483.102-1.142.318-1.463.479-.321.16-.996.378-1.5.483-.504.106-1.479.369-2.166.585-1.186.372-2.285.705-6.334 1.917-.962.288-2.087.642-2.5.787-.412.144-1.2.373-1.75.509-.55.135-1.337.391-1.75.568a9.187 9.187 0 0 1-1.583.48c-.458.087-1.202.349-1.653.581-.451.233-1.06.423-1.353.423-.293 0-.715.144-.939.32-.223.175-.814.426-1.314.558-.499.131-1.199.437-1.556.68-.356.243-.753.442-.882.442-.376 0-2.404 2.185-2.757 2.972-1.232 2.745.266 6.388 3.134 7.621.282.122.61.338.729.481.118.143.311.259.428.259.117 0 .648.23 1.181.51s1.5.611 2.149.735c.65.125 1.44.374 1.757.555.317.18 1.025.377 1.573.437s1.169.222 1.38.36c.212.139 1.054.395 1.873.57.819.175 1.66.426 1.869.558.21.132.88.324 1.489.426.61.103 1.435.327 1.834.499.398.173 1.1.361 1.558.419.458.059 1.321.284 1.917.501.595.218 1.567.484 2.159.593.593.109 1.288.307 1.546.441.258.133.879.318 1.379.411.499.092 1.229.308 1.62.48.392.172 1.197.4 1.789.506.592.106 1.267.291 1.5.41.233.119.873.315 1.423.435s1.33.391 1.733.603c1.361.714 2.252.441 2.431-.746.051-.34.236-1.144.411-1.786.176-.642.404-1.692.508-2.333.104-.642.33-2.03.504-3.084 1.044-6.34.751-11.406-1.083-18.75a19.441 19.441 0 0 0-.621-2 19.657 19.657 0 0 1-.552-1.634c-.36-1.298-.944-1.545-2.664-1.126m332.5 15.01c-.367.177-.73.325-.807.328-.729.029-2.404 2.237-2.635 3.473-.439 2.346.015 3.873 1.609 5.413 1.469 1.42 4.663 1.755 6.463.679.501-.301 1.62-1.313 1.623-1.47.002-.095.227-.503.5-.906.692-1.021.746-3.603.097-4.56-.22-.324-.445-.731-.5-.904-.133-.419-1.369-1.429-2.1-1.716a5.866 5.866 0 0 1-.912-.45c-.512-.343-2.536-.274-3.338.113M3.167 54.416c-.166.201-.152.332.073.676.154.234.419.928.59 1.542.397 1.425.935 3.054 1.36 4.116.184.458.437 1.217.564 1.685.126.468.374 1.106.551 1.417.176.31.41.939.52 1.396.11.457.272.918.36 1.024.088.106.338.707.555 1.336.594 1.717 1.198 3.231 1.582 3.969.19.363.345.75.345.86 0 .11.225.675.5 1.256.274.582.499 1.158.5 1.281 0 .124.138.424.308.667.17.243.432.811.583 1.262.151.451.377.938.504 1.083.126.145.326.564.443.93.118.366.39.996.605 1.4.214.403.39.858.39 1.01 0 .877.224.928 3.862.874 3.762-.055 8.593-.403 10.888-.783.825-.137 1.912-.25 2.417-.251.504-.001 1.779-.153 2.833-.34 1.054-.186 2.442-.41 3.083-.497 1.583-.217 2.852-.469 3.75-.747.413-.127 1.2-.342 1.75-.476 1.237-.302 2.786-.838 3.667-1.268a92.17 92.17 0 0 1 1.417-.673c3.384-1.57 4.676-3.742 4.059-6.825-.13-.65-1.989-2.578-2.644-2.742-.243-.061-.717-.289-1.054-.506-.336-.217-.874-.446-1.195-.509-.321-.062-1.071-.285-1.666-.495-.596-.209-1.421-.433-1.834-.497a9.803 9.803 0 0 1-1.583-.425 19.697 19.697 0 0 0-1.833-.554 18.348 18.348 0 0 1-1.716-.513c-.394-.148-1.181-.337-1.75-.42-.569-.083-1.262-.268-1.54-.41-.279-.142-1.066-.343-1.75-.447a14.757 14.757 0 0 1-2.328-.582 16.41 16.41 0 0 0-1.963-.565c-.484-.096-1.054-.288-1.268-.428-.213-.14-.994-.361-1.735-.491-.74-.13-1.557-.344-1.815-.475s-.994-.328-1.635-.438c-.642-.11-1.505-.349-1.917-.532-.413-.183-1.275-.394-1.917-.467-.646-.075-1.427-.286-1.75-.474-.321-.186-.921-.391-1.333-.456-.412-.065-1.162-.289-1.667-.497a8.678 8.678 0 0 0-1.833-.498c-.504-.065-1.231-.255-1.615-.421-.383-.167-1.125-.392-1.647-.5-.522-.109-1.287-.378-1.701-.598-.415-.22-.858-.4-.986-.4s-.585-.187-1.016-.417c-.909-.484-1.087-.506-1.368-.167M42 94.828c-2.015.576-2.411.662-5.348 1.168-1.612.277-3.471.504-4.131.504-.661 0-1.892.076-2.736.169-.844.094-2.898.23-4.565.304-4.354.192-4.273-.084-1.501 5.11.147.275.395.763.55 1.084.156.32.53 1.033.831 1.583.302.55.731 1.384.955 1.854.224.469.486.901.581.96.095.059.263.388.372.73.11.342.33.773.489.956.16.183.377.593.483.909.106.317.333.73.503.917.17.187.399.621.509.963.109.343.277.671.372.73.095.059.359.491.585.961.952 1.971 1.84 3.32 2.302 3.497.245.094.721-.595 1.506-2.182.237-.48.508-.919.601-.977.093-.058.319-.415.501-.795.182-.379.584-1.14.892-1.69.309-.55.751-1.375.983-1.833.232-.458.687-1.283 1.011-1.833.324-.55.745-1.338.934-1.75.19-.413.442-.863.562-1 .119-.138.305-.526.413-.862.108-.336.301-.699.429-.805.128-.106.321-.469.429-.805.108-.336.331-.762.497-.945.166-.183.451-.681.633-1.107.182-.425.41-.822.506-.882.097-.059.261-.422.364-.805.103-.383.358-.9.567-1.148.209-.248.428-.711.488-1.029.06-.319.223-.674.363-.79 1.366-1.133.274-1.79-1.93-1.161" style="display:inline" transform="translate(-1.12)"/></svg>