<svg xmlns="http://www.w3.org/2000/svg" viewBox="0 0 56.191 55.399"><path d="M5.07 7.386h48v48h-48z" style="fill:#fff"/><path d="M4.715 0A4.73 4.73 0 0 0 0 4.715v50.684h12.524c-2.54-.563-4.542-1.432-5.681-2.305l2.492-5.982c2.43 1.558 5.794 2.68 9.47 2.68 4.05 0 7.726-2.181 7.726-6.231 0-2.741-1.807-4.61-5.856-6.792-4.859-2.616-8.535-5.918-8.535-10.965 0-8.037 6.977-13.021 15.45-13.021 4.673 0 7.663 1.122 9.346 2.118l-2.367 5.981c-1.371-.748-4.175-1.931-7.601-1.869-4.61 0-7.227 2.679-7.227 5.483 0 2.866 2.367 4.61 6.292 6.79 5.109 2.679 8.162 6.043 8.162 11.152 0 6.717-4.378 11.358-10.898 12.959h13.568l5.677-30.341h7.227l-5.616 30.341h7.323a4.73 4.73 0 0 0 4.715-4.715V0ZM47.4 20.697h-.062c-2.18 0-3.676-1.558-3.676-3.863 0-2.554 1.994-4.361 4.361-4.361 2.306 0 3.863 1.558 3.863 3.863-.062 2.679-2.056 4.361-4.486 4.361z" style="fill:#ba0c2f"/></svg>