<svg xmlns="http://www.w3.org/2000/svg" viewBox="0 0 189.14 56.022"><path d="M5.07 7.386h48v48h-48z" style="fill:#fff"/><path d="M4.715 0A4.73 4.73 0 0 0 0 4.715v50.684h12.524c-2.54-.563-4.542-1.432-5.681-2.305l2.492-5.982c2.43 1.558 5.794 2.68 9.47 2.68 4.05 0 7.726-2.181 7.726-6.231 0-2.741-1.807-4.61-5.856-6.792-4.859-2.616-8.535-5.918-8.535-10.965 0-8.037 6.977-13.021 15.45-13.021 4.673 0 7.663 1.122 9.346 2.118l-2.367 5.981c-1.371-.748-4.175-1.931-7.601-1.869-4.61 0-7.227 2.679-7.227 5.483 0 2.866 2.367 4.61 6.292 6.79 5.109 2.679 8.162 6.043 8.162 11.152 0 6.717-4.378 11.358-10.898 12.959h13.568l5.677-30.341h7.227l-5.616 30.341h7.323a4.73 4.73 0 0 0 4.715-4.715V0H4.715zM47.4 20.697h-.062c-2.18 0-3.676-1.558-3.676-3.863 0-2.554 1.994-4.361 4.361-4.361 2.306 0 3.863 1.558 3.863 3.863-.062 2.679-2.056 4.361-4.486 4.361z" style="fill:#ba0c2f"/><path d="M71.632 19.825H60.67v-6.417h29.712v6.417H79.295v35.574h-7.663V19.825zM97.671 20.697c-2.554 0-4.236-1.869-4.236-4.112 0-2.367 1.744-4.174 4.299-4.174 2.616 0 4.236 1.807 4.299 4.174 0 2.243-1.683 4.112-4.299 4.112h-.063zm-3.8 34.702V25.058h7.663v30.341h-7.663zM108.075 34.092c0-3.489-.125-6.417-.25-9.034h6.542l.374 4.486h.187c1.434-2.368 4.175-5.171 9.346-5.171 3.987 0 7.102 2.243 8.41 5.607h.125c1.059-1.682 2.305-2.928 3.676-3.8 1.744-1.184 3.676-1.807 6.23-1.807 4.983 0 10.093 3.427 10.093 13.146v17.88h-7.477V38.64c0-5.046-1.744-8.037-5.42-8.037-2.617 0-4.548 1.869-5.358 4.049-.249.686-.374 1.682-.374 2.555v18.192h-7.476V37.83c0-4.237-1.683-7.227-5.233-7.227-2.866 0-4.797 2.243-5.545 4.299a8.745 8.745 0 0 0-.374 2.554v17.943h-7.476V34.092zM164.458 42.379c.187 5.482 4.485 7.85 9.345 7.85 3.552 0 6.044-.561 8.411-1.37l1.121 5.233c-2.616 1.121-6.229 1.931-10.591 1.931-9.844 0-15.638-6.043-15.638-15.326 0-8.411 5.108-16.323 14.828-16.323 9.843 0 13.083 8.1 13.083 14.766 0 1.434-.125 2.555-.249 3.24h-20.31zm13.332-5.359c.062-2.804-1.184-7.414-6.292-7.414-4.735 0-6.729 4.299-7.04 7.414h13.332zM186.917 24.723c1.234 0 2.223.975 2.223 2.184 0 1.235-.988 2.21-2.236 2.21-1.261 0-2.274-.975-2.274-2.21 0-1.209 1.014-2.184 2.274-2.184h.013zm-.039.508c-.923 0-1.625.741-1.625 1.69 0 .936.702 1.69 1.638 1.69.937.013 1.625-.754 1.625-1.69 0-.949-.688-1.69-1.625-1.69h-.013zM186.592 28h-.585v-2.093c.169-.039.48-.078.871-.078.441 0 .637.065.78.169.13.078.221.234.221.442 0 .234-.195.416-.455.494v.026c.221.078.338.247.403.533.064.299.104.429.143.507h-.624c-.065-.078-.104-.26-.156-.481-.039-.221-.156-.312-.39-.312h-.208V28zm.013-1.197h.208c.247 0 .43-.091.43-.286 0-.182-.131-.286-.403-.286-.105 0-.183.013-.234.013v.559z" style="fill:#fff"/></svg>