<svg xmlns="http://www.w3.org/2000/svg" style="clip-rule:evenodd;fill-rule:evenodd" viewBox="0 0 167.212 24"><path d="M8.48.81C3.711.81.607 3.37.607 7.145c0 3.807 2.752 5.215 5.407 5.823l4.672.96c2.144.448 3.008 1.216 3.008 2.848 0 1.952-1.632 3.328-4.512 3.328S4.16 18.76 3.648 16.008L0 16.776c.544 4.16 4.32 6.367 8.863 6.367 4.928 0 8.223-2.528 8.223-6.56 0-3.359-2.304-5.15-5.503-5.855l-4.64-.991c-1.856-.384-2.72-1.184-2.72-2.688 0-1.888 1.664-3.264 4.192-3.264 2.56 0 4.512 1.504 4.896 3.776l3.423-.704C15.966 3.177 12.831.809 8.48.809ZM20.489 1.258v21.437h3.423v-7.551h6.24c4.735 0 7.71-2.816 7.71-6.975 0-4.096-2.975-6.911-7.71-6.911h-9.663Zm3.423 10.75V4.361h6.24c2.687 0 4.287 1.6 4.287 3.808 0 2.304-1.6 3.84-4.287 3.84zM57.904 22.695l-9.44-21.437h-3.199l-9.439 21.437h3.712l2.112-4.991h10.43l2.112 4.991h3.712Zm-7.167-8.127h-7.743l3.871-9.119 3.872 9.12zM78.233 22.695 70.49 14.12c4.063-.224 6.751-2.72 6.751-6.4 0-3.87-2.944-6.462-7.36-6.462H59.804v21.437h3.424v-8.543h3.103l7.647 8.543h4.256zM63.227 11.048V4.361h6.655c2.368 0 3.935 1.344 3.935 3.36 0 1.984-1.567 3.327-3.935 3.327z" style="fill:#fff;fill-opacity:1;stroke-width:.00504745"/><path d="m16916.73 2708.73 1870.05 1787.64h919.17L17442.87 2379.1 19566.5 249.14h-843.11l-1857.38 1838.35h-183.83V249.14h-678.3v4247.23h678.3V2708.73z" style="fill:#fff;fill-opacity:1" transform="scale(.00505)"/><path d="M106.953 24h53.219v-.016h2.286a4.768 4.768 0 0 0 4.754-4.755V4.775A4.768 4.768 0 0 0 162.458.02h-1.906V0h-54.497l-12 12 12.899 12zm.003-21.299v18.928h5.848v-5.198h3.73c4.435 0 7.373-2.768 7.373-6.978 0-4.011-2.74-6.752-6.893-6.752h-10.057zm5.848 9.21V7.447h2.882c1.384 0 2.486.905 2.486 2.176 0 1.384-1.101 2.288-2.486 2.288h-2.882zm31.755-9.21h-5.82v9.492l-8.25-9.492h-4.802v18.928h5.848v-9.125l8.25 9.125h4.774V2.701Zm19.267 4.944V2.701h-17.544v4.944h5.848v13.984h5.848V7.645h5.848z" style="stroke-width:.00504745;fill:#fff"/></svg>