<svg xmlns="http://www.w3.org/2000/svg" viewBox="0 0 748.36 283.46"><g id="Logo" transform="translate(-230.53 -252.5)"><circle id="circle1" cx="372.26" cy="394.23" r="141.73" style="fill:#eb0000"/><path id="path1" d="M343.92 317.46c-12.97 0-23.62 10.65-23.62 23.62 0 13.13 10.65 23.62 23.62 23.62 13.14 0 23.62-10.49 23.62-23.62 0-12.96-10.48-23.62-23.62-23.62z" style="fill:#fff"/><g id="g5"><path id="path2" d="M532.78 488.72v-165.4h32.38v61.5c4.04-5.28 9.04-9.43 15.03-12.46 5.98-3.03 13-4.54 21.08-4.54 16.15 0 29 5.32 38.55 15.96 9.55 10.64 14.33 25.9 14.33 45.77 0 19.88-4.78 35.18-14.33 45.89-9.55 10.72-22.4 16.07-38.55 16.07-8.54 0-15.92-1.67-22.13-5.01-6.21-3.34-11.34-7.88-15.37-13.63v15.84h-30.99zm59.64-25.86c9 0 16.07-2.79 21.2-8.39 5.12-5.59 7.69-13.9 7.69-24.93s-2.56-19.29-7.69-24.81c-5.13-5.51-12.19-8.27-21.2-8.27s-16.04 2.76-21.08 8.27c-5.05 5.51-7.57 13.78-7.57 24.81s2.52 19.33 7.57 24.93c5.04 5.59 12.07 8.39 21.08 8.39z"/><path id="path3" d="M674.41 488.72v-165.4h32.38v165.39h-32.38z"/><path id="path4" d="M787.16 491.51c-18.79 0-33.78-5.24-44.96-15.72s-16.77-25.89-16.77-46.24c0-20.34 5.59-35.72 16.77-46.12 11.18-10.4 26.17-15.61 44.96-15.61s33.78 5.2 44.96 15.61 16.77 25.78 16.77 46.12c0 20.35-5.59 35.76-16.77 46.24-11.18 10.48-26.17 15.72-44.96 15.72zm0-28.65c9.16 0 16.27-2.79 21.31-8.39 5.04-5.59 7.57-13.9 7.57-24.93s-2.53-19.29-7.57-24.81c-5.05-5.51-12.15-8.27-21.31-8.27-9.17 0-16.27 2.76-21.32 8.27-5.05 5.51-7.57 13.78-7.57 24.81s2.52 19.33 7.57 24.93c5.05 5.59 12.15 8.39 21.32 8.39z"/><path id="path5" d="m850.29 488.72 44.03-59.4-42.63-58.7h38.67l25.63 36.11 25.86-36.11h35.64l-42.63 58.47 44.03 59.63h-38.9l-27.02-37.04-26.56 37.04z"/></g><g id="g6"><path id="path6" d="M429.13 491.51c-13.67 0-24.69-3.65-33.08-10.95-8.39-7.3-12.58-18.87-12.58-34.71v-75.24h32.38v69.88c0 7.77 1.86 13.43 5.59 17 3.73 3.57 9.24 5.36 16.54 5.36 7.61 0 13.66-2.17 18.17-6.52 4.5-4.35 6.76-11.26 6.76-20.73v-64.99h32.38v118.11h-31.45v-13.51c-8.23 10.87-19.8 16.3-34.71 16.3z" style="fill:#fff"/></g></g></svg>