<svg xmlns="http://www.w3.org/2000/svg" viewBox="0 0 283.36 283.46"><g id="Logo" transform="translate(-230.53 -252.5)"><circle id="circle1" cx="372.26" cy="394.23" r="141.73" style="fill:#eb0000"/><path id="path1" d="M343.92 317.46c-12.97 0-23.62 10.65-23.62 23.62 0 13.13 10.65 23.62 23.62 23.62 13.14 0 23.62-10.49 23.62-23.62 0-12.96-10.48-23.62-23.62-23.62z" style="fill:#fff"/><g id="g6"><path id="path6" d="M429.13 491.51c-13.67 0-24.69-3.65-33.08-10.95-8.39-7.3-12.58-18.87-12.58-34.71v-75.24h32.38v69.88c0 7.77 1.86 13.43 5.59 17 3.73 3.57 9.24 5.36 16.54 5.36 7.61 0 13.66-2.17 18.17-6.52 4.5-4.35 6.76-11.26 6.76-20.73v-64.99h32.38v118.11h-31.45v-13.51c-8.23 10.87-19.8 16.3-34.71 16.3z" style="fill:#fff"/></g></g></svg>